/* XPM */
static char *dummy[]={
"16 16 2 1",
". c #353325",
"# c #6e5833",
"................",
".##.##.##.##.##.",
".##.##.##.##.##.",
"................",
".##.##.##.##.##.",
".##.##.##.##.##.",
"................",
".##.##.##.##.##.",
".##.##.##.##.##.",
"................",
".##.##.##.##.##.",
".##.##.##.##.##.",
"................",
".##.##.##.##.##.",
".##.##.##.##.##.",
"................"};
