/* XPM */
static char *dummy[]={
"16 16 2 1",
". c #201305",
"# c #353325",
"................",
".##.##.##.##.##.",
".##.##.##.##.##.",
"................",
".##.##.##.##.##.",
".##.##.##.##.##.",
"................",
".##.##.##.##.##.",
".##.##.##.##.##.",
"................",
".##.##.##.##.##.",
".##.##.##.##.##.",
"................",
".##.##.##.##.##.",
".##.##.##.##.##.",
"................"};
