/* XPM */
static char *dummy[]={
"6 6 2 1",
". c #353325",
"# c #6e5833",
"......",
"######",
"######",
"######",
"######",
"......"};
