/* XPM */
static char *dummy[]={
"31 23 78 2",
"#l c #614e2d",
".j c #64502e",
"#i c #64502f",
".g c #665130",
"#k c #695331",
"#h c #6c5632",
".i c #6c5732",
".k c #6d5732",
".h c #6e5833",
".e c #715b34",
".f c #725a34",
".d c #735c35",
".c c #776138",
"#j c #7a6238",
".# c #7c6439",
".a c #7c6539",
".s c #7c6847",
".z c #7c6848",
".b c #7d6539",
".H c #7d6a49",
"Qt c #7e653a",
".X c #7e6b4b",
".1 c #7f6c4c",
".7 c #806e4e",
".n c #837152",
".t c #857355",
".A c #867456",
".2 c #867457",
".J c #877658",
".O c #88775a",
".9 c #8a7a5d",
"#b c #8b7a5e",
".4 c #8b7b5f",
".P c #8f7f64",
".8 c #908065",
".D c #908066",
".E c #918267",
".o c #928268",
".L c #94846b",
"#e c #94856b",
".U c #95856c",
"#f c #9b8d75",
".w c #a0937d",
".S c #a39681",
".Y c #a59884",
".r c #c4bdb2",
".K c #c6bfb5",
".y c #c7c1b6",
".W c #c7c1b7",
".G c #c8c2b8",
".0 c #cbc6bd",
".6 c #ccc6bd",
"#. c #ccc7be",
".V c #cfcac2",
".u c #cfcbc3",
".M c #d0cbc4",
"#a c #d0ccc5",
".R c #d1cdc6",
".B c #d2cec7",
".I c #d3cfc8",
".3 c #d3cfc9",
".C c #d4d0ca",
".N c #d4d1ca",
"#c c #d6d2cc",
".Z c #d6d3cd",
".Q c #d8d5cf",
".5 c #d8d5d0",
".F c #dad7d3",
".m c #dbd9d4",
".x c #dbd9d5",
"#d c #dfddda",
".p c #e3e2e0",
"## c #e4e3e1",
".v c #e4e3e2",
"#g c #e6e5e4",
".q c #e8e7e7",
".T c #e8e8e8",
".l c #e9e9e9",
"Qt.#.a.a.a.a.a.a.a.a.a.a.a.a.a.a.a.a.a.a.a.a.a.a.a.a.a.a.a.b.c",
".#.d.e.e.e.e.e.e.e.e.e.e.e.e.e.e.e.e.e.e.e.e.e.e.e.e.e.e.e.f.g",
".a.e.h.h.h.h.h.h.h.h.h.h.h.h.h.h.h.h.h.h.h.h.h.h.h.h.h.h.h.i.j",
".a.e.h.h.h.h.h.h.h.h.h.h.h.h.h.h.h.h.h.h.h.h.h.h.h.h.h.h.h.k.j",
".a.e.h.h.h.h.h.h.h.h.h.h.h.h.h.h.h.h.h.h.h.h.h.h.h.h.h.h.h.k.j",
".a.e.h.h.h.h.h.h.h.l.m.n.h.h.h.h.h.h.h.o.p.l.h.h.h.h.h.h.h.k.j",
".a.e.h.h.h.h.h.h.h.q.l.r.s.h.h.h.h.h.t.u.l.v.h.h.h.h.h.h.h.k.j",
".a.e.h.h.h.h.h.h.h.w.x.l.y.z.h.h.h.A.B.l.C.D.h.h.h.h.h.h.h.k.j",
".a.e.h.h.h.h.h.h.h.h.E.F.l.G.H.h.A.I.l.I.J.h.h.h.h.h.h.h.h.k.j",
".a.e.h.h.h.h.h.h.h.h.h.D.m.l.K.L.M.l.N.O.h.h.h.h.h.h.h.h.h.k.j",
".a.e.h.h.h.h.h.h.h.h.h.h.P.Q.l.q.l.R.J.h.h.h.h.h.h.h.h.h.h.k.j",
".a.e.h.h.h.h.h.h.h.h.h.h.h.S.l.l.T.U.h.h.h.h.h.h.h.h.h.h.h.k.j",
".a.e.h.h.h.h.h.h.h.h.h.h.A.V.l.l.l.W.X.h.h.h.h.h.h.h.h.h.h.k.j",
".a.e.h.h.h.h.h.h.h.h.h.A.B.l.M.Y.Z.l.0.1.h.h.h.h.h.h.h.h.h.k.j",
".a.e.h.h.h.h.h.h.h.h.2.R.l.3.2.h.4.5.l.6.7.h.h.h.h.h.h.h.h.k.j",
".a.e.h.h.h.h.h.h.h.8.3.l.R.A.h.h.h.9.Q.l#..O.h.h.h.h.h.h.h.k.j",
".a.e.h.h.h.h.h.h.h##.l#a.A.h.h.h.h.h#b#c.l#d.h.h.h.h.h.h.h.k.j",
".a.e.h.h.h.h.h.h.h.l###e.h.h.h.h.h.h.h#f#g.l.h.h.h.h.h.h.h.k.j",
".a.e.h.h.h.h.h.h.h.h.h.h.h.h.h.h.h.h.h.h.h.h.h.h.h.h.h.h.h.k.j",
".a.e.h.h.h.h.h.h.h.h.h.h.h.h.h.h.h.h.h.h.h.h.h.h.h.h.h.h.h.k.j",
".a.e.h.h.h.h.h.h.h.h.h.h.h.h.h.h.h.h.h.h.h.h.h.h.h.h.h.h.h.k.j",
".b.e#h.k.k.k.k.k.k.k.k.k.k.k.k.k.k.k.k.k.k.k.k.k.k.k.k.k.k#h#i",
"#j#k.j.j.j.j.j.j.j.j.j.j.j.j.j.j.j.j.j.j.j.j.j.j#i.j.j.j.j#i#l"};
