/* XPM */
static char *dummy[]={
"31 23 72 2",
"#f c #2d2c20",
".n c #302e20",
"#d c #302e21",
".j c #302f20",
"#e c #322f20",
"#c c #333124",
"#b c #333224",
".m c #343224",
".l c #353325",
".i c #373426",
".W c #373526",
".h c #383526",
".g c #383627",
".v c #3f3d30",
".J c #403e31",
".1 c #413f32",
".6 c #424134",
".f c #443e2d",
".b c #443f2d",
".# c #453f2d",
".F c #453f2e",
".T c #45402d",
".k c #45402e",
".q c #454336",
".w c #454337",
".Q c #463f2d",
".a c #46402d",
".c c #46402e",
".d c #46412e",
".B c #464437",
".e c #47402e",
".2 c #474538",
".L c #474639",
".P c #48463a",
".7 c #49483b",
".3 c #4a483c",
"Qt c #4b4431",
".R c #4d4b3f",
".E c #4e4c40",
".G c #4e4d41",
".r c #4f4d41",
".N c #514f43",
".V c #515044",
"## c #555448",
".z c #5a584d",
".U c #5b5a4f",
".Y c #5d5b50",
".u c #747369",
".M c #75746b",
".A c #76756c",
".I c #77756c",
".0 c #79786f",
".5 c #797870",
".X c #7c7a72",
".x c #7c7b73",
".8 c #7d7c73",
".C c #7e7d74",
".K c #7e7d75",
".D c #7f7e76",
".O c #807f76",
".9 c #817f77",
".Z c #818078",
".S c #828179",
".4 c #83827a",
".H c #84837b",
".p c #85847c",
"#. c #88877f",
".s c #8a8982",
".y c #8b8a83",
"#a c #8d8c84",
".t c #8e8d86",
".o c #8f8e87",
"Qt.#.a.a.a.a.a.a.a.a.a.a.b.a.a.a.a.a.a.a.a.a.a.c.c.c.c.c.c.d.e",
".f.g.h.h.h.h.h.h.h.h.h.h.h.h.h.h.h.h.h.h.h.h.h.i.i.i.i.i.i.i.j",
".k.h.l.l.l.l.l.l.l.l.l.l.l.l.l.l.l.l.l.l.l.l.l.l.l.l.l.l.l.m.n",
".k.h.l.l.l.l.l.l.l.l.l.l.l.l.l.l.l.l.l.l.l.l.l.l.l.l.l.l.l.m.n",
".k.h.l.l.l.l.l.l.l.l.l.l.l.l.l.l.l.l.l.l.l.l.l.l.l.l.l.l.l.m.n",
".k.h.l.l.l.l.l.l.l.o.p.q.l.l.l.l.l.l.l.r.s.o.l.l.l.l.l.l.l.m.n",
".k.h.l.l.l.l.l.l.l.t.o.u.v.l.l.l.l.l.w.x.o.y.l.l.l.l.l.l.l.m.n",
".k.h.l.l.l.l.l.l.l.z.p.o.A.v.l.l.l.B.C.o.D.E.l.l.l.l.l.l.l.m.n",
".F.h.l.l.l.l.l.l.l.l.G.H.o.I.J.l.B.K.o.K.L.l.l.l.l.l.l.l.l.m.n",
".F.h.l.l.l.l.l.l.l.l.l.E.p.o.M.N.x.o.O.P.l.l.l.l.l.l.l.l.l.m.n",
".Q.h.l.l.l.l.l.l.l.l.l.l.R.S.o.t.o.C.L.l.l.l.l.l.l.l.l.l.l.m.n",
".T.h.l.l.l.l.l.l.l.l.l.l.l.U.o.o.t.V.l.l.l.l.l.l.l.l.l.l.l.m.n",
".k.W.l.l.l.l.l.l.l.l.l.l.B.X.o.o.o.A.J.l.l.l.l.l.l.l.l.l.l.m.n",
".k.i.l.l.l.l.l.l.l.l.l.B.K.o.x.Y.Z.o.0.1.l.l.l.l.l.l.l.l.l.m.n",
".c.i.l.l.l.l.l.l.l.l.2.C.o.D.2.l.3.4.o.5.6.l.l.l.l.l.l.l.l.m.n",
".c.i.l.l.l.l.l.l.l.E.D.o.C.B.l.l.l.7.S.o.5.P.l.l.l.l.l.l.l.m.n",
".k.i.l.l.l.l.l.l.l.y.o.8.B.l.l.l.l.l.3.9.o#..l.l.l.l.l.l.l.m.n",
".k.i.l.l.l.l.l.l.l.o.y.N.l.l.l.l.l.l.l###a.o.l.l.l.l.l.l.l.m.n",
".c.W.l.l.l.l.l.l.l.l.l.l.l.l.l.l.l.l.l.l.l.l.l.l.l.l.l.l.l.m.n",
".a.h.l.l.l.l.l.l.l.l.l.l.l.l.l.l.l.l.l.l.l.l.l.l.l.l.l.l.l.m.n",
".k.h.l.l.l.l.l.l.l.l.l.l.l.l.l.l.l.l.l.l.l.l.l.l.l.l.l.l.l.m.n",
".k.i#b.m.m.m.m.m.m.m.m.m.m.m.m.m.m.m.m.m.m.m.m.m.m.m.m.m.m#c#d",
".e#e.n.n.n.n.n.n.n.n.n.n#f.n.n.n.n.n.n.n.n.n.n.n#d.n.n.n.n#d#e"};
