/* XPM */
static char *dummy[]={
"31 23 30 1",
"B c #2d2c20",
"n c #302e20",
"z c #302e21",
"j c #302f20",
"A c #322f20",
"y c #333124",
"x c #333224",
"m c #343224",
"l c #353325",
"i c #373426",
"r c #373526",
"h c #383526",
"g c #383627",
"v c #3e3c2f",
"f c #443e2d",
"b c #443f2d",
"# c #453f2d",
"o c #453f2e",
"q c #45402d",
"k c #45402e",
"p c #463f2d",
"a c #46402d",
"c c #46402e",
"d c #46412e",
"e c #47402e",
". c #4b4431",
"s c #5c5a4f",
"w c #888780",
"t c #8b8a83",
"u c #8f8e87",
".#aaaaaaaaaabaaaaaaaaaaccccccde",
"fghhhhhhhhhhhhhhhhhhhhhiiiiiiij",
"khlllllllllllllllllllllllllllmn",
"khlllllllllllllllllllllllllllmn",
"khlllllllllllllllllllllllllllmn",
"khlllllllllllllllllllllllllllmn",
"khlllllllllllllllllllllllllllmn",
"khlllllllllllllllllllllllllllmn",
"ohlllllllllllllllllllllllllllmn",
"ohlllllllllllllllllllllllllllmn",
"phlllllllllllllllllllllllllllmn",
"qhlllllllllllllllllllllllllllmn",
"krlllllllllllllllllllllllllllmn",
"killlllllllllllllllllllllllllmn",
"cilllllllstuuuuuuuuutslllllllmn",
"cillllllluuuuuuuuuuuuulllllllmn",
"killlllllvwuuuuuuuuuwvlllllllmn",
"killlllllllllllllllllllllllllmn",
"crlllllllllllllllllllllllllllmn",
"ahlllllllllllllllllllllllllllmn",
"khlllllllllllllllllllllllllllmn",
"kixmmmmmmmmmmmmmmmmmmmmmmmmmmyz",
"eAnnnnnnnnnnBnnnnnnnnnnnznnnnzA"};
