/* XPM */
static char *dummy[]={
"31 23 29 1",
"A c #83692f",
"l c #856c2e",
"w c #856c2f",
"z c #856d2f",
"g c #867132",
"y c #887233",
"v c #8a783b",
"k c #8a7842",
"t c #8a7843",
"m c #8b7952",
"i c #8b7953",
"h c #8b7954",
"j c #8b7955",
"s c #8b7956",
"f c #8d7b41",
"u c #8e7b41",
"d c #8e7b4a",
"e c #8e7b4b",
"c c #8f7c46",
"a c #94813d",
"q c #958461",
"x c #96823d",
"b c #968342",
"# c #978441",
". c #978442",
"n c #b4a993",
"r c #e2e1de",
"o c #e5e4e2",
"p c #e9e9e9",
"..###########################.a",
"bcddddddddddddddddddddddddddefg",
"#dhiiiiiiiiiiiiiiiiiiiiiiiiijkl",
"#dimmmmmmmmmmmmmmmmmmmmmmmmmhkl",
"#dimmmmmmmmmmmmmmmmmmmmmmmmmhkl",
"#dimmmmmmmmmmmmmmmmmmmmmmmmmhkl",
"#dimmmmmmmmmmmmmmmmmmmmmmmmmhkl",
"#dimmmmmmmmmmmmmmmmmmmmmmmmmhkl",
"#dimmmmmmmmmmmmmmmmmmmmmmmmmhkl",
"#dimmmmmmmmmmmmmmmmmmmmmmmmmhkl",
"#dimmmmmmmmmmmmmmmmmmmmmmmmmhkl",
"#dimmmmmmmmmmmmmmmmmmmmmmmmmhkl",
"#dimmmmmmmmmmmmmmmmmmmmmmmmmhkl",
"#dimmmmmmmmmmmmmmmmmmmmmmmmmhkl",
"#dimmmmmmnoppppppppponmmmmmmhkl",
"#dimmmmmmpppppppppppppmmmmmmhkl",
"#dimmmmmmqrppppppppprqmmmmmmhkl",
"#dimmmmmmmmmmmmmmmmmmmmmmmmmhkl",
"#dimmmmmmmmmmmmmmmmmmmmmmmmmhkl",
"#dimmmmmmmmmmmmmmmmmmmmmmmmmhkl",
"#ejhhhhhhhhhhhhhhhhhhhhhhhhhstl",
"#utkkkkkkkkkkkkkkkkkkkkkkkkktvw",
"xyllllllllllllllllllllllzllllwA"};
