/* XPM */
static char *dummy[]={
"31 23 22 1",
"t c #67522e",
"j c #67522f",
"g c #695330",
"s c #6a5431",
"q c #6c5632",
"i c #6c5732",
"k c #6d5732",
"h c #6e5833",
"e c #715b34",
"f c #725a34",
"d c #735c35",
"c c #7a6338",
"o c #7b6746",
"r c #7c6438",
"# c #7c6439",
"a c #7c6539",
"b c #7d6539",
". c #7e653a",
"l c #a39782",
"p c #e0dfdc",
"m c #e4e3e1",
"n c #e9e9e9",
".#aaaaaaaaaaaaaaaaaaaaaaaaaaabc",
"#deeeeeeeeeeeeeeeeeeeeeeeeeeefg",
"aehhhhhhhhhhhhhhhhhhhhhhhhhhhij",
"aehhhhhhhhhhhhhhhhhhhhhhhhhhhkj",
"aehhhhhhhhhhhhhhhhhhhhhhhhhhhkj",
"aehhhhhhhhhhhhhhhhhhhhhhhhhhhkj",
"aehhhhhhhhhhhhhhhhhhhhhhhhhhhkj",
"aehhhhhhhhhhhhhhhhhhhhhhhhhhhkj",
"aehhhhhhhhhhhhhhhhhhhhhhhhhhhkj",
"aehhhhhhhhhhhhhhhhhhhhhhhhhhhkj",
"aehhhhhhhhhhhhhhhhhhhhhhhhhhhkj",
"aehhhhhhhhhhhhhhhhhhhhhhhhhhhkj",
"aehhhhhhhhhhhhhhhhhhhhhhhhhhhkj",
"aehhhhhhhhhhhhhhhhhhhhhhhhhhhkj",
"aehhhhhhhlmnnnnnnnnnmlhhhhhhhkj",
"aehhhhhhhnnnnnnnnnnnnnhhhhhhhkj",
"aehhhhhhhopnnnnnnnnnpohhhhhhhkj",
"aehhhhhhhhhhhhhhhhhhhhhhhhhhhkj",
"aehhhhhhhhhhhhhhhhhhhhhhhhhhhkj",
"aehhhhhhhhhhhhhhhhhhhhhhhhhhhkj",
"aehhhhhhhhhhhhhhhhhhhhhhhhhhhkj",
"beqkkkkkkkkkkkkkkkkkkkkkkkkkkqj",
"rsjjjjjjjjjjjjjjjjjjjjjjjjjjjjt"};
