/* XPM */
static char *dummy[]={
"31 23 47 1",
"S c #614e2d",
"j c #64502e",
"P c #64502f",
"g c #665130",
"R c #695331",
"O c #6c5632",
"i c #6c5732",
"k c #6d5732",
"h c #6e5833",
"L c #6f5934",
"F c #705a36",
"e c #715b34",
"H c #715c38",
"f c #725a34",
"d c #735c35",
"c c #776138",
"Q c #7a6238",
"# c #7c6439",
"a c #7c6539",
"b c #7d6539",
". c #7e653a",
"M c #a79c88",
"A c #a89d89",
"D c #aba08e",
"N c #aea492",
"v c #afa593",
"o c #b0a594",
"w c #b5ac9c",
"z c #b5ac9d",
"s c #b9b0a2",
"K c #bab2a4",
"G c #bbb3a5",
"J c #bcb4a7",
"B c #d2cec7",
"l c #d4d0ca",
"x c #d5d2cc",
"u c #d7d4cf",
"E c #d8d5cf",
"r c #d9d6d1",
"q c #dcdad6",
"n c #dfdedb",
"p c #e6e6e5",
"t c #e7e6e5",
"I c #e7e7e6",
"y c #e8e8e8",
"C c #e9e8e8",
"m c #e9e9e9",
".#aaaaaaaaaaaaaaaaaaaaaaaaaaabc",
"#deeeeeeeeeeeeeeeeeeeeeeeeeeefg",
"aehhhhhhhhhhhhhhhhhhhhhhhhhhhij",
"aehhhhhhhhhhhhhhhhhhhhhhhhhhhkj",
"aehhhhhhhhhhhhhhhhhhhhhhhhhhhkj",
"aehhhhhhhhhhhlmmmmmmnhhhhhhhhkj",
"aehhhhhhhhhhopqqqqqqprhhhhhhhkj",
"aehhhhhhhhhhsthhhhhhumhhhhhhhkj",
"aehhhhhhhhvwxyzwwAhhumhhhhhhhkj",
"aehhhhhhhBmCmmCCCmDhumhhhhhhhkj",
"aehhhhhhhmEFGtHFHIJhumhhhhhhhkj",
"aehhhhhhhmuhKtLhLtKhumhhhhhhhkj",
"aehhhhhhhmuhJIHFHtGFEmhhhhhhhkj",
"aehhhhhhhmuhDmCCCmmCmBhhhhhhhkj",
"aehhhhhhhmuhhMwwzyxwNhhhhhhhhkj",
"aehhhhhhhmuhhhhhhtshhhhhhhhhhkj",
"aehhhhhhhrpqqqqqqpohhhhhhhhhhkj",
"aehhhhhhhhnmmmmmmlhhhhhhhhhhhkj",
"aehhhhhhhhhhhhhhhhhhhhhhhhhhhkj",
"aehhhhhhhhhhhhhhhhhhhhhhhhhhhkj",
"aehhhhhhhhhhhhhhhhhhhhhhhhhhhkj",
"beOkkkkkkkkkkkkkkkkkkkkkkkkkkOP",
"QRjjjjjjjjjjjjjjjjjjjjjjPjjjjPS"};
