/* XPM */
static char *dummy[]={
"31 23 23 1",
"u c #67522e",
"j c #67522f",
"g c #695330",
"t c #6a5431",
"r c #6c5632",
"i c #6c5732",
"k c #6d5732",
"h c #6e5833",
"e c #715b34",
"f c #725a34",
"d c #735c35",
"c c #7a6338",
"s c #7c6438",
"# c #7c6439",
"a c #7c6539",
"b c #7d6539",
". c #7e653a",
"q c #d7d4cf",
"n c #d9d6d1",
"p c #dcdad6",
"l c #dfdedb",
"o c #e6e6e5",
"m c #e9e9e9",
".#aaaaaaaaaaaaaaaaaaaaaaaaaaabc",
"#deeeeeeeeeeeeeeeeeeeeeeeeeeefg",
"aehhhhhhhhhhhhhhhhhhhhhhhhhhhij",
"aehhhhhhhhhhhhhhhhhhhhhhhhhhhkj",
"aehhhhhhhhhhhhhhhhhhhhhhhhhhhkj",
"aehhhhhhhhlmmmmmmmmmlhhhhhhhhkj",
"aehhhhhhhnoppppppppponhhhhhhhkj",
"aehhhhhhhmqhhhhhhhhhqmhhhhhhhkj",
"aehhhhhhhmqhhhhhhhhhqmhhhhhhhkj",
"aehhhhhhhmqhhhhhhhhhqmhhhhhhhkj",
"aehhhhhhhmqhhhhhhhhhqmhhhhhhhkj",
"aehhhhhhhmqhhhhhhhhhqmhhhhhhhkj",
"aehhhhhhhmqhhhhhhhhhqmhhhhhhhkj",
"aehhhhhhhmqhhhhhhhhhqmhhhhhhhkj",
"aehhhhhhhmqhhhhhhhhhqmhhhhhhhkj",
"aehhhhhhhmqhhhhhhhhhqmhhhhhhhkj",
"aehhhhhhhnoppppppppponhhhhhhhkj",
"aehhhhhhhhlmmmmmmmmmlhhhhhhhhkj",
"aehhhhhhhhhhhhhhhhhhhhhhhhhhhkj",
"aehhhhhhhhhhhhhhhhhhhhhhhhhhhkj",
"aehhhhhhhhhhhhhhhhhhhhhhhhhhhkj",
"berkkkkkkkkkkkkkkkkkkkkkkkkkkrj",
"stjjjjjjjjjjjjjjjjjjjjjjjjjjjju"};
