/* XPM */
static char *dummy[]={
"31 23 31 1",
"C c #2d2c20",
"n c #302e20",
"A c #302e21",
"j c #302f20",
"B c #322f20",
"z c #333124",
"y c #333224",
"m c #343224",
"l c #353325",
"i c #373426",
"x c #373526",
"h c #383526",
"g c #383627",
"f c #443e2d",
"b c #443f2d",
"# c #453f2d",
"u c #453f2e",
"w c #45402d",
"k c #45402e",
"v c #463f2d",
"a c #46402d",
"c c #46402e",
"d c #46412e",
"e c #47402e",
". c #4b4431",
"t c #828179",
"q c #83827a",
"s c #85847d",
"o c #88877f",
"r c #8d8c84",
"p c #8f8e87",
".#aaaaaaaaaabaaaaaaaaaaccccccde",
"fghhhhhhhhhhhhhhhhhhhhhiiiiiiij",
"khlllllllllllllllllllllllllllmn",
"khlllllllllllllllllllllllllllmn",
"khlllllllllllllllllllllllllllmn",
"khllllllllopppppppppollllllllmn",
"khlllllllqrsssssssssrqlllllllmn",
"khlllllllptllllllllltplllllllmn",
"uhlllllllptllllllllltplllllllmn",
"uhlllllllptllllllllltplllllllmn",
"vhlllllllptllllllllltplllllllmn",
"whlllllllptllllllllltplllllllmn",
"kxlllllllptllllllllltplllllllmn",
"killlllllptllllllllltplllllllmn",
"cilllllllptllllllllltplllllllmn",
"cilllllllptllllllllltplllllllmn",
"killlllllqrsssssssssrqlllllllmn",
"killllllllopppppppppollllllllmn",
"cxlllllllllllllllllllllllllllmn",
"ahlllllllllllllllllllllllllllmn",
"khlllllllllllllllllllllllllllmn",
"kiymmmmmmmmmmmmmmmmmmmmmmmmmmzA",
"eBnnnnnnnnnnCnnnnnnnnnnnAnnnnAB"};
