/* XPM */
static char *dummy[]={
"31 23 53 1",
"Y c #83692f",
"l c #856c2e",
"U c #856c2f",
"X c #856d2f",
"g c #867132",
"W c #887233",
"T c #8a783b",
"k c #8a7842",
"R c #8a7843",
"m c #8b7952",
"i c #8b7953",
"h c #8b7954",
"j c #8b7955",
"Q c #8b7956",
"N c #8c7a53",
"H c #8c7b54",
"f c #8d7b41",
"S c #8e7b41",
"d c #8e7b4a",
"e c #8e7b4b",
"J c #8e7c56",
"c c #8f7c46",
"a c #94813d",
"V c #96823d",
"b c #968342",
"# c #978441",
". c #978442",
"O c #b7ad98",
"C c #b8ae9a",
"F c #bab19d",
"P c #bcb3a1",
"x c #bdb4a2",
"q c #bdb5a3",
"y c #c1baa9",
"B c #c2baaa",
"u c #c4bdae",
"M c #c5beb0",
"I c #c6bfb1",
"L c #c7c0b2",
"D c #d7d4cd",
"n c #d9d6cf",
"z c #dad7d1",
"w c #dbd9d3",
"G c #dcd9d4",
"t c #dddbd5",
"s c #dfdeda",
"p c #e2e0dd",
"r c #e7e6e5",
"v c #e7e7e6",
"K c #e8e7e7",
"A c #e8e8e8",
"E c #e9e9e8",
"o c #e9e9e9",
"..###########################.a",
"bcddddddddddddddddddddddddddefg",
"#dhiiiiiiiiiiiiiiiiiiiiiiiiijkl",
"#dimmmmmmmmmmmmmmmmmmmmmmmmmhkl",
"#dimmmmmmmmmmmmmmmmmmmmmmmmmhkl",
"#dimmmmmmmmmmnoooooopmmmmmmmhkl",
"#dimmmmmmmmmqrssssssrtmmmmmmhkl",
"#dimmmmmmmmmuvmmmmmmwommmmmmhkl",
"#dimmmmmmmxyzAByyCmmwommmmmmhkl",
"#dimmmmmmDoEooEEEoFmwommmmmmhkl",
"#dimmmmmmoGHIvJHJKLmwommmmmmhkl",
"#dimmmmmmowmMvNmNvMmwommmmmmhkl",
"#dimmmmmmowmLKJHJvIHGommmmmmhkl",
"#dimmmmmmowmFoEEEooEoDmmmmmmhkl",
"#dimmmmmmowmmOyyBAzyPmmmmmmmhkl",
"#dimmmmmmowmmmmmmvummmmmmmmmhkl",
"#dimmmmmmtrssssssrqmmmmmmmmmhkl",
"#dimmmmmmmpoooooonmmmmmmmmmmhkl",
"#dimmmmmmmmmmmmmmmmmmmmmmmmmhkl",
"#dimmmmmmmmmmmmmmmmmmmmmmmmmhkl",
"#ejhhhhhhhhhhhhhhhhhhhhhhhhhQRl",
"#SRkkkkkkkkkkkkkkkkkkkkkkkkkRTU",
"VWllllllllllllllllllllllXllllUY"};
