/* XPM */
static char *dummy[]={
"31 23 55 1",
"0 c #7b501e",
". c #987032",
"c c #91692b",
"X c #916729",
"l c #7d511e",
"n c #7d521e",
"W c #7d521f",
"Z c #7d521e",
"S c #956e2f",
"b c #966f31",
"# c #966f32",
"a c #967032",
"h c #805720",
"d c #966f32",
"Y c #835922",
"V c #865e26",
"k c #875e2a",
"m c #875f2a",
"U c #875f2b",
"i c #886133",
"j c #886134",
"R c #886135",
"N c #896234",
"H c #8a6336",
"T c #8b632c",
"g c #8b642c",
"J c #8b6538",
"f c #8c6532",
"Q c #8c6533",
"e c #8d6731",
"O c #b5a088",
"C c #b6a289",
"F c #b8a58e",
"P c #bba892",
"x c #bba993",
"r c #bcaa94",
"y c #c0af9c",
"B c #c0b09d",
"v c #c3b4a2",
"M c #c4b5a4",
"I c #c5b6a5",
"L c #c6b7a7",
"D c #d7cfc7",
"o c #d8d2ca",
"z c #d9d3cc",
"w c #dbd5cf",
"G c #dbd6cf",
"u c #dcd7d1",
"t c #dfdbd6",
"q c #e1dedb",
"s c #e7e6e5",
"K c #e7e7e6",
"A c #e8e8e8",
"E c #e9e8e8",
"p c #e9e9e9",
".#aaaaaaaaaaaaaaaaaaaaaaaaaaabc",
"defffffffffffffffffffffffffffgh",
"afiiiiiiiiiiiiiiiiiiiiiiiiiijkl",
"afiiiiiiiiiiiiiiiiiiiiiiiiiijmn",
"afiiiiiiiiiiiiiiiiiiiiiiiiiijmn",
"afiiiiiiiiiiioppppppqiiiiiiijmn",
"afiiiiiiiiiirsttttttsuiiiiiijmn",
"afiiiiiiiiiivsiiiiiiwpiiiiiijmn",
"afiiiiiiiixyzAByyCiiwpiiiiiijmn",
"afiiiiiiiDpEppEEEpFiwpiiiiiijmn",
"afiiiiiiipGHIsJHJKLiwpiiiiiijmn",
"afiiiiiiipwiMsNiNsMiwpiiiiiijmn",
"afiiiiiiipwiLKJHJsIHGpiiiiiijmn",
"afiiiiiiipwiFpEEEppEpDiiiiiijmn",
"afiiiiiiipwiiOyyBAzyPiiiiiiijmn",
"afiiiiiiipwiiiiiisviiiiiiiiijmn",
"afiiiiiiiusttttttsriiiiiiiiijmn",
"afiiiiiiiiqppppppoiiiiiiiiiijmn",
"afiiiiiiiiiiiiiiiiiiiiiiiiiijmn",
"afiiiiiiiiiiiiiiiiiiiiiiiiiijmn",
"aQjjjjjjjjjjjjjjjjjjjjjjjjjjRmn",
"STmmmmmmmmmmmmmmmmmmmmmmmmmmUVW",
"XYZnnnnnnnnnnnnnnnnnnnnnnnnnnW0"};
