/* XPM */
static char *dummy[]={
"31 23 51 1",
"W c #2d2c20",
"n c #302e20",
"U c #302e21",
"j c #302f20",
"V c #322f20",
"T c #333124",
"S c #333224",
"m c #343224",
"l c #353325",
"O c #363426",
"I c #363427",
"i c #373426",
"P c #373526",
"K c #373527",
"h c #383526",
"g c #383627",
"f c #443e2d",
"b c #443f2d",
"# c #453f2d",
"y c #453f2e",
"M c #45402d",
"k c #45402e",
"H c #463f2d",
"a c #46402d",
"c c #46402e",
"d c #46412e",
"e c #47402e",
". c #4b4431",
"Q c #5f5d52",
"E c #5f5e53",
"G c #616055",
"R c #646258",
"z c #646358",
"r c #656459",
"A c #69675d",
"D c #69685e",
"v c #6b6a60",
"N c #6d6b62",
"J c #6d6c62",
"L c #6e6d63",
"F c #7e7d74",
"o c #7f7e76",
"B c #817f77",
"x c #828179",
"u c #83827a",
"t c #85847d",
"q c #88877f",
"s c #8d8c84",
"w c #8d8c85",
"C c #8e8d86",
"p c #8f8e87",
".#aaaaaaaaaabaaaaaaaaaaccccccde",
"fghhhhhhhhhhhhhhhhhhhhhiiiiiiij",
"khlllllllllllllllllllllllllllmn",
"khlllllllllllllllllllllllllllmn",
"khlllllllllllllllllllllllllllmn",
"khllllllllllloppppppqllllllllmn",
"khllllllllllrsttttttsulllllllmn",
"khllllllllllvwllllllxplllllllmn",
"yhllllllllzABCDAAEllxplllllllmn",
"yhlllllllFppppppppGlxplllllllmn",
"HhlllllllpxIJwKIKwLlxplllllllmn",
"MhlllllllpxlNwOlOwNlxplllllllmn",
"kPlllllllpxlLwKIKwJIxplllllllmn",
"killlllllpxlGppppppppFlllllllmn",
"cilllllllpxllQAADCBARllllllllmn",
"cilllllllpxllllllwvllllllllllmn",
"killlllllusttttttsrllllllllllmn",
"killllllllqppppppolllllllllllmn",
"cPlllllllllllllllllllllllllllmn",
"ahlllllllllllllllllllllllllllmn",
"khlllllllllllllllllllllllllllmn",
"kiSmmmmmmmmmmmmmmmmmmmmmmmmmmTU",
"eVnnnnnnnnnnWnnnnnnnnnnnUnnnnUV"};
