/* XPM */
static char *dummy[]={
"23 23 26 1",
"x c #83692f",
"a c #94813d",
"l c #856c2e",
"u c #856c2f",
"g c #857030",
"w c #887233",
"t c #8a783b",
"k c #8a7842",
"r c #8a7843",
"m c #8b7952",
"i c #8b7953",
"h c #8b7954",
"j c #8b7955",
"q c #8b7956",
"f c #8d7b41",
"s c #8e7b41",
"d c #8e7b4a",
"e c #8e7b4b",
"c c #8f7c46",
"v c #96823d",
"b c #968342",
"# c #978441",
". c #978442",
"o c #b3a892",
"p c #e8e7e7",
"n c #e9e9e9",
"..###################.a",
"bcddddddddddddddddddefg",
"#dhiiiiiiiiiiiiiiiiijkl",
"#dimmmmmmmmmmmmmmmmmhkl",
"#dimmmmmmmmmmmmmmmmmhkl",
"#dimmnnnnnnnnnnnnnmmhkl",
"#dimmnnnnnnnnnnnnnmmhkl",
"#dimmnnnnnnnnnnnnnmmhkl",
"#dimmooooooooooooommhkl",
"#dimmiiiiiiiiiiiiimmhkl",
"#dimmpppppppppppppmmhkl",
"#dimmnnnnnnnnnnnnnmmhkl",
"#dimmpppppppppppppmmhkl",
"#dimmiiiiiiiiiiiiimmhkl",
"#dimmooooooooooooommhkl",
"#dimmnnnnnnnnnnnnnmmhkl",
"#dimmnnnnnnnnnnnnnmmhkl",
"#dimmnnnnnnnnnnnnnmmhkl",
"#dimmmmmmmmmmmmmmmmmhkl",
"#dimmmmmmmmmmmmmmmmmhkl",
"#ejhhhhhhhhhhhhhhhhhqrl",
"#srkkkkkkkkkkkkkkkkkrtu",
"vwlllllllllllllllllllux"};
