/* XPM */
static char *dummy[]={
"23 23 31 1",
"C c #7b501e",
"c c #90682a",
". c #987032",
"z c #916729",
"l c #7d511e",
"n c #7d521e",
"y c #7d521f",
"B c #7d521e",
"u c #956e2f",
"b c #966f31",
"# c #966f32",
"a c #967032",
"h c #7f561f",
"d c #966f32",
"A c #835922",
"x c #865e26",
"k c #875e2a",
"m c #875f2a",
"w c #875f2b",
"i c #886133",
"j c #886134",
"t c #886135",
"q c #886234",
"v c #8b632c",
"g c #8b642c",
"f c #8c6532",
"s c #8c6533",
"e c #8d6731",
"p c #b19b80",
"r c #e7e7e6",
"o c #e9e9e9",
".#aaaaaaaaaaaaaaaaaaabc",
"defffffffffffffffffffgh",
"afiiiiiiiiiiiiiiiiiijkl",
"afiiiiiiiiiiiiiiiiiijmn",
"afiiiiiiiiiiiiiiiiiijmn",
"afiiioooooooooooooiijmn",
"afiiioooooooooooooiijmn",
"afiiioooooooooooooiijmn",
"afiiipppppppppppppiijmn",
"afiiiqqqqqqqqqqqqqiijmn",
"afiiirrrrrrrrrrrrriijmn",
"afiiioooooooooooooiijmn",
"afiiirrrrrrrrrrrrriijmn",
"afiiiqqqqqqqqqqqqqiijmn",
"afiiipppppppppppppiijmn",
"afiiioooooooooooooiijmn",
"afiiioooooooooooooiijmn",
"afiiioooooooooooooiijmn",
"afiiiiiiiiiiiiiiiiiijmn",
"afiiiiiiiiiiiiiiiiiijmn",
"asjjjjjjjjjjjjjjjjjjtmn",
"uvmmmmmmmmmmmmmmmmmmwxy",
"zABnnnnnnnnnnnnnnnnnnyC"};
