/* XPM */
static char *dummy[]={
"23 23 25 1",
"l c #302e20",
"h c #302e21",
"w c #322f20",
"u c #333124",
"t c #333224",
"k c #343224",
"j c #353325",
"g c #373426",
"s c #373526",
"f c #383526",
"e c #383627",
"d c #443e2d",
"# c #453f2d",
"n c #453f2e",
"r c #45402d",
"i c #45402e",
"p c #463f2d",
"a c #46402d",
"b c #46402e",
"c c #46412e",
"v c #47402e",
". c #4b4431",
"o c #5b5a4f",
"q c #8d8c85",
"m c #8f8e87",
".#aaaaaaaaaaaaabbbbbbca",
"defffffffffffffgggggggh",
"ifjjjjjjjjjjjjjjjjjjjkl",
"ifjjjjjjjjjjjjjjjjjjjkl",
"ifjjjjjjjjjjjjjjjjjjjkl",
"ifjjjmmmmmmmmmmmmmjjjkl",
"ifjjjmmmmmmmmmmmmmjjjkl",
"ifjjjmmmmmmmmmmmmmjjjkl",
"nfjjjooooooooooooojjjkl",
"nfjjjjjjjjjjjjjjjjjjjkl",
"pfjjjqqqqqqqqqqqqqjjjkl",
"rfjjjmmmmmmmmmmmmmjjjkl",
"isjjjqqqqqqqqqqqqqjjjkl",
"igjjjjjjjjjjjjjjjjjjjkl",
"bgjjjooooooooooooojjjkl",
"bgjjjmmmmmmmmmmmmmjjjkl",
"igjjjmmmmmmmmmmmmmjjjkl",
"igjjjmmmmmmmmmmmmmjjjkl",
"bsjjjjjjjjjjjjjjjjjjjkl",
"afjjjjjjjjjjjjjjjjjjjkl",
"ifjjjjjjjjjjjjjjjjjjjkl",
"igtkkkkkkkkkkkkkkkkkkuh",
"vwlllllllllllllllllllhw"};
