/* XPM */
static char *dummy[]={
"23 23 22 1",
"t c #614e2d",
"j c #64502e",
"q c #64502f",
"g c #65502f",
"s c #695331",
"p c #6c5632",
"i c #6c5732",
"k c #6d5732",
"h c #6e5833",
"n c #6e5934",
"e c #715b34",
"f c #725a34",
"d c #735c35",
"c c #776138",
"r c #7a6238",
"# c #7c6439",
"a c #7c6539",
"b c #7d6539",
". c #7e653a",
"m c #a29580",
"o c #e7e7e6",
"l c #e9e9e9",
".#aaaaaaaaaaaaaaaaaaabc",
"#deeeeeeeeeeeeeeeeeeefg",
"aehhhhhhhhhhhhhhhhhhhij",
"aehhhhhhhhhhhhhhhhhhhkj",
"aehhhhhhhhhhhhhhhhhhhkj",
"aehhhlllllllllllllhhhkj",
"aehhhlllllllllllllhhhkj",
"aehhhlllllllllllllhhhkj",
"aehhhmmmmmmmmmmmmmhhhkj",
"aehhhnnnnnnnnnnnnnhhhkj",
"aehhhooooooooooooohhhkj",
"aehhhlllllllllllllhhhkj",
"aehhhooooooooooooohhhkj",
"aehhhnnnnnnnnnnnnnhhhkj",
"aehhhmmmmmmmmmmmmmhhhkj",
"aehhhlllllllllllllhhhkj",
"aehhhlllllllllllllhhhkj",
"aehhhlllllllllllllhhhkj",
"aehhhhhhhhhhhhhhhhhhhkj",
"aehhhhhhhhhhhhhhhhhhhkj",
"aehhhhhhhhhhhhhhhhhhhkj",
"bepkkkkkkkkkkkkkkkkkkpq",
"rsjjjjjjjjjjjjjjjjjjjqt"};
