/* XPM */
static char *dummy[]={
"23 23 71 2",
"#e c #83692f",
".a c #94813d",
".l c #856c2e",
"#b c #856c2f",
".g c #857030",
"#d c #887233",
"#a c #8a783b",
".k c #8a7842",
"#. c #8a7843",
".m c #8b7952",
".i c #8b7953",
".h c #8b7954",
".j c #8b7955",
".9 c #8b7956",
".H c #8c7a53",
".f c #8d7b41",
"## c #8e7b41",
".d c #8e7b4a",
".e c #8e7b4b",
".4 c #8e7c56",
".c c #8f7c46",
".T c #8f7e59",
".G c #91805c",
".O c #92815d",
".x c #93825e",
".p c #93835f",
".n c #948460",
".t c #948461",
"#c c #96823d",
".b c #968342",
".# c #978441",
"Qt c #978442",
".X c #988866",
".8 c #988967",
".Y c #9b8c6c",
".N c #9c8d6d",
".K c #a09273",
".D c #a4967a",
".A c #a79b80",
".s c #a89c81",
".0 c #a99d82",
".q c #aa9e84",
".1 c #b1a68e",
".o c #b2a891",
".J c #b6ad98",
".I c #bbb3a0",
".3 c #bcb3a1",
".z c #bfb7a5",
".y c #c2baaa",
".5 c #c7c1b3",
".Q c #cac4b7",
".R c #cdc8bc",
".S c #cec9be",
".U c #cfcac0",
".F c #d1cdc3",
".P c #d3cfc5",
".E c #d5d1c8",
".M c #d8d4cd",
".w c #d9d6d0",
".7 c #dad7d1",
".u c #dbd8d2",
".W c #dcdad4",
".Z c #e0deda",
".r c #e2e1de",
".C c #e3e2e0",
".B c #e5e4e2",
".L c #e6e5e4",
".V c #e7e6e5",
".2 c #e7e7e6",
".6 c #e9e9e8",
".v c #e9e9e9",
"QtQt.#.#.#.#.#.#.#.#.#.#.#.#.#.#.#.#.#.#.#Qt.a",
".b.c.d.d.d.d.d.d.d.d.d.d.d.d.d.d.d.d.d.d.e.f.g",
".#.d.h.i.i.i.i.i.i.i.i.i.i.i.i.i.i.i.i.i.j.k.l",
".#.d.i.m.m.m.m.m.m.m.m.m.m.m.m.m.m.m.m.m.h.k.l",
".#.d.i.m.m.m.m.m.m.m.m.m.m.m.m.m.m.m.m.m.h.k.l",
".#.d.i.m.m.m.m.m.m.m.n.o.p.m.m.m.m.m.m.m.h.k.l",
".#.d.i.m.m.m.m.m.m.m.q.r.s.m.m.m.m.m.m.m.h.k.l",
".#.d.i.m.m.m.m.m.m.t.u.v.w.x.m.m.m.m.m.m.h.k.l",
".#.d.i.m.m.m.m.m.i.y.v.v.v.z.m.m.m.m.m.m.h.k.l",
".#.d.i.m.m.m.m.m.A.B.v.v.v.C.D.m.m.m.m.m.h.k.l",
".#.d.i.m.m.m.m.n.E.v.v.v.v.v.F.G.m.m.m.m.h.k.l",
".#.d.i.m.m.m.H.I.v.v.v.v.v.v.v.J.i.m.m.m.h.k.l",
".#.d.i.m.m.m.K.B.v.v.L.M.L.v.v.C.N.m.m.m.h.k.l",
".#.d.i.m.m.O.P.v.v.v.Q.x.R.v.v.v.S.T.m.m.h.k.l",
".#.d.i.m.m.U.V.v.v.W.X.m.Y.Z.v.v.L.Q.m.m.h.k.l",
".#.d.i.m.m.v.v.v.L.0.m.m.m.1.v.v.v.v.m.m.h.k.l",
".#.d.i.m.m.v.v.2.3.m.m.m.m.4.5.6.v.v.m.m.h.k.l",
".#.d.i.m.m.v.v.7.8.m.i.m.m.m.q.B.v.v.m.m.h.k.l",
".#.d.i.m.m.m.m.m.m.m.m.m.m.m.m.m.m.m.m.m.h.k.l",
".#.d.i.m.m.m.m.m.m.m.m.m.m.m.m.m.m.m.m.m.h.k.l",
".#.e.j.h.h.h.h.h.h.h.h.h.h.h.h.h.h.h.h.h.9#..l",
".####..k.k.k.k.k.k.k.k.k.k.k.k.k.k.k.k.k#.#a#b",
"#c#d.l.l.l.l.l.l.l.l.l.l.l.l.l.l.l.l.l.l.l#b#e"};
