/* XPM */
static char *dummy[]={
"23 23 68 2",
".l c #302e20",
".h c #302e21",
"#b c #322f20",
"## c #333124",
"#. c #333224",
".k c #343224",
".j c #353325",
".I c #363426",
".g c #373426",
".L c #373526",
".5 c #373527",
".f c #383526",
".e c #383627",
".V c #393729",
".G c #3b392b",
".Q c #3b392c",
".v c #3c3a2d",
".o c #3d3b2d",
".m c #3d3c2e",
".Z c #413f32",
".8 c #424033",
".d c #443e2d",
".# c #453f2d",
".w c #453f2e",
".H c #45402d",
".i c #45402e",
".0 c #454336",
".P c #454337",
".D c #463f2d",
".a c #46402d",
".b c #46402e",
".c c #46412e",
"#a c #47402e",
".M c #49473b",
"Qt c #4b4431",
".C c #4c4b3e",
".z c #504e42",
".r c #515044",
".p c #535145",
".2 c #59574c",
".n c #5a594e",
".K c #5f5d52",
".J c #636157",
".4 c #646258",
".y c #66655b",
".x c #69685e",
".6 c #6e6d63",
".S c #717066",
".T c #747369",
".U c #75746b",
".W c #76756c",
".F c #78776e",
".R c #797870",
".E c #7c7a72",
".O c #7e7d75",
".u c #807f76",
".7 c #817f77",
".s c #818078",
".Y c #83827a",
".1 c #86857d",
".q c #888780",
".B c #898880",
".A c #8a8982",
".9 c #8b8a83",
".N c #8c8b84",
".X c #8d8c84",
".3 c #8d8c85",
".t c #8f8e87",
"Qt.#.a.a.a.a.a.a.a.a.a.a.a.a.a.b.b.b.b.b.b.c.a",
".d.e.f.f.f.f.f.f.f.f.f.f.f.f.f.g.g.g.g.g.g.g.h",
".i.f.j.j.j.j.j.j.j.j.j.j.j.j.j.j.j.j.j.j.j.k.l",
".i.f.j.j.j.j.j.j.j.j.j.j.j.j.j.j.j.j.j.j.j.k.l",
".i.f.j.j.j.j.j.j.j.j.j.j.j.j.j.j.j.j.j.j.j.k.l",
".i.f.j.j.j.j.j.j.j.j.m.n.o.j.j.j.j.j.j.j.j.k.l",
".i.f.j.j.j.j.j.j.j.j.p.q.r.j.j.j.j.j.j.j.j.k.l",
".i.f.j.j.j.j.j.j.j.m.s.t.u.v.j.j.j.j.j.j.j.k.l",
".w.f.j.j.j.j.j.j.j.x.t.t.t.y.j.j.j.j.j.j.j.k.l",
".w.f.j.j.j.j.j.j.z.A.t.t.t.B.C.j.j.j.j.j.j.k.l",
".D.f.j.j.j.j.j.m.E.t.t.t.t.t.F.G.j.j.j.j.j.k.l",
".H.f.j.j.j.j.I.J.t.t.t.t.t.t.t.K.j.j.j.j.j.k.l",
".i.L.j.j.j.j.M.A.t.t.N.O.N.t.t.B.P.j.j.j.j.k.l",
".i.g.j.j.j.Q.R.t.t.t.S.v.T.t.t.t.U.V.j.j.j.k.l",
".b.g.j.j.j.W.X.t.t.Y.Z.j.0.1.t.t.N.S.j.j.j.k.l",
".b.g.j.j.j.t.t.t.N.r.j.j.j.2.t.t.t.t.j.j.j.k.l",
".i.g.j.j.j.t.t.3.4.j.j.j.j.5.6.t.t.t.j.j.j.k.l",
".i.g.j.j.j.t.t.7.8.j.j.j.j.j.p.9.t.t.j.j.j.k.l",
".b.L.j.j.j.j.j.j.j.j.j.j.j.j.j.j.j.j.j.j.j.k.l",
".a.f.j.j.j.j.j.j.j.j.j.j.j.j.j.j.j.j.j.j.j.k.l",
".i.f.j.j.j.j.j.j.j.j.j.j.j.j.j.j.j.j.j.j.j.k.l",
".i.g#..k.k.k.k.k.k.k.k.k.k.k.k.k.k.k.k.k.k##.h",
"#a#b.l.l.l.l.l.l.l.l.l.l.l.l.l.l.l.l.l.l.l.h#b"};
