/* XPM */
static char *dummy[]={
"23 23 66 2",
"## c #614e2d",
".j c #64502e",
".8 c #64502f",
".g c #65502f",
"#. c #695331",
".7 c #6c5632",
".i c #6c5732",
".k c #6d5732",
".h c #6e5833",
".o c #6e5934",
".S c #6f5934",
".e c #715b34",
".t c #715c38",
".f c #725a34",
".d c #735c35",
".G c #735e3b",
".c c #776138",
".L c #776240",
".0 c #786341",
".I c #786442",
".V c #796543",
".9 c #7a6238",
".3 c #7a6644",
".# c #7c6439",
".a c #7c6539",
".b c #7d6539",
"Qt c #7e653a",
".D c #7f6c4d",
".p c #806d4d",
".C c #847254",
".P c #89785b",
".W c #8f7f64",
".X c #928369",
".4 c #95856c",
".x c #96876e",
".n c #97886f",
".w c #a0937d",
".6 c #a2957f",
".Q c #a79c88",
".R c #ada290",
".u c #afa593",
".Y c #b2a897",
".Z c #b5ac9d",
".s c #bcb4a6",
".z c #bfb8ab",
".J c #c0b9ad",
".H c #c4beb3",
".F c #c6c0b6",
".T c #cbc6bd",
".K c #ccc7be",
".U c #cec9c1",
".N c #d2cec7",
".1 c #d4d0ca",
".q c #d6d2cc",
".2 c #d6d3cd",
".E c #d9d6d1",
".B c #dddbd8",
".5 c #e0dedb",
".M c #e1e0de",
".O c #e3e2e0",
".m c #e4e3e1",
".A c #e5e4e3",
".y c #e6e6e5",
".v c #e7e6e5",
".r c #e9e8e8",
".l c #e9e9e9",
"Qt.#.a.a.a.a.a.a.a.a.a.a.a.a.a.a.a.a.a.a.a.b.c",
".#.d.e.e.e.e.e.e.e.e.e.e.e.e.e.e.e.e.e.e.e.f.g",
".a.e.h.h.h.h.h.h.h.h.h.h.h.h.h.h.h.h.h.h.h.i.j",
".a.e.h.h.h.h.h.h.h.h.h.h.h.h.h.h.h.h.h.h.h.k.j",
".a.e.h.h.h.h.h.h.h.h.h.h.h.h.h.h.h.h.h.h.h.k.j",
".a.e.h.h.h.l.l.m.n.h.h.h.o.h.p.q.l.l.h.h.h.k.j",
".a.e.h.h.h.l.l.r.s.t.h.h.h.h.u.v.l.l.h.h.h.k.j",
".a.e.h.h.h.l.l.l.l.w.h.h.h.x.y.l.l.l.h.h.h.k.j",
".a.e.h.h.h.z.A.l.l.B.C.h.D.E.l.l.A.F.h.h.h.k.j",
".a.e.h.h.h.G.F.l.l.l.H.I.J.l.l.l.K.L.h.h.h.k.j",
".a.e.h.h.h.h.C.M.l.l.A.N.A.l.l.O.P.h.h.h.h.k.j",
".a.e.h.h.h.h.o.Q.l.l.l.l.l.l.l.R.S.h.h.h.h.k.j",
".a.e.h.h.h.h.h.L.T.l.l.l.l.l.U.V.h.h.h.h.h.k.j",
".a.e.h.h.h.h.h.h.W.M.l.l.l.O.X.h.h.h.h.h.h.k.j",
".a.e.h.h.h.h.h.h.h.Y.l.l.l.Z.h.h.h.h.h.h.h.k.j",
".a.e.h.h.h.h.h.h.h.0.1.l.2.3.h.h.h.h.h.h.h.k.j",
".a.e.h.h.h.h.h.h.h.h.4.5.n.h.h.h.h.h.h.h.h.k.j",
".a.e.h.h.h.h.h.h.h.h.V.6.3.h.h.h.h.h.h.h.h.k.j",
".a.e.h.h.h.h.h.h.h.h.h.h.h.h.h.h.h.h.h.h.h.k.j",
".a.e.h.h.h.h.h.h.h.h.h.h.h.h.h.h.h.h.h.h.h.k.j",
".a.e.h.h.h.h.h.h.h.h.h.h.h.h.h.h.h.h.h.h.h.k.j",
".b.e.7.k.k.k.k.k.k.k.k.k.k.k.k.k.k.k.k.k.k.7.8",
".9#..j.j.j.j.j.j.j.j.j.j.j.j.j.j.j.j.j.j.j.8##"};
