/* XPM */
static char *dummy[]={
"23 23 69 2",
"#c c #67522e",
".j c #67522f",
".g c #68522f",
"#b c #6a5431",
"## c #6c5632",
".i c #6c5732",
".k c #6d5732",
".h c #6e5833",
".w c #6e5934",
".G c #6f5934",
".e c #715b34",
".4 c #715c38",
".f c #725a34",
".d c #735c35",
".S c #735e3b",
".F c #76623f",
".N c #776240",
".v c #786442",
".n c #796543",
".c c #7a6338",
".l c #7a6644",
".r c #7a6645",
"#a c #7c6438",
".# c #7c6439",
".a c #7c6539",
".b c #7d6539",
"Qt c #7e653a",
".W c #7e6b4b",
".8 c #7f6c4d",
".X c #837152",
".M c #847254",
".J c #89785b",
".C c #8e7e63",
".z c #93846a",
".q c #95856c",
".0 c #95866d",
".o c #97886f",
".9 c #978870",
".1 c #9f927c",
".m c #a2957f",
".I c #a79b87",
".H c #ada290",
".3 c #aea492",
".y c #b2a898",
".x c #b6ad9d",
".5 c #bdb5a7",
".Z c #c0b9ac",
".P c #c0b9ad",
".Q c #c4beb3",
".R c #c6c0b6",
".T c #c7c1b7",
".E c #cac5bb",
".O c #ccc7be",
".D c #cecac2",
".L c #d2cec7",
".u c #d4d1ca",
".7 c #d5d2cc",
".s c #d7d3ce",
".V c #d8d5d0",
".Y c #dddbd7",
".p c #e0dedb",
".B c #e1e0de",
".A c #e3e2e0",
"#. c #e4e3e1",
".K c #e5e4e3",
".U c #e6e6e5",
".2 c #e7e6e5",
".6 c #e9e8e8",
".t c #e9e9e9",
"Qt.#.a.a.a.a.a.a.a.a.a.a.a.a.a.a.a.a.a.a.a.b.c",
".#.d.e.e.e.e.e.e.e.e.e.e.e.e.e.e.e.e.e.e.e.f.g",
".a.e.h.h.h.h.h.h.h.h.h.h.h.h.h.h.h.h.h.h.h.i.j",
".a.e.h.h.h.h.h.h.h.h.h.h.h.h.h.h.h.h.h.h.h.k.j",
".a.e.h.h.h.h.h.h.h.h.h.h.h.h.h.h.h.h.h.h.h.k.j",
".a.e.h.h.h.h.h.h.h.h.l.m.n.h.h.h.h.h.h.h.h.k.j",
".a.e.h.h.h.h.h.h.h.h.o.p.q.h.h.h.h.h.h.h.h.k.j",
".a.e.h.h.h.h.h.h.h.r.s.t.u.v.h.h.h.h.h.h.h.k.j",
".a.e.h.h.h.h.h.h.w.x.t.t.t.y.h.h.h.h.h.h.h.k.j",
".a.e.h.h.h.h.h.h.z.A.t.t.t.B.C.h.h.h.h.h.h.k.j",
".a.e.h.h.h.h.h.l.D.t.t.t.t.t.E.F.h.h.h.h.h.k.j",
".a.e.h.h.h.h.G.H.t.t.t.t.t.t.t.I.w.h.h.h.h.k.j",
".a.e.h.h.h.h.J.A.t.t.K.L.K.t.t.B.M.h.h.h.h.k.j",
".a.e.h.h.h.N.O.t.t.t.P.v.Q.t.t.t.R.S.h.h.h.k.j",
".a.e.h.h.h.T.U.t.t.V.W.h.X.Y.t.t.K.Z.h.h.h.k.j",
".a.e.h.h.h.t.t.t.K.0.h.h.h.1.t.t.t.t.h.h.h.k.j",
".a.e.h.h.h.t.t.2.3.h.h.h.h.4.5.6.t.t.h.h.h.k.j",
".a.e.h.h.h.t.t.7.8.h.w.h.h.h.9#..t.t.h.h.h.k.j",
".a.e.h.h.h.h.h.h.h.h.h.h.h.h.h.h.h.h.h.h.h.k.j",
".a.e.h.h.h.h.h.h.h.h.h.h.h.h.h.h.h.h.h.h.h.k.j",
".a.e.h.h.h.h.h.h.h.h.h.h.h.h.h.h.h.h.h.h.h.k.j",
".b.e##.k.k.k.k.k.k.k.k.k.k.k.k.k.k.k.k.k.k##.j",
"#a#b.j.j.j.j.j.j.j.j.j.j.j.j.j.j.j.j.j.j.j.j#c"};
