/* XPM */
static char *dummy[]={
"23 23 78 2",
"#l c #7b501e",
".c c #90682a",
"Qt c #987032",
"#i c #916729",
".l c #7d511e",
".n c #7d521e",
"#h c #7d521f",
"#k c #7d521e",
"#d c #956e2f",
".b c #966f31",
".# c #966f32",
".a c #967032",
".h c #7f561f",
".d c #966f32",
"#j c #835922",
"#g c #865e26",
".k c #875e2a",
".m c #875f2a",
"#f c #875f2b",
".i c #886133",
".j c #886134",
"#c c #886135",
".z c #886234",
".J c #896234",
"#e c #8b632c",
".g c #8b642c",
".6 c #8b6538",
".f c #8c6532",
"#b c #8c6533",
".V c #8c673b",
".e c #8d6731",
".I c #8e6a3f",
".Q c #8f6b40",
".y c #906c42",
".q c #906d43",
".o c #916e44",
".u c #926e45",
".Z c #95734b",
"#. c #96744d",
".0 c #997852",
".P c #997a54",
".M c #9d7f5b",
".F c #a18563",
".C c #a58a6a",
".t c #a68c6c",
".3 c #a78c6d",
".r c #a88e6f",
"## c #a88e70",
".4 c #af977c",
".p c #b19a7f",
".L c #b5a087",
".K c #baa790",
".5 c #bba892",
".B c #beac98",
".A c #c1b09d",
".7 c #c6b8a7",
".2 c #c9bcac",
".S c #c9bcad",
".T c #ccc0b3",
".U c #cec3b6",
".W c #cec4b7",
".H c #d1c7bb",
".R c #d2c9be",
".G c #d4ccc2",
".O c #d7d0c7",
".x c #d9d2ca",
".9 c #d9d3cc",
".v c #dbd5ce",
".Y c #dcd6d0",
".1 c #dfdcd7",
".s c #e2dfdb",
".E c #e3e0de",
".D c #e4e3e0",
"#a c #e5e3e1",
".N c #e6e5e3",
".X c #e7e6e5",
".8 c #e9e8e8",
".w c #e9e9e9",
"Qt.#.a.a.a.a.a.a.a.a.a.a.a.a.a.a.a.a.a.a.a.b.c",
".d.e.f.f.f.f.f.f.f.f.f.f.f.f.f.f.f.f.f.f.f.g.h",
".a.f.i.i.i.i.i.i.i.i.i.i.i.i.i.i.i.i.i.i.j.k.l",
".a.f.i.i.i.i.i.i.i.i.i.i.i.i.i.i.i.i.i.i.j.m.n",
".a.f.i.i.i.i.i.i.i.i.i.i.i.i.i.i.i.i.i.i.j.m.n",
".a.f.i.i.i.i.i.i.i.i.o.p.q.i.i.i.i.i.i.i.j.m.n",
".a.f.i.i.i.i.i.i.i.i.r.s.t.i.i.i.i.i.i.i.j.m.n",
".a.f.i.i.i.i.i.i.i.u.v.w.x.y.i.i.i.i.i.i.j.m.n",
".a.f.i.i.i.i.i.i.z.A.w.w.w.B.i.i.i.i.i.i.j.m.n",
".a.f.i.i.i.i.i.i.C.D.w.w.w.E.F.i.i.i.i.i.j.m.n",
".a.f.i.i.i.i.i.o.G.w.w.w.w.w.H.I.i.i.i.i.j.m.n",
".a.f.i.i.i.i.J.K.w.w.w.w.w.w.w.L.z.i.i.i.j.m.n",
".a.f.i.i.i.i.M.D.w.w.N.O.N.w.w.E.P.i.i.i.j.m.n",
".a.f.i.i.i.Q.R.w.w.w.S.y.T.w.w.w.U.V.i.i.j.m.n",
".a.f.i.i.i.W.X.w.w.Y.Z.i.0.1.w.w.N.2.i.i.j.m.n",
".a.f.i.i.i.w.w.w.N.3.i.i.i.4.w.w.w.w.i.i.j.m.n",
".a.f.i.i.i.w.w.X.5.i.i.i.i.6.7.8.w.w.i.i.j.m.n",
".a.f.i.i.i.w.w.9#..i.z.i.i.i###a.w.w.i.i.j.m.n",
".a.f.i.i.i.i.i.i.i.i.i.i.i.i.i.i.i.i.i.i.j.m.n",
".a.f.i.i.i.i.i.i.i.i.i.i.i.i.i.i.i.i.i.i.j.m.n",
".a#b.j.j.j.j.j.j.j.j.j.j.j.j.j.j.j.j.j.j#c.m.n",
"#d#e.m.m.m.m.m.m.m.m.m.m.m.m.m.m.m.m.m.m#f#g#h",
"#i#j#k.n.n.n.n.n.n.n.n.n.n.n.n.n.n.n.n.n.n#h#l"};
