/* XPM */
static char *dummy[]={
"23 23 71 2",
"#e c #83692f",
".a c #94813d",
".l c #856c2e",
"#b c #856c2f",
".g c #857030",
"#d c #887233",
"#a c #8a783b",
".k c #8a7842",
"#. c #8a7843",
".m c #8b7952",
".i c #8b7953",
".h c #8b7954",
".j c #8b7955",
".9 c #8b7956",
".T c #8c7a53",
".f c #8d7b41",
"## c #8e7b41",
".d c #8e7b4a",
".e c #8e7b4b",
".u c #8e7c56",
".c c #8f7c46",
".H c #8f7e59",
".M c #92815d",
".1 c #92825e",
".J c #93825e",
".7 c #93835f",
".W c #938360",
".4 c #948460",
"#c c #96823d",
".b c #968342",
".# c #978441",
"Qt c #978442",
".E c #988967",
".q c #998968",
".D c #9c8d6d",
".Q c #a09273",
".X c #a4977b",
".Y c #a79a7e",
".5 c #a89c81",
".y c #a99d83",
".p c #aa9e84",
".x c #b1a68f",
".8 c #b2a891",
".R c #b7ad98",
".S c #bbb29f",
".v c #bdb4a2",
".Z c #bfb6a5",
".0 c #c2baaa",
".t c #c6c0b1",
".A c #c9c3b5",
".K c #cac4b7",
".I c #cdc8bc",
".G c #cec9be",
".U c #d2cec4",
".L c #d3cfc5",
".V c #d4d0c8",
".O c #d8d4cd",
".2 c #d9d6cf",
".r c #dad7d1",
".3 c #dbd8d2",
".F c #dcdad5",
".C c #e0dedb",
".6 c #e2e1de",
".N c #e3e2e0",
".P c #e4e3e1",
".o c #e5e4e2",
".B c #e6e5e4",
".z c #e7e6e5",
".w c #e7e7e6",
".s c #e9e9e8",
".n c #e9e9e9",
"QtQt.#.#.#.#.#.#.#.#.#.#.#.#.#.#.#.#.#.#.#Qt.a",
".b.c.d.d.d.d.d.d.d.d.d.d.d.d.d.d.d.d.d.d.e.f.g",
".#.d.h.i.i.i.i.i.i.i.i.i.i.i.i.i.i.i.i.i.j.k.l",
".#.d.i.m.m.m.m.m.m.m.m.m.m.m.m.m.m.m.m.m.h.k.l",
".#.d.i.m.m.m.m.m.m.m.m.m.m.m.m.m.m.m.m.m.h.k.l",
".#.d.i.m.m.n.n.o.p.m.m.m.i.m.q.r.n.n.m.m.h.k.l",
".#.d.i.m.m.n.n.s.t.u.m.m.m.m.v.w.n.n.m.m.h.k.l",
".#.d.i.m.m.n.n.n.n.x.m.m.m.y.z.n.n.n.m.m.h.k.l",
".#.d.i.m.m.A.B.n.n.C.D.m.E.F.n.n.B.G.m.m.h.k.l",
".#.d.i.m.m.H.G.n.n.n.I.J.K.n.n.n.L.M.m.m.h.k.l",
".#.d.i.m.m.m.D.N.n.n.B.O.B.n.n.P.Q.m.m.m.h.k.l",
".#.d.i.m.m.m.i.R.n.n.n.n.n.n.n.S.T.m.m.m.h.k.l",
".#.d.i.m.m.m.m.M.U.n.n.n.n.n.V.W.m.m.m.m.h.k.l",
".#.d.i.m.m.m.m.m.X.N.n.n.n.o.Y.m.m.m.m.m.h.k.l",
".#.d.i.m.m.m.m.m.m.Z.n.n.n.0.m.m.m.m.m.m.h.k.l",
".#.d.i.m.m.m.m.m.m.1.2.n.3.4.m.m.m.m.m.m.h.k.l",
".#.d.i.m.m.m.m.m.m.m.5.6.p.m.m.m.m.m.m.m.h.k.l",
".#.d.i.m.m.m.m.m.m.m.7.8.4.m.m.m.m.m.m.m.h.k.l",
".#.d.i.m.m.m.m.m.m.m.m.m.m.m.m.m.m.m.m.m.h.k.l",
".#.d.i.m.m.m.m.m.m.m.m.m.m.m.m.m.m.m.m.m.h.k.l",
".#.e.j.h.h.h.h.h.h.h.h.h.h.h.h.h.h.h.h.h.9#..l",
".####..k.k.k.k.k.k.k.k.k.k.k.k.k.k.k.k.k#.#a#b",
"#c#d.l.l.l.l.l.l.l.l.l.l.l.l.l.l.l.l.l.l.l#b#e"};
