/* XPM */
static char *dummy[]={
"23 23 66 2",
".l c #302e20",
".h c #302e21",
"## c #322f20",
".9 c #333124",
".8 c #333224",
".k c #343224",
".j c #353325",
".T c #363426",
".g c #373426",
".U c #373526",
".s c #373527",
".f c #383526",
".e c #383627",
".F c #393729",
".K c #3b392c",
".H c #3c3a2d",
".X c #3d3b2d",
".4 c #3d3c2e",
".p c #424033",
".d c #443e2d",
".# c #453f2d",
".y c #453f2e",
".Q c #45402d",
".i c #45402e",
".C c #454337",
".L c #463f2d",
".a c #46402d",
".b c #46402e",
".c c #46412e",
"#. c #47402e",
".P c #49473b",
"Qt c #4b4431",
".Y c #4d4b3f",
".Z c #4f4d41",
".5 c #515044",
".w c #525045",
".o c #535145",
".v c #59574c",
".7 c #5a594e",
".R c #5f5d52",
".S c #636157",
".t c #646358",
".0 c #66655b",
".1 c #69685e",
".r c #6d6c62",
".z c #706f66",
".I c #717066",
".G c #747369",
".E c #75746b",
".V c #79786f",
".J c #797870",
".W c #7b7a71",
".N c #7e7d75",
".2 c #7f7e76",
".q c #817f77",
".3 c #818078",
".D c #83827a",
".B c #86857d",
".6 c #888780",
".M c #898880",
".O c #8a8982",
".n c #8b8a83",
".A c #8c8b84",
".x c #8d8c84",
".u c #8d8c85",
".m c #8f8e87",
"Qt.#.a.a.a.a.a.a.a.a.a.a.a.a.a.b.b.b.b.b.b.c.a",
".d.e.f.f.f.f.f.f.f.f.f.f.f.f.f.g.g.g.g.g.g.g.h",
".i.f.j.j.j.j.j.j.j.j.j.j.j.j.j.j.j.j.j.j.j.k.l",
".i.f.j.j.j.j.j.j.j.j.j.j.j.j.j.j.j.j.j.j.j.k.l",
".i.f.j.j.j.j.j.j.j.j.j.j.j.j.j.j.j.j.j.j.j.k.l",
".i.f.j.j.j.m.m.n.o.j.j.j.j.j.p.q.m.m.j.j.j.k.l",
".i.f.j.j.j.m.m.m.r.s.j.j.j.j.t.u.m.m.j.j.j.k.l",
".i.f.j.j.j.m.m.m.m.v.j.j.j.w.x.m.m.m.j.j.j.k.l",
".y.f.j.j.j.z.A.m.m.B.C.j.p.D.m.m.A.E.j.j.j.k.l",
".y.f.j.j.j.F.E.m.m.m.G.H.I.m.m.m.J.K.j.j.j.k.l",
".L.f.j.j.j.j.C.M.m.m.A.N.A.m.m.O.P.j.j.j.j.k.l",
".Q.f.j.j.j.j.j.R.m.m.m.m.m.m.m.S.T.j.j.j.j.k.l",
".i.U.j.j.j.j.j.K.V.m.m.m.m.m.W.X.j.j.j.j.j.k.l",
".i.g.j.j.j.j.j.j.Y.M.m.m.m.O.Z.j.j.j.j.j.j.k.l",
".b.g.j.j.j.j.j.j.j.0.m.m.m.1.j.j.j.j.j.j.j.k.l",
".b.g.j.j.j.j.j.j.j.H.2.m.3.4.j.j.j.j.j.j.j.k.l",
".i.g.j.j.j.j.j.j.j.j.5.6.o.j.j.j.j.j.j.j.j.k.l",
".i.g.j.j.j.j.j.j.j.j.X.7.4.j.j.j.j.j.j.j.j.k.l",
".b.U.j.j.j.j.j.j.j.j.j.j.j.j.j.j.j.j.j.j.j.k.l",
".a.f.j.j.j.j.j.j.j.j.j.j.j.j.j.j.j.j.j.j.j.k.l",
".i.f.j.j.j.j.j.j.j.j.j.j.j.j.j.j.j.j.j.j.j.k.l",
".i.g.8.k.k.k.k.k.k.k.k.k.k.k.k.k.k.k.k.k.k.9.h",
"#.##.l.l.l.l.l.l.l.l.l.l.l.l.l.l.l.l.l.l.l.h##"};
