/* XPM */
static char *dummy[]={
"23 23 77 2",
"#k c #7b501e",
".c c #90682a",
"Qt c #987032",
"#h c #916729",
".l c #7d511e",
".n c #7d521e",
"#g c #7d521f",
"#j c #7d521e",
"#c c #956e2f",
".b c #966f31",
".# c #966f32",
".a c #967032",
".h c #7f561f",
".d c #966f32",
"#i c #835922",
"#f c #865e26",
".k c #875e2a",
".m c #875f2a",
"#e c #875f2b",
".i c #886133",
".j c #886134",
"#b c #886135",
".r c #886234",
".V c #896234",
"#d c #8b632c",
".g c #8b642c",
".w c #8b6538",
".f c #8c6532",
"#a c #8c6533",
".J c #8c673b",
".e c #8d6731",
".O c #8f6b40",
".4 c #906c41",
".L c #906c42",
"#. c #906d43",
".Y c #916d43",
".7 c #916e44",
".F c #96744d",
".s c #96754d",
".E c #997a54",
".S c #9d7f5b",
".Z c #a28664",
".1 c #a58969",
".8 c #a68c6c",
".A c #a78d6e",
".q c #a88e6f",
".z c #af987d",
"## c #b19a7f",
".T c #b5a088",
".U c #b9a690",
".x c #bba993",
".2 c #bdac97",
".3 c #c0b09d",
".v c #c5b7a6",
".B c #c8bbab",
".M c #c9bcad",
".K c #ccc0b3",
".I c #cec3b6",
".W c #d1c8bd",
".N c #d2c9be",
".X c #d4cbc1",
".Q c #d7d0c7",
".5 c #d8d2ca",
".t c #dad4cc",
".6 c #dad4cd",
".G c #dcd7d1",
".D c #e0dcd8",
".9 c #e2dfdb",
".P c #e3e0de",
".R c #e4e2e0",
".0 c #e4e3e0",
".p c #e5e3e1",
".C c #e6e4e3",
".H c #e6e5e3",
".y c #e7e6e5",
".u c #e9e8e8",
".o c #e9e9e9",
"Qt.#.a.a.a.a.a.a.a.a.a.a.a.a.a.a.a.a.a.a.a.b.c",
".d.e.f.f.f.f.f.f.f.f.f.f.f.f.f.f.f.f.f.f.f.g.h",
".a.f.i.i.i.i.i.i.i.i.i.i.i.i.i.i.i.i.i.i.j.k.l",
".a.f.i.i.i.i.i.i.i.i.i.i.i.i.i.i.i.i.i.i.j.m.n",
".a.f.i.i.i.i.i.i.i.i.i.i.i.i.i.i.i.i.i.i.j.m.n",
".a.f.i.i.i.o.o.p.q.i.i.i.r.i.s.t.o.o.i.i.j.m.n",
".a.f.i.i.i.o.o.u.v.w.i.i.i.i.x.y.o.o.i.i.j.m.n",
".a.f.i.i.i.o.o.o.o.z.i.i.i.A.y.o.o.o.i.i.j.m.n",
".a.f.i.i.i.B.C.o.o.D.E.i.F.G.o.o.H.I.i.i.j.m.n",
".a.f.i.i.i.J.I.o.o.o.K.L.M.o.o.o.N.O.i.i.j.m.n",
".a.f.i.i.i.i.E.P.o.o.H.Q.H.o.o.R.S.i.i.i.j.m.n",
".a.f.i.i.i.i.r.T.o.o.o.o.o.o.o.U.V.i.i.i.j.m.n",
".a.f.i.i.i.i.i.O.W.o.o.o.o.o.X.Y.i.i.i.i.j.m.n",
".a.f.i.i.i.i.i.i.Z.P.o.o.o.0.1.i.i.i.i.i.j.m.n",
".a.f.i.i.i.i.i.i.i.2.o.o.o.3.i.i.i.i.i.i.j.m.n",
".a.f.i.i.i.i.i.i.i.4.5.o.6.7.i.i.i.i.i.i.j.m.n",
".a.f.i.i.i.i.i.i.i.i.8.9.q.i.i.i.i.i.i.i.j.m.n",
".a.f.i.i.i.i.i.i.i.i#.##.7.i.i.i.i.i.i.i.j.m.n",
".a.f.i.i.i.i.i.i.i.i.i.i.i.i.i.i.i.i.i.i.j.m.n",
".a.f.i.i.i.i.i.i.i.i.i.i.i.i.i.i.i.i.i.i.j.m.n",
".a#a.j.j.j.j.j.j.j.j.j.j.j.j.j.j.j.j.j.j#b.m.n",
"#c#d.m.m.m.m.m.m.m.m.m.m.m.m.m.m.m.m.m.m#e#f#g",
"#h#i#j.n.n.n.n.n.n.n.n.n.n.n.n.n.n.n.n.n.n#g#k"};
