/* XPM */
static char *dummy[]={
"23 23 70 2",
"#d c #7b501e",
".c c #90682a",
"Qt c #987032",
"#a c #916729",
".l c #7d511e",
".n c #7d521e",
"## c #7d521f",
"#c c #7d521e",
".7 c #956e2f",
".b c #966f31",
".# c #966f32",
".a c #967032",
".h c #7f561f",
".d c #966f32",
"#b c #835922",
"#. c #865e26",
".k c #875e2a",
".m c #875f2a",
".9 c #875f2b",
".i c #886133",
".j c #886134",
".6 c #886135",
".8 c #8b632c",
".g c #8b642c",
".q c #8b6539",
".f c #8c6532",
".5 c #8c6533",
".e c #8d6731",
".R c #8d683d",
".0 c #8f6b40",
".S c #926f46",
".C c #94724a",
".G c #9e7f5c",
".T c #a0825f",
".W c #a28664",
".Z c #a38766",
".H c #a48867",
".A c #a68b6b",
".y c #a88d6e",
".u c #a88e6f",
".x c #a98f71",
".Q c #ad9478",
".U c #ad9578",
".I c #b19b81",
".N c #b8a48d",
".M c #b8a58e",
".L c #b9a68f",
".t c #bcaa95",
".r c #bdab96",
".V c #c7b9a9",
".X c #c8baaa",
".J c #c8bbac",
".w c #c9bdae",
".B c #d0c6bb",
".o c #d6cfc6",
".F c #dad4cc",
".4 c #dbd5cf",
".1 c #dcd7d1",
".3 c #dedad4",
".Y c #dfdbd6",
".E c #dfdcd7",
".P c #e3e0de",
".D c #e3e1de",
".v c #e5e4e2",
".z c #e6e5e3",
".K c #e6e5e4",
".s c #e7e6e5",
".2 c #e7e7e6",
".O c #e8e7e7",
".p c #e9e9e9",
"Qt.#.a.a.a.a.a.a.a.a.a.a.a.a.a.a.a.a.a.a.a.b.c",
".d.e.f.f.f.f.f.f.f.f.f.f.f.f.f.f.f.f.f.f.f.g.h",
".a.f.i.i.i.i.i.i.i.i.i.i.i.i.i.i.i.i.i.i.j.k.l",
".a.f.i.i.i.i.i.i.i.i.i.i.i.i.i.i.i.i.i.i.j.m.n",
".a.f.i.i.i.i.i.i.i.i.i.i.i.i.i.i.i.i.i.i.j.m.n",
".a.f.i.i.i.i.i.i.i.o.p.p.p.o.i.i.i.i.i.i.j.m.n",
".a.f.i.i.i.i.i.q.r.s.p.p.p.s.t.q.i.i.i.i.j.m.n",
".a.f.i.i.i.i.i.u.p.p.v.w.v.p.p.x.i.i.i.i.j.m.n",
".a.f.i.i.i.i.i.y.p.z.A.i.A.p.B.C.i.i.i.i.j.m.n",
".a.f.i.i.i.i.i.y.p.D.i.i.i.E.F.G.i.i.i.i.j.m.n",
".a.f.i.i.i.i.i.H.p.D.i.i.i.i.i.i.i.i.i.i.j.m.n",
".a.f.i.i.i.i.I.J.p.K.L.M.M.N.N.M.I.i.i.i.j.m.n",
".a.f.i.i.i.B.p.p.p.O.p.p.p.p.p.p.p.B.i.i.j.m.n",
".a.f.i.i.i.p.p.P.Q.R.S.T.S.R.U.D.p.p.i.i.j.m.n",
".a.f.i.i.i.p.p.V.i.i.W.p.W.i.i.X.p.p.i.i.j.m.n",
".a.f.i.i.i.p.p.Y.Z.i.0.A.0.i.H.Y.p.p.i.i.j.m.n",
".a.f.i.i.i.1.2.p.v.Y.3.4.3.Y.v.p.2.1.i.i.j.m.n",
".a.f.i.i.i.i.1.p.p.p.p.p.p.p.p.p.1.i.i.i.j.m.n",
".a.f.i.i.i.i.i.i.i.i.i.i.i.i.i.i.i.i.i.i.j.m.n",
".a.f.i.i.i.i.i.i.i.i.i.i.i.i.i.i.i.i.i.i.j.m.n",
".a.5.j.j.j.j.j.j.j.j.j.j.j.j.j.j.j.j.j.j.6.m.n",
".7.8.m.m.m.m.m.m.m.m.m.m.m.m.m.m.m.m.m.m.9#.##",
"#a#b#c.n.n.n.n.n.n.n.n.n.n.n.n.n.n.n.n.n.n###d"};
