/* XPM */
static char *dummy[]={
"23 23 66 2",
"## c #83692f",
".a c #94813d",
".l c #856c2e",
".8 c #856c2f",
".g c #857030",
"#. c #887233",
".7 c #8a783b",
".k c #8a7842",
".5 c #8a7843",
".m c #8b7952",
".i c #8b7953",
".h c #8b7954",
".j c #8b7955",
".4 c #8b7956",
".f c #8d7b41",
".6 c #8e7b41",
".d c #8e7b4a",
".e c #8e7b4b",
".p c #8e7d57",
".c c #8f7c46",
".P c #907f5a",
".X c #92815d",
".Q c #958461",
".9 c #96823d",
".b c #968342",
".# c #978441",
"Qt c #978442",
".B c #978765",
".F c #a09274",
".R c #a29477",
".U c #a4977b",
".G c #a6997d",
".Y c #a89b80",
".z c #a89c81",
".x c #aa9d83",
".t c #aa9e84",
".w c #ab9f86",
".O c #aea38b",
".S c #afa48b",
".H c #b3a993",
".M c #b9b09d",
".L c #bab19d",
".K c #bbb29e",
".s c #beb5a3",
".q c #beb6a4",
".T c #c8c1b4",
".V c #c9c2b5",
".I c #c9c3b6",
".v c #cac5b8",
".A c #d1ccc3",
".n c #d7d3cc",
".E c #dad7d1",
".2 c #dbd9d3",
".3 c #dcdad5",
".Z c #dddbd5",
".1 c #dedcd8",
".W c #dfdeda",
".D c #e0deda",
".C c #e3e2e0",
".u c #e5e5e3",
".y c #e6e5e4",
".J c #e6e6e5",
".r c #e7e6e5",
".0 c #e8e7e7",
".N c #e8e8e7",
".o c #e9e9e9",
"QtQt.#.#.#.#.#.#.#.#.#.#.#.#.#.#.#.#.#.#.#Qt.a",
".b.c.d.d.d.d.d.d.d.d.d.d.d.d.d.d.d.d.d.d.e.f.g",
".#.d.h.i.i.i.i.i.i.i.i.i.i.i.i.i.i.i.i.i.j.k.l",
".#.d.i.m.m.m.m.m.m.m.m.m.m.m.m.m.m.m.m.m.h.k.l",
".#.d.i.m.m.m.m.m.m.m.m.m.m.m.m.m.m.m.m.m.h.k.l",
".#.d.i.m.m.m.m.m.m.n.o.o.o.n.m.m.m.m.m.m.h.k.l",
".#.d.i.m.m.m.m.p.q.r.o.o.o.r.s.p.m.m.m.m.h.k.l",
".#.d.i.m.m.m.m.t.o.o.u.v.u.o.o.w.m.m.m.m.h.k.l",
".#.d.i.m.m.m.m.x.o.y.z.m.z.o.A.B.m.m.m.m.h.k.l",
".#.d.i.m.m.m.m.x.o.C.m.m.m.D.E.F.m.m.m.m.h.k.l",
".#.d.i.m.m.m.m.G.o.C.m.m.m.m.m.m.m.m.m.m.h.k.l",
".#.d.i.m.m.m.H.I.o.J.K.L.L.M.M.L.H.m.m.m.h.k.l",
".#.d.i.m.m.A.o.o.o.N.o.o.o.o.o.o.o.A.m.m.h.k.l",
".#.d.i.m.m.o.o.C.O.P.Q.R.Q.P.S.C.o.o.m.m.h.k.l",
".#.d.i.m.m.o.o.T.m.m.U.o.U.m.m.V.o.o.m.m.h.k.l",
".#.d.i.m.m.o.o.W.G.m.X.Y.X.m.G.W.o.o.m.m.h.k.l",
".#.d.i.m.m.Z.0.o.u.W.1.2.1.W.u.o.0.Z.m.m.h.k.l",
".#.d.i.m.m.m.3.o.o.o.o.o.o.o.o.o.3.m.m.m.h.k.l",
".#.d.i.m.m.m.m.m.m.m.m.m.m.m.m.m.m.m.m.m.h.k.l",
".#.d.i.m.m.m.m.m.m.m.m.m.m.m.m.m.m.m.m.m.h.k.l",
".#.e.j.h.h.h.h.h.h.h.h.h.h.h.h.h.h.h.h.h.4.5.l",
".#.6.5.k.k.k.k.k.k.k.k.k.k.k.k.k.k.k.k.k.5.7.8",
".9#..l.l.l.l.l.l.l.l.l.l.l.l.l.l.l.l.l.l.l.8##"};
