/* XPM */
static char *dummy[]={
"23 23 58 1",
"l c #302e20",
"h c #302e21",
"3 c #322f20",
"1 c #333124",
"0 c #333224",
"k c #343224",
"j c #353325",
"g c #373426",
"K c #373526",
"f c #383526",
"e c #383627",
"m c #393729",
"P c #3a382a",
"V c #3b392c",
"p c #3e3c2f",
"z c #424033",
"d c #443e2d",
"# c #453f2d",
"s c #453f2e",
"F c #45402d",
"i c #45402e",
"B c #463f2d",
"a c #46402d",
"b c #46402e",
"c c #46412e",
"2 c #47402e",
". c #4b4431",
"Q c #4b493d",
"S c #4d4b3f",
"E c #4e4c40",
"C c #4e4d41",
"W c #514f43",
"A c #515044",
"x c #525045",
"w c #535145",
"t c #535246",
"O c #57554a",
"v c #5b5a4f",
"J c #616055",
"I c #626156",
"R c #6f6e64",
"T c #706e65",
"G c #706f66",
"r c #75746b",
"q c #76756c",
"L c #78776e",
"n c #807f76",
"Z c #828179",
"u c #83827a",
"Y c #85847c",
"U c #85847d",
"N c #898880",
"D c #8a8981",
"y c #8b8a83",
"H c #8d8c84",
"X c #8d8c85",
"M c #8e8d86",
"o c #8f8e87",
".#aaaaaaaaaaaaabbbbbbca",
"defffffffffffffgggggggh",
"ifjjjjjjjjjjjjjjjjjjjkl",
"ifjjjjjjjjjjjjjjjjjjjkl",
"ifjjjjjjjjjjjjjjjjjjjkl",
"ifjjjjjjjjjjjjjjjjjjjkl",
"ifjjjjjjmnooonmjjjjjjkl",
"ifjjjjjpqooooorpjjjjjkl",
"sfjjjjjtoouvuoowjjjjjkl",
"sfjjjjjxoyzjzyoAjjjjjkl",
"BfjjjjjCoDjjjDoEjjjjjkl",
"FfjjjjvGoHIJIHoGvjjjjkl",
"iKjjjLoooMoooMoooLjjjkl",
"igjjjooNOPpQpPODoojjjkl",
"bgjjjooRjjSoSjjToojjjkl",
"bgjjjooUCjVWVjCUoojjjkl",
"igjjjuXoyUYZYUyoXujjjkl",
"igjjjjuoooooooooujjjjkl",
"bKjjjjjjjjjjjjjjjjjjjkl",
"afjjjjjjjjjjjjjjjjjjjkl",
"ifjjjjjjjjjjjjjjjjjjjkl",
"ig0kkkkkkkkkkkkkkkkkk1h",
"23lllllllllllllllllllh3"};
