/* XPM */
static char *dummy[]={
"23 23 59 1",
"4 c #67522e",
"j c #67522f",
"g c #68522f",
"3 c #6a5431",
"1 c #6c5632",
"i c #6c5732",
"k c #6d5732",
"h c #6e5833",
"e c #715b34",
"f c #725a34",
"d c #735c35",
"l c #735e3a",
"M c #75603d",
"U c #776240",
"c c #7a6338",
"o c #7b6746",
"2 c #7c6438",
"# c #7c6439",
"a c #7c6539",
"b c #7d6539",
". c #7e653a",
"x c #7f6c4d",
"N c #8c7b5f",
"Q c #8f7f64",
"B c #908066",
"T c #918166",
"z c #918267",
"V c #94846b",
"y c #95866d",
"v c #96876e",
"u c #978870",
"r c #988971",
"L c #9c8f78",
"O c #9d8f78",
"t c #a29580",
"C c #a39681",
"G c #aba08e",
"F c #aca18f",
"P c #beb6a9",
"R c #bfb7aa",
"H c #bfb8ab",
"D c #c0b8ac",
"q c #c6c0b6",
"p c #c7c1b6",
"I c #cac4bb",
"m c #d4d1ca",
"0 c #d7d4cf",
"W c #d9d6d1",
"s c #dad7d2",
"Z c #dbd9d4",
"S c #dcdad6",
"K c #e1e0de",
"A c #e2e0de",
"w c #e4e3e1",
"Y c #e4e3e2",
"E c #e6e5e4",
"X c #e7e7e6",
"J c #e8e7e7",
"n c #e9e9e9",
".#aaaaaaaaaaaaaaaaaaabc",
"#deeeeeeeeeeeeeeeeeeefg",
"aehhhhhhhhhhhhhhhhhhhij",
"aehhhhhhhhhhhhhhhhhhhkj",
"aehhhhhhhhhhhhhhhhhhhkj",
"aehhhhhhhhhhhhhhhhhhhkj",
"aehhhhhhlmnnnmlhhhhhhkj",
"aehhhhhopnnnnnqohhhhhkj",
"aehhhhhrnnstsnnuhhhhhkj",
"aehhhhhvnwxhxwnyhhhhhkj",
"aehhhhhznAhhhAnBhhhhhkj",
"aehhhhCDnEFGFEnHChhhhkj",
"aehhhInnnJnnnJnnnIhhhkj",
"aehhhnnKLMoNoMOAnnhhhkj",
"aehhhnnPhhQnQhhRnnhhhkj",
"aehhhnnSThUVUhzSnnhhhkj",
"aehhhWXnYSZ0ZSYnXWhhhkj",
"aehhhhWnnnnnnnnnWhhhhkj",
"aehhhhhhhhhhhhhhhhhhhkj",
"aehhhhhhhhhhhhhhhhhhhkj",
"aehhhhhhhhhhhhhhhhhhhkj",
"be1kkkkkkkkkkkkkkkkkk1j",
"23jjjjjjjjjjjjjjjjjjjj4"};
