/* XPM */
static char *dummy[]={
"23 23 62 1",
"7 c #614e2d",
"j c #64502e",
"4 c #64502f",
"g c #65502f",
"6 c #695331",
"3 c #6c5632",
"i c #6c5732",
"k c #6d5732",
"h c #6e5833",
"e c #715b34",
"f c #725a34",
"n c #725d39",
"d c #735c35",
"O c #75603d",
"c c #776138",
"X c #776240",
"5 c #7a6238",
"P c #7b6746",
"# c #7c6439",
"a c #7c6539",
"b c #7d6539",
"z c #7d6a4a",
". c #7e653a",
"D c #89785c",
"Q c #8c7b5f",
"T c #8f7f64",
"W c #918166",
"E c #918267",
"Y c #94846b",
"x c #94856b",
"v c #96876e",
"r c #97886f",
"u c #988971",
"N c #9c8f78",
"R c #9d8f78",
"F c #a39681",
"K c #aba08d",
"J c #aba08e",
"I c #aca18f",
"q c #b0a695",
"o c #b1a796",
"S c #beb6a9",
"U c #bfb7aa",
"G c #c0b8ac",
"t c #c1baae",
"y c #cac4bb",
"l c #d1cdc6",
"C c #d6d2cc",
"2 c #d7d4cf",
"Z c #d9d6d1",
"1 c #dbd9d4",
"V c #dcdad6",
"B c #dddbd7",
"M c #e1e0de",
"A c #e2e0de",
"s c #e4e3e2",
"w c #e5e4e3",
"H c #e6e5e4",
"p c #e6e6e5",
"0 c #e7e7e6",
"L c #e8e7e7",
"m c #e9e9e9",
".#aaaaaaaaaaaaaaaaaaabc",
"#deeeeeeeeeeeeeeeeeeefg",
"aehhhhhhhhhhhhhhhhhhhij",
"aehhhhhhhhhhhhhhhhhhhkj",
"aehhhhhhhhhhhhhhhhhhhkj",
"aehhhhhhhlmmmlhhhhhhhkj",
"aehhhhhnopmmmpqnhhhhhkj",
"aehhhhhrmmstsmmuhhhhhkj",
"aehhhhhvmwxhxmyzhhhhhkj",
"aehhhhhvmAhhhBCDhhhhhkj",
"aehhhhhEmAhhhhhhhhhhhkj",
"aehhhhFGmHIJJKKJFhhhhkj",
"aehhhymmmLmmmmmmmyhhhkj",
"aehhhmmMNOPQPORAmmhhhkj",
"aehhhmmShhTmThhUmmhhhkj",
"aehhhmmVWhXYXhEVmmhhhkj",
"aehhhZ0msV121Vsm0Zhhhkj",
"aehhhhZmmmmmmmmmZhhhhkj",
"aehhhhhhhhhhhhhhhhhhhkj",
"aehhhhhhhhhhhhhhhhhhhkj",
"aehhhhhhhhhhhhhhhhhhhkj",
"be3kkkkkkkkkkkkkkkkkk34",
"56jjjjjjjjjjjjjjjjjjj47"};
