/* XPM */
static char *dummy[]={
"23 23 65 2",
"#. c #83692f",
".a c #94813d",
".l c #856c2e",
".7 c #856c2f",
".g c #857030",
".9 c #887233",
".6 c #8a783b",
".k c #8a7842",
".4 c #8a7843",
".m c #8b7952",
".i c #8b7953",
".h c #8b7954",
".j c #8b7955",
".3 c #8b7956",
".f c #8d7b41",
".5 c #8e7b41",
".d c #8e7b4a",
".e c #8e7b4b",
".c c #8f7c46",
".n c #8f7d58",
".O c #907f5a",
".V c #92815d",
".t c #958461",
".q c #958562",
".8 c #96823d",
".b c #968342",
".# c #978441",
"Qt c #978442",
".A c #988967",
".P c #a29477",
".S c #a4977b",
".E c #a5987c",
".C c #a6997d",
".W c #a89b80",
".B c #a99d82",
".y c #aa9d83",
".x c #aa9e84",
".u c #ab9f86",
".N c #aea38b",
".Q c #afa48b",
".w c #b3a892",
".F c #b3a993",
".J c #bab19d",
".I c #bbb29e",
".R c #c8c1b4",
".T c #c9c2b5",
".K c #c9c3b5",
".G c #c9c3b6",
".s c #cec9be",
".r c #cfcabf",
".L c #d1ccc3",
".o c #d9d6d0",
".1 c #dbd9d3",
".2 c #dcdad5",
".X c #dddbd5",
".v c #dddbd6",
".0 c #dedcd8",
".U c #dfdeda",
".D c #e3e2e0",
".z c #e5e4e2",
".Z c #e5e5e3",
".H c #e6e6e5",
".Y c #e8e7e7",
".M c #e8e8e7",
".p c #e9e9e9",
"QtQt.#.#.#.#.#.#.#.#.#.#.#.#.#.#.#.#.#.#.#Qt.a",
".b.c.d.d.d.d.d.d.d.d.d.d.d.d.d.d.d.d.d.d.e.f.g",
".#.d.h.i.i.i.i.i.i.i.i.i.i.i.i.i.i.i.i.i.j.k.l",
".#.d.i.m.m.m.m.m.m.m.m.m.m.m.m.m.m.m.m.m.h.k.l",
".#.d.i.m.m.m.m.m.m.m.m.m.m.m.m.m.m.m.m.m.h.k.l",
".#.d.i.m.m.m.m.m.m.m.m.m.m.m.m.m.m.m.m.m.h.k.l",
".#.d.i.m.m.m.m.m.n.o.p.p.p.o.n.m.m.m.m.m.h.k.l",
".#.d.i.m.m.m.m.q.r.p.p.p.p.p.s.t.m.m.m.m.h.k.l",
".#.d.i.m.m.m.m.u.p.p.v.w.v.p.p.x.m.m.m.m.h.k.l",
".#.d.i.m.m.m.m.y.p.z.A.m.A.z.p.B.m.m.m.m.h.k.l",
".#.d.i.m.m.m.m.C.p.D.m.m.m.D.p.E.m.m.m.m.h.k.l",
".#.d.i.m.m.m.F.G.p.H.I.J.I.H.p.K.F.m.m.m.h.k.l",
".#.d.i.m.m.L.p.p.p.M.p.p.p.M.p.p.p.L.m.m.h.k.l",
".#.d.i.m.m.p.p.D.N.O.t.P.t.O.Q.D.p.p.m.m.h.k.l",
".#.d.i.m.m.p.p.R.m.m.S.p.S.m.m.T.p.p.m.m.h.k.l",
".#.d.i.m.m.p.p.U.C.m.V.W.V.m.C.U.p.p.m.m.h.k.l",
".#.d.i.m.m.X.Y.p.Z.U.0.1.0.U.Z.p.Y.X.m.m.h.k.l",
".#.d.i.m.m.m.2.p.p.p.p.p.p.p.p.p.2.m.m.m.h.k.l",
".#.d.i.m.m.m.m.m.m.m.m.m.m.m.m.m.m.m.m.m.h.k.l",
".#.d.i.m.m.m.m.m.m.m.m.m.m.m.m.m.m.m.m.m.h.k.l",
".#.e.j.h.h.h.h.h.h.h.h.h.h.h.h.h.h.h.h.h.3.4.l",
".#.5.4.k.k.k.k.k.k.k.k.k.k.k.k.k.k.k.k.k.4.6.7",
".8.9.l.l.l.l.l.l.l.l.l.l.l.l.l.l.l.l.l.l.l.7#."};
