/* XPM */
static char *dummy[]={
"23 23 61 1",
"l c #302e20",
"h c #302e21",
"6 c #322f20",
"4 c #333124",
"3 c #333224",
"k c #343224",
"j c #353325",
"g c #373426",
"N c #373526",
"f c #383526",
"e c #383627",
"o c #383628",
"R c #3a382a",
"Y c #3b392c",
"S c #3e3c2f",
"B c #403e31",
"d c #443e2d",
"# c #453f2d",
"w c #453f2e",
"I c #45402d",
"i c #45402e",
"G c #463f2d",
"a c #46402d",
"b c #46402e",
"c c #46412e",
"5 c #47402e",
"F c #49473b",
". c #4b4431",
"T c #4b493d",
"V c #4d4b3f",
"H c #4e4d41",
"z c #514f43",
"x c #525045",
"s c #535145",
"v c #535246",
"Q c #57554a",
"J c #5b5a4f",
"M c #616055",
"L c #626156",
"r c #656459",
"p c #66645a",
"U c #6f6e64",
"W c #706e65",
"K c #706f66",
"u c #727067",
"A c #78776e",
"m c #7e7d74",
"E c #817f77",
"2 c #828179",
"Z c #83827a",
"1 c #85847c",
"X c #85847d",
"D c #86857d",
"P c #898880",
"C c #8a8981",
"t c #8b8a83",
"y c #8c8b84",
"q c #8d8c84",
"0 c #8d8c85",
"O c #8e8d86",
"n c #8f8e87",
".#aaaaaaaaaaaaabbbbbbca",
"defffffffffffffgggggggh",
"ifjjjjjjjjjjjjjjjjjjjkl",
"ifjjjjjjjjjjjjjjjjjjjkl",
"ifjjjjjjjjjjjjjjjjjjjkl",
"ifjjjjjjjmnnnmjjjjjjjkl",
"ifjjjjjopqnnnqrojjjjjkl",
"ifjjjjjsnntutnnvjjjjjkl",
"wfjjjjjxnyzjznABjjjjjkl",
"wfjjjjjxnCjjjDEFjjjjjkl",
"GfjjjjjHnCjjjjjjjjjjjkl",
"IfjjjjJKnqLMMMMMJjjjjkl",
"iNjjjAnnnOnnnnnnnAjjjkl",
"igjjjnnPQRSTSRQCnnjjjkl",
"bgjjjnnUjjVnVjjWnnjjjkl",
"bgjjjnnXHjYzYjHXnnjjjkl",
"igjjjZ0ntX121Xtn0Zjjjkl",
"igjjjjZnnnnnnnnnZjjjjkl",
"bNjjjjjjjjjjjjjjjjjjjkl",
"afjjjjjjjjjjjjjjjjjjjkl",
"ifjjjjjjjjjjjjjjjjjjjkl",
"ig3kkkkkkkkkkkkkkkkkk4h",
"56lllllllllllllllllllh6"};
