/* XPM */
static char *dummy[]={
"16 16 11 1",
". c #000000",
"# c #337117",
"a c #357318",
"c c #357518",
"b c #367618",
"d c #367718",
"f c #3c841b",
"g c #3c851b",
"h c #3d851b",
"i c #3d861b",
"e c #43931e",
"................",
"................",
"................",
"................",
"................",
"................",
"#abcdcdcbcb.....",
"eeeeeeeeeef.....",
"eeeeeeeeeeg.....",
"eeeeeeeeeeg.....",
"eeeeeeeeeef.....",
"eeeeeeeeeeg.....",
"eeeeeeeeeef.....",
"eeeeeeeeeeh.....",
"eeeeeeeeeef.....",
"eeeeeeeeeei....."};
