/* XPM */
static char *dummy[]={
"16 16 14 1",
". c #000000",
"j c #040b0c",
"k c #091b1d",
"l c #0a1d20",
"# c #1b545b",
"d c #297e88",
"a c #2a818c",
"c c #2a828d",
"b c #2a838e",
"e c #349fad",
"g c #34a0ae",
"h c #35a4b2",
"i c #42cedf",
"f c #4cebff",
"................",
"................",
"................",
"................",
"................",
"................",
".....#abacaacabd",
".....effffffffff",
".....gffffffffff",
".....effffffffff",
".....gffffffffff",
".....hffffffffff",
".....iffffffffff",
"....jfffffffffff",
"....kfffffffffff",
"....lfffffffffff"};
