/* XPM */
static char *dummy[]={
"16 16 21 1",
". c #000000",
"# c #010303",
"d c #051517",
"c c #061a1d",
"a c #061b1d",
"b c #061b1e",
"i c #071e21",
"f c #082528",
"e c #0a2d32",
"n c #124f57",
"o c #13575f",
"p c #145860",
"k c #145b64",
"s c #16646e",
"m c #186a74",
"q c #186d77",
"l c #1a7580",
"r c #1b7a86",
"j c #1e8592",
"h c #1e8693",
"g c #287983",
"................",
"................",
"................",
"................",
".......#abbabcde",
".....fghhhhhhhhh",
"....ijhhhhhhhhhh",
"....khhhhhhhhhhh",
"....lhhhhhhhhhhh",
"....mhhhhhhhhhhh",
"....nhhhhhhhhhhh",
"....ohhhhhhhhhhh",
"....phhhhhhhhhhh",
"....qhhhhhhhhhhh",
"....rhhhhhhhhhhh",
"....shhhhhhhhhhh"};
