/* XPM */
static char *dummy[]={
"40 30 61 1",
". c #000000",
"g c #2d0043",
"5 c #340849",
"t c #34094a",
"U c #350a4a",
"J c #370c4c",
"3 c #380d4d",
"l c #390e4d",
"x c #390f4e",
"X c #3d1351",
"m c #3e1552",
"T c #411855",
"i c #421955",
"A c #451d58",
"E c #461e59",
"f c #47205b",
"D c #4b245e",
"W c #4f2961",
"q c #502b63",
"L c #532e65",
"K c #573369",
"Q c #5c396d",
"4 c #664576",
"s c #684878",
"I c #6b4b7a",
"V c #71527f",
"1 c #755884",
"w c #785b86",
"y c #795c87",
"j c #7e628b",
"0 c #836890",
"h c #856b92",
"F c #886e94",
"r c #8c7398",
"n c #8d7599",
"B c #91799c",
"P c #947d9f",
"v c #957ea0",
"e c #9d88a7",
"G c #a18dab",
"C c #a491ae",
"u c #a895b1",
"6 c #aa98b3",
"2 c #ad9cb6",
"Z c #af9eb7",
"p c #b2a1ba",
"M c #b9aac0",
"o c #bcaec3",
"b c #bdafc4",
"c c #c9bdce",
"H c #cabfd0",
"R c #ccc1d1",
"a c #d5ccd9",
"k c #ded7e2",
"Y c #e6e1e9",
"z c #f3f0f4",
"N c #f5f3f6",
"O c #f7f5f8",
"S c #fdfcfd",
"d c #fefefe",
"# c #ffffff",
"........................................",
"........................................",
"..####################################..",
"..####################################..",
"..####################################..",
"..##################abc###############..",
"..###############defgggh##############..",
"..##############cigggggj##############..",
"..#############klggmnop###############..",
"..#############qggr########stu########..",
"..############vggw#########xgy########..",
"..###########zxgA##########xgy########..",
"..###########BggC##########xgy########..",
"..###########DgE###########xgy########..",
"..##########aggF###########xgy########..",
"..##########GggH###########xgy########..",
"..##########IgJ############xgy########..",
"..##########KgL############xgy########..",
"..##########Lgq############xgy########..",
"..##########hggFMN##OPQR###xgy########..",
"..##########STggggUUgggV###xgy########..",
"..###########cWgggggggXb###xgy########..",
"..#############YZ011F2#####3gy########..",
"..#########################456########..",
"..####################################..",
"..####################################..",
"..####################################..",
"..####################################..",
"........................................",
"........................................"};
