/* XPM */
static char *dummy[]={
"40 30 45 1",
". c #000000",
"g c #2d0043",
"j c #300446",
"d c #350a4a",
"E c #380d4c",
"A c #3a104e",
"s c #4a235d",
"F c #4c265f",
"x c #522d64",
"K c #563268",
"B c #583469",
"t c #59356a",
"w c #59366b",
"e c #5d3a6e",
"J c #5e3b6e",
"G c #6c4c7b",
"p c #7d618b",
"i c #897096",
"N c #8c7398",
"Q c #90789b",
"a c #917a9d",
"m c #967fa1",
"I c #9680a1",
"D c #a18dab",
"f c #a28eac",
"M c #a38fac",
"P c #a592af",
"b c #a794b0",
"v c #aa98b3",
"k c #b1a0b9",
"q c #b3a3bb",
"c c #b6a6bd",
"l c #b8a9c0",
"r c #c0b3c7",
"u c #ccc1d1",
"O c #dcd5e0",
"n c #ded7e2",
"L c #e2dce5",
"H c #e3dde6",
"h c #e4dee7",
"y c #e5dfe7",
"C c #e5e0e8",
"o c #ebe7ed",
"z c #efecf1",
"# c #ffffff",
"........................................",
"........................................",
"..####################################..",
"..####################################..",
"..####################################..",
"..######ab########cde#################..",
"..#####fggh#######igj#################..",
"..#####kggl#######mggn################..",
"..#####oggp#######qggr################..",
"..######sgt#######uggv################..",
"..######wgx#######yggm################..",
"..######wgx#######zggm################..",
"..######wgAwwwwwwBCggm################..",
"..######wgggggggggDggm################..",
"..######wgEFFFFFFGzggm################..",
"..######wgx#######zggm################..",
"..######wgx#######zggm################..",
"..######wgx#######zggm################..",
"..######wgx#######zggm################..",
"..######wgx#######zggm################..",
"..######wgx#######zggm################..",
"..######wgx#######HggI################..",
"..######JgK#######LggM################..",
"..######hNO########PQ#################..",
"..####################################..",
"..####################################..",
"..####################################..",
"..####################################..",
"........................................",
"........................................"};
