/* XPM */
static char *dummy[]={
"40 30 122 2",
"Qt c #000000",
".g c #2d0043",
".M c #2e0144",
"#D c #2f0244",
"#N c #300345",
"#v c #310547",
"#Q c #310647",
".Y c #320547",
".z c #320647",
"#W c #320748",
".V c #340849",
"#f c #34094a",
".I c #350a4a",
"#a c #360b4b",
".6 c #380d4d",
".J c #390f4e",
".D c #3a104f",
".t c #3c1250",
"#b c #3d1351",
"#x c #3d1452",
".C c #3e1552",
".2 c #3f1653",
".Q c #401754",
".u c #421955",
"#t c #441c58",
"#z c #451d58",
".x c #471f5a",
".O c #47205b",
"#w c #48215b",
"#s c #49225c",
".v c #4b245e",
".P c #4d2760",
".s c #4e2860",
".n c #4f2961",
"#c c #502a62",
".F c #522d64",
"#P c #59366b",
"#O c #5b386c",
"#X c #5d3a6e",
"#d c #5e3b6e",
".w c #5e3c6f",
".h c #5f3d70",
".7 c #624072",
"#i c #634173",
"#T c #654475",
"#J c #664576",
".r c #674677",
".l c #674777",
"#G c #684878",
"#r c #694979",
".G c #6c4c7b",
"#Z c #6c4d7c",
"#g c #6d4e7d",
"#R c #6e4f7d",
"#n c #745682",
".N c #795c87",
"#m c #7a5d88",
".b c #7c608a",
".8 c #7f638c",
".A c #7f648d",
".X c #81668f",
"#l c #846a91",
"#M c #856b92",
"#V c #886e94",
".a c #886f95",
"#A c #897096",
".1 c #8b7297",
"#. c #8e769a",
".m c #91799c",
".k c #917a9d",
".H c #967fa1",
"#o c #9a84a4",
"#j c #9b86a6",
".f c #9d88a7",
".S c #9f8aa9",
"#3 c #9f8ba9",
".B c #a18dab",
".U c #a592af",
".R c #a996b2",
"#H c #ab99b4",
"#q c #ac9ab5",
"#k c #ad9bb5",
".3 c #af9eb7",
"#C c #b09fb8",
".j c #b4a4bc",
".o c #b5a5bd",
".i c #b7a7be",
"#h c #b7a8bf",
"#K c #bbacc2",
".0 c #bbadc3",
".4 c #bcaec3",
"#2 c #c0b3c7",
".E c #c3b6c9",
"#p c #c4b7ca",
".d c #c8bcce",
".q c #c9bdce",
"#S c #c9becf",
"#U c #ccc1d1",
"#L c #cec3d3",
".e c #cfc5d4",
".9 c #d0c6d5",
".Z c #d3c9d7",
"#1 c #d6cdda",
"#I c #d7cedb",
".5 c #d7cfdc",
"#B c #ded7e2",
".T c #e1dae4",
"#u c #e4dee7",
".y c #e8e3ea",
"#E c #eae6ed",
"#0 c #ede9ef",
".L c #efebf0",
".p c #efecf1",
".c c #f2eff3",
"#F c #f3f0f4",
".K c #f3f1f5",
".W c #f5f3f6",
"#y c #f8f6f8",
"## c #f8f7f9",
"#e c #fbfafb",
"#Y c #fcfbfc",
".# c #ffffff",
"QtQtQtQtQtQtQtQtQtQtQtQtQtQtQtQtQtQtQtQtQtQtQtQtQtQtQtQtQtQtQtQtQtQtQtQtQtQtQtQt",
"QtQtQtQtQtQtQtQtQtQtQtQtQtQtQtQtQtQtQtQtQtQtQtQtQtQtQtQtQtQtQtQtQtQtQtQtQtQtQtQt",
"QtQt.#.#.#.#.#.#.#.#.#.#.#.#.#.#.#.#.#.#.#.#.#.#.#.#.#.#.#.#.#.#.#.#.#.#.#.#QtQt",
"QtQt.#.#.#.#.#.#.#.#.#.#.#.#.#.#.#.#.#.#.#.#.#.#.#.#.#.#.#.#.#.#.#.#.#.#.#.#QtQt",
"QtQt.#.#.#.#.#.#.#.#.#.#.#.#.#.#.#.#.#.#.#.#.#.#.#.#.#.#.#.#.#.#.#.#.#.#.#.#QtQt",
"QtQt.#.#.#.#.#.#.#.#.#.#.#.#.#.#.#.#.#.#.#.#.#.#.#.#.#.#.#.#.#.#.#.#.#.#.#.#QtQt",
"QtQt.#.#.#.#.#.#.#.#.#.#.#.#.#.#.#.#.#.#.#.#.#.#.#.#.#.#.#.#.#.#.#.#.#.#.#.#QtQt",
"QtQt.#.#.#.#.#.#.a.b.c.#.#.#.d.e.#.#.#.#.#.#.#.c.#.#.#.#.#.#.#.#.#.#.#.#.#.#QtQt",
"QtQt.#.#.#.#.#.f.g.g.h.#.#.i.g.g.j.#.#.#.#.#.k.g.l.#.#.#.m.n.o.#.p.a.q.#.#.#QtQt",
"QtQt.#.#.#.#.#.r.g.g.g.e.#.s.g.g.l.#.#.#.#.#.r.g.t.#.#.#.u.g.v.#.w.g.x.#.#.#QtQt",
"QtQt.#.#.#.#.y.z.g.g.g.A.B.g.g.g.C.#.#.#.#.#.D.g.g.E.#.#.a.g.g.F.g.g.G.#.#.#QtQt",
"QtQt.#.#.#.#.H.g.g.F.g.t.I.g.J.g.g.K.#.#.#.L.M.g.g.N.#.#.#.v.g.g.g.O.K.#.#.#QtQt",
"QtQt.#.#.#.#.P.g.Q.R.g.g.g.g.S.g.g.T.#.#.#.U.g.g.g.V.W.#.#.X.g.g.Y.Z.#.#.#.#QtQt",
"QtQt.#.#.#.0.g.g.1.#.2.g.g.G.3.g.g.4.#.#.#.l.g.V.g.g.f.#.5.6.g.g.g.q.#.#.#.#QtQt",
"QtQt.#.#.#.7.g.g.y.#.8.g.V.y.9.g.g#..#.####a.g.l#b.g#c.##d.g.g.g.g.w.#.#.#.#QtQt",
"QtQt.#.##e#f.g#g.#.#.##h.Z.#.#.Q.g#i.#.##j.g.g#k#l.g.g#m.g.g#n#n.g.g#o.#.#.#QtQt",
"QtQt.#.##p.g.g#q.#.#.#.#.#.#.##r.g.g.K.##s.g#t.##u#v.g#w.g#x#y###z.g.Q.#.#.#QtQt",
"QtQt.#.##A.g.g#B.#.#.#.#.#.#.##C.g#D#E.Z.g.g#d.E#F#G.g.z#H#I.#.##j.g#J.#.#.#QtQt",
"QtQt.#.##i.g#b.#.#.#.#.#.#.#.#.##K#L.##M.g.g.g.g.g#N.g.g#A.#.#.#.##e.#.#.#.#QtQt",
"QtQt.#.#.P.g#O.#.#.#.#.#.#.#.#.#.#.#.##P.g#Q.g.g.g.g.g.g.w.#.#.#.#.#.#.#.#.#QtQt",
"QtQt.#.#.0#R#S.#.#.#.#.#.#.#.#.#.#.#.##b.g#T#U.U#V#M#W.g#X.#.#.#.#.#.#.#.#.#QtQt",
"QtQt.#.#.#.#.#.#.#.#.#.#.#.#.#.#.#.##Y.g.g.a.#.#.#.##Z.g.g#0.#.#.#.#.#.#.#.#QtQt",
"QtQt.#.#.#.#.#.#.#.#.#.#.#.#.#.#.#.#.#.V.g.k.#.#.#.##A.g.g#1.#.#.#.#.#.#.#.#QtQt",
"QtQt.#.#.#.#.#.#.#.#.#.#.#.#.#.#.#.#.##2#j.#.#.#.#.##Y#m#3.#.#.#.#.#.#.#.#.#QtQt",
"QtQt.#.#.#.#.#.#.#.#.#.#.#.#.#.#.#.#.#.#.#.#.#.#.#.#.#.#.#.#.#.#.#.#.#.#.#.#QtQt",
"QtQt.#.#.#.#.#.#.#.#.#.#.#.#.#.#.#.#.#.#.#.#.#.#.#.#.#.#.#.#.#.#.#.#.#.#.#.#QtQt",
"QtQt.#.#.#.#.#.#.#.#.#.#.#.#.#.#.#.#.#.#.#.#.#.#.#.#.#.#.#.#.#.#.#.#.#.#.#.#QtQt",
"QtQt.#.#.#.#.#.#.#.#.#.#.#.#.#.#.#.#.#.#.#.#.#.#.#.#.#.#.#.#.#.#.#.#.#.#.#.#QtQt",
"QtQtQtQtQtQtQtQtQtQtQtQtQtQtQtQtQtQtQtQtQtQtQtQtQtQtQtQtQtQtQtQtQtQtQtQtQtQtQtQt",
"QtQtQtQtQtQtQtQtQtQtQtQtQtQtQtQtQtQtQtQtQtQtQtQtQtQtQtQtQtQtQtQtQtQtQtQtQtQtQtQt"};
