/* XPM */
static char *dummy[]={
"40 30 149 2",
"Qt c #000000",
".k c #2d0043",
"#a c #2e0144",
".j c #2f0244",
"#4 c #300345",
"#Q c #310547",
"#7 c #310647",
"#l c #320547",
".1 c #320647",
"ab c #320748",
"#i c #340849",
".o c #34094a",
".9 c #350a4a",
"#y c #360b4b",
"#t c #380d4d",
".n c #390e4d",
"#. c #390f4e",
".4 c #3a104f",
".V c #3c1250",
"#z c #3d1351",
"#S c #3d1452",
".i c #3e1552",
"#p c #3f1653",
"#d c #401754",
".W c #421955",
"#O c #441c58",
"#U c #451d58",
".Z c #471f5a",
".r c #47205b",
"#R c #48215b",
"#N c #49225c",
".X c #4b245e",
"#c c #4d2760",
".U c #4e2860",
".P c #4f2961",
"#A c #502a62",
".6 c #522d64",
".h c #583469",
"ao c #59356a",
"#6 c #59366b",
"#5 c #5b386c",
"ac c #5d3a6e",
"#B c #5e3b6e",
".Y c #5e3c6f",
".K c #5f3d70",
"#u c #624072",
"#E c #634173",
"a. c #654475",
"#1 c #664576",
".T c #674677",
".N c #674777",
".s c #684878",
"#M c #694979",
".7 c #6c4c7b",
"ae c #6c4d7c",
"#D c #6d4e7d",
"#8 c #6e4f7d",
"#J c #745682",
"aj c #755783",
"al c #775a85",
"#b c #795c87",
"#I c #7a5d88",
".z c #7b5f89",
".F c #7c608a",
".A c #7e628b",
".q c #7f638c",
".2 c #7f648d",
"ar c #81668e",
"#k c #81668f",
".g c #836890",
".t c #836990",
"#H c #846a91",
"#3 c #856b92",
"aa c #886e94",
".E c #886f95",
"#V c #897096",
"#o c #8b7297",
"ai c #8d7599",
"#w c #8e769a",
".O c #91799c",
".B c #917a9d",
".u c #927b9e",
".8 c #967fa1",
"as c #9882a3",
"#K c #9a84a4",
"#F c #9b86a6",
".J c #9d88a7",
"#f c #9f8aa9",
".3 c #a18dab",
".v c #a28eac",
"#h c #a592af",
"an c #a895b1",
"#e c #a996b2",
".f c #ab99b4",
".w c #ac9ab5",
"#G c #ad9bb5",
".p c #ae9db7",
"#q c #af9eb7",
"#X c #b09fb8",
".m c #b2a1ba",
"ak c #b4a3bb",
".M c #b4a4bc",
".Q c #b5a5bd",
"ah c #b6a6bd",
".L c #b7a7be",
".x c #b7a8bf",
".l c #b9aac0",
"#2 c #bbacc2",
"#n c #bbadc3",
"#r c #bcaec3",
".C c #c1b4c8",
".5 c #c3b6c9",
"#L c #c4b7ca",
"aq c #c7bbcd",
".H c #c8bcce",
".S c #c9bdce",
"#9 c #c9becf",
"a# c #ccc1d1",
".c c #cec3d3",
".I c #cfc5d4",
"#v c #d0c6d5",
"#m c #d3c9d7",
"ap c #d3cad8",
"ag c #d6cdda",
"#0 c #d7cedb",
"#s c #d7cfdc",
".d c #d8d0dc",
".b c #d9d1dd",
".e c #dcd4df",
"#W c #ded7e2",
"#g c #e1dae4",
"#P c #e4dee7",
".0 c #e8e3ea",
"#Y c #eae6ed",
".a c #ebe7ed",
"af c #ede9ef",
"am c #eeeaf0",
".D c #efebf0",
".R c #efecf1",
".G c #f2eff3",
"#Z c #f3f0f4",
"## c #f3f1f5",
".y c #f4f2f5",
"#j c #f5f3f6",
"#T c #f8f6f8",
"#x c #f8f7f9",
"#C c #fbfafb",
"ad c #fcfbfc",
".# c #ffffff",
"QtQtQtQtQtQtQtQtQtQtQtQtQtQtQtQtQtQtQtQtQtQtQtQtQtQtQtQtQtQtQtQtQtQtQtQtQtQtQtQt",
"QtQtQtQtQtQtQtQtQtQtQtQtQtQtQtQtQtQtQtQtQtQtQtQtQtQtQtQtQtQtQtQtQtQtQtQtQtQtQtQt",
"QtQt.#.#.#.#.#.#.#.#.#.#.a.b.c.c.c.c.c.c.c.c.c.c.c.c.c.c.c.c.c.c.c.c.d.#.#.#QtQt",
"QtQt.#.#.#.#.e.f.g.h.i.j.k.k.k.k.k.k.k.k.k.k.k.k.k.k.k.k.k.k.k.k.k.k.k.l.#.#QtQt",
"QtQt.#.m.n.o.k.k.k.k.k.k.k.k.k.k.k.k.k.k.k.k.k.k.k.k.k.k.k.k.k.k.k.k.k.p.#.#QtQt",
"QtQt.#.q.k.k.k.k.k.r.s.t.u.v.w.w.w.w.w.w.w.w.w.w.w.w.w.w.w.w.w.w.w.w.x.#.#.#QtQt",
"QtQt.#.y.z.A.B.C.D.#.#.#.#.#.#.#.#.#.#.#.#.#.#.#.#.#.#.#.#.#.#.#.#.#.#.#.#.#QtQt",
"QtQt.#.#.#.#.#.#.E.F.G.#.#.#.H.I.#.#.#.#.#.#.#.G.#.#.#.#.#.#.#.#.#.#.#.#.#.#QtQt",
"QtQt.#.#.#.#.#.J.k.k.K.#.#.L.k.k.M.#.#.#.#.#.B.k.N.#.#.#.O.P.Q.#.R.E.S.#.#.#QtQt",
"QtQt.#.#.#.#.#.T.k.k.k.I.#.U.k.k.N.#.#.#.#.#.T.k.V.#.#.#.W.k.X.#.Y.k.Z.#.#.#QtQt",
"QtQt.#.#.#.#.0.1.k.k.k.2.3.k.k.k.i.#.#.#.#.#.4.k.k.5.#.#.E.k.k.6.k.k.7.#.#.#QtQt",
"QtQt.#.#.#.#.8.k.k.6.k.V.9.k#..k.k##.#.#.#.D#a.k.k#b.#.#.#.X.k.k.k.r##.#.#.#QtQt",
"QtQt.#.#.#.##c.k#d#e.k.k.k.k#f.k.k#g.#.#.##h.k.k.k#i#j.#.##k.k.k#l#m.#.#.#.#QtQt",
"QtQt.#.#.##n.k.k#o.##p.k.k.7#q.k.k#r.#.#.#.N.k#i.k.k.J.##s#t.k.k.k.S.#.#.#.#QtQt",
"QtQt.#.#.##u.k.k.0.#.q.k#i.0#v.k.k#w.#.##x#y.k.N#z.k#A.##B.k.k.k.k.Y.#.#.#.#QtQt",
"QtQt.#.##C.o.k#D.#.#.#.x#m.#.##d.k#E.#.##F.k.k#G#H.k.k#I.k.k#J#J.k.k#K.#.#.#QtQt",
"QtQt.#.##L.k.k.w.#.#.#.#.#.#.##M.k.k##.##N.k#O.##P#Q.k#R.k#S#T#x#U.k#d.#.#.#QtQt",
"QtQt.#.##V.k.k#W.#.#.#.#.#.#.##X.k.j#Y#m.k.k#B.5#Z.s.k.1.f#0.#.##F.k#1.#.#.#QtQt",
"QtQt.#.##E.k#z.#.#.#.#.#.#.#.#.##2.c.##3.k.k.k.k.k#4.k.k#V.#.#.#.##C.#.#.#.#QtQt",
"QtQt.#.##c.k#5.#.#.#.#.#.#.#.#.#.#.#.##6.k#7.k.k.k.k.k.k.Y.#.#.#.#.#.#.#.#.#QtQt",
"QtQt.#.##n#8#9.#.#.#.#.#.#.#.#.#.#.#.##z.ka.a##haa#3ab.kac.#.#.#.#.#.#.#.#.#QtQt",
"QtQt.#.#.#.#.#.#.#.#.#.#.#.#.#.#.#.#ad.k.k.E.#.#.#.#ae.k.kaf.#.#.#.#.#.#.#.#QtQt",
"QtQt.#.#.#.#.#.#.#.#.#.#.#.#.#.#.#.#.##i.k.B.#.#.#.##V.k.kag.#.#.#.#.#.#.#.#QtQt",
"QtQt.#.##m.Jahahahahahahahahahahahahahaiajahahahahahak.Kalahahahah#g.#am.#.#QtQt",
"QtQt.#.#.W.k.k.k.k.k.k.k.k.k.k.k.k.k.k.k.k.k.k.k.k.k.k.k.k.k.k.k.k.k.o.kan.#QtQt",
"QtQt.#.#ao.k.k.k.k.k.k.k.k.k.k.k.k.k.k.k.k.k.k.k.k.k.k.k.k.k.k.k.k.k.k.k#o.#QtQt",
"QtQt.#.#.#apaqaqaqaqaqaqaqaqaqaqaqaqaqaqaqaqaqaqaqaqaqaqaqaqaqaq.xaiaras.#.#QtQt",
"QtQt.#.#.#.#.#.#.#.#.#.#.#.#.#.#.#.#.#.#.#.#.#.#.#.#.#.#.#.#.#.#.#.#.#.#.#.#QtQt",
"QtQtQtQtQtQtQtQtQtQtQtQtQtQtQtQtQtQtQtQtQtQtQtQtQtQtQtQtQtQtQtQtQtQtQtQtQtQtQtQt",
"QtQtQtQtQtQtQtQtQtQtQtQtQtQtQtQtQtQtQtQtQtQtQtQtQtQtQtQtQtQtQtQtQtQtQtQtQtQtQtQt"};
