/* XPM */
static char *dummy[]={
"40 30 87 2",
"Qt c #000000",
".e c #2d0043",
"#p c #2e0144",
".x c #2f0345",
".3 c #300446",
".H c #320647",
".C c #330748",
".N c #34094a",
".i c #380d4d",
".7 c #3c1250",
".A c #3d1351",
".p c #3f1653",
".f c #401754",
"#. c #421955",
".T c #421a56",
".q c #431b57",
".u c #451d58",
".U c #48215b",
"#u c #49225c",
".j c #4b255e",
"#b c #4c265f",
".t c #553167",
".R c #563268",
".9 c #5a376c",
".1 c #5c396d",
".O c #5e3b6e",
".m c #603e71",
".v c #634173",
".o c #644374",
"#i c #654475",
".w c #715380",
"#e c #765985",
".2 c #775a85",
".Y c #7a5e88",
".D c #7b5f89",
".6 c #7d618b",
"#j c #7f638c",
"#c c #81668e",
".k c #856b92",
".F c #876d93",
"#q c #8e769a",
"#g c #8f779b",
".W c #90789b",
"## c #91799c",
".L c #917a9d",
".E c #947d9f",
"#r c #9680a1",
".s c #9781a2",
".n c #9b85a5",
".J c #9b86a6",
".y c #9d88a7",
".X c #9f8aa9",
"#o c #a08caa",
".b c #a18dab",
"#f c #a38fac",
"#a c #a491ae",
".Q c #a592af",
".4 c #a895b1",
"#l c #aa98b3",
".G c #ad9cb6",
".M c #b09fb8",
".z c #b4a4bc",
"#t c #b7a7be",
".I c #b7a8bf",
".r c #b9aac0",
".8 c #beb0c5",
"#m c #bfb1c5",
".h c #ccc1d1",
".S c #cec3d3",
".Z c #cfc5d4",
".a c #d3c9d7",
"#n c #d3cad8",
".V c #d6cdda",
".5 c #d8d0dc",
".d c #dcd5e0",
".g c #ddd6e1",
".l c #e5e0e8",
"#s c #e7e2ea",
".K c #efebf0",
"#h c #f2eff3",
".0 c #f4f2f5",
".c c #f7f5f8",
".P c #f8f6f8",
"#d c #f9f8fa",
"#k c #faf9fb",
".B c #fdfdfe",
".# c #ffffff",
"QtQtQtQtQtQtQtQtQtQtQtQtQtQtQtQtQtQtQtQtQtQtQtQtQtQtQtQtQtQtQtQtQtQtQtQtQtQtQtQt",
"QtQtQtQtQtQtQtQtQtQtQtQtQtQtQtQtQtQtQtQtQtQtQtQtQtQtQtQtQtQtQtQtQtQtQtQtQtQtQtQt",
"QtQt.#.#.#.#.#.#.#.#.#.#.#.#.#.#.#.#.#.#.#.#.#.#.#.#.#.#.#.#.#.#.#.#.#.#.#.#QtQt",
"QtQt.#.#.#.#.#.#.#.#.#.#.#.#.#.#.#.#.#.#.#.#.#.#.#.#.#.#.#.#.#.#.#.#.#.#.#.#QtQt",
"QtQt.#.#.#.#.#.#.a.b.c.#.#.#.#.#.#.#.#.#.#.#.#.#.#.#.#.#.#.#.#.#.#.#.#.#.#.#QtQt",
"QtQt.#.#.#.#.#.d.e.e.f.g.#.#.#.#.#.#.#.#.#.#.#.#.#.h.i.j.#.#.#.#.#.#.#.#.#.#QtQt",
"QtQt.#.#.#.#.#.k.e.e.e.j.l.#.#.#.#.#.#.#.#.#.#.#.#.m.e.e.n.#.#.#.#.#.#.#.#.#QtQt",
"QtQt.#.#.#.#.#.o.e.p.e.e.q.r.#.#.#.#.#.#.#.#.#.#.s.e.e.e.t.#.#.#.#.#.#.#.#.#QtQt",
"QtQt.#.#.#.#.#.u.e.v.w.e.e.x.y.#.#.#.#.#.#.#.#.z.e.e.A.e.e.l.#.#.#.#.#.#.#.#QtQt",
"QtQt.#.#.#.#.B.C.e.D.#.E.e.e.e.F.#.#.#.#.#.#.G.H.e.e.I.e.e.J.#.#.#.#.#.#.#.#QtQt",
"QtQt.#.#.#.#.K.e.e.L.#.#.M.N.e.e.O.P.#.#.#.Q.x.e.e.n.#.p.e.R.#.#.#.#.#.#.#.#QtQt",
"QtQt.#.#.#.#.K.e.e.L.#.#.#.S.T.e.e.U.V.#.W.e.e.e.X.#.#.Y.e.e.Z.#.#.#.#.#.#.#QtQt",
"QtQt.#.#.#.#.K.e.e.L.#.#.#.#.0.1.e.e.i.2.e.e.3.4.#.#.#.5.e.e.Y.#.#.#.#.#.#.#QtQt",
"QtQt.#.#.#.#.K.e.e.L.#.#.#.#.#.#.6.e.e.e.e.7.8.#.#.#.#.#.9.e#..#.#.#.#.#.#.#QtQt",
"QtQt.#.#.#.#.K.e.e##.#.#.#.#.#.#.##a.e.e#b.g.#.#.#.#.#.##c.e.e#d.#.#.#.#.#.#QtQt",
"QtQt.#.#.#.#.#.N.e#e.#.#.#.#.#.#.#.#.5#f.#.#.#.#.#.#.#.##g.e.e#h.#.#.#.#.#.#QtQt",
"QtQt.#.#.#.#.#.u.e.o.#.#.#.#.#.#.#.#.#.#.#.#.#.#.#.#.#.##g.e.e#h.#.#.#.#.#.#QtQt",
"QtQt.#.#.#.#.##i.e.f.#.#.#.#.#.#.#.#.#.#.#.#.#.#.#.#.#.##g.e.e#h.#.#.#.#.#.#QtQt",
"QtQt.#.#.#.#.##j.e.x#k.#.#.#.#.#.#.#.#.#.#.#.#.#.#.#.#.##g.e.e#h.#.#.#.#.#.#QtQt",
"QtQt.#.#.#.#.##l.e.e#m.#.#.#.#.#.#.#.#.#.#.#.#.#.#.#.#.##g.e.e#h.#.#.#.#.#.#QtQt",
"QtQt.#.#.#.#.##n.e.e#o.#.#.#.#.#.#.#.#.#.#.#.#.#.#.#.#.##g.e.e#h.#.#.#.#.#.#QtQt",
"QtQt.#.#.#.#.##d#p.e#q.#.#.#.#.#.#.#.#.#.#.#.#.#.#.#.#.##r.e.e#s.#.#.#.#.#.#QtQt",
"QtQt.#.#.#.#.#.#.R.C#t.#.#.#.#.#.#.#.#.#.#.#.#.#.#.#.#.#.V#u.o.#.#.#.#.#.#.#QtQt",
"QtQt.#.#.#.#.#.#.#.#.#.#.#.#.#.#.#.#.#.#.#.#.#.#.#.#.#.#.#.#.#.#.#.#.#.#.#.#QtQt",
"QtQt.#.#.#.#.#.#.#.#.#.#.#.#.#.#.#.#.#.#.#.#.#.#.#.#.#.#.#.#.#.#.#.#.#.#.#.#QtQt",
"QtQt.#.#.#.#.#.#.#.#.#.#.#.#.#.#.#.#.#.#.#.#.#.#.#.#.#.#.#.#.#.#.#.#.#.#.#.#QtQt",
"QtQt.#.#.#.#.#.#.#.#.#.#.#.#.#.#.#.#.#.#.#.#.#.#.#.#.#.#.#.#.#.#.#.#.#.#.#.#QtQt",
"QtQt.#.#.#.#.#.#.#.#.#.#.#.#.#.#.#.#.#.#.#.#.#.#.#.#.#.#.#.#.#.#.#.#.#.#.#.#QtQt",
"QtQtQtQtQtQtQtQtQtQtQtQtQtQtQtQtQtQtQtQtQtQtQtQtQtQtQtQtQtQtQtQtQtQtQtQtQtQtQtQt",
"QtQtQtQtQtQtQtQtQtQtQtQtQtQtQtQtQtQtQtQtQtQtQtQtQtQtQtQtQtQtQtQtQtQtQtQtQtQtQtQt"};
