/* XPM */
static char *dummy[]={
"40 30 99 2",
"Qt c #000000",
".e c #2d0043",
".k c #2f0345",
".b c #300446",
".1 c #320547",
".2 c #320647",
".l c #340949",
".s c #350a4a",
".v c #360b4b",
".Z c #3a104f",
".O c #3c1250",
".E c #3d1351",
"#t c #3d1452",
".j c #3e1552",
".4 c #421955",
".I c #451d58",
".U c #4b245e",
".W c #4b255e",
".p c #4e2860",
".F c #502b63",
".D c #512c63",
".Q c #522d64",
".3 c #532e65",
".d c #553167",
"#s c #563268",
"#r c #573369",
".f c #583469",
".i c #5d3a6e",
".J c #5e3c6f",
".L c #603e71",
".R c #624072",
".H c #634173",
".Y c #634274",
"#A c #644374",
".5 c #674677",
"#w c #684878",
".7 c #6a4a7a",
".M c #6c4c7b",
".C c #70517f",
".P c #745682",
".9 c #755783",
".t c #755884",
".T c #765985",
"#E c #785b86",
".m c #795c87",
"#y c #7b5f89",
"#i c #7c608a",
".h c #7d618b",
"#F c #7f638c",
".6 c #81668e",
"#n c #82678f",
"#q c #836890",
".a c #836990",
".c c #856b92",
"#d c #866c93",
".w c #8b7297",
"#G c #90789b",
"#h c #927b9e",
".r c #9882a3",
".B c #9b86a6",
"#k c #9f8aa9",
".y c #a490ad",
"#x c #a592af",
"#m c #a997b2",
"#p c #ab99b4",
"#b c #ac9ab5",
"#f c #ad9bb5",
".K c #ae9db7",
".u c #b09fb8",
"#C c #b6a6bd",
".S c #bbacc2",
".o c #c1b4c8",
"#a c #c2b5c8",
"## c #c3b6c9",
"#o c #c5b9cb",
"#l c #c7bbcd",
"#j c #c9becf",
"#B c #cdc2d2",
"#u c #cec3d3",
".g c #cfc5d4",
"#e c #d1c7d6",
".n c #d2c8d6",
"#v c #d3cad8",
".V c #d6cdda",
".q c #d9d1dd",
"#g c #dbd3df",
"#. c #dcd4df",
".8 c #ded7e2",
".0 c #dfd8e2",
"#z c #e3dde6",
".G c #e7e2ea",
"#D c #e8e3ea",
".z c #e9e4eb",
".A c #eae5ec",
".X c #eeeaf0",
".N c #f3f1f5",
".x c #f6f4f7",
"#c c #f9f8fa",
".# c #ffffff",
"QtQtQtQtQtQtQtQtQtQtQtQtQtQtQtQtQtQtQtQtQtQtQtQtQtQtQtQtQtQtQtQtQtQtQtQtQtQtQtQt",
"QtQtQtQtQtQtQtQtQtQtQtQtQtQtQtQtQtQtQtQtQtQtQtQtQtQtQtQtQtQtQtQtQtQtQtQtQtQtQtQt",
"QtQt.#.#.#.#.#.#.#.#.#.#.#.#.#.#.#.#.#.#.#.#.#.#.#.#.#.#.#.#.#.#.#.#.#.#.#.#QtQt",
"QtQt.#.#.a.b.b.b.b.b.b.b.b.b.b.b.b.b.b.b.b.b.b.b.b.b.b.b.b.b.c.#.#.#.#.#.#.#QtQt",
"QtQt.#.#.d.e.e.e.e.e.e.e.e.e.e.e.e.e.e.e.e.e.e.e.e.e.e.e.e.e.f.#.#.#.#.#.#.#QtQt",
"QtQt.#.#.g.h.h.h.h.i.j.k.l.m.h.h.h.h.h.h.h.h.h.h.h.h.h.h.h.h.n.#.#.#.#.#.#.#QtQt",
"QtQt.#.#.#.#.#.o.p.e.e.e.e.q.#.#.#.#.#.#.#.#.#.#.#.#.#.#.#.#.#.#.#.#.#.#.#.#QtQt",
"QtQt.#.#.#.#.r.e.e.e.s.t.u.#.#.#.#.#.#.#.#.#.#.#.#.#.#.#.#.#.#.#.#.#.#.#.#.#QtQt",
"QtQt.#.#.#.#.v.e.e.w.x.#.#.#.#.#.#.#.#.#.y.z.#.#.#.#.#.#.#.#.#.#.#.#.#.#.#.#QtQt",
"QtQt.#.#.#.A.e.e.B.#.#.#.#.#.#.#.#.#.#.C.e.D.#.#.#.#.#.#.#.#.#.#.#.#.#.#.#.#QtQt",
"QtQt.#.#.#.#.E.e.F.G.#.#.#.#.#.#.#.#.#.H.e.I.#.#.#.#.#.#.#.#.#.#.#.#.#.#.#.#QtQt",
"QtQt.#.#.#.#.a.e.e.e.J.K.#.#.#.#.#.#.#.H.e.I.#.#.#.#.#.#.#.#.#.#.#.#.#.#.#.#QtQt",
"QtQt.#.#.#.#.#.L.e.e.e.e.M.N.#.#.#.#.#.H.e.O.P.Q.R.B.#.#.#.#.#.#.#.#.#.#.#.#QtQt",
"QtQt.#.#.#.#.#.#.S.T.s.e.e.U.V.#.#.#.#.H.e.e.e.e.e.e.W.A.#.#.#.#.#.#.#.#.#.#QtQt",
"QtQt.#.#.#.#.#.#.#.#.X.Y.e.e.Z.0.#.#.#.H.e.1.2.3.4.e.e.5.#.#.#.#.#.#.#.#.#.#QtQt",
"QtQt.#.#.#.#.#.#.#.#.#.#.6.e.e.i.#.#.#.H.e.I.#.#.#.7.e.e.8.#.#.#.#.#.#.#.#.#QtQt",
"QtQt.#.#.#.#.#.#.#.#.#.#.#.9.e.e#..#.#.H.e.I.#.#.###.e.e.r.#.#.#.#.#.#.#.#.#QtQt",
"QtQt.#.#.#.#.#.#.#.#.#.#.##a.e.e#b.#.#.H.e.I.#.#.##c.e.e#d.#.#.#.#.#.#.#.#.#QtQt",
"QtQt.#.#.#.#.#.#.#.#.#.#.##e.e.e#f.#.#.H.e.I.#.#.##g.e.e#h.#.#.#.#.#.#.#.#.#QtQt",
"QtQt.#.#.#.#.#.#.#.#.#.#.##i.e.e#j.#.#.H.e.I.#.#.##k.e.e#l.#.#.#.#.#.#.#.#.#QtQt",
"QtQt.#.#.#.#.##m#n#o#p#q#r.e.e#s.#.#.#.H.e.I.#.#.#.M.e#t.#.#.#.#.#.#.#.#.#.#QtQt",
"QtQt.#.#.#.#.#.b.e.e.e.e.e.e.v#u.#.#.#.H.e.I.#.#.##v#w#x.#.#.#.#.#.#.#.#.#.#QtQt",
"QtQt.#.#.#.#.#.J.e.e.e.e.W#y#z.#.#.#.##l#A#m.#.#.#.#.#.#.#.#.#.#.#.#.#.#.#.#QtQt",
"QtQt.#.#.#.#.#.##B#C###D.#.#.#.#.#.#.#.#.#.#.#.#.#.#.#.#.#.#.#.#.#.#.#.#.#.#QtQt",
"QtQt.#.#.##E.W.W.W.W.W.W.W.W.W.W.W.W.W.W.W.W.W.W.W.W.W.W.W.W.W.W.W#l.#.#.#.#QtQt",
"QtQt.#.#.#.k.e.e.e.e.e.e.e.e.e.e.e.e.e.e.e.e.e.e.e.e.e.e.e.e.e.e.e#F.#.#.#.#QtQt",
"QtQt.#.#.##G.Y.Y.Y.Y.Y.Y.Y.Y.Y.Y.Y.Y.Y.Y.Y.Y.Y.Y.Y.Y.Y.Y.Y.Y.Y.Y.Y.0.#.#.#.#QtQt",
"QtQt.#.#.#.#.#.#.#.#.#.#.#.#.#.#.#.#.#.#.#.#.#.#.#.#.#.#.#.#.#.#.#.#.#.#.#.#QtQt",
"QtQtQtQtQtQtQtQtQtQtQtQtQtQtQtQtQtQtQtQtQtQtQtQtQtQtQtQtQtQtQtQtQtQtQtQtQtQtQtQt",
"QtQtQtQtQtQtQtQtQtQtQtQtQtQtQtQtQtQtQtQtQtQtQtQtQtQtQtQtQtQtQtQtQtQtQtQtQtQtQtQt"};
