/* XPM */
static char *dummy[]={
"40 30 103 2",
"Qt c #000000",
".h c #2d0043",
".p c #2e0144",
"#n c #2f0345",
"#k c #340849",
".A c #350a4a",
"#. c #360b4b",
"#E c #390e4d",
".x c #390f4e",
".1 c #3a104f",
".W c #3b1150",
".L c #3d1351",
".j c #401754",
"#q c #411855",
".Y c #421955",
".o c #4a245e",
".B c #4c265f",
".g c #4d2760",
".v c #522d64",
".M c #532e65",
"#d c #553066",
".X c #553167",
"#c c #563268",
"#p c #573369",
"#z c #583469",
".2 c #5a376c",
"#l c #5c396d",
"#y c #5d3a6e",
".0 c #5f3d70",
".n c #5f3e71",
".P c #613f72",
".i c #634173",
".U c #634274",
".O c #654475",
".b c #674677",
".4 c #6d4e7d",
".C c #6f507e",
".6 c #70517f",
".9 c #755783",
".N c #775a85",
".T c #785b86",
"#w c #7a5e88",
".H c #7e628b",
".Q c #81678f",
"#u c #82678f",
".k c #836890",
".c c #836990",
".5 c #886f95",
".d c #8d7499",
".e c #8e769a",
".D c #917a9d",
".R c #927b9e",
"#t c #947d9f",
".8 c #967fa1",
".u c #9781a2",
".m c #9c87a6",
".E c #9d88a7",
".J c #9e89a8",
"#C c #9f8aa9",
"#F c #9f8ba9",
"#r c #a28eac",
"#e c #a490ad",
"#m c #a491ae",
"#f c #a693af",
"#v c #a895b1",
".Z c #a996b2",
"#a c #a997b2",
".q c #ac9ab4",
".G c #ad9cb6",
".a c #b5a5bd",
".I c #b6a6bd",
".w c #b7a8bf",
"#G c #bbacc2",
"#B c #bcaec3",
"#o c #beb0c5",
"#I c #bfb1c5",
"## c #c0b2c6",
"#j c #c2b5c8",
".S c #c4b7ca",
"#x c #c5b8cb",
"#J c #c5b9cb",
"#b c #c8bcce",
".s c #cabecf",
".z c #cec4d4",
"#s c #d4cbd9",
"#h c #d9d1dd",
".F c #dcd5e0",
".t c #ddd6e1",
"#A c #e0d9e3",
"#H c #e2dce5",
".f c #eae6ed",
".V c #ebe7ed",
".r c #efebf0",
"#K c #efecf1",
".7 c #f1eef2",
".K c #f3f1f5",
"#i c #f6f4f7",
".y c #f7f5f8",
"#g c #f9f8fa",
"#D c #fdfcfd",
".l c #fdfdfe",
".3 c #fefefe",
".# c #ffffff",
"QtQtQtQtQtQtQtQtQtQtQtQtQtQtQtQtQtQtQtQtQtQtQtQtQtQtQtQtQtQtQtQtQtQtQtQtQtQtQtQt",
"QtQtQtQtQtQtQtQtQtQtQtQtQtQtQtQtQtQtQtQtQtQtQtQtQtQtQtQtQtQtQtQtQtQtQtQtQtQtQtQt",
"QtQt.#.#.#.a.b.c.c.d.e.e.e.e.e.e.e.e.e.e.e.e.e.e.e.e.e.e.e.e.e.e.f.#.#.#.#.#QtQt",
"QtQt.#.#.#.g.h.h.h.h.h.h.h.h.h.h.h.h.h.h.h.h.h.h.h.h.h.h.h.h.h.h.i.#.#.#.#.#QtQt",
"QtQt.#.#.#.e.j.h.h.h.h.h.h.h.h.h.h.h.h.h.h.h.h.h.h.h.h.h.h.h.h.h.k.#.#.#.#.#QtQt",
"QtQt.#.#.#.#.#.l.m.n.o.h.h.p.q.r.r.r.r.r.r.r.s.t.r.r.r.r.r.r.r.r.#.#.#.#.#.#QtQt",
"QtQt.#.#.#.#.u.v.h.h.h.h.h.h.u.#.#.#.#.#.#.w.h.x.y.#.#.#.#.#.#.#.#.#.#.#.#.#QtQt",
"QtQt.#.#.#.z.h.h.h.A.B.C.D.u.#.#.#.#.#.#.#.E.h.h.F.#.#.#.#.#.#.#.#.#.#.#.#.#QtQt",
"QtQt.#.#.#.G.h.h.H.#.#.#.#.#.#.#.#.#.#.#.#.E.h.h.F.#.#.#.#.#.#.#.#.#.#.#.#.#QtQt",
"QtQt.#.#.#.I.h.h.J.#.#.#.#.#.#.#.#.#.#.#.#.E.h.h.F.#.#.#.#.#.#.#.#.#.#.#.#.#QtQt",
"QtQt.#.#.#.K.L.h.M.#.#.#.#.#.#.#.#.#.N.g.O.P.h.h.Q.R.R.R.S.#.#.#.#.#.#.#.#.#QtQt",
"QtQt.#.#.#.#.T.h.h.U.V.#.#.#.#.#.#.#.p.h.h.h.h.h.h.h.h.h.W.#.#.#.#.#.#.#.#.#QtQt",
"QtQt.#.#.#.#.#.X.h.h.Y.Z.#.#.#.#.#.#.d.0.1.h.h.h.h.h.h.h.2.#.#.#.#.#.#.#.#.#QtQt",
"QtQt.#.#.#.#.#.3.4.h.h.h.5.#.#.#.#.#.#.#.#.6.h.A.7.7.7.7.#.#.#.#.#.#.#.#.#.#QtQt",
"QtQt.#.#.#.#.#.#.#.8.h.h.h.5.#.#.#.#.#.#.#.9.h#..#.#.#.#.#.#.#.#.#.#.#.#.#.#QtQt",
"QtQt.#.#.#.#.#.#.#.###.p.h.h#a.#.#.#.#.#.#.9.h#..#.#.#.#.#.#.#.#.#.#.#.#.#.#QtQt",
"QtQt.#.#.#.#.#.#.#.#.##b#..h#c.#.#.#.#.#.#.9.h#..#.#.#.#.#.#.#.#.#.#.#.#.#.#QtQt",
"QtQt.#.#.#.#.#.#.#.#.#.##d.h#d.#.#.#.#.#.#.9.h#..#.#.#.#.#.#.#.#.#.#.#.#.#.#QtQt",
"QtQt.#.#.#.#.#.#.#.#.#.##d.h#d.#.#.#.#.#.##e.h.h#f.#.#.l#g.#.#.#.#.#.#.#.#.#QtQt",
"QtQt.#.#.#.#.#.#.#.#.#.##d.h#d.#.#.#.#.#.#.#.L.h.h.p.p.p#.#h.#.#.#.#.#.#.#.#QtQt",
"QtQt.#.#.#.#.#.##i.#.##j#k.h#l.#.#.#.#.#.#.##m#n.h.h.h.h.h#o.#.#.#.#.#.#.#.#QtQt",
"QtQt.#.#.#.#.#.i.h#p#p#q.h.h#r.#.#.#.#.#.#.#.##s#t#u#u#u#v.#.#.#.#.#.#.#.#.#QtQt",
"QtQt.#.#.#.#.#.j.h.h.h.h.h#w.#.#.#.#.#.#.#.#.#.#.#.#.#.#.#.#.#.#.#.#.#.#.#.#QtQt",
"QtQt.#.#.#.#.##x#y#p#p#z.J.#.#.#.#.#.#.#.#.#.#.#.#.#.#.#.#.#.#.#.#.#.#.#.#.#QtQt",
"QtQt.#.#.#.#.##A#B#B#B#B#B#B#B#B#B#B#B#B#B#B#B#B#B#B#B#B#B.I.u#C.#.#.#.#.#.#QtQt",
"QtQt.#.#.#.##D#E.h.h.h.h.h.h.h.h.h.h.h.h.h.h.h.h.h.h.h.h.h.h.h.h#F.#.#.#.#.#QtQt",
"QtQt.#.#.#.#.3.x.h.h.h.h.h.h.h.h.h.h.h.h.h.h.h.h.h.h.h.h.h.h.h.h#G.#.#.#.#.#QtQt",
"QtQt.#.#.#.#.##H#I#I#I#I#I#I#I#I#I#I#I#I#I#I#I#I#I#I#I#I#I#J#A#K.#.#.#.#.#.#QtQt",
"QtQtQtQtQtQtQtQtQtQtQtQtQtQtQtQtQtQtQtQtQtQtQtQtQtQtQtQtQtQtQtQtQtQtQtQtQtQtQtQt",
"QtQtQtQtQtQtQtQtQtQtQtQtQtQtQtQtQtQtQtQtQtQtQtQtQtQtQtQtQtQtQtQtQtQtQtQtQtQtQtQt"};
