/* XPM */
static char *dummy[]={
"3 32 5 1",
". c #1dbc52",
"a c #36d86c",
"b c #39dc70",
"# c #42e679",
"c c #58ff90",
"...",
"...",
"...",
"...",
"...",
"...",
"...",
"...",
"...",
"...",
"...",
"...",
"...",
"...",
"...",
"...",
"...",
"...",
"...",
"...",
"...",
"...",
"...",
"...",
"#ab",
"ccc",
"ccc",
"ccc",
"ccc",
"ccc",
"ccc",
"ccc"};
