/* XPM */
static char *dummy[]={
"23 23 78 2",
".w c #000000",
".q c #010101",
".E c #030302",
".S c #050503",
".9 c #060504",
".B c #060605",
".H c #090807",
".v c #090907",
".T c #0b0a08",
".N c #0b0b09",
".5 c #0d0c0a",
".Y c #100f0c",
".O c #1c1a16",
".Z c #1f1d18",
".M c #24221c",
".A c #27241e",
".l c #2e2a23",
".L c #302d25",
".2 c #38342a",
".r c #403c32",
".W c #413c32",
".V c #423e33",
"#b c #4b4639",
".x c #4f493c",
".D c #595345",
".F c #60594a",
"#. c #635c4c",
".4 c #645d4c",
".p c #686150",
".R c #696151",
"#f c #726a57",
".I c #7c745f",
".u c #7f7662",
".X c #8d846c",
".6 c #8e856d",
".3 c #968b72",
"#c c #9f947a",
".m c #ada184",
".G c #b2a588",
".8 c #b4a78a",
".z c #b8ab8d",
".0 c #b9ac8e",
".P c #bcae8f",
".C c #beb092",
".U c #bfb092",
".i c #c0b192",
"#e c #c3b595",
".1 c #d3c4a1",
"#l c #d8a124",
".h c #dca72e",
"#d c #ddcda9",
".K c #deceaa",
"#k c #e0ac3a",
".e c #e2b040",
".s c #e3d2ad",
"## c #e3d3ae",
".k c #e8d7b1",
".j c #e8d7b2",
".J c #eeddb6",
"#j c #efbe53",
"#i c #efc66a",
".a c #f2c35b",
"#h c #f2d185",
"#g c #f3ce7c",
".g c #f3d186",
".7 c #f4e2bb",
".d c #f5d181",
".t c #f5e4bc",
"#a c #f6e5bd",
".y c #f7e5bd",
".Q c #f8e6bd",
".n c #f8e7be",
".# c #f9cc69",
"Qt c #facd6b",
".o c #fae8bf",
".b c #fbdc98",
".c c #fbe0a5",
".f c #fbe9c0",
"QtQtQtQtQtQtQtQtQtQtQtQtQtQtQtQtQtQtQtQtQt.#.a",
"Qt.b.c.c.c.c.c.c.c.c.c.c.c.c.c.c.c.c.c.c.c.d.e",
"Qt.c.f.f.f.f.f.f.f.f.f.f.f.f.f.f.f.f.f.f.f.g.h",
"Qt.c.f.f.f.f.f.f.f.f.f.f.f.f.f.f.f.f.f.f.f.g.h",
"Qt.c.f.f.f.f.f.f.f.f.f.f.f.f.f.f.f.f.f.f.f.g.h",
"Qt.c.f.f.f.f.f.f.f.f.f.i.j.f.f.f.f.f.f.f.f.g.h",
"Qt.c.f.f.f.f.f.f.f.f.k.l.m.n.f.f.f.f.f.f.f.g.h",
"Qt.c.f.f.f.f.f.f.f.o.p.q.r.s.f.f.f.f.f.f.f.g.h",
"Qt.c.f.f.f.f.f.f.t.u.v.w.w.x.y.f.f.f.f.f.f.g.h",
"Qt.c.f.f.f.f.f.f.z.A.q.w.w.B.C.f.f.f.f.f.f.g.h",
"Qt.c.f.f.f.f.f.f.D.E.w.w.w.w.F.j.f.f.f.f.f.g.h",
"Qt.c.f.f.f.f.f.G.B.w.w.w.w.w.H.I.J.f.f.f.f.g.h",
"Qt.c.f.f.f.f.K.L.w.w.w.M.N.w.w.O.P.f.f.f.f.g.h",
"Qt.c.f.f.f.Q.R.S.w.w.T.U.V.q.w.w.W.o.f.f.f.g.h",
"Qt.c.f.f.f.X.Y.w.w.Z.0.f.1.2.w.w.w.3.f.f.f.g.h",
"Qt.c.f.f.f.4.w.w.5.6.7.f.f.8.9.w.w.4.f.f.f.g.h",
"Qt.c.f.f.f#..w.w.F##.f.f.f#a#b.w.w#..f.f.f.g.h",
"Qt.c.f.f.f#c#.#.#d.f.o.f.f.o#e#f#.#c.f.f.f.g.h",
"Qt.c.f.f.f.f.f.f.f.f.f.f.f.f.f.f.f.f.f.f.f.g.h",
"Qt.c.f.f.f.f.f.f.f.f.f.f.f.f.f.f.f.f.f.f.f.g.h",
"Qt.c.f.f.f.f.f.f.f.f.f.f.f.f.f.f.f.f.f.f.f.g.h",
"Qt#g#h.g.g.g.g.g.g.g.g.g.g.g.g.g.g.g.g.g.g#i.h",
"#j#k.h.h.h.h.h.h.h.h.h.h.h.h.h.h.h.h.h.h.h.h#l"};
