/* XPM */
static char *dummy[]={
"23 23 47 1",
"m c #000000",
"l c #050402",
"B c #120e07",
"y c #130f08",
"K c #1b150b",
"s c #1c160c",
"J c #211a0e",
"u c #261e10",
"o c #2c2212",
"L c #312614",
"j c #362a17",
"z c #4c3b20",
"G c #5a4626",
"C c #604b28",
"i c #6a522d",
"x c #6c542d",
"D c #71592f",
"k c #765b32",
"w c #795e33",
"M c #816436",
"n c #866938",
"A c #90703c",
"v c #94733e",
"p c #997740",
"q c #9e7b42",
"F c #a47f45",
"H c #ae8849",
"r c #c79b53",
"E c #cd9f56",
"I c #d6a65a",
"t c #d8a85b",
"S c #daa145",
"h c #dda449",
"e c #e6af57",
"R c #e7b058",
"P c #eab25a",
"g c #edb65e",
"f c #f3bd66",
"d c #f3bd69",
"O c #f3be6a",
"a c #f6c77c",
"Q c #f8ca80",
"c c #f9c572",
"b c #fcc978",
"# c #fdd18a",
"N c #ffd48d",
". c #ffd48e",
".....................#a",
".bcccccccccccccccccccde",
".cfffffffffffffffffffgh",
".cfffffffffffffffffffgh",
".cfffffffffffffffffffgh",
".cfffffffffffffffffffgh",
".cfffffffijjjjfffffffgh",
".cffffffklmmmmkffffffgh",
".cffffffmmmnommpfffffgh",
".cffffffmmqfrsmpfffffgh",
".cffffffmmtffumpfffffgh",
".cffffvwmmxwwymzwffffgh",
".cfffABmmmmmmmmmmAfffgh",
".cfffCmmDEEEEEDmmCfffgh",
".cfffCmmfffmFffGmCfffgh",
".cfffCmmHffpIfHJmCfffgh",
".cfffCmmKLLLLLKmmCfffgh",
".cffffMCCCCCCCCCCffffgh",
".cfffffffffffffffffffgh",
".cfffffffffffffffffffgh",
".cfffffffffffffffffffgh",
"NOgggggggggggggggggggPh",
"QRhhhhhhhhhhhhhhhhhhhhS"};
