/* XPM */
static char *dummy[]={
"40 30 13 1",
"h c #000000",
"g c #d9a044",
"f c #e7af56",
"d c #edb762",
"c c #f1bc68",
"e c #f3bd66",
"j c #f4c16d",
"a c #f4c478",
"k c #f5c67a",
"# c #fbcf87",
"b c #ffcd7d",
"i c #ffd48d",
". c #ffd48e",
"......................................#a",
".bbbbbbbbbbbbbbbbbbbbbbbbbbbbbbbbbbbbbcd",
".beeeeeeeeeeeeeeeeeeeeeeeeeeeeeeeeeeeefg",
".beeeeeeeeeeeeeeeeeeeeeeeeeeeeeeeeeeeefg",
".beeeeeeeeeeeeeeeeeeeeeeeeeeeeeeeeeeeefg",
".beeeeeeeeeeeeeeeeeeeeeeeeeeeeeeeeeeeefg",
".beeeeeeeeeeeeeeeeeeeeeeeeeeeeeeeeeeeefg",
".beeeeeeeeeeeeeeehhhhhhhhhheeeeeeeeeeefg",
".beeeeeeeeeeeeeehhhhhhhhhhhheeeeeeeeeefg",
".beeeeeeeeeeeeeehheeeeeeeehheeeeeeeeeefg",
".beeeeeeeeeeeeeehheeeeeeeehheeeeeeeeeefg",
".beeeeeeeeeeehhhhhhhhhheeehheeeeeeeeeefg",
".beeeeeeeeeehhhhhhhhhhhheehheeeeeeeeeefg",
".beeeeeeeeeehheehheeeehheehheeeeeeeeeefg",
".beeeeeeeeeehheehheeeehheehheeeeeeeeeefg",
".beeeeeeeeeehheehheeeehheehheeeeeeeeeefg",
".beeeeeeeeeehheehheeeehheehheeeeeeeeeefg",
".beeeeeeeeeehheehhhhhhhhhhhheeeeeeeeeefg",
".beeeeeeeeeehheeehhhhhhhhhheeeeeeeeeeefg",
".beeeeeeeeeehheeeeeeeehheeeeeeeeeeeeeefg",
".beeeeeeeeeehheeeeeeeehheeeeeeeeeeeeeefg",
".beeeeeeeeeehhhhhhhhhhhheeeeeeeeeeeeeefg",
".beeeeeeeeeeehhhhhhhhhheeeeeeeeeeeeeeefg",
".beeeeeeeeeeeeeeeeeeeeeeeeeeeeeeeeeeeefg",
".beeeeeeeeeeeeeeeeeeeeeeeeeeeeeeeeeeeefg",
".beeeeeeeeeeeeeeeeeeeeeeeeeeeeeeeeeeeefg",
".beeeeeeeeeeeeeeeeeeeeeeeeeeeeeeeeeeeefg",
".beeeeeeeeeeeeeeeeeeeeeeeeeeeeeeeeeeeefg",
"ijfffffffffffffffffffffffffffffffffffffg",
"kdgggggggggggggggggggggggggggggggggggggg"};
