/* XPM */
static char *dummy[]={
"30 30 62 1",
"o c #5a4522",
"W c #5b4522",
"J c #5c4622",
"P c #5d4723",
"k c #5f4823",
"M c #5f4923",
"l c #604924",
"t c #614a24",
"u c #644c25",
"B c #654d26",
"Z c #684f27",
"L c #685027",
"C c #695027",
"I c #6d5329",
"H c #6e5429",
"Q c #6f5429",
"5 c #72562a",
"Y c #72572b",
"n c #75592c",
"p c #795c2d",
"w c #7b5d2e",
"X c #7c5f2e",
"x c #806130",
"E c #806230",
"S c #876732",
"F c #886732",
"3 c #8c6b34",
"U c #8e6c35",
"V c #8f6d35",
"h c #906e36",
"i c #916f36",
"T c #957137",
"q c #967238",
"r c #997539",
"f c #9a722e",
"y c #9b763a",
"z c #a0793b",
"G c #a07a3c",
"2 c #a37c3d",
"K c #a57e3d",
"e c #a67e38",
"O c #a77f3e",
"6 c #a8803a",
"N c #a9803f",
"g c #a9813b",
"j c #aa813f",
"1 c #ab8240",
"m c #ac8340",
"7 c #ad8642",
"c c #ad8643",
"s c #ae8441",
"4 c #ae8541",
"v c #af8541",
"A c #b08641",
"0 c #b08642",
"D c #b28742",
"R c #b38843",
"d c #b48943",
"b c #b8914e",
"a c #c39d5b",
"# c #cea867",
". c #d1ab6a",
"............................#a",
".aaaaaaaaaaaaaaaaaaaaaaaaaaabc",
".addddddddddddddddddddddddddef",
".addddddddddddddddddddddddddgf",
".addddddddddddddddddddddddddgf",
".addddddddddddddddddddddddddgf",
".addddddddddddddddddddddddddgf",
".addddddddddddhiddddddddddddgf",
".adddddddddddjklmdddddddddddgf",
".adddddddddddnoopdddddddddddgf",
".addddddddddqoooorddddddddddgf",
".adddddddddstoooouvdddddddddgf",
".adddddddddwooooooxdddddddddgf",
".addddddddyoooooooozddddddddgf",
".adddddddABooooooooCDdddddddgf",
".adddddddEooooooooooFdddddddgf",
".addddddGoooooHIooooJKddddddgf",
".adddddDLooooMNOPooooQRdddddgf",
".adddddSoooooTddUoooooVdddddgf",
".adddddWooooXddddYooooWdddddgf",
".adddddooooZ0dddd1loooodddddgf",
".adddddoooJ2ddddddqoooodddddgf",
".adddddooo3ddddddR45ooodddddgf",
".addddddddddddddddddddddddddgf",
".addddddddddddddddddddddddddgf",
".addddddddddddddddddddddddddgf",
".addddddddddddddddddddddddddgf",
".addddddddddddddddddddddddddgf",
".a6ggggggggggggggggggggggggggf",
"a7ffffffffffffffffffffffffffff"};
