/* XPM */
static char *dummy[]={
"40 30 50 1",
"i c #000000",
"F c #050504",
"x c #070605",
"s c #080706",
"j c #090807",
"q c #0a0908",
"m c #0c0b09",
"P c #0d0c0a",
"p c #615a4b",
"w c #625b4b",
"G c #635c4c",
"B c #645d4d",
"N c #655e4e",
"E c #665f4e",
"R c #766e5a",
"Q c #7a715d",
"M c #7d7460",
"o c #7e7560",
"l c #7f7661",
"u c #817863",
"z c #847a65",
"D c #877d67",
"H c #887e68",
"A c #897f69",
"I c #8a8069",
"J c #8c826b",
"v c #8d836c",
"K c #90856e",
"r c #91866f",
"O c #948971",
"L c #958a72",
"n c #a99d82",
"k c #aa9e82",
"C c #ab9f83",
"t c #ada185",
"y c #aea285",
"g c #d69e20",
"V c #dfac3b",
"d c #e2b142",
"T c #e8b84a",
"U c #eab849",
"f c #eabb50",
"h c #ebbc51",
"S c #edc263",
"a c #efbf55",
"c c #f3ca71",
"# c #f8cb68",
". c #facd6b",
"b c #fbd88d",
"e c #fbe9c0",
"......................................#a",
".bbbbbbbbbbbbbbbbbbbbbbbbbbbbbbbbbbbbbcd",
".beeeeeeeeeeeeeeeeeeeeeeeeeeeeeeeeeeeefg",
".beeeeeeeeeeeeeeeeeeeeeeeeeeeeeeeeeeeehg",
".beeeeeeeeeeeeeeeeeeeeeeeeeeeeeeeeeeeehg",
".beeeeeeeeeeeeeeeeeeeeeeeeeeeeeeeeeeeehg",
".beeeeeeeeeeeeeeeeeeeeeeeeeeeeeeeeeeeehg",
".beeeeeeeeeeijkeeeeeeeeeeliieeeeeeeeeehg",
".beeeeeeeeeeiimneeeeeeeeoiiieeeeeeeeeehg",
".beeeeeeeeeepiiqkeeeeeeliiireeeeeeeeeehg",
".beeeeeeeeeeepiisteeeeuiiiveeeeeeeeeeehg",
".beeeeeeeeeeeewiixyeeziiiAeeeeeeeeeeeehg",
".beeeeeeeeeeeeeBiixCAiiiDeeeeeeeeeeeeehg",
".beeeeeeeeeeeeeeEiiFiiiDeeeeeeeeeeeeeehg",
".beeeeeeeeeeeeeeeGiiiiHeeeeeeeeeeeeeeehg",
".beeeeeeeeeeeeeeeIiiiFCeeeeeeeeeeeeeeehg",
".beeeeeeeeeeeeeeJiiiiisteeeeeeeeeeeeeehg",
".beeeeeeeeeeeeeKiiiowiixyeeeeeeeeeeeeehg",
".beeeeeeeeeeeeLiiiMeeNiisCeeeeeeeeeeeehg",
".beeeeeeeeeeeOiiiMeeeeNiiqkeeeeeeeeeeehg",
".beeeeeeeeeeOiiioeeeeeewiiPkeeeeeeeeeehg",
".beeeeeeeeeeiiiQeeeeeeeepiijeeeeeeeeeehg",
".beeeeeeeeeeiiReeeeeeeeeepiieeeeeeeeeehg",
".beeeeeeeeeeeeeeeeeeeeeeeeeeeeeeeeeeeehg",
".beeeeeeeeeeeeeeeeeeeeeeeeeeeeeeeeeeeehg",
".beeeeeeeeeeeeeeeeeeeeeeeeeeeeeeeeeeeehg",
".beeeeeeeeeeeeeeeeeeeeeeeeeeeeeeeeeeeehg",
".beeeeeeeeeeeeeeeeeeeeeeeeeeeeeeeeeeeehg",
".SThhhhhhhhhhhhhhhhhhhhhhhhhhhhhhhhhhhhg",
"UVgggggggggggggggggggggggggggggggggggggg"};
