/* XPM */
static char *dummy[]={
"40 30 51 1",
"h c #000000",
"E c #050200",
"w c #070300",
"r c #080400",
"i c #090400",
"p c #090500",
"l c #0b0600",
"O c #0c0600",
"o c #5e3100",
"v c #5f3100",
"F c #603200",
"A c #613200",
"M c #623200",
"D c #633300",
"Q c #723b00",
"P c #763d00",
"L c #793e00",
"n c #793f00",
"k c #7a3f00",
"t c #7c4000",
"y c #7f4200",
"C c #824300",
"G c #834400",
"z c #844400",
"H c #854500",
"I c #874600",
"u c #884600",
"J c #8b4800",
"q c #8c4800",
"N c #8e4a00",
"K c #8f4a00",
"m c #a35400",
"j c #a45500",
"B c #a55500",
"s c #a75600",
"x c #a85700",
"g c #d15500",
"W c #d35702",
"V c #da600c",
"d c #df6512",
"U c #e46d1b",
"T c #e76c17",
"f c #e86d18",
"a c #ed7827",
"S c #ee7b2c",
"e c #f27d00",
"R c #f28235",
"c c #f28337",
"# c #f78c43",
"b c #f78d45",
". c #ff9b58",
"......................................#a",
".bbbbbbbbbbbbbbbbbbbbbbbbbbbbbbbbbbbbbcd",
".beeeeeeeeeeeeeeeeeeeeeeeeeeeeeeeeeeeefg",
".beeeeeeeeeeeeeeeeeeeeeeeeeeeeeeeeeeeefg",
".beeeeeeeeeeeeeeeeeeeeeeeeeeeeeeeeeeeefg",
".beeeeeeeeeeeeeeeeeeeeeeeeeeeeeeeeeeeefg",
".beeeeeeeeeeeeeeeeeeeeeeeeeeeeeeeeeeeefg",
".beeeeeeeeeehijeeeeeeeeeekhheeeeeeeeeefg",
".beeeeeeeeeehhlmeeeeeeeenhhheeeeeeeeeefg",
".beeeeeeeeeeohhpjeeeeeekhhhqeeeeeeeeeefg",
".beeeeeeeeeeeohhrseeeethhhueeeeeeeeeeefg",
".beeeeeeeeeeeevhhwxeeyhhhzeeeeeeeeeeeefg",
".beeeeeeeeeeeeeAhhwBzhhhCeeeeeeeeeeeeefg",
".beeeeeeeeeeeeeeDhhEhhhCeeeeeeeeeeeeeefg",
".beeeeeeeeeeeeeeeFhhhhGeeeeeeeeeeeeeeefg",
".beeeeeeeeeeeeeeeHhhhEBeeeeeeeeeeeeeeefg",
".beeeeeeeeeeeeeeIhhhhhrseeeeeeeeeeeeeefg",
".beeeeeeeeeeeeeJhhhnvhhwxeeeeeeeeeeeeefg",
".beeeeeeeeeeeeKhhhLeeMhhrBeeeeeeeeeeeefg",
".beeeeeeeeeeeNhhhLeeeeMhhpjeeeeeeeeeeefg",
".beeeeeeeeeeNhhhneeeeeevhhOjeeeeeeeeeefg",
".beeeeeeeeeehhhPeeeeeeeeohhieeeeeeeeeefg",
".beeeeeeeeeehhQeeeeeeeeeeohheeeeeeeeeefg",
".beeeeeeeeeeeeeeeeeeeeeeeeeeeeeeeeeeeefg",
".beeeeeeeeeeeeeeeeeeeeeeeeeeeeeeeeeeeefg",
".beeeeeeeeeeeeeeeeeeeeeeeeeeeeeeeeeeeefg",
".beeeeeeeeeeeeeeeeeeeeeeeeeeeeeeeeeeeefg",
".beeeeeeeeeeeeeeeeeeeeeeeeeeeeeeeeeeeefg",
"RSffffffffffffffffffffffffffffffffffffTg",
"UVWggggggggggggggggggggggggggggggggggggg"};
