/* XPM */
static char *dummy[]={
"30 30 62 1",
"h c #5a4522",
"t c #5b4522",
"o c #5c4622",
"B c #5d4723",
"2 c #5f4823",
"E c #5f4923",
"p c #604924",
"W c #614a24",
"V c #644c25",
"O c #654d26",
"s c #684f27",
"F c #685027",
"N c #695027",
"I c #6d5329",
"J c #6e5429",
"A c #6f5429",
"i c #72562a",
"u c #72572b",
"0 c #75592c",
"Z c #795c2d",
"T c #7b5d2e",
"v c #7c5f2e",
"S c #806130",
"M c #806230",
"z c #876732",
"L c #886732",
"l c #8c6b34",
"x c #8e6c35",
"w c #8f6d35",
"5 c #906e36",
"4 c #916f36",
"y c #957137",
"m c #967238",
"Y c #997539",
"f c #9a722e",
"R c #9b763a",
"Q c #a0793b",
"K c #a07a3c",
"n c #a37c3d",
"H c #a57e3d",
"e c #a67e38",
"C c #a77f3e",
"6 c #a8803a",
"D c #a9803f",
"g c #a9813b",
"3 c #aa813f",
"q c #ab8240",
"1 c #ac8340",
"7 c #ad8642",
"c c #ad8643",
"X c #ae8441",
"j c #ae8541",
"U c #af8541",
"P c #b08641",
"r c #b08642",
"G c #b28742",
"k c #b38843",
"d c #b48943",
"b c #b8914e",
"a c #c39d5b",
"# c #cea867",
". c #d1ab6a",
"............................#a",
".aaaaaaaaaaaaaaaaaaaaaaaaaaabc",
".addddddddddddddddddddddddddef",
".addddddddddddddddddddddddddgf",
".addddddddddddddddddddddddddgf",
".addddddddddddddddddddddddddgf",
".addddddddddddddddddddddddddgf",
".adddddhhhijkddddddlhhhdddddgf",
".adddddhhhhmddddddnohhhdddddgf",
".adddddhhhhpqddddrshhhhdddddgf",
".adddddthhhhuddddvhhhhtdddddgf",
".adddddwhhhhhxddyhhhhhzdddddgf",
".adddddkAhhhhBCDEhhhhFGdddddgf",
".addddddHohhhhIJhhhhhKddddddgf",
".adddddddLhhhhhhhhhhMdddddddgf",
".adddddddGNhhhhhhhhOPdddddddgf",
".addddddddQhhhhhhhhRddddddddgf",
".adddddddddShhhhhhTdddddddddgf",
".adddddddddUVhhhhWXdddddddddgf",
".addddddddddYhhhhmddddddddddgf",
".adddddddddddZhh0dddddddddddgf",
".addddddddddd1p23dddddddddddgf",
".adddddddddddd45ddddddddddddgf",
".addddddddddddddddddddddddddgf",
".addddddddddddddddddddddddddgf",
".addddddddddddddddddddddddddgf",
".addddddddddddddddddddddddddgf",
".addddddddddddddddddddddddddgf",
".a6ggggggggggggggggggggggggggf",
"a7ffffffffffffffffffffffffffff"};
