/* XPM */
static char *dummy[]={
"16 16 64 1",
"r c #000000",
"U c #010101",
"q c #020202",
"I c #030202",
"x c #040403",
"P c #080706",
"V c #090807",
"L c #0a0908",
"C c #0b0a08",
"w c #0c0b0a",
"D c #0d0c0a",
"n c #13120e",
"Y c #181613",
"E c #211f19",
"m c #26241d",
"1 c #27241e",
"B c #2d2922",
"Q c #454035",
"s c #4a4539",
"H c #514b3e",
"T c #595344",
"M c #5a5344",
"p c #5f5748",
"j c #716956",
"J c #7c745f",
"i c #847b65",
"K c #8d826c",
"y c #90866f",
"v c #aea185",
"X c #b3a689",
"2 c #b4a78a",
"O c #bbad8f",
"W c #bdaf91",
"o c #c5b797",
"A c #c6b798",
"4 c #cabc9b",
"Z c #ccbd9c",
"F c #ccbe9c",
"0 c #d2c3a0",
"9 c #dca72f",
"l c #e1d2ad",
"f c #e3b345",
"8 c #e3b347",
"d c #e4b549",
"R c #e6d6b0",
"3 c #e7d6b0",
"6 c #e7d6b1",
"t c #ead9b3",
"h c #ebdab4",
"G c #eddbb5",
"7 c #eebf58",
"g c #eedcb6",
"N c #f0deb7",
"a c #f1c35f",
"S c #f2e0b9",
"k c #f2e1b9",
"5 c #f9e7be",
". c #facf71",
"# c #fad279",
"u c #fae8bf",
"z c #fae9c0",
"b c #fbe4b0",
"c c #fbe6b7",
"e c #fbe9c0",
".##############a",
"#bcccccccccccccd",
"#ceeeeeeeeeeeeef",
"#ceeeeegheeeeeef",
"#ceeeeeijkeeeeef",
"#ceeeelmnoeeeeef",
"#ceeeepqrsteeeef",
"#ceeuvwrrxyzeeef",
"#ceeABrCDrEFeeef",
"#ceGHIrJKLrMNeef",
"#ceOPrQRSTUVWeef",
"#ceXrYZee01r2eef",
"#ce3245ee5426eef",
"#ceeeeeeeeeeeeef",
"#ceeeeeeeeeeeeef",
"78fffffffffffff9"};
