/* XPM */
static char *dummy[]={
"16 16 52 1",
"m c #5a4522",
"n c #5c4623",
"B c #5e4823",
"T c #5e4824",
"l c #5e4924",
"y c #5f4924",
"Q c #614a25",
"s c #624b25",
"z c #654d26",
"A c #664e26",
"v c #695028",
"F c #6d5329",
"R c #6e542a",
"S c #70562a",
"x c #71572a",
"C c #72572a",
"h c #73582b",
"t c #785b2d",
"J c #795d2d",
"L c #7c5e2f",
"p c #826330",
"i c #836431",
"O c #886833",
"g c #896933",
"o c #8b6a34",
"H c #916f36",
"q c #957238",
"k c #987438",
"N c #987439",
"E c #9a763a",
"K c #9b763a",
"X c #9e7632",
"r c #9e783b",
"P c #a17b3d",
"U c #a27b3c",
"G c #a27b3d",
"f c #a37b36",
"d c #a57e38",
"I c #a57e3d",
"W c #a77e3a",
"w c #a9813f",
"D c #aa813f",
"u c #ab8240",
"j c #b08641",
"M c #b28742",
"e c #b48943",
"c c #b78c47",
"b c #b98f4a",
"a c #c09a58",
"V c #c39d5b",
"# c #cba564",
". c #cea867",
".##############a",
"#bcccccccccccccd",
"#ceeeeeeeeeeeeef",
"#ceeeeeeeeeeeeef",
"#ceeeeghhijeeeef",
"#ceeeklmmnoeeeef",
"#ceeepmqrsteeeef",
"#ceeepmuevteeeef",
"#cewxymzAnBCDeef",
"#ceEmFGqHIJmKeef",
"#ceEmLMNHeOmKeef",
"#cePQmRSSSTQGeef",
"#ceeUKKKKKKUeeef",
"#ceeeeeeeeeeeeef",
"#ceeeeeeeeeeeeef",
"VWfffffffffffffX"};
