/* XPM */
static char *dummy[]={
"16 16 53 1",
"m c #000000",
"n c #040302",
"B c #050402",
"C c #0b0805",
"l c #0c0905",
"y c #0e0b06",
"S c #140f08",
"s c #151109",
"z c #1d170c",
"A c #20190e",
"v c #292011",
"G c #332715",
"T c #372b17",
"U c #3b2e19",
"x c #3f311b",
"D c #40311b",
"h c #45351d",
"t c #503e22",
"L c #544123",
"N c #5b4726",
"p c #6b532d",
"i c #6f562f",
"Q c #7e6235",
"g c #806336",
"o c #846638",
"P c #94733e",
"J c #95743f",
"q c #9f7c43",
"I c #a07c43",
"k c #a78246",
"F c #ad8749",
"M c #ae8849",
"r c #b88f4d",
"R c #c19651",
"V c #c29751",
"H c #c29752",
"K c #ca9d55",
"w c #d6a65a",
"E c #d6a75a",
"u c #daaa5c",
"Y c #dda449",
"f c #e2a94f",
"X c #e4ad54",
"d c #e5ac53",
"j c #e7b361",
"O c #edb964",
"e c #f3bd66",
"c c #f5c06a",
"a c #f5c476",
"b c #f7c26d",
"W c #f7c779",
"# c #ffd187",
". c #ffd38b",
".##############a",
"#bcccccccccccccd",
"#ceeeeeeeeeeeeef",
"#ceeeeeeeeeeeeef",
"#ceeeeghhijeeeef",
"#ceeeklmmnoeeeef",
"#ceeepmqrsteeeef",
"#ceeepmuevteeeef",
"#cewxymzABCDEeef",
"#ceFmGHIJKLmMeef",
"#ceFmNOkPeQmMeef",
"#ceRSmTUUUlSVeef",
"#ceeVMMMMMMVeeef",
"#ceeeeeeeeeeeeef",
"#ceeeeeeeeeeeeef",
"WXfffffffffffffY"};
