/* XPM */
static char *dummy[]={
"16 16 51 1",
"m c #000000",
"n c #040200",
"B c #050300",
"C c #0b0500",
"l c #0c0600",
"y c #0e0700",
"Q c #130a00",
"T c #140a00",
"s c #150b00",
"z c #1d0f00",
"A c #201100",
"v c #291500",
"F c #331a00",
"R c #371c00",
"S c #3b1e00",
"x c #3f2000",
"D c #3f2100",
"h c #442300",
"t c #502900",
"J c #532b00",
"L c #5b2f00",
"p c #6a3700",
"i c #6f3900",
"O c #7d4100",
"g c #804200",
"o c #844400",
"N c #944c00",
"H c #954d00",
"q c #9f5200",
"k c #a65600",
"E c #ad5900",
"K c #ae5a00",
"r c #b75f00",
"P c #c16300",
"G c #c16400",
"I c #c96800",
"w c #d56e00",
"W c #d85c06",
"u c #d97000",
"f c #de630a",
"V c #e0660e",
"d c #e0660f",
"j c #e67700",
"U c #ea7727",
"M c #ec7a00",
"a c #ef7e31",
"e c #f27d00",
"c c #f3800c",
"b c #f48216",
"# c #fc9550",
". c #fe9855",
".##############a",
"#bcccccccccccccd",
"#ceeeeeeeeeeeeef",
"#ceeeeeeeeeeeeef",
"#ceeeeghhijeeeef",
"#ceeeklmmnoeeeef",
"#ceeepmqrsteeeef",
"#ceeepmuevteeeef",
"#cewxymzABCDweef",
"#ceEmFGqHIJmKeef",
"#ceEmLMkNeOmKeef",
"#cePQmRSSSlTGeef",
"#ceeGKKKKKKGeeef",
"#ceeeeeeeeeeeeef",
"#ceeeeeeeeeeeeef",
"UVfffffffffffffW"};
