/* XPM */
static char *dummy[]={
"30 30 69 2",
".i c #000000",
".N c #010101",
".v c #030302",
".K c #050504",
".q c #060505",
".D c #090807",
".7 c #0d0c0a",
".G c #0f0e0b",
".r c #100f0c",
".6 c #11100d",
".0 c #151310",
".Z c #1c1a15",
".S c #1e1b17",
".u c #25231d",
".H c #28251f",
".R c #292620",
".L c #353129",
".M c #37332a",
".C c #39352c",
".j c #413c32",
".w c #443f34",
".4 c #4c463a",
".3 c #554f41",
".X c #5c5546",
".x c #5f5949",
".W c #696251",
".Q c #6b6452",
".B c #7c735f",
".P c #7f7661",
".n c #8d836c",
".z c #91866f",
".y c #948971",
"#. c #968b72",
".9 c #9b8f76",
".A c #a4997e",
".o c #a59a7e",
".2 c #afa386",
".V c #b4a78a",
".U c #c2b494",
".O c #c3b595",
".p c #cbbc9b",
".J c #d2c3a0",
".E c #d5c5a3",
".g c #d69e20",
".F c #dbcba7",
"#c c #dfac3b",
".8 c #dfcfab",
".s c #e0d0ac",
".d c #e2b142",
".5 c #e3d3ae",
"#a c #e8b84a",
".1 c #e8d8b2",
"#b c #eab849",
".f c #eabb50",
".k c #ead9b3",
".h c #ebbc51",
"## c #edc263",
".Y c #eddcb5",
".T c #eeddb6",
".a c #efbf55",
".t c #f0dfb8",
".c c #f3ca71",
".I c #f4e3bb",
".# c #f8cb68",
".l c #f9e7be",
"Qt c #facd6b",
".m c #fae8bf",
".b c #fbd88d",
".e c #fbe9c0",
"QtQtQtQtQtQtQtQtQtQtQtQtQtQtQtQtQtQtQtQtQtQtQtQtQtQtQtQt.#.a",
"Qt.b.b.b.b.b.b.b.b.b.b.b.b.b.b.b.b.b.b.b.b.b.b.b.b.b.b.b.c.d",
"Qt.b.e.e.e.e.e.e.e.e.e.e.e.e.e.e.e.e.e.e.e.e.e.e.e.e.e.e.f.g",
"Qt.b.e.e.e.e.e.e.e.e.e.e.e.e.e.e.e.e.e.e.e.e.e.e.e.e.e.e.h.g",
"Qt.b.e.e.e.e.e.e.e.e.e.e.e.e.e.e.e.e.e.e.e.e.e.e.e.e.e.e.h.g",
"Qt.b.e.e.e.e.e.e.e.e.e.e.e.e.e.e.e.e.e.e.e.e.e.e.e.e.e.e.h.g",
"Qt.b.e.e.e.e.e.e.e.e.e.e.e.e.e.e.e.e.e.e.e.e.e.e.e.e.e.e.h.g",
"Qt.b.e.e.e.e.e.i.i.i.j.k.l.e.e.e.m.e.e.n.i.i.i.e.e.e.e.e.h.g",
"Qt.b.e.e.e.e.e.i.i.i.i.o.e.e.e.e.e.e.p.q.i.i.i.e.e.e.e.e.h.g",
"Qt.b.e.e.e.e.e.i.i.i.i.r.s.e.e.e.e.t.u.i.i.i.i.e.e.e.e.e.h.g",
"Qt.b.e.e.e.e.e.v.i.i.i.i.w.m.e.e.e.x.i.i.i.i.v.e.e.e.e.e.h.g",
"Qt.b.e.e.e.e.e.y.i.i.i.i.i.z.e.e.A.i.i.i.i.i.B.e.e.e.e.e.h.g",
"Qt.b.e.e.e.e.e.l.C.i.i.i.i.D.E.F.G.i.i.i.i.H.I.e.e.e.e.e.h.g",
"Qt.b.e.e.e.e.e.e.J.K.i.i.i.i.L.M.i.i.i.i.N.O.e.e.e.e.e.e.h.g",
"Qt.b.e.e.e.e.e.e.e.P.i.i.i.i.i.i.i.i.i.i.Q.e.e.e.e.e.e.e.h.g",
"Qt.b.e.e.e.e.e.e.e.I.R.i.i.i.i.i.i.i.i.S.T.e.e.e.e.e.e.e.h.g",
"Qt.b.e.e.e.e.e.e.e.e.U.N.i.i.i.i.i.i.i.V.e.e.e.e.e.e.e.e.h.g",
"Qt.b.e.e.e.e.e.e.e.e.e.W.i.i.i.i.i.i.X.e.e.e.e.e.e.e.e.e.h.g",
"Qt.b.e.e.e.e.e.e.e.e.e.Y.Z.i.i.i.i.0.1.e.e.e.e.e.e.e.e.e.h.g",
"Qt.b.e.e.e.e.e.e.e.e.e.e.2.i.i.i.i.o.e.e.e.e.e.e.e.e.e.e.h.g",
"Qt.b.e.e.e.e.e.e.e.e.e.e.e.3.i.i.4.m.e.e.e.e.e.e.e.e.e.e.h.g",
"Qt.b.e.e.e.e.e.e.e.e.e.e.e.5.6.7.8.e.e.e.e.e.e.e.e.e.e.e.h.g",
"Qt.b.e.e.e.e.e.e.e.e.e.e.e.e.9#..e.e.e.e.e.e.e.e.e.e.e.e.h.g",
"Qt.b.e.e.e.e.e.e.e.e.e.e.e.e.e.e.e.e.e.e.e.e.e.e.e.e.e.e.h.g",
"Qt.b.e.e.e.e.e.e.e.e.e.e.e.e.e.e.e.e.e.e.e.e.e.e.e.e.e.e.h.g",
"Qt.b.e.e.e.e.e.e.e.e.e.e.e.e.e.e.e.e.e.e.e.e.e.e.e.e.e.e.h.g",
"Qt.b.e.e.e.e.e.e.e.e.e.e.e.e.e.e.e.e.e.e.e.e.e.e.e.e.e.e.h.g",
"Qt.b.e.e.e.e.e.e.e.e.e.e.e.e.e.e.e.e.e.e.e.e.e.e.e.e.e.e.h.g",
"Qt###a.h.h.h.h.h.h.h.h.h.h.h.h.h.h.h.h.h.h.h.h.h.h.h.h.h.h.g",
"#b#c.g.g.g.g.g.g.g.g.g.g.g.g.g.g.g.g.g.g.g.g.g.g.g.g.g.g.g.g"};
