/* XPM */
static char *dummy[]={
"30 30 70 2",
".h c #000000",
".M c #010000",
".u c #030100",
".J c #050200",
".p c #060300",
".C c #090400",
".6 c #0c0600",
".F c #0e0700",
".q c #0f0800",
".5 c #100800",
".Z c #140a00",
".Y c #1b0e00",
".R c #1c0f00",
".t c #241300",
".G c #271400",
".Q c #281500",
".K c #331a00",
".L c #351b00",
".B c #371c00",
".i c #3f2000",
".v c #412200",
".3 c #492600",
".2 c #522a00",
".W c #582e00",
".w c #5c3000",
".V c #663400",
".P c #673500",
".A c #783e00",
".O c #7a3f00",
".m c #884600",
".y c #8c4800",
".x c #8e4a00",
".9 c #904b00",
".8 c #954d00",
".z c #9e5200",
".n c #9f5200",
".1 c #a95700",
".U c #ae5a00",
".T c #bb6100",
".N c #bc6100",
".o c #c36500",
".I c #ca6800",
".D c #cd6a00",
".g c #d15500",
"#d c #d35702",
".E c #d36d00",
".7 c #d76f00",
".r c #d87000",
"#c c #da600c",
".4 c #db7100",
".d c #df6512",
".0 c #e07400",
".j c #e27500",
"#b c #e46d1b",
".X c #e57600",
".S c #e67700",
"#a c #e76c17",
".f c #e86d18",
".s c #e87800",
".H c #eb7a00",
".a c #ed7827",
"## c #ee7b2c",
".k c #f07c00",
".l c #f17d00",
".e c #f27d00",
"#. c #f28235",
".c c #f28337",
".# c #f78c43",
".b c #f78d45",
"Qt c #ff9b58",
"QtQtQtQtQtQtQtQtQtQtQtQtQtQtQtQtQtQtQtQtQtQtQtQtQtQtQtQt.#.a",
"Qt.b.b.b.b.b.b.b.b.b.b.b.b.b.b.b.b.b.b.b.b.b.b.b.b.b.b.b.c.d",
"Qt.b.e.e.e.e.e.e.e.e.e.e.e.e.e.e.e.e.e.e.e.e.e.e.e.e.e.e.f.g",
"Qt.b.e.e.e.e.e.e.e.e.e.e.e.e.e.e.e.e.e.e.e.e.e.e.e.e.e.e.f.g",
"Qt.b.e.e.e.e.e.e.e.e.e.e.e.e.e.e.e.e.e.e.e.e.e.e.e.e.e.e.f.g",
"Qt.b.e.e.e.e.e.e.e.e.e.e.e.e.e.e.e.e.e.e.e.e.e.e.e.e.e.e.f.g",
"Qt.b.e.e.e.e.e.e.e.e.e.e.e.e.e.e.e.e.e.e.e.e.e.e.e.e.e.e.f.g",
"Qt.b.e.e.e.e.e.h.h.h.i.j.k.e.e.e.l.e.e.m.h.h.h.e.e.e.e.e.f.g",
"Qt.b.e.e.e.e.e.h.h.h.h.n.e.e.e.e.e.e.o.p.h.h.h.e.e.e.e.e.f.g",
"Qt.b.e.e.e.e.e.h.h.h.h.q.r.e.e.e.e.s.t.h.h.h.h.e.e.e.e.e.f.g",
"Qt.b.e.e.e.e.e.u.h.h.h.h.v.l.e.e.e.w.h.h.h.h.u.e.e.e.e.e.f.g",
"Qt.b.e.e.e.e.e.x.h.h.h.h.h.y.e.e.z.h.h.h.h.h.A.e.e.e.e.e.f.g",
"Qt.b.e.e.e.e.e.k.B.h.h.h.h.C.D.E.F.h.h.h.h.G.H.e.e.e.e.e.f.g",
"Qt.b.e.e.e.e.e.e.I.J.h.h.h.h.K.L.h.h.h.h.M.N.e.e.e.e.e.e.f.g",
"Qt.b.e.e.e.e.e.e.e.O.h.h.h.h.h.h.h.h.h.h.P.e.e.e.e.e.e.e.f.g",
"Qt.b.e.e.e.e.e.e.e.H.Q.h.h.h.h.h.h.h.h.R.S.e.e.e.e.e.e.e.f.g",
"Qt.b.e.e.e.e.e.e.e.e.T.M.h.h.h.h.h.h.h.U.e.e.e.e.e.e.e.e.f.g",
"Qt.b.e.e.e.e.e.e.e.e.e.V.h.h.h.h.h.h.W.e.e.e.e.e.e.e.e.e.f.g",
"Qt.b.e.e.e.e.e.e.e.e.e.X.Y.h.h.h.h.Z.0.e.e.e.e.e.e.e.e.e.f.g",
"Qt.b.e.e.e.e.e.e.e.e.e.e.1.h.h.h.h.n.e.e.e.e.e.e.e.e.e.e.f.g",
"Qt.b.e.e.e.e.e.e.e.e.e.e.e.2.h.h.3.l.e.e.e.e.e.e.e.e.e.e.f.g",
"Qt.b.e.e.e.e.e.e.e.e.e.e.e.4.5.6.7.e.e.e.e.e.e.e.e.e.e.e.f.g",
"Qt.b.e.e.e.e.e.e.e.e.e.e.e.e.8.9.e.e.e.e.e.e.e.e.e.e.e.e.f.g",
"Qt.b.e.e.e.e.e.e.e.e.e.e.e.e.e.e.e.e.e.e.e.e.e.e.e.e.e.e.f.g",
"Qt.b.e.e.e.e.e.e.e.e.e.e.e.e.e.e.e.e.e.e.e.e.e.e.e.e.e.e.f.g",
"Qt.b.e.e.e.e.e.e.e.e.e.e.e.e.e.e.e.e.e.e.e.e.e.e.e.e.e.e.f.g",
"Qt.b.e.e.e.e.e.e.e.e.e.e.e.e.e.e.e.e.e.e.e.e.e.e.e.e.e.e.f.g",
"Qt.b.e.e.e.e.e.e.e.e.e.e.e.e.e.e.e.e.e.e.e.e.e.e.e.e.e.e.f.g",
"#.##.f.f.f.f.f.f.f.f.f.f.f.f.f.f.f.f.f.f.f.f.f.f.f.f.f.f#a.g",
"#b#c#d.g.g.g.g.g.g.g.g.g.g.g.g.g.g.g.g.g.g.g.g.g.g.g.g.g.g.g"};
