/* XPM */
static char *dummy[]={
"6 25 2 1",
". c #88662d",
"# c #b48943",
"......",
".####.",
".####.",
"......",
".####.",
".####.",
"......",
".####.",
".####.",
"......",
".####.",
".####.",
"......",
".####.",
".####.",
"......",
".####.",
".####.",
".####.",
".####.",
".####.",
".####.",
".####.",
".####.",
".####."};
