/* XPM */
static char *dummy[]={
"3 25 2 1",
". c #88662d",
"# c #b48943",
"...",
"###",
"###",
"###",
"###",
"###",
"###",
"###",
"###",
"###",
"###",
"###",
"###",
"###",
"###",
"###",
"###",
"###",
"###",
"###",
"###",
"###",
"###",
"###",
"..."};
