/* XPM */
static char *dummy[]={
"31 23 10 1",
"g c #5a4522",
"f c #9a722e",
"e c #a9813b",
"h c #ad8642",
"c c #ad8643",
"d c #b48943",
"b c #b8914e",
"a c #c39d5b",
"# c #cea867",
". c #d1ab6a",
".............................#a",
".aaaaaaaaaaaaaaaaaaaaaaaaaaaabc",
".adddddddddddddddddddddddddddef",
".adddddddddddddddddddddddddddef",
".adddddddddddddddddddddddddddef",
".addddddddgggggggggggddddddddef",
".adddddddgggggggggggggdddddddef",
".adddddddggdddddddddggdddddddef",
".adddddddggdddddddddggdddddddef",
".adddddddggdddddddddggdddddddef",
".adddddddggdddddddddggdddddddef",
".adddddddggdddddddddggdddddddef",
".adddddddggdddddddddggdddddddef",
".adddddddggdddddddddggdddddddef",
".adddddddggdddddddddggdddddddef",
".adddddddggdddddddddggdddddddef",
".adddddddgggggggggggggdddddddef",
".addddddddgggggggggggddddddddef",
".adddddddddddddddddddddddddddef",
".adddddddddddddddddddddddddddef",
".adddddddddddddddddddddddddddef",
".aeeeeeeeeeeeeeeeeeeeeeeeeeeeef",
"ahfffffffffffffffffffffffffffff"};
