/* XPM */
static char *dummy[]={
"23 23 74 2",
".p c #5a4522",
".I c #5b4622",
".V c #5d4723",
".M c #5d4823",
"## c #5e4723",
".U c #5e4823",
".t c #5f4824",
".u c #5f4924",
".Q c #604a24",
".A c #614a24",
".B c #624b25",
".N c #624c25",
".S c #634c25",
".y c #644d26",
".8 c #654d26",
".J c #695027",
".Z c #6f552a",
".Y c #71562a",
".E c #72582a",
".5 c #74582c",
".R c #74592b",
".H c #785b2d",
".k c #7e602f",
".q c #806230",
".L c #826330",
".W c #836431",
".o c #896833",
"#a c #8a6833",
".s c #8a6933",
".4 c #8a6934",
".F c #8d6b35",
".2 c #8f6e35",
".z c #906d36",
".1 c #926f36",
".j c #937037",
".v c #987439",
".C c #997539",
"#h c #9b732f",
".h c #9e7632",
"#c c #9e793b",
".T c #9f783b",
".9 c #9f793b",
".l c #a07a3c",
".P c #a37c3c",
".0 c #a47c3d",
"#. c #a47d3d",
".e c #a7803c",
".D c #a8803f",
".n c #a9813f",
"#g c #a9823e",
".K c #ab8240",
"#e c #ab833d",
".O c #ac8340",
".7 c #ad8340",
".r c #ad8440",
".G c #ad8441",
".g c #ae843e",
".i c #ae853f",
".X c #af8541",
"#b c #b08741",
".x c #b18642",
".6 c #b28742",
".3 c #b28842",
".m c #b38842",
".w c #b38843",
".f c #b48943",
".d c #b58e49",
"#d c #b9914d",
".c c #bc9450",
".b c #c09956",
".a c #c6a05f",
"#f c #c7a15f",
".# c #cfa968",
"Qt c #d1ab6a",
"QtQtQtQtQtQtQtQtQtQtQtQtQtQtQtQtQtQtQtQtQt.#.a",
"Qt.b.c.c.c.c.c.c.c.c.c.c.c.c.c.c.c.c.c.c.c.d.e",
"Qt.c.f.f.f.f.f.f.f.f.f.f.f.f.f.f.f.f.f.f.f.g.h",
"Qt.c.f.f.f.f.f.f.f.f.f.f.f.f.f.f.f.f.f.f.f.i.h",
"Qt.c.f.f.f.f.f.f.f.f.f.f.f.f.f.f.f.f.f.f.f.i.h",
"Qt.c.f.f.f.j.k.k.l.m.f.f.f.f.n.o.k.j.f.f.f.i.h",
"Qt.c.f.f.f.k.p.p.q.r.f.f.f.f.s.t.p.k.f.f.f.i.h",
"Qt.c.f.f.f.k.p.p.u.v.w.f.f.x.y.p.p.k.f.f.f.i.h",
"Qt.c.f.f.f.z.A.p.p.B.C.f.D.E.p.p.p.F.f.f.f.i.h",
"Qt.c.f.f.f.G.H.I.p.p.J.K.L.M.p.p.N.O.f.f.f.i.h",
"Qt.c.f.f.f.f.P.Q.p.p.p.R.S.p.p.p.F.f.f.f.f.i.h",
"Qt.c.f.f.f.f.f.T.U.p.p.p.p.p.V.W.X.f.f.f.f.i.h",
"Qt.c.f.f.f.f.f.w.Y.p.p.p.p.p.Z.0.f.f.f.f.f.i.h",
"Qt.c.f.f.f.f.f.f.1.N.p.p.p.p.2.w.f.f.f.f.f.i.h",
"Qt.c.f.f.f.f.f.f.3.4.U.p.p.5.6.f.f.f.f.f.f.i.h",
"Qt.c.f.f.f.f.f.f.f.7.R.p.8.9.f.f.f.f.f.f.f.i.h",
"Qt.c.f.f.f.f.f.f.f.f#.###a#b.f.f.f.f.f.f.f.i.h",
"Qt.c.f.f.f.f.f.f.f.f.f#c.G.f.f.f.f.f.f.f.f.i.h",
"Qt.c.f.f.f.f.f.f.f.f.f.f.f.f.f.f.f.f.f.f.f.i.h",
"Qt.c.f.f.f.f.f.f.f.f.f.f.f.f.f.f.f.f.f.f.f.i.h",
"Qt.c.f.f.f.f.f.f.f.f.f.f.f.f.f.f.f.f.f.f.f.i.h",
"Qt#d.i.i.i.i.i.i.i.i.i.i.i.i.i.i.i.i.i.i.i#e.h",
"#f#g.h.h.h.h.h.h.h.h.h.h.h.h.h.h.h.h.h.h.h.h#h"};
