/* XPM */
static char *dummy[]={
"23 23 81 2",
".p c #000000",
".R c #010000",
".I c #030100",
".X c #070400",
".M c #080400",
".W c #090500",
".6 c #0a0600",
"#c c #0b0600",
".t c #0d0700",
".u c #0e0700",
".Q c #110800",
".A c #120900",
".B c #150b00",
".N c #170c00",
".T c #180c00",
".y c #1a0e00",
"## c #1f1000",
".J c #281400",
".2 c #391d00",
".1 c #3f2000",
".E c #422200",
".7 c #452300",
".S c #452400",
"#. c #462400",
".H c #4f2800",
".j c #603200",
".q c #673500",
".L c #6b3700",
".Y c #6f3900",
".o c #7e4100",
"#d c #814300",
".s c #824300",
".F c #894600",
".U c #8a4700",
".z c #904a00",
".5 c #914b00",
".4 c #984e00",
".i c #9a5000",
".v c #a65600",
".C c #a85700",
".V c #b75f00",
"#f c #b85f00",
"#a c #b96000",
".k c #bc6100",
".3 c #c56600",
"#b c #c66500",
".P c #c66600",
".D c #d26d00",
"#o c #d35702",
".n c #d66e00",
"#k c #d75c07",
".h c #d85c07",
"#n c #d85d08",
".K c #d97100",
".O c #db7100",
"#m c #dd630f",
".9 c #de7300",
".e c #df6513",
"#g c #df7300",
".r c #e07300",
".G c #e17400",
".Z c #e37600",
"#l c #e87323",
"#e c #e97900",
"#j c #ea7012",
".x c #eb7900",
".8 c #ec7a00",
".g c #ed750d",
".l c #ee7b00",
".w c #ef7c00",
".0 c #f07c00",
"#i c #f07c23",
".a c #f07e2f",
".m c #f17d00",
".d c #f17f27",
".f c #f27d00",
".c c #f58524",
".b c #f68935",
"#h c #f88e46",
".# c #fb934d",
"Qt c #ff9b58",
"QtQtQtQtQtQtQtQtQtQtQtQtQtQtQtQtQtQtQtQtQt.#.a",
"Qt.b.c.c.c.c.c.c.c.c.c.c.c.c.c.c.c.c.c.c.c.d.e",
"Qt.c.f.f.f.f.f.f.f.f.f.f.f.f.f.f.f.f.f.f.f.g.h",
"Qt.c.f.f.f.f.f.f.f.f.f.f.f.f.f.f.f.f.f.f.f.g.h",
"Qt.c.f.f.f.f.f.f.f.f.f.f.f.f.f.f.f.f.f.f.f.g.h",
"Qt.c.f.f.f.i.j.j.k.l.f.f.m.f.n.o.j.i.f.f.f.g.h",
"Qt.c.f.f.f.j.p.p.q.r.f.f.f.f.s.t.p.j.f.f.f.g.h",
"Qt.c.f.f.f.j.p.p.u.v.w.f.f.x.y.p.p.j.f.f.f.g.h",
"Qt.c.f.f.f.z.A.p.p.B.C.f.D.E.p.p.p.F.f.f.f.g.h",
"Qt.c.f.f.f.G.H.I.p.p.J.K.L.M.p.p.N.O.f.f.f.g.h",
"Qt.c.f.f.f.f.P.Q.p.p.R.S.T.p.p.R.U.f.f.f.f.g.h",
"Qt.c.f.f.f.f.f.V.W.p.p.p.p.p.X.Y.Z.f.f.f.f.g.h",
"Qt.c.f.f.f.f.f.0.1.p.p.p.p.p.2.3.m.f.f.f.f.g.h",
"Qt.c.f.f.f.f.f.f.4.T.p.p.p.p.5.l.f.f.f.f.f.g.h",
"Qt.c.f.f.f.f.f.f.l.s.6.p.p.7.8.f.f.f.f.f.f.g.h",
"Qt.c.f.f.f.f.f.f.f.9#..p###a.f.f.f.f.f.f.f.g.h",
"Qt.c.f.f.f.f.f.f.f.f#b#c#d#e.f.f.f.f.f.f.f.g.h",
"Qt.c.f.f.f.f.f.f.f.f.f#f#g.f.f.f.f.f.f.f.f.g.h",
"Qt.c.f.f.f.f.f.f.f.f.f.f.f.f.f.f.f.f.f.f.f.g.h",
"Qt.c.f.f.f.f.f.f.f.f.f.f.f.f.f.f.f.f.f.f.f.g.h",
"Qt.c.f.f.f.f.f.f.f.f.f.f.f.f.f.f.f.f.f.f.f.g.h",
"#h#i.g.g.g.g.g.g.g.g.g.g.g.g.g.g.g.g.g.g.g#j#k",
"#l#m#n.h.h.h.h.h.h.h.h.h.h.h.h.h.h.h.h.h.h#k#o"};
