/* XPM */
static char *dummy[]={
"23 23 74 2",
".q c #5a4522",
".D c #5b4622",
".R c #5c4622",
".7 c #5c4623",
".A c #5c4723",
".H c #5d4723",
".S c #5d4823",
".v c #5e4823",
".4 c #5f4924",
".X c #604924",
".N c #644d25",
".Y c #654d26",
".M c #674e27",
".z c #684f27",
".m c #6b5128",
".L c #6b5228",
".1 c #6e5429",
".V c #72562b",
".r c #72572a",
".U c #72572b",
"#. c #75592c",
".w c #765a2c",
".C c #7a5d2e",
".E c #7c5f2e",
".8 c #7c5f2f",
".3 c #7e602f",
".p c #7f6130",
".Q c #806130",
"#c c #836431",
".I c #876632",
".u c #886733",
".W c #8d6b35",
".5 c #8e6c35",
".2 c #906d36",
"## c #937037",
".n c #987439",
".G c #9a7539",
".6 c #9a763a",
"#h c #9b732f",
".y c #9c773a",
".Z c #9d773a",
".O c #9d783b",
".h c #9e7632",
".B c #9e783b",
".T c #9f783b",
".j c #9f793b",
"#b c #a07a3c",
".0 c #a67e3e",
".e c #a7803c",
"#a c #a9813f",
".K c #a98140",
"#g c #a9823e",
".9 c #ab8240",
"#e c #ab833d",
".s c #ac8240",
".l c #ad8440",
".k c #ad8441",
".g c #ae843e",
".F c #ae8440",
".i c #ae853f",
".J c #af8541",
".t c #b28742",
".x c #b28842",
".P c #b38842",
".o c #b38843",
".f c #b48943",
".d c #b58e49",
"#d c #b9914d",
".c c #bc9450",
".b c #c09956",
".a c #c6a05f",
"#f c #c7a15f",
".# c #cfa968",
"Qt c #d1ab6a",
"QtQtQtQtQtQtQtQtQtQtQtQtQtQtQtQtQtQtQtQtQt.#.a",
"Qt.b.c.c.c.c.c.c.c.c.c.c.c.c.c.c.c.c.c.c.c.d.e",
"Qt.c.f.f.f.f.f.f.f.f.f.f.f.f.f.f.f.f.f.f.f.g.h",
"Qt.c.f.f.f.f.f.f.f.f.f.f.f.f.f.f.f.f.f.f.f.i.h",
"Qt.c.f.f.f.f.f.f.f.f.f.f.f.f.f.f.f.f.f.f.f.i.h",
"Qt.c.f.f.f.f.f.f.f.f.f.j.k.f.f.f.f.f.f.f.f.i.h",
"Qt.c.f.f.f.f.f.f.f.f.l.m.n.o.f.f.f.f.f.f.f.i.h",
"Qt.c.f.f.f.f.f.f.f.f.p.q.r.s.f.f.f.f.f.f.f.i.h",
"Qt.c.f.f.f.f.f.f.t.u.v.q.q.w.x.f.f.f.f.f.f.i.h",
"Qt.c.f.f.f.f.f.f.y.z.q.q.q.A.B.f.f.f.f.f.f.i.h",
"Qt.c.f.f.f.f.f.f.C.D.q.q.q.q.E.F.f.f.f.f.f.i.h",
"Qt.c.f.f.f.f.f.G.A.q.q.q.q.q.H.I.J.f.f.f.f.i.h",
"Qt.c.f.f.f.f.K.L.q.q.q.M.v.q.q.N.O.f.f.f.f.i.h",
"Qt.c.f.f.f.P.Q.R.q.q.S.T.U.q.q.q.V.o.f.f.f.i.h",
"Qt.c.f.f.f.W.X.q.q.Y.Z.f.0.1.q.q.q.2.f.f.f.i.h",
"Qt.c.f.f.f.3.q.q.4.5.t.f.f.6.7.q.q.3.f.f.f.i.h",
"Qt.c.f.f.f.3.q.q.8.9.f.f.f.x#..q.q.3.f.f.f.i.h",
"Qt.c.f.f.f##.3.3#a.f.f.f.f.o#b#c.3##.f.f.f.i.h",
"Qt.c.f.f.f.f.f.f.f.f.f.f.f.f.f.f.f.f.f.f.f.i.h",
"Qt.c.f.f.f.f.f.f.f.f.f.f.f.f.f.f.f.f.f.f.f.i.h",
"Qt.c.f.f.f.f.f.f.f.f.f.f.f.f.f.f.f.f.f.f.f.i.h",
"Qt#d.i.i.i.i.i.i.i.i.i.i.i.i.i.i.i.i.i.i.i#e.h",
"#f#g.h.h.h.h.h.h.h.h.h.h.h.h.h.h.h.h.h.h.h.h#h"};
