/* XPM */
static char *dummy[]={
"23 23 45 1",
"n c #5a4522",
"m c #5c4623",
"z c #614a24",
"t c #644d26",
"J c #664e26",
"v c #685027",
"p c #6a5128",
"K c #6c5329",
"k c #6e5429",
"A c #765a2c",
"G c #7b5e2e",
"C c #7e602f",
"j c #816230",
"y c #826330",
"D c #846531",
"l c #866632",
"x c #876732",
"L c #8a6933",
"o c #8c6b34",
"B c #906d36",
"w c #916e36",
"q c #937037",
"r c #947137",
"F c #977338",
"Q c #9b732f",
"H c #9b763a",
"h c #9e7632",
"s c #a37d3d",
"E c #a67e3e",
"e c #a7803c",
"I c #a9813f",
"P c #a9823e",
"u c #aa823f",
"N c #ab833d",
"g c #ae843e",
"i c #ae853f",
"f c #b48943",
"d c #b58e49",
"M c #b9914d",
"c c #bc9450",
"b c #c09956",
"a c #c6a05f",
"O c #c7a15f",
"# c #cfa968",
". c #d1ab6a",
".....................#a",
".bcccccccccccccccccccde",
".cfffffffffffffffffffgh",
".cfffffffffffffffffffih",
".cfffffffffffffffffffih",
".cfffffffffffffffffffih",
".cfffffffjkkkkfffffffih",
".cfffffflmnnnnlffffffih",
".cffffffnnnopnnqfffffih",
".cffffffnnrfstnqfffffih",
".cffffffnnuffvnqfffffih",
".cffffwxnnyxxznAxffffih",
".cfffBznnnnnnnnnnBfffih",
".cfffCnnDEEEEEDnnCfffih",
".cfffCnnfffnFffGnCfffih",
".cfffCnnHffqIfHJnCfffih",
".cfffCnntKKKKKtnnCfffih",
".cffffLCCCCCCCCCCffffih",
".cfffffffffffffffffffih",
".cfffffffffffffffffffih",
".cfffffffffffffffffffih",
".MiiiiiiiiiiiiiiiiiiiNh",
"OPhhhhhhhhhhhhhhhhhhhhQ"};
