/* XPM */
static char *dummy[]={
"23 23 50 1",
"m c #000000",
"n c #080706",
"l c #0f0e0c",
"E c #12110e",
"r c #161411",
"N c #1c1a15",
"w c #1e1c17",
"M c #22201a",
"v c #27251e",
"O c #322f26",
"s c #3e3a30",
"I c #5d5647",
"j c #635c4c",
"C c #6f6755",
"F c #756d59",
"p c #7b725f",
"B c #7d7460",
"P c #857c66",
"i c #8c826b",
"k c #8f856e",
"D c #948a72",
"A c #998e75",
"K c #9e9379",
"o c #a5997e",
"H c #a99d82",
"q c #afa386",
"J c #b4a78a",
"x c #b7aa8c",
"t c #d1c3a0",
"G c #d4c4a2",
"V c #d8a124",
"h c #dca72e",
"L c #ddcda9",
"u c #dfcfab",
"U c #e0ac3a",
"e c #e2b040",
"y c #e4d3ae",
"T c #efbe53",
"S c #efc66a",
"z c #f1e0b8",
"a c #f2c35b",
"R c #f2d185",
"Q c #f3ce7c",
"g c #f3d186",
"d c #f5d181",
"# c #f9cc69",
". c #facd6b",
"b c #fbdc98",
"c c #fbe0a5",
"f c #fbe9c0",
".....................#a",
".bcccccccccccccccccccde",
".cfffffffffffffffffffgh",
".cfffffffffffffffffffgh",
".cfffffffffffffffffffgh",
".cfffffffijjjjfffffffgh",
".cffffffklmmmmkffffffgh",
".cffffffnmmmmmnofffffgh",
".cffffffmmpfqrstfffffgh",
".cffffffmmuffvwxfffffgh",
".cffffffmmuffyuzfffffgh",
".cffffABmmCBBBBBBffffgh",
".cfffDEmmmmmmmmmmDfffgh",
".cfffjmmFGGGGGFmmjfffgh",
".cfffjmmfffmHffImjfffgh",
".cfffjmmJffKLfJMmjfffgh",
".cfffjmmNOOOOONmmjfffgh",
".cffffPjjjjjjjjjjffffgh",
".cfffffffffffffffffffgh",
".cfffffffffffffffffffgh",
".cfffffffffffffffffffgh",
".QRggggggggggggggggggSh",
"TUhhhhhhhhhhhhhhhhhhhhV"};
