/* XPM */
static char *dummy[]={
"16 16 16 1",
". c #000000",
"l c #071003",
"m c #081203",
"k c #0a1604",
"n c #0b1805",
"d c #122808",
"j c #142d08",
"c c #163109",
"i c #20490e",
"b c #24510f",
"h c #306c14",
"# c #367a17",
"a c #377b17",
"f c #3e8b1a",
"g c #3f8e1b",
"e c #65e42b",
"................",
"................",
"................",
"................",
"................",
"######a#bcd.....",
"eeeeeeeeeef.....",
"eeeeeeeeeeg.....",
"eeeeeeeeeef.....",
"eeeeeeeeeeh.....",
"eeeeeeeeeei.....",
"eeeeeeeeeej.....",
"eeeeeeeeeek.....",
"eeeeeeeeeel.....",
"eeeeeeeeeem.....",
"eeeeeeeeeen....."};
