/* XPM */
static char *dummy[]={
"40 30 91 2",
"Qt c #000000",
".i c #2d0043",
"#o c #300446",
".V c #320547",
".W c #320647",
".d c #330748",
".l c #350a4a",
".o c #360b4b",
".T c #3a104f",
".I c #3c1250",
".x c #3d1351",
"#n c #3d1452",
".e c #401754",
".Y c #421955",
".B c #451d58",
".O c #4b245e",
".Q c #4b255e",
".h c #4e2860",
".y c #502b63",
".w c #512c63",
".K c #522d64",
".X c #532e65",
"#m c #563268",
"#l c #573369",
".c c #59366b",
".1 c #5d3a6e",
".D c #5e3c6f",
".F c #603e71",
".L c #624072",
".A c #634173",
".S c #634274",
"#v c #644374",
".Z c #674677",
"#r c #684878",
".2 c #6a4a7a",
".G c #6c4c7b",
".v c #70517f",
".J c #745682",
".4 c #755783",
".m c #755884",
".N c #765985",
"#t c #7b5f89",
"#d c #7c608a",
".0 c #81668e",
"#i c #82678f",
"#k c #836890",
".C c #836990",
"#. c #866c93",
".p c #8b7297",
"#c c #927b9e",
".k c #9882a3",
".u c #9b86a6",
"#f c #9f8aa9",
".r c #a490ad",
"#s c #a592af",
"#h c #a997b2",
".b c #ab99b4",
".8 c #ac9ab5",
"#a c #ad9bb5",
".E c #ae9db7",
".n c #b09fb8",
"#x c #b6a6bd",
".M c #bbacc2",
".g c #c1b4c8",
".7 c #c2b5c8",
".6 c #c3b6c9",
"#j c #c5b9cb",
"#g c #c7bbcd",
"#e c #c9becf",
"#w c #cdc2d2",
"#p c #cec3d3",
"## c #d1c7d6",
"#q c #d3cad8",
".P c #d6cdda",
".j c #d9d1dd",
"#b c #dbd3df",
".5 c #dcd4df",
".3 c #ded7e2",
".U c #dfd8e2",
"#u c #e3dde6",
".z c #e7e2ea",
"#y c #e8e3ea",
".s c #e9e4eb",
".t c #eae5ec",
".R c #eeeaf0",
".H c #f3f1f5",
".f c #f5f3f6",
".q c #f6f4f7",
".a c #f7f5f8",
".9 c #f9f8fa",
".# c #ffffff",
"QtQtQtQtQtQtQtQtQtQtQtQtQtQtQtQtQtQtQtQtQtQtQtQtQtQtQtQtQtQtQtQtQtQtQtQtQtQtQtQt",
"QtQtQtQtQtQtQtQtQtQtQtQtQtQtQtQtQtQtQtQtQtQtQtQtQtQtQtQtQtQtQtQtQtQtQtQtQtQtQtQt",
"QtQt.#.#.#.#.#.#.#.#.#.#.#.#.#.#.#.#.#.#.#.#.#.#.#.#.#.#.#.#.#.#.#.#.#.#.#.#QtQt",
"QtQt.#.#.#.#.#.#.#.#.#.#.#.#.#.#.#.#.#.#.#.#.#.#.#.#.#.#.#.#.#.#.#.#.#.#.#.#QtQt",
"QtQt.#.#.#.#.#.#.#.#.#.a.#.#.#.#.#.#.#.#.#.#.#.#.#.#.#.#.#.#.#.#.#.#.#.#.#.#QtQt",
"QtQt.#.#.#.#.#.#.#.b.c.d.e.f.#.#.#.#.#.#.#.#.#.#.#.#.#.#.#.#.#.#.#.#.#.#.#.#QtQt",
"QtQt.#.#.#.#.#.g.h.i.i.i.i.j.#.#.#.#.#.#.#.#.#.#.#.#.#.#.#.#.#.#.#.#.#.#.#.#QtQt",
"QtQt.#.#.#.#.k.i.i.i.l.m.n.#.#.#.#.#.#.#.#.#.#.#.#.#.#.#.#.#.#.#.#.#.#.#.#.#QtQt",
"QtQt.#.#.#.#.o.i.i.p.q.#.#.#.#.#.#.#.#.#.r.s.#.#.#.#.#.#.#.#.#.#.#.#.#.#.#.#QtQt",
"QtQt.#.#.#.t.i.i.u.#.#.#.#.#.#.#.#.#.#.v.i.w.#.#.#.#.#.#.#.#.#.#.#.#.#.#.#.#QtQt",
"QtQt.#.#.#.#.x.i.y.z.#.#.#.#.#.#.#.#.#.A.i.B.#.#.#.#.#.#.#.#.#.#.#.#.#.#.#.#QtQt",
"QtQt.#.#.#.#.C.i.i.i.D.E.#.#.#.#.#.#.#.A.i.B.#.#.#.#.#.#.#.#.#.#.#.#.#.#.#.#QtQt",
"QtQt.#.#.#.#.#.F.i.i.i.i.G.H.#.#.#.#.#.A.i.I.J.K.L.u.#.#.#.#.#.#.#.#.#.#.#.#QtQt",
"QtQt.#.#.#.#.#.#.M.N.l.i.i.O.P.#.#.#.#.A.i.i.i.i.i.i.Q.t.#.#.#.#.#.#.#.#.#.#QtQt",
"QtQt.#.#.#.#.#.#.#.#.R.S.i.i.T.U.#.#.#.A.i.V.W.X.Y.i.i.Z.#.#.#.#.#.#.#.#.#.#QtQt",
"QtQt.#.#.#.#.#.#.#.#.#.#.0.i.i.1.#.#.#.A.i.B.#.#.#.2.i.i.3.#.#.#.#.#.#.#.#.#QtQt",
"QtQt.#.#.#.#.#.#.#.#.#.#.#.4.i.i.5.#.#.A.i.B.#.#.#.6.i.i.k.#.#.#.#.#.#.#.#.#QtQt",
"QtQt.#.#.#.#.#.#.#.#.#.#.#.7.i.i.8.#.#.A.i.B.#.#.#.9.i.i#..#.#.#.#.#.#.#.#.#QtQt",
"QtQt.#.#.#.#.#.#.#.#.#.#.###.i.i#a.#.#.A.i.B.#.#.##b.i.i#c.#.#.#.#.#.#.#.#.#QtQt",
"QtQt.#.#.#.#.#.#.#.#.#.#.##d.i.i#e.#.#.A.i.B.#.#.##f.i.i#g.#.#.#.#.#.#.#.#.#QtQt",
"QtQt.#.#.#.#.##h#i#j.b#k#l.i.i#m.#.#.#.A.i.B.#.#.#.G.i#n.#.#.#.#.#.#.#.#.#.#QtQt",
"QtQt.#.#.#.#.##o.i.i.i.i.i.i.o#p.#.#.#.A.i.B.#.#.##q#r#s.#.#.#.#.#.#.#.#.#.#QtQt",
"QtQt.#.#.#.#.#.D.i.i.i.i.Q#t#u.#.#.#.##g#v#h.#.#.#.#.#.#.#.#.#.#.#.#.#.#.#.#QtQt",
"QtQt.#.#.#.#.#.##w#x.6#y.#.#.#.#.#.#.#.#.#.#.#.#.#.#.#.#.#.#.#.#.#.#.#.#.#.#QtQt",
"QtQt.#.#.#.#.#.#.#.#.#.#.#.#.#.#.#.#.#.#.#.#.#.#.#.#.#.#.#.#.#.#.#.#.#.#.#.#QtQt",
"QtQt.#.#.#.#.#.#.#.#.#.#.#.#.#.#.#.#.#.#.#.#.#.#.#.#.#.#.#.#.#.#.#.#.#.#.#.#QtQt",
"QtQt.#.#.#.#.#.#.#.#.#.#.#.#.#.#.#.#.#.#.#.#.#.#.#.#.#.#.#.#.#.#.#.#.#.#.#.#QtQt",
"QtQt.#.#.#.#.#.#.#.#.#.#.#.#.#.#.#.#.#.#.#.#.#.#.#.#.#.#.#.#.#.#.#.#.#.#.#.#QtQt",
"QtQtQtQtQtQtQtQtQtQtQtQtQtQtQtQtQtQtQtQtQtQtQtQtQtQtQtQtQtQtQtQtQtQtQtQtQtQtQtQt",
"QtQtQtQtQtQtQtQtQtQtQtQtQtQtQtQtQtQtQtQtQtQtQtQtQtQtQtQtQtQtQtQtQtQtQtQtQtQtQtQt"};
