/* XPM */
static char *dummy[]={
"40 30 83 2",
"Qt c #000000",
".f c #2d0043",
".g c #2e0144",
"#c c #2f0345",
"## c #340849",
".q c #350a4a",
".Z c #360b4b",
".n c #390f4e",
".Q c #3a104f",
".K c #3b1150",
".A c #3d1351",
"#m c #401754",
"#g c #411855",
".M c #421955",
".r c #4c265f",
".e c #4d2760",
".l c #522d64",
".B c #532e65",
".4 c #553066",
".L c #553167",
".3 c #563268",
"#f c #573369",
"#q c #583469",
".R c #5a376c",
"#a c #5c396d",
"#p c #5d3a6e",
".P c #5f3d70",
".E c #613f72",
"#e c #634173",
".d c #634274",
".D c #654475",
".T c #6d4e7d",
".s c #6f507e",
".V c #70517f",
".Y c #755783",
".C c #775a85",
".I c #785b86",
"#n c #7a5e88",
".w c #7e628b",
".F c #81678f",
"#k c #82678f",
".U c #886f95",
".O c #8d7499",
".t c #917a9d",
".G c #927b9e",
"#j c #947d9f",
".X c #967fa1",
".k c #9781a2",
".c c #9d88a7",
".y c #9e89a8",
"#h c #a28eac",
".5 c #a490ad",
"#b c #a491ae",
".6 c #a693af",
"#l c #a895b1",
".N c #a996b2",
".1 c #a997b2",
".v c #ad9cb6",
".x c #b6a6bd",
".h c #b7a7be",
".m c #b7a8bf",
"#d c #beb0c5",
".0 c #c0b2c6",
"#. c #c2b5c8",
".H c #c4b7ca",
"#o c #c5b8cb",
".2 c #c8bcce",
".p c #cec4d4",
"#i c #d4cbd9",
".i c #d7cedb",
".9 c #d9d1dd",
".u c #dcd5e0",
".J c #ebe7ed",
".j c #ece8ee",
".a c #f0edf2",
".W c #f1eef2",
".z c #f3f1f5",
".b c #f6f4f7",
".o c #f7f5f8",
".8 c #f9f8fa",
".7 c #fdfdfe",
".S c #fefefe",
".# c #ffffff",
"QtQtQtQtQtQtQtQtQtQtQtQtQtQtQtQtQtQtQtQtQtQtQtQtQtQtQtQtQtQtQtQtQtQtQtQtQtQtQtQt",
"QtQtQtQtQtQtQtQtQtQtQtQtQtQtQtQtQtQtQtQtQtQtQtQtQtQtQtQtQtQtQtQtQtQtQtQtQtQtQtQt",
"QtQt.#.#.#.#.#.#.#.#.#.#.#.#.#.#.#.#.#.#.#.#.#.#.#.#.#.#.#.#.#.#.#.#.#.#.#.#QtQt",
"QtQt.#.#.#.#.#.#.#.#.#.#.#.#.#.#.#.#.#.#.#.#.#.#.#.#.#.#.#.#.#.#.#.#.#.#.#.#QtQt",
"QtQt.#.#.#.#.#.#.#.#.#.a.a.b.#.#.#.#.#.#.#.#.#.#.#.#.#.#.#.#.#.#.#.#.#.#.#.#QtQt",
"QtQt.#.#.#.#.#.#.c.d.e.f.f.g.h.#.#.#.#.#.#.#.i.j.#.#.#.#.#.#.#.#.#.#.#.#.#.#QtQt",
"QtQt.#.#.#.#.k.l.f.f.f.f.f.f.k.#.#.#.#.#.#.m.f.n.o.#.#.#.#.#.#.#.#.#.#.#.#.#QtQt",
"QtQt.#.#.#.p.f.f.f.q.r.s.t.k.#.#.#.#.#.#.#.c.f.f.u.#.#.#.#.#.#.#.#.#.#.#.#.#QtQt",
"QtQt.#.#.#.v.f.f.w.#.#.#.#.#.#.#.#.#.#.#.#.c.f.f.u.#.#.#.#.#.#.#.#.#.#.#.#.#QtQt",
"QtQt.#.#.#.x.f.f.y.#.#.#.#.#.#.#.#.#.#.#.#.c.f.f.u.#.#.#.#.#.#.#.#.#.#.#.#.#QtQt",
"QtQt.#.#.#.z.A.f.B.#.#.#.#.#.#.#.#.#.C.e.D.E.f.f.F.G.G.G.H.#.#.#.#.#.#.#.#.#QtQt",
"QtQt.#.#.#.#.I.f.f.d.J.#.#.#.#.#.#.#.g.f.f.f.f.f.f.f.f.f.K.#.#.#.#.#.#.#.#.#QtQt",
"QtQt.#.#.#.#.#.L.f.f.M.N.#.#.#.#.#.#.O.P.Q.f.f.f.f.f.f.f.R.#.#.#.#.#.#.#.#.#QtQt",
"QtQt.#.#.#.#.#.S.T.f.f.f.U.#.#.#.#.#.#.#.#.V.f.q.W.W.W.W.#.#.#.#.#.#.#.#.#.#QtQt",
"QtQt.#.#.#.#.#.#.#.X.f.f.f.U.#.#.#.#.#.#.#.Y.f.Z.#.#.#.#.#.#.#.#.#.#.#.#.#.#QtQt",
"QtQt.#.#.#.#.#.#.#.#.0.g.f.f.1.#.#.#.#.#.#.Y.f.Z.#.#.#.#.#.#.#.#.#.#.#.#.#.#QtQt",
"QtQt.#.#.#.#.#.#.#.#.#.2.Z.f.3.#.#.#.#.#.#.Y.f.Z.#.#.#.#.#.#.#.#.#.#.#.#.#.#QtQt",
"QtQt.#.#.#.#.#.#.#.#.#.#.4.f.4.#.#.#.#.#.#.Y.f.Z.#.#.#.#.#.#.#.#.#.#.#.#.#.#QtQt",
"QtQt.#.#.#.#.#.#.#.#.#.#.4.f.4.#.#.#.#.#.#.5.f.f.6.#.#.7.8.#.#.#.#.#.#.#.#.#QtQt",
"QtQt.#.#.#.#.#.#.#.#.#.#.4.f.4.#.#.#.#.#.#.#.A.f.f.g.g.g.Z.9.#.#.#.#.#.#.#.#QtQt",
"QtQt.#.#.#.#.#.#.b.#.##.##.f#a.#.#.#.#.#.#.##b#c.f.f.f.f.f#d.#.#.#.#.#.#.#.#QtQt",
"QtQt.#.#.#.#.##e.f#f#f#g.f.f#h.#.#.#.#.#.#.#.##i#j#k#k#k#l.#.#.#.#.#.#.#.#.#QtQt",
"QtQt.#.#.#.#.##m.f.f.f.f.f#n.#.#.#.#.#.#.#.#.#.#.#.#.#.#.#.#.#.#.#.#.#.#.#.#QtQt",
"QtQt.#.#.#.#.##o#p#f#f#q.y.#.#.#.#.#.#.#.#.#.#.#.#.#.#.#.#.#.#.#.#.#.#.#.#.#QtQt",
"QtQt.#.#.#.#.#.#.#.#.#.#.#.#.#.#.#.#.#.#.#.#.#.#.#.#.#.#.#.#.#.#.#.#.#.#.#.#QtQt",
"QtQt.#.#.#.#.#.#.#.#.#.#.#.#.#.#.#.#.#.#.#.#.#.#.#.#.#.#.#.#.#.#.#.#.#.#.#.#QtQt",
"QtQt.#.#.#.#.#.#.#.#.#.#.#.#.#.#.#.#.#.#.#.#.#.#.#.#.#.#.#.#.#.#.#.#.#.#.#.#QtQt",
"QtQt.#.#.#.#.#.#.#.#.#.#.#.#.#.#.#.#.#.#.#.#.#.#.#.#.#.#.#.#.#.#.#.#.#.#.#.#QtQt",
"QtQtQtQtQtQtQtQtQtQtQtQtQtQtQtQtQtQtQtQtQtQtQtQtQtQtQtQtQtQtQtQtQtQtQtQtQtQtQtQt",
"QtQtQtQtQtQtQtQtQtQtQtQtQtQtQtQtQtQtQtQtQtQtQtQtQtQtQtQtQtQtQtQtQtQtQtQtQtQtQtQt"};
