/* XPM */
static char *dummy[]={
"31 23 38 1",
"h c #000000",
"w c #050402",
"p c #080603",
"l c #0a0704",
"i c #0b0905",
"F c #0c0a05",
"o c #5e4928",
"r c #5f4a28",
"C c #624c29",
"v c #634d2a",
"G c #765c32",
"B c #795e33",
"k c #7a5f33",
"n c #7b6034",
"t c #806336",
"x c #836637",
"u c #846738",
"y c #876939",
"q c #886a39",
"E c #8f6f3c",
"A c #90703c",
"j c #a47f45",
"m c #a58045",
"D c #a68146",
"z c #a88246",
"s c #a98347",
"g c #d9a044",
"f c #e7af56",
"d c #edb762",
"c c #f1bc68",
"e c #f3bd66",
"I c #f4c16d",
"a c #f4c478",
"J c #f5c67a",
"# c #fbcf87",
"b c #ffcd7d",
"H c #ffd48d",
". c #ffd48e",
".............................#a",
".bbbbbbbbbbbbbbbbbbbbbbbbbbbbcd",
".beeeeeeeeeeeeeeeeeeeeeeeeeeefg",
".beeeeeeeeeeeeeeeeeeeeeeeeeeefg",
".beeeeeeeeeeeeeeeeeeeeeeeeeeefg",
".beeeeeeeeeeeeeeeeeeeeeeeeeeefg",
".beeeeeeeehijeeeeekhheeeeeeeefg",
".beeeeeeeehhlmeeenhhheeeeeeeefg",
".beeeeeeeeohhpeeehhhqeeeeeeeefg",
".beeeeeeeeerhhsethhueeeeeeeeefg",
".beeeeeeeeeeevhwhxeeeeeeeeeeefg",
".beeeeeeeeeeeehhheeeeeeeeeeeefg",
".beeeeeeeeeeeyhhhzeeeeeeeeeeefg",
".beeeeeeeeeAhhBeChpDeeeeeeeeefg",
".beeeeeeeeEhhheeehhlmeeeeeeeefg",
".beeeeeeeehhhkeeerhhFeeeeeeeefg",
".beeeeeeeehhGeeeeeohheeeeeeeefg",
".beeeeeeeeeeeeeeeeeeeeeeeeeeefg",
".beeeeeeeeeeeeeeeeeeeeeeeeeeefg",
".beeeeeeeeeeeeeeeeeeeeeeeeeeefg",
".beeeeeeeeeeeeeeeeeeeeeeeeeeefg",
"HIffffffffffffffffffffffffffffg",
"Jdggggggggggggggggggggggggggggg"};
