/* XPM */
static char *dummy[]={
"23 23 13 1",
"h c #000000",
"g c #d69e20",
"k c #dfac3b",
"d c #e2b142",
"j c #eab849",
"f c #ebbc51",
"i c #edc263",
"a c #efbf55",
"c c #f3ca71",
"# c #f8cb68",
". c #facd6b",
"b c #fbd88d",
"e c #fbe9c0",
".....................#a",
".bbbbbbbbbbbbbbbbbbbbcd",
".beeeeeeeeeeeeeeeeeeefg",
".beeeeeeeeeeeeeeeeeeefg",
".beeeeeeeeeeeeeeeeeeefg",
".beeehhhhhhhhhhhhheeefg",
".beeehhhhhhhhhhhhheeefg",
".beeehhhhhhhhhhhhheeefg",
".beeeeeeeeeeeeeeeeeeefg",
".beeeeeeeeeeeeeeeeeeefg",
".beeehhhhhhhhhhhhheeefg",
".beeehhhhhhhhhhhhheeefg",
".beeehhhhhhhhhhhhheeefg",
".beeeeeeeeeeeeeeeeeeefg",
".beeeeeeeeeeeeeeeeeeefg",
".beeehhhhhhhhhhhhheeefg",
".beeehhhhhhhhhhhhheeefg",
".beeehhhhhhhhhhhhheeefg",
".beeeeeeeeeeeeeeeeeeefg",
".beeeeeeeeeeeeeeeeeeefg",
".beeeeeeeeeeeeeeeeeeefg",
".iffffffffffffffffffffg",
"jkggggggggggggggggggggg"};
