/* XPM */
static char *dummy[]={
"23 23 80 2",
".p c #000000",
".R c #010100",
".I c #030201",
".X c #070503",
".M c #080704",
".W c #090704",
".8 c #0a0704",
"#d c #0b0905",
".t c #0d0905",
".u c #0e0b05",
".Q c #110e07",
".A c #120e07",
".B c #151109",
".N c #171209",
".5 c #18120a",
".T c #18130a",
".y c #1a140b",
"#a c #1f180d",
".J c #281f11",
".2 c #392c18",
".1 c #3f311a",
".E c #42331c",
".S c #45361d",
".9 c #46361d",
".H c #4f3d21",
".j c #604b28",
".q c #67502b",
".L c #6b542d",
".Y c #70562f",
".o c #7e6235",
".s c #826536",
"#e c #826537",
".F c #896a3a",
".U c #8a6c3a",
".z c #91703d",
".6 c #91713d",
".4 c #987640",
".i c #9a7841",
".v c #a68246",
".C c #a98347",
".V c #b8904e",
"#g c #b9904e",
"#b c #ba904e",
".k c #bd934f",
".3 c #c69953",
"#c c #c69a53",
".P c #c79b54",
".D c #d3a559",
".n c #d6a75a",
"#n c #daa145",
".K c #daaa5c",
".O c #dcab5c",
".h c #dda449",
"## c #dfae5e",
"#h c #e0ae5e",
".r c #e1af5e",
".G c #e2b05f",
".Z c #e4b160",
".e c #e6af57",
"#m c #e7b058",
"#k c #eab25a",
"#f c #eab662",
".x c #ecb663",
".g c #edb65e",
"#. c #edb964",
".7 c #efba64",
".l c #efbb64",
".w c #f0bb65",
".0 c #f1bb65",
".m c #f2bc66",
".f c #f3bd66",
".d c #f3bd69",
"#j c #f3be6a",
".a c #f6c77c",
"#l c #f8ca80",
".c c #f9c572",
".b c #fcc978",
".# c #fdd18a",
"#i c #ffd48d",
"Qt c #ffd48e",
"QtQtQtQtQtQtQtQtQtQtQtQtQtQtQtQtQtQtQtQtQt.#.a",
"Qt.b.c.c.c.c.c.c.c.c.c.c.c.c.c.c.c.c.c.c.c.d.e",
"Qt.c.f.f.f.f.f.f.f.f.f.f.f.f.f.f.f.f.f.f.f.g.h",
"Qt.c.f.f.f.f.f.f.f.f.f.f.f.f.f.f.f.f.f.f.f.g.h",
"Qt.c.f.f.f.f.f.f.f.f.f.f.f.f.f.f.f.f.f.f.f.g.h",
"Qt.c.f.f.f.i.j.j.k.l.f.f.m.f.n.o.j.i.f.f.f.g.h",
"Qt.c.f.f.f.j.p.p.q.r.f.f.f.f.s.t.p.j.f.f.f.g.h",
"Qt.c.f.f.f.j.p.p.u.v.w.f.f.x.y.p.p.j.f.f.f.g.h",
"Qt.c.f.f.f.z.A.p.p.B.C.f.D.E.p.p.p.F.f.f.f.g.h",
"Qt.c.f.f.f.G.H.I.p.p.J.K.L.M.p.p.N.O.f.f.f.g.h",
"Qt.c.f.f.f.f.P.Q.p.p.R.S.T.p.p.R.U.f.f.f.f.g.h",
"Qt.c.f.f.f.f.f.V.W.p.p.p.p.p.X.Y.Z.f.f.f.f.g.h",
"Qt.c.f.f.f.f.f.0.1.p.p.p.p.p.2.3.m.f.f.f.f.g.h",
"Qt.c.f.f.f.f.f.f.4.5.p.p.p.p.6.7.f.f.f.f.f.g.h",
"Qt.c.f.f.f.f.f.f.7.s.8.p.p.9#..f.f.f.f.f.f.g.h",
"Qt.c.f.f.f.f.f.f.f##.9.p#a#b.f.f.f.f.f.f.f.g.h",
"Qt.c.f.f.f.f.f.f.f.f#c#d#e#f.f.f.f.f.f.f.f.g.h",
"Qt.c.f.f.f.f.f.f.f.f.f#g#h.f.f.f.f.f.f.f.f.g.h",
"Qt.c.f.f.f.f.f.f.f.f.f.f.f.f.f.f.f.f.f.f.f.g.h",
"Qt.c.f.f.f.f.f.f.f.f.f.f.f.f.f.f.f.f.f.f.f.g.h",
"Qt.c.f.f.f.f.f.f.f.f.f.f.f.f.f.f.f.f.f.f.f.g.h",
"#i#j.g.g.g.g.g.g.g.g.g.g.g.g.g.g.g.g.g.g.g#k.h",
"#l#m.h.h.h.h.h.h.h.h.h.h.h.h.h.h.h.h.h.h.h.h#n"};
