/* XPM */
static char *dummy[]={
"8 8 2 1",
". c #88662d",
"# c #b48943",
"..####..",
"..####..",
"..####..",
"..####..",
"..####..",
"..####..",
"..####..",
"..####.."};
