/* XPM */
static char *dummy[]={
"12 64 2 1",
". c #b48943",
"# c #f3bd66",
"............",
"............",
"..########..",
"..########..",
"..########..",
"..########..",
"............",
"............",
"..########..",
"..########..",
"..########..",
"..########..",
"............",
"............",
"..########..",
"..########..",
"..########..",
"..########..",
"............",
"............",
"..########..",
"..########..",
"..########..",
"..########..",
"............",
"............",
"..########..",
"..########..",
"..########..",
"..########..",
"............",
"............",
"..########..",
"..########..",
"..########..",
"..########..",
"..########..",
"..########..",
"..########..",
"..########..",
"..########..",
"..########..",
"..########..",
"..########..",
"..########..",
"..########..",
"..########..",
"..########..",
"..########..",
"..########..",
"..########..",
"..########..",
"..########..",
"..########..",
"..########..",
"..########..",
"..########..",
"..########..",
"..########..",
"..########..",
"..########..",
"..########..",
"..########..",
"..########.."};
