/* XPM */
static char *dummy[]={
"8 8 2 1",
". c #b48943",
"# c #f3bd66",
"........",
"........",
"########",
"########",
"########",
"########",
"........",
"........"};
