/* XPM */
static char *dummy[]={
"60 60 69 2",
".q c #000000",
".B c #010101",
".Z c #030302",
".M c #050504",
".6 c #060505",
".S c #090807",
".l c #0d0c0a",
".P c #0f0e0b",
".5 c #100f0c",
".m c #11100d",
".v c #151310",
".w c #1c1a15",
".E c #1e1b17",
".2 c #25231d",
".O c #28251f",
".F c #292620",
".L c #353129",
".K c #37332a",
".T c #39352c",
"#. c #413c32",
".1 c #443f34",
".p c #4c463a",
".r c #554f41",
".y c #5c5546",
".0 c #5f5949",
".z c #696251",
".H c #6b6452",
".V c #7c735f",
".I c #7f7661",
".8 c #8d836c",
".X c #91866f",
".Y c #948971",
".i c #968b72",
".j c #9b8f76",
".W c #a4997e",
".s c #a59a7e",
".t c #afa386",
".A c #b4a78a",
".C c #c2b494",
".J c #c3b595",
".7 c #cbbc9b",
".N c #d2c3a0",
".R c #d5c5a3",
".g c #d69e20",
".Q c #dbcba7",
"#c c #dfac3b",
".k c #dfcfab",
".4 c #e0d0ac",
".d c #e2b142",
".n c #e3d3ae",
"#a c #e8b84a",
".u c #e8d8b2",
"#b c #eab849",
".f c #eabb50",
".9 c #ead9b3",
".h c #ebbc51",
"## c #edc263",
".x c #eddcb5",
".D c #eeddb6",
".a c #efbf55",
".3 c #f0dfb8",
".c c #f3ca71",
".G c #f4e3bb",
".# c #f8cb68",
".U c #f9e7be",
"Qt c #facd6b",
".o c #fae8bf",
".b c #fbd88d",
".e c #fbe9c0",
"QtQtQtQtQtQtQtQtQtQtQtQtQtQtQtQtQtQtQtQtQtQtQtQtQtQtQtQtQtQtQtQtQtQtQtQtQtQtQtQtQtQtQtQtQtQtQtQtQtQtQtQtQtQtQtQt.#.#.a.a",
"QtQtQtQtQtQtQtQtQtQtQtQtQtQtQtQtQtQtQtQtQtQtQtQtQtQtQtQtQtQtQtQtQtQtQtQtQtQtQtQtQtQtQtQtQtQtQtQtQtQtQtQtQtQtQtQt.#.#.a.a",
"QtQt.b.b.b.b.b.b.b.b.b.b.b.b.b.b.b.b.b.b.b.b.b.b.b.b.b.b.b.b.b.b.b.b.b.b.b.b.b.b.b.b.b.b.b.b.b.b.b.b.b.b.b.b.b.b.c.c.d.d",
"QtQt.b.b.b.b.b.b.b.b.b.b.b.b.b.b.b.b.b.b.b.b.b.b.b.b.b.b.b.b.b.b.b.b.b.b.b.b.b.b.b.b.b.b.b.b.b.b.b.b.b.b.b.b.b.b.c.c.d.d",
"QtQt.b.b.e.e.e.e.e.e.e.e.e.e.e.e.e.e.e.e.e.e.e.e.e.e.e.e.e.e.e.e.e.e.e.e.e.e.e.e.e.e.e.e.e.e.e.e.e.e.e.e.e.e.e.e.f.f.g.g",
"QtQt.b.b.e.e.e.e.e.e.e.e.e.e.e.e.e.e.e.e.e.e.e.e.e.e.e.e.e.e.e.e.e.e.e.e.e.e.e.e.e.e.e.e.e.e.e.e.e.e.e.e.e.e.e.e.f.f.g.g",
"QtQt.b.b.e.e.e.e.e.e.e.e.e.e.e.e.e.e.e.e.e.e.e.e.e.e.e.e.e.e.e.e.e.e.e.e.e.e.e.e.e.e.e.e.e.e.e.e.e.e.e.e.e.e.e.e.h.h.g.g",
"QtQt.b.b.e.e.e.e.e.e.e.e.e.e.e.e.e.e.e.e.e.e.e.e.e.e.e.e.e.e.e.e.e.e.e.e.e.e.e.e.e.e.e.e.e.e.e.e.e.e.e.e.e.e.e.e.h.h.g.g",
"QtQt.b.b.e.e.e.e.e.e.e.e.e.e.e.e.e.e.e.e.e.e.e.e.e.e.e.e.e.e.e.e.e.e.e.e.e.e.e.e.e.e.e.e.e.e.e.e.e.e.e.e.e.e.e.e.h.h.g.g",
"QtQt.b.b.e.e.e.e.e.e.e.e.e.e.e.e.e.e.e.e.e.e.e.e.e.e.e.e.e.e.e.e.e.e.e.e.e.e.e.e.e.e.e.e.e.e.e.e.e.e.e.e.e.e.e.e.h.h.g.g",
"QtQt.b.b.e.e.e.e.e.e.e.e.e.e.e.e.e.e.e.e.e.e.e.e.e.e.e.e.e.e.e.e.e.e.e.e.e.e.e.e.e.e.e.e.e.e.e.e.e.e.e.e.e.e.e.e.h.h.g.g",
"QtQt.b.b.e.e.e.e.e.e.e.e.e.e.e.e.e.e.e.e.e.e.e.e.e.e.e.e.e.e.e.e.e.e.e.e.e.e.e.e.e.e.e.e.e.e.e.e.e.e.e.e.e.e.e.e.h.h.g.g",
"QtQt.b.b.e.e.e.e.e.e.e.e.e.e.e.e.e.e.e.e.e.e.e.e.e.e.e.e.e.e.e.e.e.e.e.e.e.e.e.e.e.e.e.e.e.e.e.e.e.e.e.e.e.e.e.e.h.h.g.g",
"QtQt.b.b.e.e.e.e.e.e.e.e.e.e.e.e.e.e.e.e.e.e.e.e.e.e.e.e.e.e.e.e.e.e.e.e.e.e.e.e.e.e.e.e.e.e.e.e.e.e.e.e.e.e.e.e.h.h.g.g",
"QtQt.b.b.e.e.e.e.e.e.e.e.e.e.e.e.e.e.e.e.e.e.e.e.e.e.e.e.i.i.j.j.e.e.e.e.e.e.e.e.e.e.e.e.e.e.e.e.e.e.e.e.e.e.e.e.h.h.g.g",
"QtQt.b.b.e.e.e.e.e.e.e.e.e.e.e.e.e.e.e.e.e.e.e.e.e.e.e.e.i.i.j.j.e.e.e.e.e.e.e.e.e.e.e.e.e.e.e.e.e.e.e.e.e.e.e.e.h.h.g.g",
"QtQt.b.b.e.e.e.e.e.e.e.e.e.e.e.e.e.e.e.e.e.e.e.e.e.e.k.k.l.l.m.m.n.n.e.e.e.e.e.e.e.e.e.e.e.e.e.e.e.e.e.e.e.e.e.e.h.h.g.g",
"QtQt.b.b.e.e.e.e.e.e.e.e.e.e.e.e.e.e.e.e.e.e.e.e.e.e.k.k.l.l.m.m.n.n.e.e.e.e.e.e.e.e.e.e.e.e.e.e.e.e.e.e.e.e.e.e.h.h.g.g",
"QtQt.b.b.e.e.e.e.e.e.e.e.e.e.e.e.e.e.e.e.e.e.e.e.o.o.p.p.q.q.q.q.r.r.e.e.e.e.e.e.e.e.e.e.e.e.e.e.e.e.e.e.e.e.e.e.h.h.g.g",
"QtQt.b.b.e.e.e.e.e.e.e.e.e.e.e.e.e.e.e.e.e.e.e.e.o.o.p.p.q.q.q.q.r.r.e.e.e.e.e.e.e.e.e.e.e.e.e.e.e.e.e.e.e.e.e.e.h.h.g.g",
"QtQt.b.b.e.e.e.e.e.e.e.e.e.e.e.e.e.e.e.e.e.e.e.e.s.s.q.q.q.q.q.q.q.q.t.t.e.e.e.e.e.e.e.e.e.e.e.e.e.e.e.e.e.e.e.e.h.h.g.g",
"QtQt.b.b.e.e.e.e.e.e.e.e.e.e.e.e.e.e.e.e.e.e.e.e.s.s.q.q.q.q.q.q.q.q.t.t.e.e.e.e.e.e.e.e.e.e.e.e.e.e.e.e.e.e.e.e.h.h.g.g",
"QtQt.b.b.e.e.e.e.e.e.e.e.e.e.e.e.e.e.e.e.e.e.u.u.v.v.q.q.q.q.q.q.q.q.w.w.x.x.e.e.e.e.e.e.e.e.e.e.e.e.e.e.e.e.e.e.h.h.g.g",
"QtQt.b.b.e.e.e.e.e.e.e.e.e.e.e.e.e.e.e.e.e.e.u.u.v.v.q.q.q.q.q.q.q.q.w.w.x.x.e.e.e.e.e.e.e.e.e.e.e.e.e.e.e.e.e.e.h.h.g.g",
"QtQt.b.b.e.e.e.e.e.e.e.e.e.e.e.e.e.e.e.e.e.e.y.y.q.q.q.q.q.q.q.q.q.q.q.q.z.z.e.e.e.e.e.e.e.e.e.e.e.e.e.e.e.e.e.e.h.h.g.g",
"QtQt.b.b.e.e.e.e.e.e.e.e.e.e.e.e.e.e.e.e.e.e.y.y.q.q.q.q.q.q.q.q.q.q.q.q.z.z.e.e.e.e.e.e.e.e.e.e.e.e.e.e.e.e.e.e.h.h.g.g",
"QtQt.b.b.e.e.e.e.e.e.e.e.e.e.e.e.e.e.e.e.A.A.q.q.q.q.q.q.q.q.q.q.q.q.q.q.B.B.C.C.e.e.e.e.e.e.e.e.e.e.e.e.e.e.e.e.h.h.g.g",
"QtQt.b.b.e.e.e.e.e.e.e.e.e.e.e.e.e.e.e.e.A.A.q.q.q.q.q.q.q.q.q.q.q.q.q.q.B.B.C.C.e.e.e.e.e.e.e.e.e.e.e.e.e.e.e.e.h.h.g.g",
"QtQt.b.b.e.e.e.e.e.e.e.e.e.e.e.e.e.e.D.D.E.E.q.q.q.q.q.q.q.q.q.q.q.q.q.q.q.q.F.F.G.G.e.e.e.e.e.e.e.e.e.e.e.e.e.e.h.h.g.g",
"QtQt.b.b.e.e.e.e.e.e.e.e.e.e.e.e.e.e.D.D.E.E.q.q.q.q.q.q.q.q.q.q.q.q.q.q.q.q.F.F.G.G.e.e.e.e.e.e.e.e.e.e.e.e.e.e.h.h.g.g",
"QtQt.b.b.e.e.e.e.e.e.e.e.e.e.e.e.e.e.H.H.q.q.q.q.q.q.q.q.q.q.q.q.q.q.q.q.q.q.q.q.I.I.e.e.e.e.e.e.e.e.e.e.e.e.e.e.h.h.g.g",
"QtQt.b.b.e.e.e.e.e.e.e.e.e.e.e.e.e.e.H.H.q.q.q.q.q.q.q.q.q.q.q.q.q.q.q.q.q.q.q.q.I.I.e.e.e.e.e.e.e.e.e.e.e.e.e.e.h.h.g.g",
"QtQt.b.b.e.e.e.e.e.e.e.e.e.e.e.e.J.J.B.B.q.q.q.q.q.q.q.q.K.K.L.L.q.q.q.q.q.q.q.q.M.M.N.N.e.e.e.e.e.e.e.e.e.e.e.e.h.h.g.g",
"QtQt.b.b.e.e.e.e.e.e.e.e.e.e.e.e.J.J.B.B.q.q.q.q.q.q.q.q.K.K.L.L.q.q.q.q.q.q.q.q.M.M.N.N.e.e.e.e.e.e.e.e.e.e.e.e.h.h.g.g",
"QtQt.b.b.e.e.e.e.e.e.e.e.e.e.G.G.O.O.q.q.q.q.q.q.q.q.P.P.Q.Q.R.R.S.S.q.q.q.q.q.q.q.q.T.T.U.U.e.e.e.e.e.e.e.e.e.e.h.h.g.g",
"QtQt.b.b.e.e.e.e.e.e.e.e.e.e.G.G.O.O.q.q.q.q.q.q.q.q.P.P.Q.Q.R.R.S.S.q.q.q.q.q.q.q.q.T.T.U.U.e.e.e.e.e.e.e.e.e.e.h.h.g.g",
"QtQt.b.b.e.e.e.e.e.e.e.e.e.e.V.V.q.q.q.q.q.q.q.q.q.q.W.W.e.e.e.e.X.X.q.q.q.q.q.q.q.q.q.q.Y.Y.e.e.e.e.e.e.e.e.e.e.h.h.g.g",
"QtQt.b.b.e.e.e.e.e.e.e.e.e.e.V.V.q.q.q.q.q.q.q.q.q.q.W.W.e.e.e.e.X.X.q.q.q.q.q.q.q.q.q.q.Y.Y.e.e.e.e.e.e.e.e.e.e.h.h.g.g",
"QtQt.b.b.e.e.e.e.e.e.e.e.e.e.Z.Z.q.q.q.q.q.q.q.q.0.0.e.e.e.e.e.e.o.o.1.1.q.q.q.q.q.q.q.q.Z.Z.e.e.e.e.e.e.e.e.e.e.h.h.g.g",
"QtQt.b.b.e.e.e.e.e.e.e.e.e.e.Z.Z.q.q.q.q.q.q.q.q.0.0.e.e.e.e.e.e.o.o.1.1.q.q.q.q.q.q.q.q.Z.Z.e.e.e.e.e.e.e.e.e.e.h.h.g.g",
"QtQt.b.b.e.e.e.e.e.e.e.e.e.e.q.q.q.q.q.q.q.q.2.2.3.3.e.e.e.e.e.e.e.e.4.4.5.5.q.q.q.q.q.q.q.q.e.e.e.e.e.e.e.e.e.e.h.h.g.g",
"QtQt.b.b.e.e.e.e.e.e.e.e.e.e.q.q.q.q.q.q.q.q.2.2.3.3.e.e.e.e.e.e.e.e.4.4.5.5.q.q.q.q.q.q.q.q.e.e.e.e.e.e.e.e.e.e.h.h.g.g",
"QtQt.b.b.e.e.e.e.e.e.e.e.e.e.q.q.q.q.q.q.6.6.7.7.e.e.e.e.e.e.e.e.e.e.e.e.s.s.q.q.q.q.q.q.q.q.e.e.e.e.e.e.e.e.e.e.h.h.g.g",
"QtQt.b.b.e.e.e.e.e.e.e.e.e.e.q.q.q.q.q.q.6.6.7.7.e.e.e.e.e.e.e.e.e.e.e.e.s.s.q.q.q.q.q.q.q.q.e.e.e.e.e.e.e.e.e.e.h.h.g.g",
"QtQt.b.b.e.e.e.e.e.e.e.e.e.e.q.q.q.q.q.q.8.8.e.e.e.e.o.o.e.e.e.e.e.e.U.U.9.9#.#..q.q.q.q.q.q.e.e.e.e.e.e.e.e.e.e.h.h.g.g",
"QtQt.b.b.e.e.e.e.e.e.e.e.e.e.q.q.q.q.q.q.8.8.e.e.e.e.o.o.e.e.e.e.e.e.U.U.9.9#.#..q.q.q.q.q.q.e.e.e.e.e.e.e.e.e.e.h.h.g.g",
"QtQt.b.b.e.e.e.e.e.e.e.e.e.e.e.e.e.e.e.e.e.e.e.e.e.e.e.e.e.e.e.e.e.e.e.e.e.e.e.e.e.e.e.e.e.e.e.e.e.e.e.e.e.e.e.e.h.h.g.g",
"QtQt.b.b.e.e.e.e.e.e.e.e.e.e.e.e.e.e.e.e.e.e.e.e.e.e.e.e.e.e.e.e.e.e.e.e.e.e.e.e.e.e.e.e.e.e.e.e.e.e.e.e.e.e.e.e.h.h.g.g",
"QtQt.b.b.e.e.e.e.e.e.e.e.e.e.e.e.e.e.e.e.e.e.e.e.e.e.e.e.e.e.e.e.e.e.e.e.e.e.e.e.e.e.e.e.e.e.e.e.e.e.e.e.e.e.e.e.h.h.g.g",
"QtQt.b.b.e.e.e.e.e.e.e.e.e.e.e.e.e.e.e.e.e.e.e.e.e.e.e.e.e.e.e.e.e.e.e.e.e.e.e.e.e.e.e.e.e.e.e.e.e.e.e.e.e.e.e.e.h.h.g.g",
"QtQt.b.b.e.e.e.e.e.e.e.e.e.e.e.e.e.e.e.e.e.e.e.e.e.e.e.e.e.e.e.e.e.e.e.e.e.e.e.e.e.e.e.e.e.e.e.e.e.e.e.e.e.e.e.e.h.h.g.g",
"QtQt.b.b.e.e.e.e.e.e.e.e.e.e.e.e.e.e.e.e.e.e.e.e.e.e.e.e.e.e.e.e.e.e.e.e.e.e.e.e.e.e.e.e.e.e.e.e.e.e.e.e.e.e.e.e.h.h.g.g",
"QtQt.b.b.e.e.e.e.e.e.e.e.e.e.e.e.e.e.e.e.e.e.e.e.e.e.e.e.e.e.e.e.e.e.e.e.e.e.e.e.e.e.e.e.e.e.e.e.e.e.e.e.e.e.e.e.h.h.g.g",
"QtQt.b.b.e.e.e.e.e.e.e.e.e.e.e.e.e.e.e.e.e.e.e.e.e.e.e.e.e.e.e.e.e.e.e.e.e.e.e.e.e.e.e.e.e.e.e.e.e.e.e.e.e.e.e.e.h.h.g.g",
"QtQt.b.b.e.e.e.e.e.e.e.e.e.e.e.e.e.e.e.e.e.e.e.e.e.e.e.e.e.e.e.e.e.e.e.e.e.e.e.e.e.e.e.e.e.e.e.e.e.e.e.e.e.e.e.e.h.h.g.g",
"QtQt.b.b.e.e.e.e.e.e.e.e.e.e.e.e.e.e.e.e.e.e.e.e.e.e.e.e.e.e.e.e.e.e.e.e.e.e.e.e.e.e.e.e.e.e.e.e.e.e.e.e.e.e.e.e.h.h.g.g",
"QtQt#####a#a.h.h.h.h.h.h.h.h.h.h.h.h.h.h.h.h.h.h.h.h.h.h.h.h.h.h.h.h.h.h.h.h.h.h.h.h.h.h.h.h.h.h.h.h.h.h.h.h.h.h.h.h.g.g",
"QtQt#####a#a.h.h.h.h.h.h.h.h.h.h.h.h.h.h.h.h.h.h.h.h.h.h.h.h.h.h.h.h.h.h.h.h.h.h.h.h.h.h.h.h.h.h.h.h.h.h.h.h.h.h.h.h.g.g",
"#b#b#c#c.g.g.g.g.g.g.g.g.g.g.g.g.g.g.g.g.g.g.g.g.g.g.g.g.g.g.g.g.g.g.g.g.g.g.g.g.g.g.g.g.g.g.g.g.g.g.g.g.g.g.g.g.g.g.g.g",
"#b#b#c#c.g.g.g.g.g.g.g.g.g.g.g.g.g.g.g.g.g.g.g.g.g.g.g.g.g.g.g.g.g.g.g.g.g.g.g.g.g.g.g.g.g.g.g.g.g.g.g.g.g.g.g.g.g.g.g.g"};
