/* XPM */
static char *dummy[]={
"60 60 69 2",
".i c #000000",
".N c #010101",
".v c #030302",
".K c #050504",
".q c #060505",
".D c #090807",
".7 c #0d0c0a",
".G c #0f0e0b",
".r c #100f0c",
".6 c #11100d",
".0 c #151310",
".Z c #1c1a15",
".S c #1e1b17",
".u c #25231d",
".H c #28251f",
".R c #292620",
".L c #353129",
".M c #37332a",
".C c #39352c",
".j c #413c32",
".w c #443f34",
".4 c #4c463a",
".3 c #554f41",
".X c #5c5546",
".x c #5f5949",
".W c #696251",
".Q c #6b6452",
".B c #7c735f",
".P c #7f7661",
".n c #8d836c",
".z c #91866f",
".y c #948971",
"#. c #968b72",
".9 c #9b8f76",
".A c #a4997e",
".o c #a59a7e",
".2 c #afa386",
".V c #b4a78a",
".U c #c2b494",
".O c #c3b595",
".p c #cbbc9b",
".J c #d2c3a0",
".E c #d5c5a3",
".g c #d69e20",
".F c #dbcba7",
"#c c #dfac3b",
".8 c #dfcfab",
".s c #e0d0ac",
".d c #e2b142",
".5 c #e3d3ae",
"#a c #e8b84a",
".1 c #e8d8b2",
"#b c #eab849",
".f c #eabb50",
".k c #ead9b3",
".h c #ebbc51",
"## c #edc263",
".Y c #eddcb5",
".T c #eeddb6",
".a c #efbf55",
".t c #f0dfb8",
".c c #f3ca71",
".I c #f4e3bb",
".# c #f8cb68",
".l c #f9e7be",
"Qt c #facd6b",
".m c #fae8bf",
".b c #fbd88d",
".e c #fbe9c0",
"QtQtQtQtQtQtQtQtQtQtQtQtQtQtQtQtQtQtQtQtQtQtQtQtQtQtQtQtQtQtQtQtQtQtQtQtQtQtQtQtQtQtQtQtQtQtQtQtQtQtQtQtQtQtQtQt.#.#.a.a",
"QtQtQtQtQtQtQtQtQtQtQtQtQtQtQtQtQtQtQtQtQtQtQtQtQtQtQtQtQtQtQtQtQtQtQtQtQtQtQtQtQtQtQtQtQtQtQtQtQtQtQtQtQtQtQtQt.#.#.a.a",
"QtQt.b.b.b.b.b.b.b.b.b.b.b.b.b.b.b.b.b.b.b.b.b.b.b.b.b.b.b.b.b.b.b.b.b.b.b.b.b.b.b.b.b.b.b.b.b.b.b.b.b.b.b.b.b.b.c.c.d.d",
"QtQt.b.b.b.b.b.b.b.b.b.b.b.b.b.b.b.b.b.b.b.b.b.b.b.b.b.b.b.b.b.b.b.b.b.b.b.b.b.b.b.b.b.b.b.b.b.b.b.b.b.b.b.b.b.b.c.c.d.d",
"QtQt.b.b.e.e.e.e.e.e.e.e.e.e.e.e.e.e.e.e.e.e.e.e.e.e.e.e.e.e.e.e.e.e.e.e.e.e.e.e.e.e.e.e.e.e.e.e.e.e.e.e.e.e.e.e.f.f.g.g",
"QtQt.b.b.e.e.e.e.e.e.e.e.e.e.e.e.e.e.e.e.e.e.e.e.e.e.e.e.e.e.e.e.e.e.e.e.e.e.e.e.e.e.e.e.e.e.e.e.e.e.e.e.e.e.e.e.f.f.g.g",
"QtQt.b.b.e.e.e.e.e.e.e.e.e.e.e.e.e.e.e.e.e.e.e.e.e.e.e.e.e.e.e.e.e.e.e.e.e.e.e.e.e.e.e.e.e.e.e.e.e.e.e.e.e.e.e.e.h.h.g.g",
"QtQt.b.b.e.e.e.e.e.e.e.e.e.e.e.e.e.e.e.e.e.e.e.e.e.e.e.e.e.e.e.e.e.e.e.e.e.e.e.e.e.e.e.e.e.e.e.e.e.e.e.e.e.e.e.e.h.h.g.g",
"QtQt.b.b.e.e.e.e.e.e.e.e.e.e.e.e.e.e.e.e.e.e.e.e.e.e.e.e.e.e.e.e.e.e.e.e.e.e.e.e.e.e.e.e.e.e.e.e.e.e.e.e.e.e.e.e.h.h.g.g",
"QtQt.b.b.e.e.e.e.e.e.e.e.e.e.e.e.e.e.e.e.e.e.e.e.e.e.e.e.e.e.e.e.e.e.e.e.e.e.e.e.e.e.e.e.e.e.e.e.e.e.e.e.e.e.e.e.h.h.g.g",
"QtQt.b.b.e.e.e.e.e.e.e.e.e.e.e.e.e.e.e.e.e.e.e.e.e.e.e.e.e.e.e.e.e.e.e.e.e.e.e.e.e.e.e.e.e.e.e.e.e.e.e.e.e.e.e.e.h.h.g.g",
"QtQt.b.b.e.e.e.e.e.e.e.e.e.e.e.e.e.e.e.e.e.e.e.e.e.e.e.e.e.e.e.e.e.e.e.e.e.e.e.e.e.e.e.e.e.e.e.e.e.e.e.e.e.e.e.e.h.h.g.g",
"QtQt.b.b.e.e.e.e.e.e.e.e.e.e.e.e.e.e.e.e.e.e.e.e.e.e.e.e.e.e.e.e.e.e.e.e.e.e.e.e.e.e.e.e.e.e.e.e.e.e.e.e.e.e.e.e.h.h.g.g",
"QtQt.b.b.e.e.e.e.e.e.e.e.e.e.e.e.e.e.e.e.e.e.e.e.e.e.e.e.e.e.e.e.e.e.e.e.e.e.e.e.e.e.e.e.e.e.e.e.e.e.e.e.e.e.e.e.h.h.g.g",
"QtQt.b.b.e.e.e.e.e.e.e.e.e.e.i.i.i.i.i.i.j.j.k.k.l.l.e.e.e.e.e.e.m.m.e.e.e.e.n.n.i.i.i.i.i.i.e.e.e.e.e.e.e.e.e.e.h.h.g.g",
"QtQt.b.b.e.e.e.e.e.e.e.e.e.e.i.i.i.i.i.i.j.j.k.k.l.l.e.e.e.e.e.e.m.m.e.e.e.e.n.n.i.i.i.i.i.i.e.e.e.e.e.e.e.e.e.e.h.h.g.g",
"QtQt.b.b.e.e.e.e.e.e.e.e.e.e.i.i.i.i.i.i.i.i.o.o.e.e.e.e.e.e.e.e.e.e.e.e.p.p.q.q.i.i.i.i.i.i.e.e.e.e.e.e.e.e.e.e.h.h.g.g",
"QtQt.b.b.e.e.e.e.e.e.e.e.e.e.i.i.i.i.i.i.i.i.o.o.e.e.e.e.e.e.e.e.e.e.e.e.p.p.q.q.i.i.i.i.i.i.e.e.e.e.e.e.e.e.e.e.h.h.g.g",
"QtQt.b.b.e.e.e.e.e.e.e.e.e.e.i.i.i.i.i.i.i.i.r.r.s.s.e.e.e.e.e.e.e.e.t.t.u.u.i.i.i.i.i.i.i.i.e.e.e.e.e.e.e.e.e.e.h.h.g.g",
"QtQt.b.b.e.e.e.e.e.e.e.e.e.e.i.i.i.i.i.i.i.i.r.r.s.s.e.e.e.e.e.e.e.e.t.t.u.u.i.i.i.i.i.i.i.i.e.e.e.e.e.e.e.e.e.e.h.h.g.g",
"QtQt.b.b.e.e.e.e.e.e.e.e.e.e.v.v.i.i.i.i.i.i.i.i.w.w.m.m.e.e.e.e.e.e.x.x.i.i.i.i.i.i.i.i.v.v.e.e.e.e.e.e.e.e.e.e.h.h.g.g",
"QtQt.b.b.e.e.e.e.e.e.e.e.e.e.v.v.i.i.i.i.i.i.i.i.w.w.m.m.e.e.e.e.e.e.x.x.i.i.i.i.i.i.i.i.v.v.e.e.e.e.e.e.e.e.e.e.h.h.g.g",
"QtQt.b.b.e.e.e.e.e.e.e.e.e.e.y.y.i.i.i.i.i.i.i.i.i.i.z.z.e.e.e.e.A.A.i.i.i.i.i.i.i.i.i.i.B.B.e.e.e.e.e.e.e.e.e.e.h.h.g.g",
"QtQt.b.b.e.e.e.e.e.e.e.e.e.e.y.y.i.i.i.i.i.i.i.i.i.i.z.z.e.e.e.e.A.A.i.i.i.i.i.i.i.i.i.i.B.B.e.e.e.e.e.e.e.e.e.e.h.h.g.g",
"QtQt.b.b.e.e.e.e.e.e.e.e.e.e.l.l.C.C.i.i.i.i.i.i.i.i.D.D.E.E.F.F.G.G.i.i.i.i.i.i.i.i.H.H.I.I.e.e.e.e.e.e.e.e.e.e.h.h.g.g",
"QtQt.b.b.e.e.e.e.e.e.e.e.e.e.l.l.C.C.i.i.i.i.i.i.i.i.D.D.E.E.F.F.G.G.i.i.i.i.i.i.i.i.H.H.I.I.e.e.e.e.e.e.e.e.e.e.h.h.g.g",
"QtQt.b.b.e.e.e.e.e.e.e.e.e.e.e.e.J.J.K.K.i.i.i.i.i.i.i.i.L.L.M.M.i.i.i.i.i.i.i.i.N.N.O.O.e.e.e.e.e.e.e.e.e.e.e.e.h.h.g.g",
"QtQt.b.b.e.e.e.e.e.e.e.e.e.e.e.e.J.J.K.K.i.i.i.i.i.i.i.i.L.L.M.M.i.i.i.i.i.i.i.i.N.N.O.O.e.e.e.e.e.e.e.e.e.e.e.e.h.h.g.g",
"QtQt.b.b.e.e.e.e.e.e.e.e.e.e.e.e.e.e.P.P.i.i.i.i.i.i.i.i.i.i.i.i.i.i.i.i.i.i.i.i.Q.Q.e.e.e.e.e.e.e.e.e.e.e.e.e.e.h.h.g.g",
"QtQt.b.b.e.e.e.e.e.e.e.e.e.e.e.e.e.e.P.P.i.i.i.i.i.i.i.i.i.i.i.i.i.i.i.i.i.i.i.i.Q.Q.e.e.e.e.e.e.e.e.e.e.e.e.e.e.h.h.g.g",
"QtQt.b.b.e.e.e.e.e.e.e.e.e.e.e.e.e.e.I.I.R.R.i.i.i.i.i.i.i.i.i.i.i.i.i.i.i.i.S.S.T.T.e.e.e.e.e.e.e.e.e.e.e.e.e.e.h.h.g.g",
"QtQt.b.b.e.e.e.e.e.e.e.e.e.e.e.e.e.e.I.I.R.R.i.i.i.i.i.i.i.i.i.i.i.i.i.i.i.i.S.S.T.T.e.e.e.e.e.e.e.e.e.e.e.e.e.e.h.h.g.g",
"QtQt.b.b.e.e.e.e.e.e.e.e.e.e.e.e.e.e.e.e.U.U.N.N.i.i.i.i.i.i.i.i.i.i.i.i.i.i.V.V.e.e.e.e.e.e.e.e.e.e.e.e.e.e.e.e.h.h.g.g",
"QtQt.b.b.e.e.e.e.e.e.e.e.e.e.e.e.e.e.e.e.U.U.N.N.i.i.i.i.i.i.i.i.i.i.i.i.i.i.V.V.e.e.e.e.e.e.e.e.e.e.e.e.e.e.e.e.h.h.g.g",
"QtQt.b.b.e.e.e.e.e.e.e.e.e.e.e.e.e.e.e.e.e.e.W.W.i.i.i.i.i.i.i.i.i.i.i.i.X.X.e.e.e.e.e.e.e.e.e.e.e.e.e.e.e.e.e.e.h.h.g.g",
"QtQt.b.b.e.e.e.e.e.e.e.e.e.e.e.e.e.e.e.e.e.e.W.W.i.i.i.i.i.i.i.i.i.i.i.i.X.X.e.e.e.e.e.e.e.e.e.e.e.e.e.e.e.e.e.e.h.h.g.g",
"QtQt.b.b.e.e.e.e.e.e.e.e.e.e.e.e.e.e.e.e.e.e.Y.Y.Z.Z.i.i.i.i.i.i.i.i.0.0.1.1.e.e.e.e.e.e.e.e.e.e.e.e.e.e.e.e.e.e.h.h.g.g",
"QtQt.b.b.e.e.e.e.e.e.e.e.e.e.e.e.e.e.e.e.e.e.Y.Y.Z.Z.i.i.i.i.i.i.i.i.0.0.1.1.e.e.e.e.e.e.e.e.e.e.e.e.e.e.e.e.e.e.h.h.g.g",
"QtQt.b.b.e.e.e.e.e.e.e.e.e.e.e.e.e.e.e.e.e.e.e.e.2.2.i.i.i.i.i.i.i.i.o.o.e.e.e.e.e.e.e.e.e.e.e.e.e.e.e.e.e.e.e.e.h.h.g.g",
"QtQt.b.b.e.e.e.e.e.e.e.e.e.e.e.e.e.e.e.e.e.e.e.e.2.2.i.i.i.i.i.i.i.i.o.o.e.e.e.e.e.e.e.e.e.e.e.e.e.e.e.e.e.e.e.e.h.h.g.g",
"QtQt.b.b.e.e.e.e.e.e.e.e.e.e.e.e.e.e.e.e.e.e.e.e.e.e.3.3.i.i.i.i.4.4.m.m.e.e.e.e.e.e.e.e.e.e.e.e.e.e.e.e.e.e.e.e.h.h.g.g",
"QtQt.b.b.e.e.e.e.e.e.e.e.e.e.e.e.e.e.e.e.e.e.e.e.e.e.3.3.i.i.i.i.4.4.m.m.e.e.e.e.e.e.e.e.e.e.e.e.e.e.e.e.e.e.e.e.h.h.g.g",
"QtQt.b.b.e.e.e.e.e.e.e.e.e.e.e.e.e.e.e.e.e.e.e.e.e.e.5.5.6.6.7.7.8.8.e.e.e.e.e.e.e.e.e.e.e.e.e.e.e.e.e.e.e.e.e.e.h.h.g.g",
"QtQt.b.b.e.e.e.e.e.e.e.e.e.e.e.e.e.e.e.e.e.e.e.e.e.e.5.5.6.6.7.7.8.8.e.e.e.e.e.e.e.e.e.e.e.e.e.e.e.e.e.e.e.e.e.e.h.h.g.g",
"QtQt.b.b.e.e.e.e.e.e.e.e.e.e.e.e.e.e.e.e.e.e.e.e.e.e.e.e.9.9#.#..e.e.e.e.e.e.e.e.e.e.e.e.e.e.e.e.e.e.e.e.e.e.e.e.h.h.g.g",
"QtQt.b.b.e.e.e.e.e.e.e.e.e.e.e.e.e.e.e.e.e.e.e.e.e.e.e.e.9.9#.#..e.e.e.e.e.e.e.e.e.e.e.e.e.e.e.e.e.e.e.e.e.e.e.e.h.h.g.g",
"QtQt.b.b.e.e.e.e.e.e.e.e.e.e.e.e.e.e.e.e.e.e.e.e.e.e.e.e.e.e.e.e.e.e.e.e.e.e.e.e.e.e.e.e.e.e.e.e.e.e.e.e.e.e.e.e.h.h.g.g",
"QtQt.b.b.e.e.e.e.e.e.e.e.e.e.e.e.e.e.e.e.e.e.e.e.e.e.e.e.e.e.e.e.e.e.e.e.e.e.e.e.e.e.e.e.e.e.e.e.e.e.e.e.e.e.e.e.h.h.g.g",
"QtQt.b.b.e.e.e.e.e.e.e.e.e.e.e.e.e.e.e.e.e.e.e.e.e.e.e.e.e.e.e.e.e.e.e.e.e.e.e.e.e.e.e.e.e.e.e.e.e.e.e.e.e.e.e.e.h.h.g.g",
"QtQt.b.b.e.e.e.e.e.e.e.e.e.e.e.e.e.e.e.e.e.e.e.e.e.e.e.e.e.e.e.e.e.e.e.e.e.e.e.e.e.e.e.e.e.e.e.e.e.e.e.e.e.e.e.e.h.h.g.g",
"QtQt.b.b.e.e.e.e.e.e.e.e.e.e.e.e.e.e.e.e.e.e.e.e.e.e.e.e.e.e.e.e.e.e.e.e.e.e.e.e.e.e.e.e.e.e.e.e.e.e.e.e.e.e.e.e.h.h.g.g",
"QtQt.b.b.e.e.e.e.e.e.e.e.e.e.e.e.e.e.e.e.e.e.e.e.e.e.e.e.e.e.e.e.e.e.e.e.e.e.e.e.e.e.e.e.e.e.e.e.e.e.e.e.e.e.e.e.h.h.g.g",
"QtQt.b.b.e.e.e.e.e.e.e.e.e.e.e.e.e.e.e.e.e.e.e.e.e.e.e.e.e.e.e.e.e.e.e.e.e.e.e.e.e.e.e.e.e.e.e.e.e.e.e.e.e.e.e.e.h.h.g.g",
"QtQt.b.b.e.e.e.e.e.e.e.e.e.e.e.e.e.e.e.e.e.e.e.e.e.e.e.e.e.e.e.e.e.e.e.e.e.e.e.e.e.e.e.e.e.e.e.e.e.e.e.e.e.e.e.e.h.h.g.g",
"QtQt.b.b.e.e.e.e.e.e.e.e.e.e.e.e.e.e.e.e.e.e.e.e.e.e.e.e.e.e.e.e.e.e.e.e.e.e.e.e.e.e.e.e.e.e.e.e.e.e.e.e.e.e.e.e.h.h.g.g",
"QtQt.b.b.e.e.e.e.e.e.e.e.e.e.e.e.e.e.e.e.e.e.e.e.e.e.e.e.e.e.e.e.e.e.e.e.e.e.e.e.e.e.e.e.e.e.e.e.e.e.e.e.e.e.e.e.h.h.g.g",
"QtQt#####a#a.h.h.h.h.h.h.h.h.h.h.h.h.h.h.h.h.h.h.h.h.h.h.h.h.h.h.h.h.h.h.h.h.h.h.h.h.h.h.h.h.h.h.h.h.h.h.h.h.h.h.h.h.g.g",
"QtQt#####a#a.h.h.h.h.h.h.h.h.h.h.h.h.h.h.h.h.h.h.h.h.h.h.h.h.h.h.h.h.h.h.h.h.h.h.h.h.h.h.h.h.h.h.h.h.h.h.h.h.h.h.h.h.g.g",
"#b#b#c#c.g.g.g.g.g.g.g.g.g.g.g.g.g.g.g.g.g.g.g.g.g.g.g.g.g.g.g.g.g.g.g.g.g.g.g.g.g.g.g.g.g.g.g.g.g.g.g.g.g.g.g.g.g.g.g.g",
"#b#b#c#c.g.g.g.g.g.g.g.g.g.g.g.g.g.g.g.g.g.g.g.g.g.g.g.g.g.g.g.g.g.g.g.g.g.g.g.g.g.g.g.g.g.g.g.g.g.g.g.g.g.g.g.g.g.g.g.g"};
