/* XPM */
static char *dummy[]={
"60 60 16 1",
"h c #000000",
"g c #d15500",
"n c #d35702",
"m c #da600c",
"d c #df6512",
"l c #e46d1b",
"k c #e76c17",
"f c #e86d18",
"a c #ed7827",
"j c #ee7b2c",
"e c #f27d00",
"i c #f28235",
"c c #f28337",
"# c #f78c43",
"b c #f78d45",
". c #ff9b58",
"........................................................##aa",
"........................................................##aa",
"..bbbbbbbbbbbbbbbbbbbbbbbbbbbbbbbbbbbbbbbbbbbbbbbbbbbbbbccdd",
"..bbbbbbbbbbbbbbbbbbbbbbbbbbbbbbbbbbbbbbbbbbbbbbbbbbbbbbccdd",
"..bbeeeeeeeeeeeeeeeeeeeeeeeeeeeeeeeeeeeeeeeeeeeeeeeeeeeeffgg",
"..bbeeeeeeeeeeeeeeeeeeeeeeeeeeeeeeeeeeeeeeeeeeeeeeeeeeeeffgg",
"..bbeeeeeeeeeeeeeeeeeeeeeeeeeeeeeeeeeeeeeeeeeeeeeeeeeeeeffgg",
"..bbeeeeeeeeeeeeeeeeeeeeeeeeeeeeeeeeeeeeeeeeeeeeeeeeeeeeffgg",
"..bbeeeeeeeeeeeeeeeeeeeeeeeeeeeeeeeeeeeeeeeeeeeeeeeeeeeeffgg",
"..bbeeeeeeeeeeeeeeeeeeeeeeeeeeeeeeeeeeeeeeeeeeeeeeeeeeeeffgg",
"..bbeeeeeeeeeeeeeeeeeeeeeeeeeeeeeeeeeeeeeeeeeeeeeeeeeeeeffgg",
"..bbeeeeeeeeeeeeeeeeeeeeeeeeeeeeeeeeeeeeeeeeeeeeeeeeeeeeffgg",
"..bbeeeeeeeeeeeeeeeeeeeeeeeeeeeeeeeeeeeeeeeeeeeeeeeeeeeeffgg",
"..bbeeeeeeeeeeeeeeeeeeeeeeeeeeeeeeeeeeeeeeeeeeeeeeeeeeeeffgg",
"..bbeeeeeeeeeeeeeeeeeeeeeeeeeeeeeeeeeeeeeeeeeeeeeeeeeeeeffgg",
"..bbeeeeeeeeeeeeeeeeeeeeeeeeeeeeeeeeeeeeeeeeeeeeeeeeeeeeffgg",
"..bbeeeeeeeeeeeeeeeeeeeehhhhhhhhhhhheeeeeeeeeeeeeeeeeeeeffgg",
"..bbeeeeeeeeeeeeeeeeeeeehhhhhhhhhhhheeeeeeeeeeeeeeeeeeeeffgg",
"..bbeeeeeeeeeeeeeeeeeehhhhhhhhhhhhhhhheeeeeeeeeeeeeeeeeeffgg",
"..bbeeeeeeeeeeeeeeeeeehhhhhhhhhhhhhhhheeeeeeeeeeeeeeeeeeffgg",
"..bbeeeeeeeeeeeeeeeehhhhhhhhhhhhhhhhhhhheeeeeeeeeeeeeeeeffgg",
"..bbeeeeeeeeeeeeeeeehhhhhhhhhhhhhhhhhhhheeeeeeeeeeeeeeeeffgg",
"..bbeeeeeeeeeeeeeeeehhhhhhhheeeehhhhhhhheeeeeeeeeeeeeeeeffgg",
"..bbeeeeeeeeeeeeeeeehhhhhhhheeeehhhhhhhheeeeeeeeeeeeeeeeffgg",
"..bbeeeeeeeeeeeeeeeehhhhhheeeeeeeehhhhhheeeeeeeeeeeeeeeeffgg",
"..bbeeeeeeeeeeeeeeeehhhhhheeeeeeeehhhhhheeeeeeeeeeeeeeeeffgg",
"..bbeeeeeeeeeeeeeeeehhhhhheeeeeeeehhhhhheeeeeeeeeeeeeeeeffgg",
"..bbeeeeeeeeeeeeeeeehhhhhheeeeeeeehhhhhheeeeeeeeeeeeeeeeffgg",
"..bbeeeeeeeeeeeeeeeehhhhhheeeeeeeehhhhhheeeeeeeeeeeeeeeeffgg",
"..bbeeeeeeeeeeeeeeeehhhhhheeeeeeeehhhhhheeeeeeeeeeeeeeeeffgg",
"..bbeeeeeeeeeeeehhhhhhhhhhhhhhhhhhhhhhhhhhhheeeeeeeeeeeeffgg",
"..bbeeeeeeeeeeeehhhhhhhhhhhhhhhhhhhhhhhhhhhheeeeeeeeeeeeffgg",
"..bbeeeeeeeeeehhhhhhhhhhhhhhhhhhhhhhhhhhhhhhhheeeeeeeeeeffgg",
"..bbeeeeeeeeeehhhhhhhhhhhhhhhhhhhhhhhhhhhhhhhheeeeeeeeeeffgg",
"..bbeeeeeeeeeehhhhhhhheeeeeeeeeeeeeeeehhhhhhhheeeeeeeeeeffgg",
"..bbeeeeeeeeeehhhhhhhheeeeeeeeeeeeeeeehhhhhhhheeeeeeeeeeffgg",
"..bbeeeeeeeeeehhhhhheeeeeeeehhhheeeeeeeehhhhhheeeeeeeeeeffgg",
"..bbeeeeeeeeeehhhhhheeeeeeeehhhheeeeeeeehhhhhheeeeeeeeeeffgg",
"..bbeeeeeeeeeehhhhhheeeeeeeehhhheeeeeeeehhhhhheeeeeeeeeeffgg",
"..bbeeeeeeeeeehhhhhheeeeeeeehhhheeeeeeeehhhhhheeeeeeeeeeffgg",
"..bbeeeeeeeeeehhhhhhhheeeeeeeeeeeeeeeehhhhhhhheeeeeeeeeeffgg",
"..bbeeeeeeeeeehhhhhhhheeeeeeeeeeeeeeeehhhhhhhheeeeeeeeeeffgg",
"..bbeeeeeeeeeehhhhhhhhhhhhhhhhhhhhhhhhhhhhhhhheeeeeeeeeeffgg",
"..bbeeeeeeeeeehhhhhhhhhhhhhhhhhhhhhhhhhhhhhhhheeeeeeeeeeffgg",
"..bbeeeeeeeeeeeehhhhhhhhhhhhhhhhhhhhhhhhhhhheeeeeeeeeeeeffgg",
"..bbeeeeeeeeeeeehhhhhhhhhhhhhhhhhhhhhhhhhhhheeeeeeeeeeeeffgg",
"..bbeeeeeeeeeeeeeeeeeeeeeeeeeeeeeeeeeeeeeeeeeeeeeeeeeeeeffgg",
"..bbeeeeeeeeeeeeeeeeeeeeeeeeeeeeeeeeeeeeeeeeeeeeeeeeeeeeffgg",
"..bbeeeeeeeeeeeeeeeeeeeeeeeeeeeeeeeeeeeeeeeeeeeeeeeeeeeeffgg",
"..bbeeeeeeeeeeeeeeeeeeeeeeeeeeeeeeeeeeeeeeeeeeeeeeeeeeeeffgg",
"..bbeeeeeeeeeeeeeeeeeeeeeeeeeeeeeeeeeeeeeeeeeeeeeeeeeeeeffgg",
"..bbeeeeeeeeeeeeeeeeeeeeeeeeeeeeeeeeeeeeeeeeeeeeeeeeeeeeffgg",
"..bbeeeeeeeeeeeeeeeeeeeeeeeeeeeeeeeeeeeeeeeeeeeeeeeeeeeeffgg",
"..bbeeeeeeeeeeeeeeeeeeeeeeeeeeeeeeeeeeeeeeeeeeeeeeeeeeeeffgg",
"..bbeeeeeeeeeeeeeeeeeeeeeeeeeeeeeeeeeeeeeeeeeeeeeeeeeeeeffgg",
"..bbeeeeeeeeeeeeeeeeeeeeeeeeeeeeeeeeeeeeeeeeeeeeeeeeeeeeffgg",
"iijjffffffffffffffffffffffffffffffffffffffffffffffffffffkkgg",
"iijjffffffffffffffffffffffffffffffffffffffffffffffffffffkkgg",
"llmmnngggggggggggggggggggggggggggggggggggggggggggggggggggggg",
"llmmnngggggggggggggggggggggggggggggggggggggggggggggggggggggg"};
