/* XPM */
static char *dummy[]={
"3 32 5 1",
". c #2d7573",
"# c #36918e",
"a c #56eeeb",
"b c #57f0ed",
"c c #5cfffc",
"...",
"...",
"...",
"...",
"...",
"...",
"...",
"...",
"..#",
"abc",
"ccc",
"ccc",
"ccc",
"ccc",
"ccc",
"ccc",
"ccc",
"ccc",
"ccc",
"ccc",
"ccc",
"ccc",
"ccc",
"ccc",
"ccc",
"ccc",
"ccc",
"ccc",
"ccc",
"ccc",
"ccc",
"ccc"};
