/* XPM */
static char *dummy[]={
"8 20 2 1",
". c #88662d",
"# c #b48943",
"........",
".######.",
".######.",
"........",
".######.",
".######.",
"........",
".######.",
".######.",
"........",
".######.",
".######.",
"........",
".######.",
".######.",
"........",
".######.",
".######.",
".######.",
".######."};
