/* XPM */
static char *dummy[]={
"21 16 11 1",
"c c #5a4522",
"f c #5c4622",
"e c #5d4723",
"i c #5e4723",
"d c #5f4823",
"h c #886732",
"g c #987438",
"b c #9a722e",
"a c #b48943",
"# c #c39d5b",
". c #d1ab6a",
"....................#",
".aaaaaaaaaaaaaaaaaaab",
".aaaaaaaaaaaaaaaaaaab",
".aaaaaaaaaaaaaaaaaaab",
".aaaaacdaaaaaccaaaaab",
".aaaaaaceaaaccaaaaaab",
".aaaaaaacfgccaaaaaaab",
".aaaaaaaacccaaaaaaaab",
".aaaaaaaaccfaaaaaaaab",
".aaaaaaacchcfaaaaaaab",
".aaaaaaccaaaciaaaaaab",
".aaaaaccaaaaaceaaaaab",
".aaaaaaaaaaaaaaaaaaab",
".aaaaaaaaaaaaaaaaaaab",
".aaaaaaaaaaaaaaaaaaab",
"#bbbbbbbbbbbbbbbbbbbb"};
