/* XPM */
static char *dummy[]={
"21 16 14 1",
"c c #000000",
"h c #050402",
"f c #070503",
"e c #080603",
"k c #090704",
"j c #0a0704",
"d c #0b0905",
"i c #7a5f33",
"g c #a68146",
"b c #d9a044",
"a c #f3bd66",
"# c #f4c478",
"l c #f5c67a",
". c #ffd48e",
"....................#",
".aaaaaaaaaaaaaaaaaaab",
".aaaaaaaaaaaaaaaaaaab",
".aaaaaaaaaaaaaaaaaaab",
".aaaaacdaaaaaccaaaaab",
".aaaaaaceaaaccaaaaaab",
".aaaaaaacfgccaaaaaaab",
".aaaaaaaacccaaaaaaaab",
".aaaaaaaacchaaaaaaaab",
".aaaaaaaccicfaaaaaaab",
".aaaaaaccaaacjaaaaaab",
".aaaaaccaaaaackaaaaab",
".aaaaaaaaaaaaaaaaaaab",
".aaaaaaaaaaaaaaaaaaab",
".aaaaaaaaaaaaaaaaaaab",
"lbbbbbbbbbbbbbbbbbbbb"};
