/* XPM */
static char *dummy[]={
"21 16 5 1",
"c c #5a4522",
"b c #9a722e",
"a c #b48943",
"# c #c39d5b",
". c #d1ab6a",
"....................#",
".aaaaaaaaaaaaaaaaaaab",
".aaaaaaaaaaaaaaaaaaab",
".aaaaaaaaaaaaaaaaaaab",
".aaaaaaacccccccaaaaab",
".aaaaaaacaaaaacaaaaab",
".aaaaacccccccacaaaaab",
".aaaaacacaaacacaaaaab",
".aaaaacacaaacacaaaaab",
".aaaaacacccccccaaaaab",
".aaaaacaaaaacaaaaaaab",
".aaaaacccccccaaaaaaab",
".aaaaaaaaaaaaaaaaaaab",
".aaaaaaaaaaaaaaaaaaab",
".aaaaaaaaaaaaaaaaaaab",
"#bbbbbbbbbbbbbbbbbbbb"};
