/* XPM */
static char *dummy[]={
"16 16 6 1",
"c c #000000",
"b c #d69e20",
"d c #eab849",
"# c #efbf55",
". c #facd6b",
"a c #fbe9c0",
"...............#",
".aaaaaaaaaaaaaab",
".aaaaaaaaaaaaaab",
".aaaaaaaaaaaaaab",
".aaaccccccccaaab",
".aaaccccccccaaab",
".aaaaaaaaaaaaaab",
".aaaccccccccaaab",
".aaaccccccccaaab",
".aaaaaaaaaaaaaab",
".aaaccccccccaaab",
".aaaccccccccaaab",
".aaaaaaaaaaaaaab",
".aaaaaaaaaaaaaab",
".aaaaaaaaaaaaaab",
"dbbbbbbbbbbbbbbb"};
