/* XPM */
static char *dummy[]={
"16 16 59 1",
"m c #000000",
"t c #010000",
"B c #020100",
"x c #050300",
"O c #070300",
"n c #0a0500",
"K c #100800",
"E c #120900",
"I c #150a00",
"J c #1a0e00",
"V c #1c0f00",
"H c #211100",
"S c #321a00",
"r c #361c00",
"F c #3b1e00",
"A c #412100",
"u c #4a2700",
"R c #4c2700",
"Y c #6b3700",
"P c #703a00",
"w c #783e00",
"X c #834400",
"C c #8b4700",
"N c #994f00",
"W c #a55500",
"D c #a95700",
"h c #ad5900",
"L c #ae5900",
"s c #ae5a00",
"y c #af5a00",
"G c #b45d00",
"o c #b65e00",
"i c #b75e00",
"U c #c86700",
"k c #cd6a00",
"T c #d56e00",
"q c #d66e00",
"4 c #d85c06",
"f c #de630a",
"g c #de7300",
"l c #df7300",
"3 c #e0660e",
"d c #e0660f",
"z c #e17400",
"1 c #e27500",
"0 c #e67700",
"v c #e77800",
"Z c #e97800",
"2 c #ea7727",
"j c #ec7a00",
"Q c #ed7a00",
"M c #ed7b00",
"a c #ef7e31",
"p c #f17d00",
"e c #f27d00",
"c c #f3800c",
"b c #f48216",
"# c #fc9550",
". c #fe9855",
".##############a",
"#bcccccccccccccd",
"#ceeeeeeeeeeeeef",
"#ceghijeeekhleef",
"#cehmnopeqrmseef",
"#cestmuvewxtyeef",
"#cezABBCDEmFgeef",
"#ceeGHmIJmKLeeef",
"#ceeMNOmmmPjeeef",
"#ceeeQRtmSTeeeef",
"#ceeeeUVnWpeeeef",
"#ceeeeeXYZeeeeef",
"#ceeeee01eeeeeef",
"#ceeeeeeeeeeeeef",
"#ceeeeeeeeeeeeef",
"23fffffffffffff4"};
