/* XPM */
static char *dummy[]={
"16 16 54 1",
"l c #5a4522",
"V c #5e4824",
"C c #5f4924",
"S c #614a25",
"m c #644c25",
"D c #654d26",
"E c #664e26",
"v c #684f28",
"k c #695127",
"G c #6d5329",
"T c #6e542a",
"U c #70562a",
"B c #71572a",
"p c #72572a",
"q c #775b2d",
"L c #795d2d",
"r c #7a5d2e",
"N c #7c5e2f",
"s c #826330",
"o c #846531",
"Q c #886833",
"w c #896833",
"J c #916f36",
"I c #957238",
"P c #987439",
"h c #9a763a",
"M c #9b763a",
"n c #9d773a",
"Z c #9e7632",
"R c #a17b3d",
"W c #a27b3c",
"H c #a27b3d",
"f c #a37b36",
"i c #a47d3d",
"d c #a57e38",
"K c #a57e3d",
"Y c #a77e3a",
"g c #a77f3e",
"j c #a8803e",
"t c #a8803f",
"A c #a9813f",
"F c #aa813f",
"x c #ab8240",
"y c #ac8340",
"z c #ae8441",
"u c #b18742",
"O c #b28742",
"e c #b48943",
"c c #b78c47",
"b c #b98f4a",
"a c #c09a58",
"X c #c39d5b",
"# c #cba564",
". c #cea867",
".##############a",
"#bcccccccccccccd",
"#ceeeeeeeeeeeeef",
"#ceeeeghhieeeeef",
"#ceeejkllmneeeef",
"#ceeeolpqlreeeef",
"#ceeesltuvweeeef",
"#ceeeslxeyzeeeef",
"#ceABClDEEEpFeef",
"#cehlGHIJKLlMeef",
"#cehlNOPJeQlMeef",
"#ceRSlTUUUVSHeef",
"#ceeWMMMMMMWeeef",
"#ceeeeeeeeeeeeef",
"#ceeeeeeeeeeeeef",
"XYfffffffffffffZ"};
