/* XPM */
static char *dummy[]={
"16 16 56 1",
"l c #000000",
"p c #010100",
"X c #0c0905",
"C c #0e0b06",
"U c #140f08",
"m c #1a140b",
"D c #1d170c",
"E c #20190e",
"w c #261e10",
"k c #292011",
"H c #332715",
"V c #372b17",
"W c #3b2e19",
"q c #3f311b",
"F c #40311b",
"r c #4f3e21",
"M c #544123",
"s c #554224",
"O c #5b4726",
"t c #6b532d",
"o c #715830",
"S c #7e6235",
"x c #7f6235",
"R c #94733e",
"K c #95743f",
"J c #a07c43",
"Q c #a78246",
"h c #ad8749",
"N c #ae8849",
"n c #b38b4b",
"T c #c19651",
"Y c #c29751",
"I c #c29752",
"i c #c79b54",
"L c #ca9d55",
"g c #cfa157",
"j c #d1a358",
"u c #d3a459",
"B c #d6a65a",
"G c #d6a75a",
"y c #daaa5c",
"1 c #dda449",
"z c #dead5d",
"f c #e2a94f",
"A c #e2b05f",
"0 c #e4ad54",
"d c #e5ac53",
"v c #ecb763",
"P c #edb964",
"e c #f3bd66",
"c c #f5c06a",
"a c #f5c476",
"b c #f7c26d",
"Z c #f7c779",
"# c #ffd187",
". c #ffd38b",
".##############a",
"#bcccccccccccccd",
"#ceeeeeeeeeeeeef",
"#ceeeeghhieeeeef",
"#ceeejkllmneeeef",
"#ceeeopqrlseeeef",
"#ceeetluvwxeeeef",
"#ceeetlyezAeeeef",
"#ceBqClDEEEFGeef",
"#cehlHIJKLMlNeef",
"#cehlOPQReSlNeef",
"#ceTUlVWWWXUYeef",
"#ceeYNNNNNNYeeef",
"#ceeeeeeeeeeeeef",
"#ceeeeeeeeeeeeef",
"Z0fffffffffffff1"};
