/* XPM */
static char *dummy[]={
"3 25 3 1",
". c #88662d",
"a c #947033",
"# c #b48943",
"...",
"###",
"###",
"###",
"###",
"###",
"###",
"###",
"###",
"###",
"###",
"###",
"###",
"###",
"###",
"###",
"###",
"###",
"###",
"###",
"###",
"###",
"###",
"###",
"aaa"};
