/* XPM */
static char *dummy[]={
"31 23 94 2",
".u c #000000",
".2 c #020101",
".z c #030201",
"#q c #070503",
".E c #0a0704",
"#j c #0a0804",
".y c #0c0a05",
"#n c #141008",
".G c #1b150b",
".v c #1c150c",
".O c #1e170c",
"#d c #211a0e",
".Z c #221b0e",
".9 c #251d10",
"#m c #261e10",
".W c #292011",
".L c #2a2112",
"#b c #2b2112",
".R c #2c2212",
".7 c #2d2313",
".K c #2e2413",
".0 c #2f2414",
"#k c #312614",
".V c #322715",
".D c #332715",
".4 c #332816",
"#i c #392c18",
"#e c #3a2d18",
"#. c #3b2e19",
".P c #41321b",
".5 c #43341c",
".H c #44351c",
".T c #46361d",
".A c #49391f",
".8 c #876939",
".1 c #8b6c3a",
".F c #90703c",
"#p c #9a7841",
".3 c #a78246",
"#o c #a88246",
".U c #a98347",
".x c #ac8648",
".N c #ad8749",
".M c #af884a",
"#g c #b0894a",
".Y c #b28b4b",
"#c c #b9904e",
"#l c #ba914e",
"#h c #bb914e",
".X c #c09550",
".S c #c19651",
"#a c #c39852",
".J c #c49952",
".C c #c69a53",
".w c #c99c54",
"#f c #cfa157",
"## c #d2a358",
".6 c #d4a559",
".Q c #d5a65a",
".I c #d7a85a",
".B c #d8a85b",
"#B c #daa143",
".p c #daa144",
"#z c #daa244",
".t c #dba246",
"#A c #dba346",
"#w c #dca347",
".j c #e5ad55",
"#y c #e6af56",
"#v c #eab35b",
".o c #ecb55d",
".s c #edb65e",
".l c #f1bb64",
".m c #f2bc65",
".i c #f2bd67",
".n c #f3bd66",
".r c #f4be67",
"#u c #f4bf69",
".d c #f4c476",
"#s c #f5bf68",
"#x c #f6c779",
".f c #f9c571",
".g c #f9c572",
".k c #fac671",
".q c #fac672",
".h c #fac673",
"#r c #fbc773",
".c c #fcd086",
".e c #fdc977",
"#t c #fed28a",
".# c #ffd38b",
".a c #ffd38c",
".b c #ffd48c",
"Qt c #ffd48d",
"Qt.#.a.#.#.#.#.#.#.#.#.#.#.#.#.#.#.#.#.#.#.#.#.#.#.#.#.#.b.c.d",
".#.e.f.g.g.g.g.g.g.g.g.g.g.g.g.g.g.g.g.g.g.g.g.g.g.g.g.g.h.i.j",
".a.k.l.m.m.m.m.m.m.m.m.m.m.m.m.m.m.m.m.m.m.m.m.m.m.m.m.m.n.o.p",
".a.q.m.n.n.n.n.n.n.n.n.n.n.n.n.n.n.n.n.n.n.n.n.n.n.n.n.n.r.s.t",
".a.q.m.n.n.n.n.n.n.n.n.n.n.n.n.n.n.n.n.n.n.n.n.n.n.n.n.n.r.s.t",
".a.q.m.n.n.n.n.n.n.u.v.w.n.n.n.n.n.n.n.x.y.u.n.n.n.n.n.n.r.s.t",
".a.q.m.n.n.n.n.n.n.z.u.A.B.n.n.n.n.n.C.D.u.E.n.n.n.n.n.n.r.s.t",
".a.q.m.n.n.n.n.n.n.F.G.u.H.I.n.n.n.J.K.u.L.M.n.n.n.n.n.n.r.s.t",
".a.q.m.n.n.n.n.n.n.n.N.O.u.P.Q.n.J.R.u.R.S.n.n.n.n.n.n.n.r.s.t",
".a.q.m.n.n.n.n.n.n.n.n.M.v.u.T.U.V.u.W.X.n.n.n.n.n.n.n.n.r.s.t",
".a.q.m.n.n.n.n.n.n.n.n.n.Y.Z.u.z.u.0.S.n.n.n.n.n.n.n.n.n.r.s.t",
".a.q.m.n.n.n.n.n.n.n.n.n.n.1.u.u.2.3.n.n.n.n.n.n.n.n.n.n.r.s.t",
".a.q.m.n.n.n.n.n.n.n.n.n.J.4.u.u.u.5.6.n.n.n.n.n.n.n.n.n.r.s.t",
".a.q.m.n.n.n.n.n.n.n.n.J.7.u.V.8.9.u#.##.n.n.n.n.n.n.n.n.r.s.t",
".a.q.m.n.n.n.n.n.n.n#a.0.u#b#a.n#c#d.u#e#f.n.n.n.n.n.n.n.r.s.t",
".a.q.m.n.n.n.n.n.n#g#b.u.0.J.n.n.n#h.Z.u#i.X.n.n.n.n.n.n.r.s.t",
".a.q.m.n.n.n.n.n.n#j.u#k.J.n.n.n.n.n#l#m.u#n.n.n.n.n.n.n.r.s.t",
".a.q.m.n.n.n.n.n.n.u#j#o.n.n.n.n.n.n.n#p#q.u.n.n.n.n.n.n.r.s.t",
".a.q.m.n.n.n.n.n.n.n.n.n.n.n.n.n.n.n.n.n.n.n.n.n.n.n.n.n.r.s.t",
".a.q.m.n.n.n.n.n.n.n.n.n.n.n.n.n.n.n.n.n.n.n.n.n.n.n.n.n.r.s.t",
".a#r.n.r.r.r.r.r.r.r.r.r.r.r.r.r.r.r.r.r.r.r.r.r.r.r.r.r#s.s.t",
"#t#u.o.s.s.s.s.s.s.s.s.s.s.s.s.s.s.s.s.s.s.s.s.s.s.s.s.s.s#v#w",
"#x#y#z#A#A#A#A#A#A#A#A#A#A#A#A#A#A#A#A#A#A#A#A#A#A#A#A#A#A#w#B"};
