/* XPM */
static char *dummy[]={
"31 23 101 2",
"#I c #d25601",
"Qt c #fe9a57",
".d c #ed7829",
"#G c #d65907",
"#H c #d65a06",
".q c #d45806",
".v c #d55907",
"#C c #d65a06",
"#D c #e46e1c",
"#x c #f78d45",
".c c #fa924c",
".# c #fd9855",
".a c #fd9958",
".b c #fd9a59",
".k c #fe9958",
"#t c #ff9a5a",
".e c #fd9856",
"#F c #d65906",
".j c #dc6210",
".w c #000000",
".4 c #020100",
".B c #030100",
"#s c #070300",
".G c #090500",
"#l c #0a0500",
".A c #0c0600",
"#p c #140a00",
".I c #1b0e00",
".x c #1c0e00",
".Q c #1d0f00",
"#f c #211100",
".1 c #221200",
"## c #251300",
"#o c #261400",
".Y c #291500",
".N c #2a1600",
"#d c #2b1600",
".T c #2c1700",
".9 c #2d1700",
".M c #2e1800",
".2 c #2f1800",
"#m c #301900",
".X c #311900",
".F c #321a00",
".6 c #331a00",
"#k c #391d00",
"#g c #3a1e00",
"#a c #3b1e00",
".R c #412100",
".7 c #422200",
".J c #432300",
".V c #452400",
".C c #492600",
"#. c #874600",
".3 c #8b4800",
".H c #8f4a00",
"#r c #9a4f00",
".5 c #a65600",
"#q c #a75600",
".W c #a85700",
".z c #ac5900",
".P c #ad5900",
".O c #af5a00",
"#i c #b05b00",
".0 c #b15c00",
"#e c #b85f00",
"#n c #b96000",
"#j c #ba6000",
".Z c #bf6300",
".U c #c16400",
"#c c #c36400",
".L c #c36500",
".E c #c56600",
".y c #c86700",
"#h c #ce6a00",
"#b c #d16c00",
".8 c #d36d00",
".S c #d56e00",
".K c #d66f00",
".D c #d76f00",
"#E c #db610d",
"#B c #eb7114",
".p c #ed740b",
"#z c #ed740d",
"#w c #ed750d",
".u c #ed750e",
"#A c #ee760e",
"#y c #f07d25",
".i c #f17f27",
".m c #f27b00",
".n c #f27c00",
".s c #f27d00",
".o c #f37d00",
".t c #f37e00",
"#v c #f47f00",
".g c #f48525",
".l c #f58524",
".r c #f58526",
".h c #f58625",
"#u c #f68626",
".f c #f68936",
"Qt.#.a.a.a.a.a.a.a.a.a.a.a.a.a.a.a.a.a.a.a.a.a.a.a.a.a.a.b.c.d",
".e.f.g.g.g.g.g.g.g.g.g.g.g.g.g.g.g.g.g.g.g.g.g.g.g.g.g.g.h.i.j",
".k.l.m.n.n.n.n.n.n.n.n.n.n.n.n.n.n.n.n.n.n.n.n.n.n.n.n.n.o.p.q",
".k.r.n.s.s.s.s.s.s.s.s.s.s.s.s.s.s.s.s.s.s.s.s.s.s.s.s.s.t.u.v",
".k.r.n.s.s.s.s.s.s.s.s.s.s.s.s.s.s.s.s.s.s.s.s.s.s.s.s.s.t.u.v",
".k.r.n.s.s.s.s.s.s.w.x.y.s.s.s.s.s.s.s.z.A.w.s.s.s.s.s.s.t.u.v",
".k.r.n.s.s.s.s.s.s.B.w.C.D.s.s.s.s.s.E.F.w.G.s.s.s.s.s.s.t.u.v",
".k.r.n.s.s.s.s.s.s.H.I.w.J.K.s.s.s.L.M.w.N.O.s.s.s.s.s.s.t.u.v",
".k.r.n.s.s.s.s.s.s.s.P.Q.w.R.S.s.L.T.w.T.U.s.s.s.s.s.s.s.t.u.v",
".k.r.n.s.s.s.s.s.s.s.s.O.x.w.V.W.X.w.Y.Z.s.s.s.s.s.s.s.s.t.u.v",
".k.r.n.s.s.s.s.s.s.s.s.s.0.1.w.B.w.2.U.s.s.s.s.s.s.s.s.s.t.u.v",
".k.r.n.s.s.s.s.s.s.s.s.s.s.3.w.w.4.5.s.s.s.s.s.s.s.s.s.s.t.u.v",
".k.r.n.s.s.s.s.s.s.s.s.s.L.6.w.w.w.7.8.s.s.s.s.s.s.s.s.s.t.u.v",
".k.r.n.s.s.s.s.s.s.s.s.L.9.w.X#.##.w#a#b.s.s.s.s.s.s.s.s.t.u.v",
".k.r.n.s.s.s.s.s.s.s#c.2.w#d#c.s#e#f.w#g#h.s.s.s.s.s.s.s.t.u.v",
".k.r.n.s.s.s.s.s.s#i#d.w.2.L.s.s.s#j.1.w#k.Z.s.s.s.s.s.s.t.u.v",
".k.r.n.s.s.s.s.s.s#l.w#m.L.s.s.s.s.s#n#o.w#p.s.s.s.s.s.s.t.u.v",
".k.r.n.s.s.s.s.s.s.w#l#q.s.s.s.s.s.s.s#r#s.w.s.s.s.s.s.s.t.u.v",
".k.r.n.s.s.s.s.s.s.s.s.s.s.s.s.s.s.s.s.s.s.s.s.s.s.s.s.s.t.u.v",
".k.r.n.s.s.s.s.s.s.s.s.s.s.s.s.s.s.s.s.s.s.s.s.s.s.s.s.s.t.u.v",
"#t#u.o.t.t.t.t.t.t.t.t.t.t.t.t.t.t.t.t.t.t.t.t.t.t.t.t.t#v#w.v",
"#x#y#z.u.u.u.u.u.u.u.u.u.u.u.u.u.u.u.u.u.u.u.u.u.u.u.u.u#A#B#C",
"#D#E#F#G#G#G#G#G#G#G#G#G#G#G#G#G#G#G#G#G#G#G#G#G#G#G#G#G#G#H#I"};
