/* XPM */
static char *dummy[]={
"31 23 99 2",
"#G c #d79b21",
".w c #000000",
".4 c #020202",
".B c #030302",
"#s c #070605",
".G c #0a0908",
"#l c #0b0a08",
".A c #0d0c0a",
"#p c #151310",
".I c #1c1a15",
".x c #1d1a16",
".Q c #1f1c17",
"#f c #22201a",
".1 c #23211b",
"## c #26241d",
"#o c #27251e",
".Y c #2a2720",
".N c #2b2821",
"#d c #2c2922",
".T c #2d2a23",
".9 c #2e2b23",
".M c #2f2c24",
".2 c #302d25",
"#m c #322f26",
".X c #333027",
".F c #343028",
".6 c #353129",
"#k c #3b372d",
"#g c #3c382e",
"#a c #3d392f",
".R c #433e33",
".7 c #454035",
".J c #464135",
".V c #484337",
".C c #4c463a",
"#. c #8c826b",
".3 c #90856e",
".H c #958a72",
"#r c #9f947a",
".5 c #aca084",
"#q c #ada185",
".W c #aea285",
".z c #b2a588",
".P c #b3a689",
".O c #b5a88b",
"#i c #b6a98b",
".0 c #b8ab8d",
"#e c #bfb192",
"#n c #c0b293",
"#j c #c1b394",
".Z c #c6b897",
".U c #c8b999",
"#c c #cabb9a",
".L c #cbbc9b",
".E c #cdbe9d",
".y c #d0c19f",
"#h c #d6c6a3",
"#D c #d99e21",
".q c #d99f21",
"#b c #d9c9a6",
".v c #daa023",
"#E c #daa024",
"#F c #dba128",
"#A c #dba227",
".8 c #dbcba7",
".S c #dccda9",
"#C c #dea834",
".K c #decfaa",
".D c #dfcfab",
".k c #e0ab39",
"#B c #ecb94f",
".d c #efbe57",
"#z c #f0c76b",
"#v c #f2ce7c",
".p c #f2d184",
"#w c #f2d185",
".u c #f3d184",
"#x c #f3d285",
"#u c #f3d287",
"#y c #f3d389",
".j c #f5d182",
".c c #f9cd6e",
"Qt c #face6d",
".l c #face6f",
".a c #face70",
".b c #facf70",
".e c #facf71",
".# c #facf72",
".f c #fbdc9a",
".r c #fbe0a5",
".h c #fbe0a6",
".g c #fbe1a7",
".s c #fbe9c0",
".n c #fbeac3",
".m c #fbebc6",
".i c #fce2aa",
".t c #fcecc7",
".o c #fcedca",
"#t c #fdefce",
"Qt.#.a.b.b.b.b.b.b.b.b.b.b.b.b.b.b.b.b.b.b.b.b.b.b.b.b.b.b.c.d",
".e.f.g.h.h.h.h.h.h.h.h.h.h.h.h.h.h.h.h.h.h.h.h.h.h.h.h.h.i.j.k",
".l.h.m.n.n.n.n.n.n.n.n.n.n.n.n.n.n.n.n.n.n.n.n.n.n.n.n.n.o.p.q",
".l.r.n.s.s.s.s.s.s.s.s.s.s.s.s.s.s.s.s.s.s.s.s.s.s.s.s.s.t.u.v",
".l.r.n.s.s.s.s.s.s.s.s.s.s.s.s.s.s.s.s.s.s.s.s.s.s.s.s.s.t.u.v",
".l.r.n.s.s.s.s.s.s.w.x.y.s.s.s.s.s.s.s.z.A.w.s.s.s.s.s.s.t.u.v",
".l.r.n.s.s.s.s.s.s.B.w.C.D.s.s.s.s.s.E.F.w.G.s.s.s.s.s.s.t.u.v",
".l.r.n.s.s.s.s.s.s.H.I.w.J.K.s.s.s.L.M.w.N.O.s.s.s.s.s.s.t.u.v",
".l.r.n.s.s.s.s.s.s.s.P.Q.w.R.S.s.L.T.w.T.U.s.s.s.s.s.s.s.t.u.v",
".l.r.n.s.s.s.s.s.s.s.s.O.x.w.V.W.X.w.Y.Z.s.s.s.s.s.s.s.s.t.u.v",
".l.r.n.s.s.s.s.s.s.s.s.s.0.1.w.B.w.2.U.s.s.s.s.s.s.s.s.s.t.u.v",
".l.r.n.s.s.s.s.s.s.s.s.s.s.3.w.w.4.5.s.s.s.s.s.s.s.s.s.s.t.u.v",
".l.r.n.s.s.s.s.s.s.s.s.s.L.6.w.w.w.7.8.s.s.s.s.s.s.s.s.s.t.u.v",
".l.r.n.s.s.s.s.s.s.s.s.L.9.w.X#.##.w#a#b.s.s.s.s.s.s.s.s.t.u.v",
".l.r.n.s.s.s.s.s.s.s#c.2.w#d#c.s#e#f.w#g#h.s.s.s.s.s.s.s.t.u.v",
".l.r.n.s.s.s.s.s.s#i#d.w.2.L.s.s.s#j.1.w#k.Z.s.s.s.s.s.s.t.u.v",
".l.r.n.s.s.s.s.s.s#l.w#m.L.s.s.s.s.s#n#o.w#p.s.s.s.s.s.s.t.u.v",
".l.r.n.s.s.s.s.s.s.w#l#q.s.s.s.s.s.s.s#r#s.w.s.s.s.s.s.s.t.u.v",
".l.r.n.s.s.s.s.s.s.s.s.s.s.s.s.s.s.s.s.s.s.s.s.s.s.s.s.s.t.u.v",
".l.r.n.s.s.s.s.s.s.s.s.s.s.s.s.s.s.s.s.s.s.s.s.s.s.s.s.s.t.u.v",
".l.i.o.t.t.t.t.t.t.t.t.t.t.t.t.t.t.t.t.t.t.t.t.t.t.t.t.t#t#u.v",
".c#v#w#x#x#x#x#x#x#x#x#x#x#x#x#x#x#x#x#x#x#x#x#x#x#x#x#x#y#z#A",
"#B#C#D#E#E#E#E#E#E#E#E#E#E#E#E#E#E#E#E#E#E#E#E#E#E#E#E#E.v#F#G"};
