/* XPM */
static char *dummy[]={
"31 23 43 1",
"O c #d79b21",
"y c #000000",
"x c #0b0a08",
"A c #12100e",
"w c #8f846d",
"L c #d99e21",
"q c #d99f21",
"v c #daa023",
"M c #daa024",
"N c #dba128",
"I c #dba227",
"K c #dea834",
"k c #e0ab39",
"z c #e1d1ac",
"J c #ecb94f",
"d c #efbe57",
"H c #f0c76b",
"D c #f2ce7c",
"p c #f2d184",
"E c #f2d185",
"u c #f3d184",
"F c #f3d285",
"C c #f3d287",
"G c #f3d389",
"j c #f5d182",
"c c #f9cd6e",
". c #face6d",
"l c #face6f",
"a c #face70",
"b c #facf70",
"e c #facf71",
"# c #facf72",
"f c #fbdc9a",
"r c #fbe0a5",
"h c #fbe0a6",
"g c #fbe1a7",
"s c #fbe9c0",
"n c #fbeac3",
"m c #fbebc6",
"i c #fce2aa",
"t c #fcecc7",
"o c #fcedca",
"B c #fdefce",
".#abbbbbbbbbbbbbbbbbbbbbbbbbbcd",
"efghhhhhhhhhhhhhhhhhhhhhhhhhijk",
"lhmnnnnnnnnnnnnnnnnnnnnnnnnnopq",
"lrnssssssssssssssssssssssssstuv",
"lrnssssssssssssssssssssssssstuv",
"lrnssssssssssssssssssssssssstuv",
"lrnssssssssssssssssssssssssstuv",
"lrnssssssssssssssssssssssssstuv",
"lrnssssssssssssssssssssssssstuv",
"lrnssssssssssssssssssssssssstuv",
"lrnssssssssssssssssssssssssstuv",
"lrnssssssssssssssssssssssssstuv",
"lrnssssssssssssssssssssssssstuv",
"lrnssssssssssssssssssssssssstuv",
"lrnsssssswxyyyyyyyyyxwsssssstuv",
"lrnssssssyyyyyyyyyyyyysssssstuv",
"lrnsssssszAyyyyyyyyyAzsssssstuv",
"lrnssssssssssssssssssssssssstuv",
"lrnssssssssssssssssssssssssstuv",
"lrnssssssssssssssssssssssssstuv",
"liotttttttttttttttttttttttttBCv",
"cDEFFFFFFFFFFFFFFFFFFFFFFFFFGHI",
"JKLMMMMMMMMMMMMMMMMMMMMMMMMMvNO"};
