/* XPM */
static char *dummy[]={
"31 23 45 1",
"Q c #d25601",
". c #fe9a57",
"d c #ed7829",
"O c #d65907",
"P c #d65a06",
"q c #d45806",
"v c #d55907",
"K c #d65a06",
"L c #e46e1c",
"F c #f78d45",
"c c #fa924c",
"# c #fd9855",
"a c #fd9958",
"b c #fd9a59",
"k c #fe9958",
"B c #ff9a5a",
"e c #fd9856",
"N c #d65906",
"j c #dc6210",
"y c #000000",
"x c #0a0500",
"A c #110900",
"w c #8a4700",
"z c #d97000",
"M c #db610d",
"J c #eb7114",
"p c #ed740b",
"H c #ed740d",
"E c #ed750d",
"u c #ed750e",
"I c #ee760e",
"G c #f07d25",
"i c #f17f27",
"m c #f27b00",
"n c #f27c00",
"s c #f27d00",
"o c #f37d00",
"t c #f37e00",
"D c #f47f00",
"g c #f48525",
"l c #f58524",
"r c #f58526",
"h c #f58625",
"C c #f68626",
"f c #f68936",
".#aaaaaaaaaaaaaaaaaaaaaaaaaabcd",
"efgggggggggggggggggggggggggghij",
"klmnnnnnnnnnnnnnnnnnnnnnnnnnopq",
"krnssssssssssssssssssssssssstuv",
"krnssssssssssssssssssssssssstuv",
"krnssssssssssssssssssssssssstuv",
"krnssssssssssssssssssssssssstuv",
"krnssssssssssssssssssssssssstuv",
"krnssssssssssssssssssssssssstuv",
"krnssssssssssssssssssssssssstuv",
"krnssssssssssssssssssssssssstuv",
"krnssssssssssssssssssssssssstuv",
"krnssssssssssssssssssssssssstuv",
"krnssssssssssssssssssssssssstuv",
"krnsssssswxyyyyyyyyyxwsssssstuv",
"krnssssssyyyyyyyyyyyyysssssstuv",
"krnsssssszAyyyyyyyyyAzsssssstuv",
"krnssssssssssssssssssssssssstuv",
"krnssssssssssssssssssssssssstuv",
"krnssssssssssssssssssssssssstuv",
"BCotttttttttttttttttttttttttDEv",
"FGHuuuuuuuuuuuuuuuuuuuuuuuuuIJK",
"LMNOOOOOOOOOOOOOOOOOOOOOOOOOOPQ"};
