/* XPM */
static char *dummy[]={
"31 23 39 1",
"v c #5a4522",
"u c #5e4723",
"y c #614a24",
"t c #8d6b35",
"H c #9d752f",
"n c #9e752f",
"K c #9f762e",
"s c #9f7630",
"E c #9f7631",
"I c #9f7730",
"J c #9f7731",
"i c #a77f3b",
"G c #a9823d",
"x c #ab8240",
"D c #ac833d",
"m c #ad833d",
"B c #ad843e",
"r c #ae853f",
"C c #af853f",
"j c #b28741",
"k c #b38842",
"l c #b48842",
"p c #b48943",
"q c #b58943",
"h c #b58d49",
"z c #b68943",
"A c #ba924e",
"e c #bb934f",
"f c #bc934f",
"o c #bc9450",
"g c #bd9451",
"d c #bf9855",
"c c #c29c5a",
"F c #c39e5b",
"b c #cea866",
"# c #cfa967",
"w c #d0a968",
"a c #d0aa68",
". c #d1ab69",
".#aaaaaaaaaaaaaaaaaaaaaaaaaaabc",
"#defffffffffffffffffffffffffghi",
"afjkkkkkkkkkkkkkkkkkkkkkkkkklmn",
"aokpppppppppppppppppppppppppqrs",
"aokpppppppppppppppppppppppppqrs",
"aokpppppppppppppppppppppppppqrs",
"aokpppppppppppppppppppppppppqrs",
"aokpppppppppppppppppppppppppqrs",
"aokpppppppppppppppppppppppppqrs",
"aokpppppppppppppppppppppppppqrs",
"aokpppppppppppppppppppppppppqrs",
"aokpppppppppppppppppppppppppqrs",
"aokpppppppppppppppppppppppppqrs",
"aokpppppppppppppppppppppppppqrs",
"aokpppppptuvvvvvvvvvutppppppqrs",
"wokppppppvvvvvvvvvvvvvppppppqrs",
"aokppppppxyvvvvvvvvvyxppppppqrs",
"aokpppppppppppppppppppppppppqrs",
"aokpppppppppppppppppppppppppqrs",
"aokpppppppppppppppppppppppppqrs",
"aopqqqqqqqqqqqqqqqqqqqqqqqqqzrs",
".ABCCCCCCCCCCCCCCCCCCCCCCCCCCDE",
"FGHIIIIIIIIIIIIIIIIIIIIIIIIIIJK"};
