/* XPM */
static char *dummy[]={
"31 23 38 1",
"w c #000000",
"v c #0a0804",
"y c #110d07",
"u c #8a6b3a",
"J c #daa143",
"p c #daa144",
"H c #daa244",
"x c #daaa5c",
"t c #dba246",
"I c #dba346",
"E c #dca347",
"j c #e5ad55",
"G c #e6af56",
"D c #eab35b",
"o c #ecb55d",
"s c #edb65e",
"l c #f1bb64",
"m c #f2bc65",
"i c #f2bd67",
"n c #f3bd66",
"r c #f4be67",
"C c #f4bf69",
"d c #f4c476",
"A c #f5bf68",
"F c #f6c779",
"f c #f9c571",
"g c #f9c572",
"k c #fac671",
"q c #fac672",
"h c #fac673",
"z c #fbc773",
"c c #fcd086",
"e c #fdc977",
"B c #fed28a",
"# c #ffd38b",
"a c #ffd38c",
"b c #ffd48c",
". c #ffd48d",
".#a#########################bcd",
"#efggggggggggggggggggggggggghij",
"aklmmmmmmmmmmmmmmmmmmmmmmmmmnop",
"aqmnnnnnnnnnnnnnnnnnnnnnnnnnrst",
"aqmnnnnnnnnnnnnnnnnnnnnnnnnnrst",
"aqmnnnnnnnnnnnnnnnnnnnnnnnnnrst",
"aqmnnnnnnnnnnnnnnnnnnnnnnnnnrst",
"aqmnnnnnnnnnnnnnnnnnnnnnnnnnrst",
"aqmnnnnnnnnnnnnnnnnnnnnnnnnnrst",
"aqmnnnnnnnnnnnnnnnnnnnnnnnnnrst",
"aqmnnnnnnnnnnnnnnnnnnnnnnnnnrst",
"aqmnnnnnnnnnnnnnnnnnnnnnnnnnrst",
"aqmnnnnnnnnnnnnnnnnnnnnnnnnnrst",
"aqmnnnnnnnnnnnnnnnnnnnnnnnnnrst",
"aqmnnnnnnuvwwwwwwwwwvunnnnnnrst",
"aqmnnnnnnwwwwwwwwwwwwwnnnnnnrst",
"aqmnnnnnnxywwwwwwwwwyxnnnnnnrst",
"aqmnnnnnnnnnnnnnnnnnnnnnnnnnrst",
"aqmnnnnnnnnnnnnnnnnnnnnnnnnnrst",
"aqmnnnnnnnnnnnnnnnnnnnnnnnnnrst",
"aznrrrrrrrrrrrrrrrrrrrrrrrrrAst",
"BCossssssssssssssssssssssssssDE",
"FGHIIIIIIIIIIIIIIIIIIIIIIIIIIEJ"};
