/* XPM */
static char *dummy[]={
"31 23 57 1",
"u c #5a4522",
"F c #5b4522",
"x c #5c4622",
"v c #614a24",
"y c #644c25",
"z c #664d26",
"B c #674e26",
"E c #685027",
"t c #6a5127",
"I c #6b5228",
"M c #7b5d2e",
"K c #7c5e2e",
"N c #7c5f2e",
"A c #7e602f",
"G c #806130",
"D c #806230",
"w c #846431",
"C c #856531",
"P c #856632",
"J c #886732",
"H c #8a6933",
"Z c #9d752f",
"n c #9e752f",
"2 c #9f762e",
"s c #9f7630",
"W c #9f7631",
"0 c #9f7730",
"1 c #9f7731",
"i c #a77f3b",
"Y c #a9823d",
"V c #ac833d",
"m c #ad833d",
"T c #ad843e",
"r c #ae853f",
"U c #af853f",
"j c #b28741",
"L c #b28742",
"k c #b38842",
"O c #b38843",
"l c #b48842",
"p c #b48943",
"q c #b58943",
"h c #b58d49",
"R c #b68943",
"S c #ba924e",
"e c #bb934f",
"f c #bc934f",
"o c #bc9450",
"g c #bd9451",
"d c #bf9855",
"c c #c29c5a",
"X c #c39e5b",
"b c #cea866",
"# c #cfa967",
"Q c #d0a968",
"a c #d0aa68",
". c #d1ab69",
".#aaaaaaaaaaaaaaaaaaaaaaaaaaabc",
"#defffffffffffffffffffffffffghi",
"afjkkkkkkkkkkkkkkkkkkkkkkkkklmn",
"aokpppppppppppppppppppppppppqrs",
"aokpppppppppppppppppppppppppqrs",
"aokpppppppppptuuuuuuvpppppppqrs",
"aokpppppppppwxyyyyyyxzppppppqrs",
"aokpppppppppAxppppppBuppppppqrs",
"aokpppppppCDEFGDDHppBuppppppqrs",
"aokppppppIuuuuuuuuJpBuppppppqrs",
"aokppppppuBkKxLkLxMpBuppppppqrs",
"aokppppppuBpNxOpOxNpBuppppppqrs",
"aokppppppuBpMxLkLxKkBuppppppqrs",
"aokppppppuBpJuuuuuuuuIppppppqrs",
"aokppppppuBppHDDGFEDPpppppppqrs",
"QokppppppuBppppppxApppppppppqrs",
"aokppppppzxyyyyyyxwpppppppppqrs",
"aokpppppppvuuuuuutppppppppppqrs",
"aokpppppppppppppppppppppppppqrs",
"aokpppppppppppppppppppppppppqrs",
"aopqqqqqqqqqqqqqqqqqqqqqqqqqRrs",
".STUUUUUUUUUUUUUUUUUUUUUUUUUUVW",
"XYZ0000000000000000000000000012"};
