/* XPM */
static char *dummy[]={
"31 23 39 1",
"v c #000000",
"x c #060402",
"u c #130f08",
"y c #19130a",
"w c #1f180d",
"z c #231b0f",
"K c #daa143",
"p c #daa144",
"I c #daa244",
"t c #dba246",
"J c #dba346",
"F c #dca347",
"j c #e5ad55",
"H c #e6af56",
"E c #eab35b",
"o c #ecb55d",
"s c #edb65e",
"l c #f1bb64",
"m c #f2bc65",
"i c #f2bd67",
"n c #f3bd66",
"r c #f4be67",
"D c #f4bf69",
"d c #f4c476",
"B c #f5bf68",
"G c #f6c779",
"f c #f9c571",
"g c #f9c572",
"k c #fac671",
"q c #fac672",
"h c #fac673",
"A c #fbc773",
"c c #fcd086",
"e c #fdc977",
"C c #fed28a",
"# c #ffd38b",
"a c #ffd38c",
"b c #ffd48c",
". c #ffd48d",
".#a#########################bcd",
"#efggggggggggggggggggggggggghij",
"aklmmmmmmmmmmmmmmmmmmmmmmmmmnop",
"aqmnnnnnnnnnnnnnnnnnnnnnnnnnrst",
"aqmnnnnnnnnnnnnnnnnnnnnnnnnnrst",
"aqmnnnnnnnuvvvvvvvvvunnnnnnnrst",
"aqmnnnnnnwxyyyyyyyyyxwnnnnnnrst",
"aqmnnnnnnvznnnnnnnnnzvnnnnnnrst",
"aqmnnnnnnvznnnnnnnnnzvnnnnnnrst",
"aqmnnnnnnvznnnnnnnnnzvnnnnnnrst",
"aqmnnnnnnvznnnnnnnnnzvnnnnnnrst",
"aqmnnnnnnvznnnnnnnnnzvnnnnnnrst",
"aqmnnnnnnvznnnnnnnnnzvnnnnnnrst",
"aqmnnnnnnvznnnnnnnnnzvnnnnnnrst",
"aqmnnnnnnvznnnnnnnnnzvnnnnnnrst",
"aqmnnnnnnvznnnnnnnnnzvnnnnnnrst",
"aqmnnnnnnwxyyyyyyyyyxwnnnnnnrst",
"aqmnnnnnnnuvvvvvvvvvunnnnnnnrst",
"aqmnnnnnnnnnnnnnnnnnnnnnnnnnrst",
"aqmnnnnnnnnnnnnnnnnnnnnnnnnnrst",
"aAnrrrrrrrrrrrrrrrrrrrrrrrrrBst",
"CDossssssssssssssssssssssssssEF",
"GHIJJJJJJJJJJJJJJJJJJJJJJJJJJFK"};
