/* XPM */
static char *dummy[]={
"31 23 67 2",
"#a c #d79b21",
".x c #000000",
".N c #010101",
".J c #020202",
".T c #040403",
".E c #050504",
".A c #060505",
".y c #14120f",
".B c #1a1814",
".C c #201e19",
".P c #23211b",
".F c #24221c",
".I c #28251f",
".w c #2b2821",
".M c #2f2c24",
".U c #5c5546",
".R c #5e5748",
".V c #5f5949",
".D c #625b4b",
".K c #696251",
".H c #6a6351",
".z c #756d5a",
".G c #766e5a",
".Y c #786f5c",
".O c #7e7560",
".L c #847a65",
".X c #867c66",
".9 c #d99e21",
".q c #d99f21",
".v c #daa023",
"#. c #daa024",
"## c #dba128",
".6 c #dba227",
".8 c #dea834",
".k c #e0ab39",
".7 c #ecb94f",
".d c #efbe57",
".5 c #f0c76b",
".1 c #f2ce7c",
".p c #f2d184",
".2 c #f2d185",
".u c #f3d184",
".3 c #f3d285",
".0 c #f3d287",
".4 c #f3d389",
".S c #f4e3bb",
".j c #f5d182",
".Q c #f7e5bd",
".c c #f9cd6e",
".W c #f9e7be",
"Qt c #face6d",
".l c #face6f",
".a c #face70",
".b c #facf70",
".e c #facf71",
".# c #facf72",
".f c #fbdc9a",
".r c #fbe0a5",
".h c #fbe0a6",
".g c #fbe1a7",
".s c #fbe9c0",
".n c #fbeac3",
".m c #fbebc6",
".i c #fce2aa",
".t c #fcecc7",
".o c #fcedca",
".Z c #fdefce",
"Qt.#.a.b.b.b.b.b.b.b.b.b.b.b.b.b.b.b.b.b.b.b.b.b.b.b.b.b.b.c.d",
".e.f.g.h.h.h.h.h.h.h.h.h.h.h.h.h.h.h.h.h.h.h.h.h.h.h.h.h.i.j.k",
".l.h.m.n.n.n.n.n.n.n.n.n.n.n.n.n.n.n.n.n.n.n.n.n.n.n.n.n.o.p.q",
".l.r.n.s.s.s.s.s.s.s.s.s.s.s.s.s.s.s.s.s.s.s.s.s.s.s.s.s.t.u.v",
".l.r.n.s.s.s.s.s.s.s.s.s.s.s.s.s.s.s.s.s.s.s.s.s.s.s.s.s.t.u.v",
".l.r.n.s.s.s.s.s.s.s.s.s.s.w.x.x.x.x.x.x.y.s.s.s.s.s.s.s.t.u.v",
".l.r.n.s.s.s.s.s.s.s.s.s.z.A.B.B.B.B.B.B.A.C.s.s.s.s.s.s.t.u.v",
".l.r.n.s.s.s.s.s.s.s.s.s.D.E.s.s.s.s.s.s.F.x.s.s.s.s.s.s.t.u.v",
".l.r.n.s.s.s.s.s.s.s.G.H.I.J.K.H.H.L.s.s.F.x.s.s.s.s.s.s.t.u.v",
".l.r.n.s.s.s.s.s.s.M.x.N.x.x.N.N.N.x.O.s.F.x.s.s.s.s.s.s.t.u.v",
".l.r.n.s.s.s.s.s.s.x.P.Q.R.E.S.Q.S.T.U.s.F.x.s.s.s.s.s.s.t.u.v",
".l.r.n.s.s.s.s.s.s.x.F.s.V.E.W.s.W.E.V.s.F.x.s.s.s.s.s.s.t.u.v",
".l.r.n.s.s.s.s.s.s.x.F.s.U.T.S.Q.S.E.R.Q.P.x.s.s.s.s.s.s.t.u.v",
".l.r.n.s.s.s.s.s.s.x.F.s.O.x.N.N.N.x.x.N.x.M.s.s.s.s.s.s.t.u.v",
".l.r.n.s.s.s.s.s.s.x.F.s.s.X.H.H.K.J.I.H.Y.s.s.s.s.s.s.s.t.u.v",
".l.r.n.s.s.s.s.s.s.x.F.s.s.s.s.s.s.E.D.s.s.s.s.s.s.s.s.s.t.u.v",
".l.r.n.s.s.s.s.s.s.C.A.B.B.B.B.B.B.A.z.s.s.s.s.s.s.s.s.s.t.u.v",
".l.r.n.s.s.s.s.s.s.s.y.x.x.x.x.x.x.w.s.s.s.s.s.s.s.s.s.s.t.u.v",
".l.r.n.s.s.s.s.s.s.s.s.s.s.s.s.s.s.s.s.s.s.s.s.s.s.s.s.s.t.u.v",
".l.r.n.s.s.s.s.s.s.s.s.s.s.s.s.s.s.s.s.s.s.s.s.s.s.s.s.s.t.u.v",
".l.i.o.t.t.t.t.t.t.t.t.t.t.t.t.t.t.t.t.t.t.t.t.t.t.t.t.t.Z.0.v",
".c.1.2.3.3.3.3.3.3.3.3.3.3.3.3.3.3.3.3.3.3.3.3.3.3.3.3.3.4.5.6",
".7.8.9#.#.#.#.#.#.#.#.#.#.#.#.#.#.#.#.#.#.#.#.#.#.#.#.#..v###a"};
