/* XPM */
static char *dummy[]={
"31 23 44 1",
"P c #d79b21",
"x c #000000",
"z c #060505",
"w c #14120f",
"A c #1a1814",
"y c #201e19",
"B c #24221c",
"M c #d99e21",
"q c #d99f21",
"v c #daa023",
"N c #daa024",
"O c #dba128",
"J c #dba227",
"L c #dea834",
"k c #e0ab39",
"K c #ecb94f",
"d c #efbe57",
"I c #f0c76b",
"E c #f2ce7c",
"p c #f2d184",
"F c #f2d185",
"u c #f3d184",
"G c #f3d285",
"D c #f3d287",
"H c #f3d389",
"j c #f5d182",
"c c #f9cd6e",
". c #face6d",
"l c #face6f",
"a c #face70",
"b c #facf70",
"e c #facf71",
"# c #facf72",
"f c #fbdc9a",
"r c #fbe0a5",
"h c #fbe0a6",
"g c #fbe1a7",
"s c #fbe9c0",
"n c #fbeac3",
"m c #fbebc6",
"i c #fce2aa",
"t c #fcecc7",
"o c #fcedca",
"C c #fdefce",
".#abbbbbbbbbbbbbbbbbbbbbbbbbbcd",
"efghhhhhhhhhhhhhhhhhhhhhhhhhijk",
"lhmnnnnnnnnnnnnnnnnnnnnnnnnnopq",
"lrnssssssssssssssssssssssssstuv",
"lrnssssssssssssssssssssssssstuv",
"lrnssssssswxxxxxxxxxwssssssstuv",
"lrnssssssyzAAAAAAAAAzysssssstuv",
"lrnssssssxBsssssssssBxsssssstuv",
"lrnssssssxBsssssssssBxsssssstuv",
"lrnssssssxBsssssssssBxsssssstuv",
"lrnssssssxBsssssssssBxsssssstuv",
"lrnssssssxBsssssssssBxsssssstuv",
"lrnssssssxBsssssssssBxsssssstuv",
"lrnssssssxBsssssssssBxsssssstuv",
"lrnssssssxBsssssssssBxsssssstuv",
"lrnssssssxBsssssssssBxsssssstuv",
"lrnssssssyzAAAAAAAAAzysssssstuv",
"lrnssssssswxxxxxxxxxwssssssstuv",
"lrnssssssssssssssssssssssssstuv",
"lrnssssssssssssssssssssssssstuv",
"liotttttttttttttttttttttttttCDv",
"cEFGGGGGGGGGGGGGGGGGGGGGGGGGHIJ",
"KLMNNNNNNNNNNNNNNNNNNNNNNNNNvOP"};
