/* XPM */
static char *dummy[]={
"31 23 40 1",
"u c #5a4522",
"w c #5c4622",
"t c #614a24",
"x c #644c25",
"v c #664d26",
"y c #674e26",
"I c #9d752f",
"n c #9e752f",
"L c #9f762e",
"s c #9f7630",
"F c #9f7631",
"J c #9f7730",
"K c #9f7731",
"i c #a77f3b",
"H c #a9823d",
"E c #ac833d",
"m c #ad833d",
"C c #ad843e",
"r c #ae853f",
"D c #af853f",
"j c #b28741",
"k c #b38842",
"l c #b48842",
"p c #b48943",
"q c #b58943",
"h c #b58d49",
"A c #b68943",
"B c #ba924e",
"e c #bb934f",
"f c #bc934f",
"o c #bc9450",
"g c #bd9451",
"d c #bf9855",
"c c #c29c5a",
"G c #c39e5b",
"b c #cea866",
"# c #cfa967",
"z c #d0a968",
"a c #d0aa68",
". c #d1ab69",
".#aaaaaaaaaaaaaaaaaaaaaaaaaaabc",
"#defffffffffffffffffffffffffghi",
"afjkkkkkkkkkkkkkkkkkkkkkkkkklmn",
"aokpppppppppppppppppppppppppqrs",
"aokpppppppppppppppppppppppppqrs",
"aokppppppptuuuuuuuuutpppppppqrs",
"aokppppppvwxxxxxxxxxwvppppppqrs",
"aokppppppuypppppppppyuppppppqrs",
"aokppppppuypppppppppyuppppppqrs",
"aokppppppuypppppppppyuppppppqrs",
"aokppppppuypppppppppyuppppppqrs",
"aokppppppuypppppppppyuppppppqrs",
"aokppppppuypppppppppyuppppppqrs",
"aokppppppuypppppppppyuppppppqrs",
"aokppppppuypppppppppyuppppppqrs",
"zokppppppuypppppppppyuppppppqrs",
"aokppppppvwxxxxxxxxxwvppppppqrs",
"aokppppppptuuuuuuuuutpppppppqrs",
"aokpppppppppppppppppppppppppqrs",
"aokpppppppppppppppppppppppppqrs",
"aopqqqqqqqqqqqqqqqqqqqqqqqqqArs",
".BCDDDDDDDDDDDDDDDDDDDDDDDDDDEF",
"GHIJJJJJJJJJJJJJJJJJJJJJJJJJJKL"};
