/* XPM */
static char *dummy[]={
"31 23 46 1",
"R c #d25601",
". c #fe9a57",
"d c #ed7829",
"P c #d65907",
"Q c #d65a06",
"q c #d45806",
"v c #d55907",
"L c #d65a06",
"M c #e46e1c",
"G c #f78d45",
"c c #fa924c",
"# c #fd9855",
"a c #fd9958",
"b c #fd9a59",
"k c #fe9958",
"C c #ff9a5a",
"e c #fd9856",
"O c #d65906",
"j c #dc6210",
"x c #000000",
"z c #060300",
"w c #130a00",
"A c #190d00",
"y c #1f1000",
"B c #231200",
"N c #db610d",
"K c #eb7114",
"p c #ed740b",
"I c #ed740d",
"F c #ed750d",
"u c #ed750e",
"J c #ee760e",
"H c #f07d25",
"i c #f17f27",
"m c #f27b00",
"n c #f27c00",
"s c #f27d00",
"o c #f37d00",
"t c #f37e00",
"E c #f47f00",
"g c #f48525",
"l c #f58524",
"r c #f58526",
"h c #f58625",
"D c #f68626",
"f c #f68936",
".#aaaaaaaaaaaaaaaaaaaaaaaaaabcd",
"efgggggggggggggggggggggggggghij",
"klmnnnnnnnnnnnnnnnnnnnnnnnnnopq",
"krnssssssssssssssssssssssssstuv",
"krnssssssssssssssssssssssssstuv",
"krnssssssswxxxxxxxxxwssssssstuv",
"krnssssssyzAAAAAAAAAzysssssstuv",
"krnssssssxBsssssssssBxsssssstuv",
"krnssssssxBsssssssssBxsssssstuv",
"krnssssssxBsssssssssBxsssssstuv",
"krnssssssxBsssssssssBxsssssstuv",
"krnssssssxBsssssssssBxsssssstuv",
"krnssssssxBsssssssssBxsssssstuv",
"krnssssssxBsssssssssBxsssssstuv",
"krnssssssxBsssssssssBxsssssstuv",
"krnssssssxBsssssssssBxsssssstuv",
"krnssssssyzAAAAAAAAAzysssssstuv",
"krnssssssswxxxxxxxxxwssssssstuv",
"krnssssssssssssssssssssssssstuv",
"krnssssssssssssssssssssssssstuv",
"CDotttttttttttttttttttttttttEFv",
"GHIuuuuuuuuuuuuuuuuuuuuuuuuuJKL",
"MNOPPPPPPPPPPPPPPPPPPPPPPPPPPQR"};
