/* XPM */
static char *dummy[]={
"23 23 35 1",
"u c #5a4522",
"x c #5c4622",
"w c #8e6c35",
"E c #9d752f",
"p c #9e752f",
"G c #9f762e",
"t c #9f7630",
"F c #9f7730",
"C c #9f7731",
"j c #a77f3a",
"D c #a9813d",
"B c #ac833d",
"o c #ad833d",
"A c #ad843e",
"s c #af853f",
"l c #b28741",
"m c #b38842",
"n c #b48842",
"q c #b48943",
"r c #b58943",
"i c #b58d49",
"y c #b68943",
"z c #b9914d",
"f c #bb934f",
"k c #bc924e",
"g c #bc934f",
"v c #bc9350",
"h c #bd9450",
"e c #bf9855",
"d c #c39d5a",
"c c #cea766",
"# c #cfa967",
"b c #d0a968",
"a c #d0aa68",
". c #d1ab69",
".#aaaaaaaaaaaaaabbbbbcd",
"#efggggggggggggggggghij",
"aklmmmmmmmmmmmmmmmmmnop",
"agmqqqqqqqqqqqqqqqqqrst",
"agmqqqqqqqqqqqqqqqqqrst",
"agmqquuuuuuuuuuuuuqqrst",
"agmqquuuuuuuuuuuuuqqrst",
"agmqquuuuuuuuuuuuuqqrst",
"avmqqwwwwwwwwwwwwwqqrst",
"avmqqqqqqqqqqqqqqqqqrst",
"agmqqxxxxxxxxxxxxxqqrst",
"agmqquuuuuuuuuuuuuqqrst",
"agmqqxxxxxxxxxxxxxqqrst",
"agmqqqqqqqqqqqqqqqqqrst",
"agmqqwwwwwwwwwwwwwqqrst",
"bgmqquuuuuuuuuuuuuqqrst",
"agmqquuuuuuuuuuuuuqqrst",
"agmqquuuuuuuuuuuuuqqrst",
"agmqqqqqqqqqqqqqqqqqrst",
"agmqqqqqqqqqqqqqqqqqrst",
"agqrrrrrrrrrrrrrrrrryst",
".zAssssssssssssssssssBC",
"dDEFFFFFFFFFFFFFFFFFFCG"};
