/* XPM */
static char *dummy[]={
"23 23 41 1",
". c #ff9a57",
"M c #d25601",
"K c #d65907",
"L c #d65a06",
"H c #e46d1c",
"B c #f78d45",
"c c #fa934d",
"# c #fd9855",
"a c #fd9958",
"b c #fd9a59",
"y c #fe9a5a",
"d c #ed7829",
"e c #fd9856",
"J c #d65906",
"u c #000000",
"x c #040200",
"v c #8c4800",
"p c #d45805",
"t c #d55906",
"G c #d65a06",
"I c #db600d",
"j c #dc6210",
"F c #eb7114",
"o c #ed740b",
"D c #ed740d",
"A c #ed750d",
"s c #ed750e",
"E c #ee760e",
"C c #f07d25",
"w c #f17d00",
"i c #f17f28",
"l c #f27b00",
"m c #f27c00",
"q c #f27d00",
"n c #f37d00",
"r c #f37e00",
"z c #f47f00",
"k c #f48523",
"g c #f48525",
"h c #f58625",
"f c #f58935",
".#aaaaaaaaaaaaaaaaaabcd",
"efgggggggggggggggggghij",
"aklmmmmmmmmmmmmmmmmmnop",
"agmqqqqqqqqqqqqqqqqqrst",
"agmqqqqqqqqqqqqqqqqqrst",
"agmqquuuuuuuuuuuuuqqrst",
"agmqquuuuuuuuuuuuuqqrst",
"agmqquuuuuuuuuuuuuqqrst",
"agmqqvvvvvvvvvvvvvqqrst",
"agmqqwwwwwwwwwwwwwqqrst",
"agmqqxxxxxxxxxxxxxqqrst",
"agmqquuuuuuuuuuuuuqqrst",
"agmqqxxxxxxxxxxxxxqqrst",
"agmqqwwwwwwwwwwwwwqqrst",
"agmqqvvvvvvvvvvvvvqqrst",
"agmqquuuuuuuuuuuuuqqrst",
"agmqquuuuuuuuuuuuuqqrst",
"agmqquuuuuuuuuuuuuqqrst",
"agmqqqqqqqqqqqqqqqqqrst",
"agmqqqqqqqqqqqqqqqqqrst",
"yhnrrrrrrrrrrrrrrrrrzAt",
"BCDsssssssssssssssssEFG",
"HIJKKKKKKKKKKKKKKKKKKLM"};
