/* XPM */
static char *dummy[]={
"23 23 39 1",
"K c #d79b21",
"u c #000000",
"x c #040403",
"v c #91866f",
"p c #d99e21",
"t c #da9f24",
"J c #daa023",
"I c #daa024",
"F c #dba128",
"H c #dda834",
"j c #dfa937",
"G c #ebb94e",
"d c #efbe56",
"E c #f0c86c",
"B c #f2ce7d",
"C c #f2d185",
"o c #f2d285",
"s c #f3d285",
"A c #f3d388",
"D c #f3d389",
"i c #f5d183",
"c c #f9cd6e",
". c #facd6d",
"a c #face70",
"b c #facf70",
"# c #facf72",
"w c #fae8bf",
"e c #fbdc9a",
"g c #fbe0a6",
"k c #fbe0a7",
"f c #fbe1a7",
"q c #fbe9c0",
"m c #fbeac3",
"l c #fbebc6",
"h c #fce2aa",
"y c #fce2ab",
"r c #fcecc7",
"n c #fcedca",
"z c #fdefce",
".#abbbbbbbbbbbbbbbbbbcd",
"#efggggggggggggggggghij",
"bklmmmmmmmmmmmmmmmmmnop",
"bgmqqqqqqqqqqqqqqqqqrst",
"bgmqqqqqqqqqqqqqqqqqrst",
"bgmqquuuuuuuuuuuuuqqrst",
"bgmqquuuuuuuuuuuuuqqrst",
"bgmqquuuuuuuuuuuuuqqrst",
"bgmqqvvvvvvvvvvvvvqqrst",
"bgmqqwwwwwwwwwwwwwqqrst",
"bgmqqxxxxxxxxxxxxxqqrst",
"bgmqquuuuuuuuuuuuuqqrst",
"bgmqqxxxxxxxxxxxxxqqrst",
"bgmqqwwwwwwwwwwwwwqqrst",
"bgmqqvvvvvvvvvvvvvqqrst",
"bgmqquuuuuuuuuuuuuqqrst",
"bgmqquuuuuuuuuuuuuqqrst",
"bgmqquuuuuuuuuuuuuqqrst",
"bgmqqqqqqqqqqqqqqqqqrst",
"bgmqqqqqqqqqqqqqqqqqrst",
"bynrrrrrrrrrrrrrrrrrzAt",
"cBCsssssssssssssssssDEF",
"GHpIIIIIIIIIIIIIIIIIJFK"};
