/* XPM */
static char *dummy[]={
"23 23 33 1",
"t c #000000",
"w c #040302",
"u c #8c6d3b",
"E c #daa142",
"p c #daa244",
"s c #dba346",
"B c #dca347",
"k c #e4ad54",
"D c #e5af55",
"A c #eab35b",
"o c #ecb55d",
"r c #edb65e",
"l c #f1bb64",
"m c #f2bc65",
"v c #f2bc66",
"n c #f3bd66",
"j c #f3bd68",
"z c #f3be69",
"q c #f4be67",
"d c #f4c476",
"x c #f5bf68",
"C c #f6c779",
"g c #f9c571",
"h c #f9c572",
"i c #fac673",
"f c #fcc977",
"c c #fcd087",
"y c #fed289",
"e c #ffd28a",
"# c #ffd38b",
"a c #ffd38c",
". c #ffd38d",
"b c #ffd48c",
".#a#################bcd",
"efghhhhhhhhhhhhhhhhhijk",
"#glmmmmmmmmmmmmmmmmmnop",
"#hmnnnnnnnnnnnnnnnnnqrs",
"#hmnnnnnnnnnnnnnnnnnqrs",
"#hmnntttttttttttttnnqrs",
"#hmnntttttttttttttnnqrs",
"#hmnntttttttttttttnnqrs",
"#hmnnuuuuuuuuuuuuunnqrs",
"#hmnnvvvvvvvvvvvvvnnqrs",
"#hmnnwwwwwwwwwwwwwnnqrs",
"#hmnntttttttttttttnnqrs",
"#hmnnwwwwwwwwwwwwwnnqrs",
"#hmnnvvvvvvvvvvvvvnnqrs",
"#hmnnuuuuuuuuuuuuunnqrs",
"#hmnntttttttttttttnnqrs",
"#hmnntttttttttttttnnqrs",
"#hmnntttttttttttttnnqrs",
"#hmnnnnnnnnnnnnnnnnnqrs",
"#hmnnnnnnnnnnnnnnnnnqrs",
"#inqqqqqqqqqqqqqqqqqxrs",
"yzorrrrrrrrrrrrrrrrrrAB",
"CDpssssssssssssssssssBE"};
