/* XPM */
static char *dummy[]={
"23 23 75 2",
".A c #5a4522",
".1 c #5c4622",
".R c #5d4723",
"## c #5e4723",
".H c #5f4823",
".I c #604924",
".x c #614a24",
".4 c #634b25",
".2 c #664e26",
".z c #684f27",
".9 c #685027",
".B c #695027",
".S c #6b5128",
".K c #6d5329",
".V c #70552a",
".L c #71562a",
".0 c #73582b",
".Y c #74582b",
".X c #75592c",
".W c #785b2d",
".8 c #7b5d2e",
".E c #806130",
".F c #836331",
".6 c #856632",
".O c #866632",
".P c #8a6933",
".v c #8f6d35",
".5 c #906e36",
".w c #967238",
".y c #987438",
".G c #997539",
"#g c #9d752f",
".J c #9d773a",
".p c #9e752f",
"#i c #9f762e",
".t c #9f7630",
"#h c #9f7730",
"#e c #9f7731",
".Q c #a07a3c",
".T c #a47d3d",
".j c #a77f3a",
"#. c #a77f3e",
".3 c #a8803f",
"#f c #a9813d",
"#d c #ac833d",
".u c #ac8340",
".o c #ad833d",
"#c c #ad843e",
".C c #ad8440",
".U c #ae8441",
".M c #ae8541",
".s c #af853f",
".Z c #b08642",
".l c #b28741",
".7 c #b28742",
".m c #b38842",
".N c #b38843",
".n c #b48842",
".q c #b48943",
".r c #b58943",
".i c #b58d49",
"#a c #b68943",
"#b c #b9914d",
".f c #bb934f",
".k c #bc924e",
".g c #bc934f",
".D c #bc9350",
".h c #bd9450",
".e c #bf9855",
".d c #c39d5a",
".c c #cea766",
".# c #cfa967",
".b c #d0a968",
".a c #d0aa68",
"Qt c #d1ab69",
"Qt.#.a.a.a.a.a.a.a.a.a.a.a.a.a.a.b.b.b.b.b.c.d",
".#.e.f.g.g.g.g.g.g.g.g.g.g.g.g.g.g.g.g.g.h.i.j",
".a.k.l.m.m.m.m.m.m.m.m.m.m.m.m.m.m.m.m.m.n.o.p",
".a.g.m.q.q.q.q.q.q.q.q.q.q.q.q.q.q.q.q.q.r.s.t",
".a.g.m.q.q.q.q.q.q.q.q.q.q.q.q.q.q.q.q.q.r.s.t",
".a.g.m.q.q.q.q.q.q.q.u.v.u.q.q.q.q.q.q.q.r.s.t",
".a.g.m.q.q.q.q.q.q.q.w.x.y.q.q.q.q.q.q.q.r.s.t",
".a.g.m.q.q.q.q.q.q.u.z.A.B.C.q.q.q.q.q.q.r.s.t",
".a.D.m.q.q.q.q.q.q.E.A.A.A.F.q.q.q.q.q.q.r.s.t",
".a.D.m.q.q.q.q.q.G.H.A.A.A.I.J.q.q.q.q.q.r.s.t",
".a.g.m.q.q.q.q.u.K.A.A.A.A.A.L.M.q.q.q.q.r.s.t",
".a.g.m.q.q.q.N.O.A.A.A.A.A.A.A.P.q.q.q.q.r.s.t",
".a.g.m.q.q.q.Q.H.A.A.R.S.R.A.A.I.T.q.q.q.r.s.t",
".a.g.m.q.q.U.V.A.A.A.W.C.X.A.A.A.Y.Z.q.q.r.s.t",
".a.g.m.q.q.0.1.A.A.2.3.q.T.4.A.A.R.W.q.q.r.s.t",
".b.g.m.q.q.A.A.A.R.y.q.q.q.5.A.A.A.A.q.q.r.s.t",
".a.g.m.q.q.A.A.1.6.q.q.q.q.7.8.A.A.A.q.q.r.s.t",
".a.g.m.q.q.A.A.9#..q.q.q.q.q.w##.A.A.q.q.r.s.t",
".a.g.m.q.q.q.q.q.q.q.q.q.q.q.q.q.q.q.q.q.r.s.t",
".a.g.m.q.q.q.q.q.q.q.q.q.q.q.q.q.q.q.q.q.r.s.t",
".a.g.q.r.r.r.r.r.r.r.r.r.r.r.r.r.r.r.r.r#a.s.t",
"Qt#b#c.s.s.s.s.s.s.s.s.s.s.s.s.s.s.s.s.s.s#d#e",
".d#f#g#h#h#h#h#h#h#h#h#h#h#h#h#h#h#h#h#h#h#e#i"};
