/* XPM */
static char *dummy[]={
"23 23 88 2",
"Qt c #ff9a57",
"#v c #d25601",
"#t c #d65907",
"#u c #d65a06",
"#q c #e46d1c",
"#k c #f78d45",
".c c #fa934d",
".# c #fd9855",
".a c #fd9958",
".b c #fd9a59",
"#h c #fe9a5a",
".d c #ed7829",
".e c #fd9856",
"#s c #d65906",
".u c #000000",
".A c #010000",
".E c #050200",
".H c #060300",
".O c #080400",
".J c #090400",
".v c #0a0500",
".7 c #0b0600",
".Y c #0c0600",
".W c #0f0800",
"#e c #120900",
".K c #170c00",
".N c #201100",
"#b c #251300",
".z c #261400",
"#a c #2a1600",
".X c #2d1700",
".4 c #351b00",
".U c #391d00",
".3 c #3b1e00",
".P c #442300",
".R c #482500",
".T c #502900",
".I c #532b00",
".B c #592e00",
"#. c #663400",
".9 c #6d3800",
".D c #723b00",
".1 c #773d00",
".0 c #814300",
"#g c #8c4900",
".F c #904b00",
".w c #a25400",
".G c #a45500",
"#d c #a65600",
".8 c #ab5800",
".6 c #b15b00",
".Z c #bd6200",
".L c #c66600",
".y c #cf6b00",
".M c #d06b00",
".p c #d45805",
".t c #d55906",
"#p c #d65a06",
"#r c #db600d",
"#c c #db7100",
".j c #dc6210",
".5 c #dc7200",
"#f c #dd7200",
".S c #de7300",
"## c #df7300",
".V c #e17400",
".Q c #e87800",
"#o c #eb7114",
".C c #eb7a00",
".o c #ed740b",
"#m c #ed740d",
"#j c #ed750d",
".s c #ed750e",
"#n c #ee760e",
".2 c #f07c00",
"#l c #f07d25",
".x c #f17d00",
".i c #f17f28",
".l c #f27b00",
".m c #f27c00",
".q c #f27d00",
".n c #f37d00",
".r c #f37e00",
"#i c #f47f00",
".k c #f48523",
".g c #f48525",
".h c #f58625",
".f c #f58935",
"Qt.#.a.a.a.a.a.a.a.a.a.a.a.a.a.a.a.a.a.a.b.c.d",
".e.f.g.g.g.g.g.g.g.g.g.g.g.g.g.g.g.g.g.g.h.i.j",
".a.k.l.m.m.m.m.m.m.m.m.m.m.m.m.m.m.m.m.m.n.o.p",
".a.g.m.q.q.q.q.q.q.q.q.q.q.q.q.q.q.q.q.q.r.s.t",
".a.g.m.q.q.q.q.q.q.q.q.q.q.q.q.q.q.q.q.q.r.s.t",
".a.g.m.q.q.u.u.v.w.q.q.q.x.q.y.z.u.u.q.q.r.s.t",
".a.g.m.q.q.u.u.A.B.C.q.q.q.q.D.E.u.u.q.q.r.s.t",
".a.g.m.q.q.u.u.u.u.F.q.q.q.G.H.u.u.u.q.q.r.s.t",
".a.g.m.q.q.I.J.u.u.K.L.q.M.N.u.u.O.P.q.q.r.s.t",
".a.g.m.q.q.Q.P.u.u.u.R.S.T.u.u.u.U.V.q.q.r.s.t",
".a.g.m.q.q.q.L.W.u.u.O.X.O.u.u.Y.Z.q.q.q.r.s.t",
".a.g.m.q.q.q.x.0.u.u.u.u.u.u.u.1.2.q.q.q.r.s.t",
".a.g.m.q.q.q.q.V.3.u.u.u.u.u.4.5.q.q.q.q.r.s.t",
".a.g.m.q.q.q.q.q.6.W.u.u.u.7.8.q.q.q.q.q.r.s.t",
".a.g.m.q.q.q.q.q.q.9.u.u.u#..q.q.q.q.q.q.r.s.t",
".a.g.m.q.q.q.q.q.q###a.u#b#c.q.q.q.q.q.q.r.s.t",
".a.g.m.q.q.q.q.q.q.q#d#e.w.q.q.q.q.q.q.q.r.s.t",
".a.g.m.q.q.q.q.q.q.q#f#g#c.q.q.q.q.q.q.q.r.s.t",
".a.g.m.q.q.q.q.q.q.q.q.q.q.q.q.q.q.q.q.q.r.s.t",
".a.g.m.q.q.q.q.q.q.q.q.q.q.q.q.q.q.q.q.q.r.s.t",
"#h.h.n.r.r.r.r.r.r.r.r.r.r.r.r.r.r.r.r.r#i#j.t",
"#k#l#m.s.s.s.s.s.s.s.s.s.s.s.s.s.s.s.s.s#n#o#p",
"#q#r#s#t#t#t#t#t#t#t#t#t#t#t#t#t#t#t#t#t#t#u#v"};
