/* XPM */
static char *dummy[]={
"23 23 73 2",
".u c #5a4522",
".C c #5c4622",
".H c #5d4723",
".v c #5e4723",
".U c #5f4823",
".S c #604924",
".8 c #614a24",
".I c #634b25",
".K c #664e26",
".6 c #684f27",
".y c #685027",
".5 c #6a5127",
".T c #6b5128",
".Z c #6e5429",
".Q c #70552a",
".L c #74582b",
".N c #75592c",
".P c #785b2d",
".G c #795c2d",
".z c #7c5e2e",
".4 c #806130",
".3 c #836331",
".B c #856531",
".X c #866632",
".W c #8a6933",
".9 c #8f6d35",
".D c #906e36",
".w c #967238",
".E c #977338",
".7 c #987438",
".2 c #9a7539",
".1 c #9c773a",
"#e c #9d752f",
".p c #9e752f",
"#g c #9f762e",
".t c #9f7630",
"#f c #9f7730",
"#c c #9f7731",
".V c #a07a3c",
".J c #a47d3d",
".j c #a77f3a",
".x c #a77f3e",
"#d c #a9813d",
"#b c #ac833d",
".0 c #ac8340",
".o c #ad833d",
"#a c #ad843e",
".O c #ad8440",
".R c #ae8441",
".s c #af853f",
".M c #b08642",
".l c #b28741",
".A c #b28742",
".m c #b38842",
".Y c #b38843",
".n c #b48842",
".q c #b48943",
".r c #b58943",
".i c #b58d49",
"#. c #b68943",
"## c #b9914d",
".f c #bb934f",
".k c #bc924e",
".g c #bc934f",
".F c #bc9350",
".h c #bd9450",
".e c #bf9855",
".d c #c39d5a",
".c c #cea766",
".# c #cfa967",
".b c #d0a968",
".a c #d0aa68",
"Qt c #d1ab69",
"Qt.#.a.a.a.a.a.a.a.a.a.a.a.a.a.a.b.b.b.b.b.c.d",
".#.e.f.g.g.g.g.g.g.g.g.g.g.g.g.g.g.g.g.g.h.i.j",
".a.k.l.m.m.m.m.m.m.m.m.m.m.m.m.m.m.m.m.m.n.o.p",
".a.g.m.q.q.q.q.q.q.q.q.q.q.q.q.q.q.q.q.q.r.s.t",
".a.g.m.q.q.q.q.q.q.q.q.q.q.q.q.q.q.q.q.q.r.s.t",
".a.g.m.q.q.u.u.v.w.q.q.q.q.q.x.y.u.u.q.q.r.s.t",
".a.g.m.q.q.u.u.u.z.A.q.q.q.q.B.C.u.u.q.q.r.s.t",
".a.g.m.q.q.u.u.u.u.D.q.q.q.E.C.u.u.u.q.q.r.s.t",
".a.F.m.q.q.G.H.u.u.I.J.q.x.K.u.u.H.L.q.q.r.s.t",
".a.F.m.q.q.M.L.u.u.u.N.O.P.u.u.u.Q.R.q.q.r.s.t",
".a.g.m.q.q.q.J.S.u.u.H.T.H.u.u.U.V.q.q.q.r.s.t",
".a.g.m.q.q.q.q.W.u.u.u.u.u.u.u.X.Y.q.q.q.r.s.t",
".a.g.m.q.q.q.q.R.Q.u.u.u.u.u.Z.0.q.q.q.q.r.s.t",
".a.g.m.q.q.q.q.q.1.S.u.u.u.U.2.q.q.q.q.q.r.s.t",
".a.g.m.q.q.q.q.q.q.3.u.u.u.4.q.q.q.q.q.q.r.s.t",
".b.g.m.q.q.q.q.q.q.O.5.u.6.0.q.q.q.q.q.q.r.s.t",
".a.g.m.q.q.q.q.q.q.q.7.8.w.q.q.q.q.q.q.q.r.s.t",
".a.g.m.q.q.q.q.q.q.q.0.9.0.q.q.q.q.q.q.q.r.s.t",
".a.g.m.q.q.q.q.q.q.q.q.q.q.q.q.q.q.q.q.q.r.s.t",
".a.g.m.q.q.q.q.q.q.q.q.q.q.q.q.q.q.q.q.q.r.s.t",
".a.g.q.r.r.r.r.r.r.r.r.r.r.r.r.r.r.r.r.r#..s.t",
"Qt###a.s.s.s.s.s.s.s.s.s.s.s.s.s.s.s.s.s.s#b#c",
".d#d#e#f#f#f#f#f#f#f#f#f#f#f#f#f#f#f#f#f#f#c#g"};
