/* XPM */
static char *dummy[]={
"23 23 89 2",
"Qt c #ff9a57",
"#w c #d25601",
"#u c #d65907",
"#v c #d65a06",
"#r c #e46d1c",
"#l c #f78d45",
".c c #fa934d",
".# c #fd9855",
".a c #fd9958",
".b c #fd9a59",
"#i c #fe9a5a",
".d c #ed7829",
".e c #fd9856",
"#t c #d65906",
".C c #000000",
"#d c #010000",
"## c #050200",
".3 c #060300",
".T c #080400",
"#h c #0a0500",
".J c #0b0600",
".K c #0f0800",
".y c #120900",
".7 c #180c00",
".4 c #211100",
".B c #241300",
"#e c #271400",
".D c #291500",
".U c #2d1700",
".M c #341b00",
".X c #391d00",
".N c #3d1f00",
".2 c #422200",
".0 c #442300",
".Z c #482500",
".Y c #502900",
".8 c #512a00",
"#c c #572d00",
".G c #653400",
".H c #6c3800",
"#a c #743c00",
".Q c #763d00",
".R c #824300",
".v c #8c4900",
"#. c #914b00",
"#g c #a15300",
".x c #a25400",
".9 c #a55500",
".z c #a65600",
".I c #a95700",
".L c #b25c00",
".S c #bd6200",
".V c #c66600",
".6 c #c86700",
"#f c #d06b00",
".5 c #d26c00",
".p c #d45805",
".t c #d55906",
"#q c #d65a06",
".A c #da7100",
"#s c #db600d",
".u c #db7100",
".j c #dc6210",
".w c #dd7200",
".E c #de7300",
".W c #e17400",
".O c #e27500",
".1 c #e87800",
"#p c #eb7114",
"#b c #eb7a00",
".o c #ed740b",
"#n c #ed740d",
"#k c #ed750d",
".s c #ed750e",
"#o c #ee760e",
".P c #f07c00",
"#m c #f07d25",
".F c #f17d00",
".i c #f17f28",
".l c #f27b00",
".m c #f27c00",
".q c #f27d00",
".n c #f37d00",
".r c #f37e00",
"#j c #f47f00",
".k c #f48523",
".g c #f48525",
".h c #f58625",
".f c #f58935",
"Qt.#.a.a.a.a.a.a.a.a.a.a.a.a.a.a.a.a.a.a.b.c.d",
".e.f.g.g.g.g.g.g.g.g.g.g.g.g.g.g.g.g.g.g.h.i.j",
".a.k.l.m.m.m.m.m.m.m.m.m.m.m.m.m.m.m.m.m.n.o.p",
".a.g.m.q.q.q.q.q.q.q.q.q.q.q.q.q.q.q.q.q.r.s.t",
".a.g.m.q.q.q.q.q.q.q.q.q.q.q.q.q.q.q.q.q.r.s.t",
".a.g.m.q.q.q.q.q.q.q.u.v.w.q.q.q.q.q.q.q.r.s.t",
".a.g.m.q.q.q.q.q.q.q.x.y.z.q.q.q.q.q.q.q.r.s.t",
".a.g.m.q.q.q.q.q.q.A.B.C.D.E.q.q.q.q.q.q.r.s.t",
".a.g.m.q.q.q.q.q.F.G.C.C.C.H.q.q.q.q.q.q.r.s.t",
".a.g.m.q.q.q.q.q.I.J.C.C.C.K.L.q.q.q.q.q.r.s.t",
".a.g.m.q.q.q.q.u.M.C.C.C.C.C.N.O.q.q.q.q.r.s.t",
".a.g.m.q.q.q.P.Q.C.C.C.C.C.C.C.R.F.q.q.q.r.s.t",
".a.g.m.q.q.q.S.J.C.C.T.U.T.C.C.K.V.q.q.q.r.s.t",
".a.g.m.q.q.W.X.C.C.C.Y.E.Z.C.C.C.0.1.q.q.r.s.t",
".a.g.m.q.q.2.3.C.C.4.5.q.6.7.C.C.T.8.q.q.r.s.t",
".a.g.m.q.q.C.C.C.T.9.q.q.q#..C.C.C.C.q.q.r.s.t",
".a.g.m.q.q.C.C###a.q.q.q.q#b#c#d.C.C.q.q.r.s.t",
".a.g.m.q.q.C.C#e#f.q.F.q.q.q#g#h.C.C.q.q.r.s.t",
".a.g.m.q.q.q.q.q.q.q.q.q.q.q.q.q.q.q.q.q.r.s.t",
".a.g.m.q.q.q.q.q.q.q.q.q.q.q.q.q.q.q.q.q.r.s.t",
"#i.h.n.r.r.r.r.r.r.r.r.r.r.r.r.r.r.r.r.r#j#k.t",
"#l#m#n.s.s.s.s.s.s.s.s.s.s.s.s.s.s.s.s.s#o#p#q",
"#r#s#t#u#u#u#u#u#u#u#u#u#u#u#u#u#u#u#u#u#u#v#w"};
