/* XPM */
static char *dummy[]={
"23 23 87 2",
"#u c #d79b21",
".C c #000000",
"#d c #010101",
"## c #050504",
".3 c #060505",
".T c #080706",
"#h c #0b0a08",
".J c #0c0b09",
".K c #100f0c",
".y c #13110e",
".7 c #191713",
".4 c #22201a",
".B c #25231d",
"#e c #28251f",
".D c #2a2720",
".U c #2e2b23",
".M c #363229",
".X c #3b372d",
".N c #3f3a30",
".2 c #454035",
".0 c #474236",
".Z c #4b4539",
".Y c #534d3f",
".8 c #544e40",
"#c c #5b5445",
".G c #686150",
".H c #706856",
"#a c #786f5c",
".Q c #7a715d",
".R c #877d67",
".v c #92876f",
"#. c #978c73",
"#g c #a79b80",
".x c #a89c81",
".9 c #ab9f83",
".z c #aca084",
".I c #afa386",
".L c #b9ac8e",
".S c #c4b696",
".V c #cebf9d",
".6 c #d0c19f",
"#f c #d8c8a5",
".p c #d99e21",
".t c #da9f24",
"#t c #daa023",
"#s c #daa024",
".5 c #dacaa6",
"#p c #dba128",
"#r c #dda834",
".j c #dfa937",
".A c #e2d2ad",
".u c #e3d3ae",
".w c #e5d5af",
".E c #e6d6b0",
".W c #e9d9b2",
".O c #ead9b3",
"#q c #ebb94e",
".d c #efbe56",
"#o c #f0c86c",
".1 c #f0dfb8",
"#l c #f2ce7d",
"#m c #f2d185",
".o c #f2d285",
".s c #f3d285",
"#k c #f3d388",
"#n c #f3d389",
"#b c #f4e3bb",
".i c #f5d183",
".c c #f9cd6e",
".P c #f9e7be",
"Qt c #facd6d",
".a c #face70",
".b c #facf70",
".# c #facf72",
".F c #fae8bf",
".e c #fbdc9a",
".g c #fbe0a6",
".k c #fbe0a7",
".f c #fbe1a7",
".q c #fbe9c0",
".m c #fbeac3",
".l c #fbebc6",
".h c #fce2aa",
"#i c #fce2ab",
".r c #fcecc7",
".n c #fcedca",
"#j c #fdefce",
"Qt.#.a.b.b.b.b.b.b.b.b.b.b.b.b.b.b.b.b.b.b.c.d",
".#.e.f.g.g.g.g.g.g.g.g.g.g.g.g.g.g.g.g.g.h.i.j",
".b.k.l.m.m.m.m.m.m.m.m.m.m.m.m.m.m.m.m.m.n.o.p",
".b.g.m.q.q.q.q.q.q.q.q.q.q.q.q.q.q.q.q.q.r.s.t",
".b.g.m.q.q.q.q.q.q.q.q.q.q.q.q.q.q.q.q.q.r.s.t",
".b.g.m.q.q.q.q.q.q.q.u.v.w.q.q.q.q.q.q.q.r.s.t",
".b.g.m.q.q.q.q.q.q.q.x.y.z.q.q.q.q.q.q.q.r.s.t",
".b.g.m.q.q.q.q.q.q.A.B.C.D.E.q.q.q.q.q.q.r.s.t",
".b.g.m.q.q.q.q.q.F.G.C.C.C.H.q.q.q.q.q.q.r.s.t",
".b.g.m.q.q.q.q.q.I.J.C.C.C.K.L.q.q.q.q.q.r.s.t",
".b.g.m.q.q.q.q.u.M.C.C.C.C.C.N.O.q.q.q.q.r.s.t",
".b.g.m.q.q.q.P.Q.C.C.C.C.C.C.C.R.F.q.q.q.r.s.t",
".b.g.m.q.q.q.S.J.C.C.T.U.T.C.C.K.V.q.q.q.r.s.t",
".b.g.m.q.q.W.X.C.C.C.Y.E.Z.C.C.C.0.1.q.q.r.s.t",
".b.g.m.q.q.2.3.C.C.4.5.q.6.7.C.C.T.8.q.q.r.s.t",
".b.g.m.q.q.C.C.C.T.9.q.q.q#..C.C.C.C.q.q.r.s.t",
".b.g.m.q.q.C.C###a.q.q.q.q#b#c#d.C.C.q.q.r.s.t",
".b.g.m.q.q.C.C#e#f.q.F.q.q.q#g#h.C.C.q.q.r.s.t",
".b.g.m.q.q.q.q.q.q.q.q.q.q.q.q.q.q.q.q.q.r.s.t",
".b.g.m.q.q.q.q.q.q.q.q.q.q.q.q.q.q.q.q.q.r.s.t",
".b#i.n.r.r.r.r.r.r.r.r.r.r.r.r.r.r.r.r.r#j#k.t",
".c#l#m.s.s.s.s.s.s.s.s.s.s.s.s.s.s.s.s.s#n#o#p",
"#q#r.p#s#s#s#s#s#s#s#s#s#s#s#s#s#s#s#s#s#t#p#u"};
