/* XPM */
static char *dummy[]={
"23 23 80 2",
".t c #000000",
".z c #010100",
".D c #050402",
".G c #060402",
".N c #080603",
".I c #090704",
".u c #0a0804",
".6 c #0b0905",
".X c #0c0a05",
".V c #0f0c06",
"#d c #120e08",
".J c #17120a",
".M c #20190e",
"#a c #251d10",
".y c #261e10",
"## c #2a2112",
".W c #2d2313",
".3 c #352a16",
".T c #392c18",
".2 c #3b2e19",
".O c #45351d",
".Q c #48381e",
".S c #503e22",
".H c #534023",
".A c #5a4626",
".9 c #664f2b",
".8 c #6e552e",
".C c #725930",
".0 c #775d32",
".Z c #826536",
"#f c #8d6e3b",
".E c #91713d",
".v c #a37f44",
".F c #a58045",
"#c c #a78246",
".7 c #ac8548",
".5 c #b18a4a",
".Y c #be9350",
".K c #c79b54",
".x c #d0a257",
".L c #d1a258",
"#n c #daa142",
".p c #daa244",
".s c #dba346",
"#k c #dca347",
"#b c #dcab5c",
".4 c #ddac5d",
"#e c #dead5d",
".R c #dfad5e",
"#. c #e0ae5e",
".U c #e2b05f",
".k c #e4ad54",
"#m c #e5af55",
".P c #e9b562",
"#j c #eab35b",
".o c #ecb55d",
".B c #ecb863",
".r c #edb65e",
".l c #f1bb64",
".1 c #f1bc65",
".m c #f2bc65",
".w c #f2bc66",
".n c #f3bd66",
".j c #f3bd68",
"#i c #f3be69",
".q c #f4be67",
".d c #f4c476",
"#g c #f5bf68",
"#l c #f6c779",
".g c #f9c571",
".h c #f9c572",
".i c #fac673",
".f c #fcc977",
".c c #fcd087",
"#h c #fed289",
".e c #ffd28a",
".# c #ffd38b",
".a c #ffd38c",
"Qt c #ffd38d",
".b c #ffd48c",
"Qt.#.a.#.#.#.#.#.#.#.#.#.#.#.#.#.#.#.#.#.b.c.d",
".e.f.g.h.h.h.h.h.h.h.h.h.h.h.h.h.h.h.h.h.i.j.k",
".#.g.l.m.m.m.m.m.m.m.m.m.m.m.m.m.m.m.m.m.n.o.p",
".#.h.m.n.n.n.n.n.n.n.n.n.n.n.n.n.n.n.n.n.q.r.s",
".#.h.m.n.n.n.n.n.n.n.n.n.n.n.n.n.n.n.n.n.q.r.s",
".#.h.m.n.n.t.t.u.v.n.n.n.w.n.x.y.t.t.n.n.q.r.s",
".#.h.m.n.n.t.t.z.A.B.n.n.n.n.C.D.t.t.n.n.q.r.s",
".#.h.m.n.n.t.t.t.t.E.n.n.n.F.G.t.t.t.n.n.q.r.s",
".#.h.m.n.n.H.I.t.t.J.K.n.L.M.t.t.N.O.n.n.q.r.s",
".#.h.m.n.n.P.O.t.t.t.Q.R.S.t.t.t.T.U.n.n.q.r.s",
".#.h.m.n.n.n.K.V.t.t.N.W.N.t.t.X.Y.n.n.n.q.r.s",
".#.h.m.n.n.n.w.Z.t.t.t.t.t.t.t.0.1.n.n.n.q.r.s",
".#.h.m.n.n.n.n.U.2.t.t.t.t.t.3.4.n.n.n.n.q.r.s",
".#.h.m.n.n.n.n.n.5.V.t.t.t.6.7.n.n.n.n.n.q.r.s",
".#.h.m.n.n.n.n.n.n.8.t.t.t.9.n.n.n.n.n.n.q.r.s",
".#.h.m.n.n.n.n.n.n#.##.t#a#b.n.n.n.n.n.n.q.r.s",
".#.h.m.n.n.n.n.n.n.n#c#d.v.n.n.n.n.n.n.n.q.r.s",
".#.h.m.n.n.n.n.n.n.n#e#f#b.n.n.n.n.n.n.n.q.r.s",
".#.h.m.n.n.n.n.n.n.n.n.n.n.n.n.n.n.n.n.n.q.r.s",
".#.h.m.n.n.n.n.n.n.n.n.n.n.n.n.n.n.n.n.n.q.r.s",
".#.i.n.q.q.q.q.q.q.q.q.q.q.q.q.q.q.q.q.q#g.r.s",
"#h#i.o.r.r.r.r.r.r.r.r.r.r.r.r.r.r.r.r.r.r#j#k",
"#l#m.p.s.s.s.s.s.s.s.s.s.s.s.s.s.s.s.s.s.s#k#n"};
