/* XPM */
static char *dummy[]={
"23 23 81 2",
".B c #000000",
"#c c #010100",
"#. c #050402",
".2 c #060402",
".S c #080603",
"#g c #0a0804",
".I c #0b0905",
".J c #0f0c06",
".x c #120e08",
".6 c #18130a",
".3 c #211a0e",
".A c #241c0f",
"#d c #271e10",
".C c #292011",
".T c #2d2313",
".L c #342916",
".W c #392c18",
".M c #3d2f1a",
".1 c #43341c",
".Z c #45351d",
".Y c #48381e",
".X c #503e22",
".7 c #513f22",
"#b c #584425",
".F c #654f2a",
".G c #6d542e",
"## c #745a31",
".P c #765c32",
".Q c #836637",
".u c #8d6e3b",
".9 c #92713d",
"#f c #a27e44",
".w c #a37f44",
".8 c #a68146",
".y c #a78246",
".H c #aa8447",
".K c #b38b4b",
".R c #be9350",
".U c #c79b54",
".5 c #c99c54",
"#e c #d1a258",
".4 c #d3a458",
"#o c #daa142",
".p c #daa244",
".s c #dba346",
".z c #dbaa5c",
"#l c #dca347",
".t c #dcab5c",
".v c #dead5d",
".D c #dfad5e",
".V c #e2b05f",
".N c #e3b05f",
".k c #e4ad54",
"#n c #e5af55",
".0 c #e9b562",
"#k c #eab35b",
".o c #ecb55d",
"#a c #ecb863",
".r c #edb65e",
".l c #f1bb64",
".O c #f1bc65",
".m c #f2bc65",
".E c #f2bc66",
".n c #f3bd66",
".j c #f3bd68",
"#j c #f3be69",
".q c #f4be67",
".d c #f4c476",
"#h c #f5bf68",
"#m c #f6c779",
".g c #f9c571",
".h c #f9c572",
".i c #fac673",
".f c #fcc977",
".c c #fcd087",
"#i c #fed289",
".e c #ffd28a",
".# c #ffd38b",
".a c #ffd38c",
"Qt c #ffd38d",
".b c #ffd48c",
"Qt.#.a.#.#.#.#.#.#.#.#.#.#.#.#.#.#.#.#.#.b.c.d",
".e.f.g.h.h.h.h.h.h.h.h.h.h.h.h.h.h.h.h.h.i.j.k",
".#.g.l.m.m.m.m.m.m.m.m.m.m.m.m.m.m.m.m.m.n.o.p",
".#.h.m.n.n.n.n.n.n.n.n.n.n.n.n.n.n.n.n.n.q.r.s",
".#.h.m.n.n.n.n.n.n.n.n.n.n.n.n.n.n.n.n.n.q.r.s",
".#.h.m.n.n.n.n.n.n.n.t.u.v.n.n.n.n.n.n.n.q.r.s",
".#.h.m.n.n.n.n.n.n.n.w.x.y.n.n.n.n.n.n.n.q.r.s",
".#.h.m.n.n.n.n.n.n.z.A.B.C.D.n.n.n.n.n.n.q.r.s",
".#.h.m.n.n.n.n.n.E.F.B.B.B.G.n.n.n.n.n.n.q.r.s",
".#.h.m.n.n.n.n.n.H.I.B.B.B.J.K.n.n.n.n.n.q.r.s",
".#.h.m.n.n.n.n.t.L.B.B.B.B.B.M.N.n.n.n.n.q.r.s",
".#.h.m.n.n.n.O.P.B.B.B.B.B.B.B.Q.E.n.n.n.q.r.s",
".#.h.m.n.n.n.R.I.B.B.S.T.S.B.B.J.U.n.n.n.q.r.s",
".#.h.m.n.n.V.W.B.B.B.X.D.Y.B.B.B.Z.0.n.n.q.r.s",
".#.h.m.n.n.1.2.B.B.3.4.n.5.6.B.B.S.7.n.n.q.r.s",
".#.h.m.n.n.B.B.B.S.8.n.n.n.9.B.B.B.B.n.n.q.r.s",
".#.h.m.n.n.B.B#.##.n.n.n.n#a#b#c.B.B.n.n.q.r.s",
".#.h.m.n.n.B.B#d#e.n.E.n.n.n#f#g.B.B.n.n.q.r.s",
".#.h.m.n.n.n.n.n.n.n.n.n.n.n.n.n.n.n.n.n.q.r.s",
".#.h.m.n.n.n.n.n.n.n.n.n.n.n.n.n.n.n.n.n.q.r.s",
".#.i.n.q.q.q.q.q.q.q.q.q.q.q.q.q.q.q.q.q#h.r.s",
"#i#j.o.r.r.r.r.r.r.r.r.r.r.r.r.r.r.r.r.r.r#k#l",
"#m#n.p.s.s.s.s.s.s.s.s.s.s.s.s.s.s.s.s.s.s#l#o"};
