/* XPM */
static char *dummy[]={
"23 23 86 2",
"#t c #d79b21",
".u c #000000",
".A c #010101",
".E c #050504",
".H c #060505",
".O c #080706",
".J c #090807",
".v c #0b0a08",
".7 c #0c0b09",
".Y c #0d0c0a",
".W c #100f0c",
"#e c #13110e",
".K c #181612",
".N c #211f1a",
"#b c #26241d",
".z c #27251e",
"#a c #2b2821",
".X c #2e2b23",
".4 c #37332a",
".U c #3b372d",
".3 c #3d392f",
".P c #474236",
".R c #4b4539",
".T c #534d3f",
".I c #564f42",
".B c #5d5647",
"#. c #696251",
".9 c #716957",
".D c #766e5a",
".1 c #7b725e",
".0 c #867c66",
"#g c #92876f",
".F c #968b72",
".w c #a89c81",
".G c #aa9e82",
"#d c #aca084",
".8 c #b1a488",
".6 c #b7aa8c",
".Z c #c4b696",
".L c #cebf9d",
".y c #d7c7a4",
".M c #d8c8a5",
".p c #d99e21",
".t c #da9f24",
"#s c #daa023",
"#r c #daa024",
"#o c #dba128",
"#q c #dda834",
".j c #dfa937",
"#c c #e3d3ae",
".5 c #e4d4af",
"#f c #e5d5af",
".S c #e6d6b0",
"## c #e7d7b1",
".V c #e9d9b2",
"#p c #ebb94e",
".d c #efbe56",
"#n c #f0c86c",
".Q c #f0dfb8",
"#k c #f2ce7d",
"#l c #f2d185",
".o c #f2d285",
".s c #f3d285",
"#j c #f3d388",
"#m c #f3d389",
".C c #f4e3bb",
".i c #f5d183",
".c c #f9cd6e",
".2 c #f9e7be",
"Qt c #facd6d",
".a c #face70",
".b c #facf70",
".# c #facf72",
".x c #fae8bf",
".e c #fbdc9a",
".g c #fbe0a6",
".k c #fbe0a7",
".f c #fbe1a7",
".q c #fbe9c0",
".m c #fbeac3",
".l c #fbebc6",
".h c #fce2aa",
"#h c #fce2ab",
".r c #fcecc7",
".n c #fcedca",
"#i c #fdefce",
"Qt.#.a.b.b.b.b.b.b.b.b.b.b.b.b.b.b.b.b.b.b.c.d",
".#.e.f.g.g.g.g.g.g.g.g.g.g.g.g.g.g.g.g.g.h.i.j",
".b.k.l.m.m.m.m.m.m.m.m.m.m.m.m.m.m.m.m.m.n.o.p",
".b.g.m.q.q.q.q.q.q.q.q.q.q.q.q.q.q.q.q.q.r.s.t",
".b.g.m.q.q.q.q.q.q.q.q.q.q.q.q.q.q.q.q.q.r.s.t",
".b.g.m.q.q.u.u.v.w.q.q.q.x.q.y.z.u.u.q.q.r.s.t",
".b.g.m.q.q.u.u.A.B.C.q.q.q.q.D.E.u.u.q.q.r.s.t",
".b.g.m.q.q.u.u.u.u.F.q.q.q.G.H.u.u.u.q.q.r.s.t",
".b.g.m.q.q.I.J.u.u.K.L.q.M.N.u.u.O.P.q.q.r.s.t",
".b.g.m.q.q.Q.P.u.u.u.R.S.T.u.u.u.U.V.q.q.r.s.t",
".b.g.m.q.q.q.L.W.u.u.O.X.O.u.u.Y.Z.q.q.q.r.s.t",
".b.g.m.q.q.q.x.0.u.u.u.u.u.u.u.1.2.q.q.q.r.s.t",
".b.g.m.q.q.q.q.V.3.u.u.u.u.u.4.5.q.q.q.q.r.s.t",
".b.g.m.q.q.q.q.q.6.W.u.u.u.7.8.q.q.q.q.q.r.s.t",
".b.g.m.q.q.q.q.q.q.9.u.u.u#..q.q.q.q.q.q.r.s.t",
".b.g.m.q.q.q.q.q.q###a.u#b#c.q.q.q.q.q.q.r.s.t",
".b.g.m.q.q.q.q.q.q.q#d#e.w.q.q.q.q.q.q.q.r.s.t",
".b.g.m.q.q.q.q.q.q.q#f#g#c.q.q.q.q.q.q.q.r.s.t",
".b.g.m.q.q.q.q.q.q.q.q.q.q.q.q.q.q.q.q.q.r.s.t",
".b.g.m.q.q.q.q.q.q.q.q.q.q.q.q.q.q.q.q.q.r.s.t",
".b#h.n.r.r.r.r.r.r.r.r.r.r.r.r.r.r.r.r.r#i#j.t",
".c#k#l.s.s.s.s.s.s.s.s.s.s.s.s.s.s.s.s.s#m#n#o",
"#p#q.p#r#r#r#r#r#r#r#r#r#r#r#r#r#r#r#r#r#s#o#t"};
