/* XPM */
static char *dummy[]={
"23 23 80 2",
"#n c #d79b21",
".v c #000000",
".U c #030302",
".9 c #040403",
".y c #060505",
".Q c #070605",
".F c #080706",
".B c #0a0908",
".J c #0f0e0b",
".V c #100f0c",
".K c #191713",
".4 c #1a1814",
"#. c #1d1a16",
".8 c #201e19",
"#a c #211f1a",
"## c #24221c",
".L c #27251e",
".u c #302d25",
".H c #403b31",
".C c #524c3e",
".P c #554f41",
".3 c #575042",
".1 c #595244",
".x c #726a57",
".z c #746c59",
".R c #7c735f",
".S c #7e7560",
".T c #7f7661",
".O c #90856e",
".0 c #9c9077",
".W c #9d9178",
".D c #a59a7e",
".A c #a89c81",
".E c #a99d82",
".G c #ada185",
".7 c #aea285",
".N c #b3a689",
".5 c #b4a78a",
".2 c #b7aa8c",
".Z c #beb091",
".M c #c3b595",
".p c #d99e21",
".t c #da9f24",
"#m c #daa023",
"#l c #daa024",
"#i c #dba128",
".I c #dccca8",
"#k c #dda834",
".j c #dfa937",
".Y c #e1d1ac",
".6 c #e9d9b2",
"#j c #ebb94e",
".X c #eddcb5",
".d c #efbe56",
"#h c #f0c86c",
"#e c #f2ce7d",
"#f c #f2d185",
".o c #f2d285",
".s c #f3d285",
"#d c #f3d388",
"#g c #f3d389",
".w c #f3e2ba",
".i c #f5d183",
".c c #f9cd6e",
"Qt c #facd6d",
".a c #face70",
".b c #facf70",
".# c #facf72",
".e c #fbdc9a",
".g c #fbe0a6",
".k c #fbe0a7",
".f c #fbe1a7",
".q c #fbe9c0",
".m c #fbeac3",
".l c #fbebc6",
".h c #fce2aa",
"#b c #fce2ab",
".r c #fcecc7",
".n c #fcedca",
"#c c #fdefce",
"Qt.#.a.b.b.b.b.b.b.b.b.b.b.b.b.b.b.b.b.b.b.c.d",
".#.e.f.g.g.g.g.g.g.g.g.g.g.g.g.g.g.g.g.g.h.i.j",
".b.k.l.m.m.m.m.m.m.m.m.m.m.m.m.m.m.m.m.m.n.o.p",
".b.g.m.q.q.q.q.q.q.q.q.q.q.q.q.q.q.q.q.q.r.s.t",
".b.g.m.q.q.q.q.q.q.q.q.q.q.q.q.q.q.q.q.q.r.s.t",
".b.g.m.q.q.q.q.q.q.u.v.v.v.u.q.q.q.q.q.q.r.s.t",
".b.g.m.q.q.q.q.w.x.y.v.v.v.y.z.w.q.q.q.q.r.s.t",
".b.g.m.q.q.q.q.A.v.v.B.C.B.v.v.D.q.q.q.q.r.s.t",
".b.g.m.q.q.q.q.E.v.F.G.q.G.v.H.I.q.q.q.q.r.s.t",
".b.g.m.q.q.q.q.E.v.J.q.q.q.K.L.M.q.q.q.q.r.s.t",
".b.g.m.q.q.q.q.N.v.J.q.q.q.q.q.q.q.q.q.q.r.s.t",
".b.g.m.q.q.q.O.P.v.Q.R.S.S.T.T.S.O.q.q.q.r.s.t",
".b.g.m.q.q.H.v.v.v.U.v.v.v.v.v.v.v.H.q.q.r.s.t",
".b.g.m.q.q.v.v.V.W.X.Y.Z.Y.X.0.J.v.v.q.q.r.s.t",
".b.g.m.q.q.v.v.1.q.q.2.v.2.q.q.3.v.v.q.q.r.s.t",
".b.g.m.q.q.v.v.4.5.q.6.7.6.q.N.4.v.v.q.q.r.s.t",
".b.g.m.q.q.8.9.v.B.4#.###..4.B.v.9.8.q.q.r.s.t",
".b.g.m.q.q.q#a.v.v.v.v.v.v.v.v.v#a.q.q.q.r.s.t",
".b.g.m.q.q.q.q.q.q.q.q.q.q.q.q.q.q.q.q.q.r.s.t",
".b.g.m.q.q.q.q.q.q.q.q.q.q.q.q.q.q.q.q.q.r.s.t",
".b#b.n.r.r.r.r.r.r.r.r.r.r.r.r.r.r.r.r.r#c#d.t",
".c#e#f.s.s.s.s.s.s.s.s.s.s.s.s.s.s.s.s.s#g#h#i",
"#j#k.p#l#l#l#l#l#l#l#l#l#l#l#l#l#l#l#l#l#m#i#n"};
