/* XPM */
static char *dummy[]={
"23 23 74 2",
".u c #000000",
".T c #030201",
".8 c #040302",
".x c #060402",
".P c #070503",
".E c #080603",
".A c #0a0704",
".I c #0e0b06",
".U c #0f0c06",
".J c #18130a",
".3 c #19130a",
".9 c #1c150c",
".7 c #1f180d",
"## c #20190e",
"#. c #231b0f",
".K c #261e10",
".t c #2f2414",
".G c #3e301a",
".B c #4f3e21",
".O c #524022",
".2 c #544123",
".0 c #564324",
".w c #6f562e",
".y c #70572f",
".Q c #785d32",
".R c #7a5f33",
".S c #7b6034",
".N c #8b6c3a",
".Z c #97753f",
".V c #987640",
".C c #a07d43",
".z c #a37f44",
".D c #a47f45",
".F c #a88246",
".6 c #a98347",
".M c #ad8749",
".4 c #ae8849",
".1 c #b18a4a",
".Y c #b88f4d",
".L c #bd934f",
".H c #d5a559",
"#h c #d69e43",
".p c #d8a044",
".s c #d9a146",
"#e c #daa147",
".X c #daaa5c",
".k c #e2ab54",
".5 c #e2b05f",
"#g c #e4ae56",
".W c #e6b360",
"#d c #eab35b",
".v c #ebb763",
".o c #ecb55d",
".r c #edb65e",
".l c #f1bb64",
".m c #f2bc65",
".d c #f2c376",
".n c #f3bd66",
".j c #f3bd68",
"#c c #f3be69",
".q c #f4be67",
"#a c #f5bf68",
"#f c #f5c679",
".g c #f9c571",
".h c #f9c572",
".i c #fac673",
".f c #fcc977",
".c c #fcd087",
"#b c #fed289",
".e c #ffd28a",
".# c #ffd38b",
".a c #ffd38c",
"Qt c #ffd38d",
".b c #ffd48c",
"Qt.#.a.#.#.#.#.#.#.#.#.#.#.#.#.#.#.#.#.#.b.c.d",
".e.f.g.h.h.h.h.h.h.h.h.h.h.h.h.h.h.h.h.h.i.j.k",
".#.g.l.m.m.m.m.m.m.m.m.m.m.m.m.m.m.m.m.m.n.o.p",
".#.h.m.n.n.n.n.n.n.n.n.n.n.n.n.n.n.n.n.n.q.r.s",
".#.h.m.n.n.n.n.n.n.n.n.n.n.n.n.n.n.n.n.n.q.r.s",
".#.h.m.n.n.n.n.n.n.t.u.u.u.t.n.n.n.n.n.n.q.r.s",
".#.h.m.n.n.n.n.v.w.x.u.u.u.x.y.v.n.n.n.n.q.r.s",
".#.h.m.n.n.n.n.z.u.u.A.B.A.u.u.C.n.n.n.n.q.r.s",
".#.h.m.n.n.n.n.D.u.E.F.n.F.u.G.H.n.n.n.n.q.r.s",
".#.h.m.n.n.n.n.D.u.I.n.n.n.J.K.L.n.n.n.n.q.r.s",
".#.h.m.n.n.n.n.M.u.I.n.n.n.n.n.n.n.n.n.n.q.r.s",
".#.h.m.n.n.n.N.O.u.P.Q.R.R.S.S.R.N.n.n.n.q.r.s",
".#.h.m.n.n.G.u.u.u.T.u.u.u.u.u.u.u.G.n.n.q.r.s",
".#.h.m.n.n.u.u.U.V.W.X.Y.X.W.Z.I.u.u.n.n.q.r.s",
".#.h.m.n.n.u.u.0.n.n.1.u.1.n.n.2.u.u.n.n.q.r.s",
".#.h.m.n.n.u.u.3.4.n.5.6.5.n.M.3.u.u.n.n.q.r.s",
".#.h.m.n.n.7.8.u.A.3.9#..9.3.A.u.8.7.n.n.q.r.s",
".#.h.m.n.n.n##.u.u.u.u.u.u.u.u.u##.n.n.n.q.r.s",
".#.h.m.n.n.n.n.n.n.n.n.n.n.n.n.n.n.n.n.n.q.r.s",
".#.h.m.n.n.n.n.n.n.n.n.n.n.n.n.n.n.n.n.n.q.r.s",
".#.i.n.q.q.q.q.q.q.q.q.q.q.q.q.q.q.q.q.q#a.r.s",
"#b#c.o.r.r.r.r.r.r.r.r.r.r.r.r.r.r.r.r.r.r#d#e",
"#f#g.p.s.s.s.s.s.s.s.s.s.s.s.s.s.s.s.s.s.s#e#h"};
