/* XPM */
static char *dummy[]={
"23 23 81 2",
"Qt c #ff9a57",
"#o c #d25601",
"#m c #d65907",
"#n c #d65a06",
"#j c #e46d1c",
"#d c #f78d45",
".c c #fa934d",
".# c #fd9855",
".a c #fd9958",
".b c #fd9a59",
"#a c #fe9a5a",
".d c #ed7829",
".e c #fd9856",
"#l c #d65906",
".w c #000000",
".T c #030100",
".7 c #040200",
".O c #070300",
".8 c #090500",
".G c #0a0500",
".K c #0e0700",
".U c #0f0800",
".2 c #190d00",
".9 c #1c0e00",
".C c #1e1000",
".6 c #1f1000",
"## c #201100",
"#. c #231200",
".v c #291500",
".S c #3e2000",
".y c #432300",
".z c #442300",
".N c #522a00",
".R c #532b00",
".1 c #542b00",
".Z c #552c00",
".P c #783e00",
".Q c #793f00",
".M c #8b4800",
".D c #8c4800",
".Y c #964d00",
".V c #974e00",
".B c #9f5200",
".E c #a15300",
".F c #a35400",
".I c #a55500",
".5 c #a85700",
".J c #ad5900",
".3 c #ae5a00",
".L c #af5a00",
".0 c #b15b00",
".X c #b75f00",
".H c #d06b00",
".p c #d45805",
".t c #d55906",
"#i c #d65a06",
".x c #d87000",
".A c #d97000",
"#k c #db600d",
".j c #dc6210",
".4 c #e17400",
".W c #e57600",
".u c #e97800",
"#h c #eb7114",
".o c #ed740b",
"#f c #ed740d",
"#c c #ed750d",
".s c #ed750e",
"#g c #ee760e",
"#e c #f07d25",
".i c #f17f28",
".l c #f27b00",
".m c #f27c00",
".q c #f27d00",
".n c #f37d00",
".r c #f37e00",
"#b c #f47f00",
".k c #f48523",
".g c #f48525",
".h c #f58625",
".f c #f58935",
"Qt.#.a.a.a.a.a.a.a.a.a.a.a.a.a.a.a.a.a.a.b.c.d",
".e.f.g.g.g.g.g.g.g.g.g.g.g.g.g.g.g.g.g.g.h.i.j",
".a.k.l.m.m.m.m.m.m.m.m.m.m.m.m.m.m.m.m.m.n.o.p",
".a.g.m.q.q.q.q.q.q.q.q.q.q.q.q.q.q.q.q.q.r.s.t",
".a.g.m.q.q.q.q.q.q.q.q.q.q.q.q.q.q.q.q.q.r.s.t",
".a.g.m.q.q.q.q.q.q.q.q.q.q.q.q.q.q.q.q.q.r.s.t",
".a.g.m.q.q.q.q.q.u.v.w.w.w.v.u.q.q.q.q.q.r.s.t",
".a.g.m.q.q.q.q.x.y.w.w.w.w.w.z.A.q.q.q.q.r.s.t",
".a.g.m.q.q.q.q.B.w.w.C.D.C.w.w.E.q.q.q.q.r.s.t",
".a.g.m.q.q.q.q.F.w.G.H.q.H.G.w.I.q.q.q.q.r.s.t",
".a.g.m.q.q.q.q.J.w.K.q.q.q.K.w.L.q.q.q.q.r.s.t",
".a.g.m.q.q.q.M.N.w.O.P.Q.P.O.w.R.M.q.q.q.r.s.t",
".a.g.m.q.q.S.w.w.w.T.w.w.w.T.w.w.w.S.q.q.r.s.t",
".a.g.m.q.q.w.w.U.V.W.A.X.A.W.Y.K.w.w.q.q.r.s.t",
".a.g.m.q.q.w.w.Z.q.q.0.w.0.q.q.1.w.w.q.q.r.s.t",
".a.g.m.q.q.w.w.2.3.q.4.5.4.q.J.2.w.w.q.q.r.s.t",
".a.g.m.q.q.6.7.w.8.2.9#..9.2.8.w.7.6.q.q.r.s.t",
".a.g.m.q.q.q##.w.w.w.w.w.w.w.w.w##.q.q.q.r.s.t",
".a.g.m.q.q.q.q.q.q.q.q.q.q.q.q.q.q.q.q.q.r.s.t",
".a.g.m.q.q.q.q.q.q.q.q.q.q.q.q.q.q.q.q.q.r.s.t",
"#a.h.n.r.r.r.r.r.r.r.r.r.r.r.r.r.r.r.r.r#b#c.t",
"#d#e#f.s.s.s.s.s.s.s.s.s.s.s.s.s.s.s.s.s#g#h#i",
"#j#k#l#m#m#m#m#m#m#m#m#m#m#m#m#m#m#m#m#m#m#n#o"};
