/* XPM */
static char *dummy[]={
"23 23 64 1",
"w c #5a4522",
"P c #5b4522",
"L c #5c4622",
"F c #5e4723",
"J c #5f4923",
"Q c #604924",
"W c #644c25",
"C c #664d26",
"0 c #664e26",
"Z c #674e26",
"v c #695027",
"O c #71562a",
"y c #73582b",
"z c #74582b",
"K c #795c2d",
"U c #7a5d2d",
"M c #876732",
"N c #886732",
"D c #8e6c35",
"R c #926f36",
"B c #967238",
"E c #977338",
"H c #987438",
"Y c #987439",
"I c #9b763a",
"V c #9c773a",
"7 c #9d752f",
"p c #9e752f",
"T c #9e783b",
"9 c #9f762e",
"t c #9f7630",
"8 c #9f7730",
"5 c #9f7731",
"j c #a77f3a",
"G c #a77f3e",
"6 c #a9813d",
"x c #ab8240",
"4 c #ac833d",
"o c #ad833d",
"3 c #ad843e",
"X c #ae8441",
"s c #af853f",
"S c #af8541",
"u c #b08642",
"l c #b28741",
"m c #b38842",
"n c #b48842",
"q c #b48943",
"r c #b58943",
"i c #b58d49",
"1 c #b68943",
"2 c #b9914d",
"f c #bb934f",
"k c #bc924e",
"g c #bc934f",
"A c #bc9350",
"h c #bd9450",
"e c #bf9855",
"d c #c39d5a",
"c c #cea766",
"# c #cfa967",
"b c #d0a968",
"a c #d0aa68",
". c #d1ab69",
".#aaaaaaaaaaaaaabbbbbcd",
"#efggggggggggggggggghij",
"aklmmmmmmmmmmmmmmmmmnop",
"agmqqqqqqqqqqqqqqqqqrst",
"agmqqqqqqqqqqqqqqqqqrst",
"agmqqqqqqqqqqqqqqqqqrst",
"agmqqqqquvwwwvuqqqqqrst",
"agmqqqqxywwwwwzxqqqqrst",
"aAmqqqqBwwCDCwwBqqqqrst",
"aAmqqqqEwFGqGFwHqqqqrst",
"agmqqqqIwJqqqJwIqqqqrst",
"agmqqqDKwLMNMLwKDqqqrst",
"agmqqOwwwPwwwPwwwOqqrst",
"agmqqwwQRSxTxSRJwwqqrst",
"agmqqwwUqqVwVqqKwwqqrst",
"bgmqqwwWIqXYXqIWwwqqrst",
"agmqqCLwFWWZWWFwLCqqrst",
"agmqqq0wwwwwwwww0qqqrst",
"agmqqqqqqqqqqqqqqqqqrst",
"agmqqqqqqqqqqqqqqqqqrst",
"agqrrrrrrrrrrrrrrrrr1st",
".23ssssssssssssssssss45",
"d6788888888888888888859"};
