/* XPM */
static char *dummy[]={
"23 23 79 2",
"#m c #d79b21",
".w c #000000",
".T c #030302",
".7 c #040403",
".O c #070605",
".8 c #0a0908",
".G c #0b0a08",
".K c #0f0e0b",
".U c #100f0c",
".2 c #1a1814",
".9 c #1d1a16",
".C c #1f1d18",
".6 c #201e19",
"## c #211f1a",
"#. c #24221c",
".v c #2a2720",
".S c #403b31",
".y c #464135",
".z c #474236",
".N c #554f41",
".R c #564f42",
".1 c #575042",
".Z c #595244",
".P c #7c735f",
".Q c #7e7560",
".M c #90856e",
".D c #91866f",
".Y c #9c9077",
".V c #9d9178",
".B c #a59a7e",
".E c #a79b80",
".F c #a99d82",
".I c #ab9f83",
".5 c #aea285",
".J c #b3a689",
".3 c #b4a78a",
".L c #b5a88b",
".0 c #b7aa8c",
".X c #beb091",
".H c #d8c8a5",
".p c #d99e21",
".t c #da9f24",
"#l c #daa023",
"#k c #daa024",
"#h c #dba128",
"#j c #dda834",
".j c #dfa937",
".x c #e0d0ac",
".A c #e1d1ac",
".4 c #e9d9b2",
"#i c #ebb94e",
".W c #eddcb5",
".d c #efbe56",
"#g c #f0c86c",
".u c #f1e0b8",
"#d c #f2ce7d",
"#e c #f2d185",
".o c #f2d285",
".s c #f3d285",
"#c c #f3d388",
"#f c #f3d389",
".i c #f5d183",
".c c #f9cd6e",
"Qt c #facd6d",
".a c #face70",
".b c #facf70",
".# c #facf72",
".e c #fbdc9a",
".g c #fbe0a6",
".k c #fbe0a7",
".f c #fbe1a7",
".q c #fbe9c0",
".m c #fbeac3",
".l c #fbebc6",
".h c #fce2aa",
"#a c #fce2ab",
".r c #fcecc7",
".n c #fcedca",
"#b c #fdefce",
"Qt.#.a.b.b.b.b.b.b.b.b.b.b.b.b.b.b.b.b.b.b.c.d",
".#.e.f.g.g.g.g.g.g.g.g.g.g.g.g.g.g.g.g.g.h.i.j",
".b.k.l.m.m.m.m.m.m.m.m.m.m.m.m.m.m.m.m.m.n.o.p",
".b.g.m.q.q.q.q.q.q.q.q.q.q.q.q.q.q.q.q.q.r.s.t",
".b.g.m.q.q.q.q.q.q.q.q.q.q.q.q.q.q.q.q.q.r.s.t",
".b.g.m.q.q.q.q.q.q.q.q.q.q.q.q.q.q.q.q.q.r.s.t",
".b.g.m.q.q.q.q.q.u.v.w.w.w.v.u.q.q.q.q.q.r.s.t",
".b.g.m.q.q.q.q.x.y.w.w.w.w.w.z.A.q.q.q.q.r.s.t",
".b.g.m.q.q.q.q.B.w.w.C.D.C.w.w.E.q.q.q.q.r.s.t",
".b.g.m.q.q.q.q.F.w.G.H.q.H.G.w.I.q.q.q.q.r.s.t",
".b.g.m.q.q.q.q.J.w.K.q.q.q.K.w.L.q.q.q.q.r.s.t",
".b.g.m.q.q.q.M.N.w.O.P.Q.P.O.w.R.M.q.q.q.r.s.t",
".b.g.m.q.q.S.w.w.w.T.w.w.w.T.w.w.w.S.q.q.r.s.t",
".b.g.m.q.q.w.w.U.V.W.A.X.A.W.Y.K.w.w.q.q.r.s.t",
".b.g.m.q.q.w.w.Z.q.q.0.w.0.q.q.1.w.w.q.q.r.s.t",
".b.g.m.q.q.w.w.2.3.q.4.5.4.q.J.2.w.w.q.q.r.s.t",
".b.g.m.q.q.6.7.w.8.2.9#..9.2.8.w.7.6.q.q.r.s.t",
".b.g.m.q.q.q##.w.w.w.w.w.w.w.w.w##.q.q.q.r.s.t",
".b.g.m.q.q.q.q.q.q.q.q.q.q.q.q.q.q.q.q.q.r.s.t",
".b.g.m.q.q.q.q.q.q.q.q.q.q.q.q.q.q.q.q.q.r.s.t",
".b#a.n.r.r.r.r.r.r.r.r.r.r.r.r.r.r.r.r.r#b#c.t",
".c#d#e.s.s.s.s.s.s.s.s.s.s.s.s.s.s.s.s.s#f#g#h",
"#i#j.p#k#k#k#k#k#k#k#k#k#k#k#k#k#k#k#k#k#l#h#m"};
