/* XPM */
static char *dummy[]={
"23 23 68 2",
".v c #5a4522",
".S c #5b4522",
".y c #5c4622",
".F c #5d4723",
".B c #5e4723",
".J c #5f4923",
".T c #604924",
".K c #634b25",
".0 c #644c25",
".2 c #664d26",
".4 c #664e26",
".3 c #674e26",
".L c #685027",
".u c #6b5228",
".H c #71562a",
".C c #775b2c",
".P c #795c2d",
".Y c #7a5d2d",
".x c #836431",
".z c #846431",
".Q c #876732",
".R c #886732",
".O c #8e6c35",
".U c #926f36",
".A c #967238",
".E c #977338",
".G c #987439",
".N c #9b763a",
".Z c #9c773a",
"## c #9d752f",
".p c #9e752f",
".X c #9e783b",
"#b c #9f762e",
".t c #9f7630",
"#a c #9f7730",
".9 c #9f7731",
".M c #a07a3c",
".j c #a77f3a",
".I c #a9803f",
"#. c #a9813d",
".W c #ab8240",
".8 c #ac833d",
".o c #ad833d",
".7 c #ad843e",
".1 c #ae8441",
".s c #af853f",
".V c #af8541",
".w c #b18742",
".l c #b28741",
".m c #b38842",
".n c #b48842",
".q c #b48943",
".r c #b58943",
".i c #b58d49",
".5 c #b68943",
".6 c #b9914d",
".f c #bb934f",
".k c #bc924e",
".g c #bc934f",
".D c #bc9350",
".h c #bd9450",
".e c #bf9855",
".d c #c39d5a",
".c c #cea766",
".# c #cfa967",
".b c #d0a968",
".a c #d0aa68",
"Qt c #d1ab69",
"Qt.#.a.a.a.a.a.a.a.a.a.a.a.a.a.a.b.b.b.b.b.c.d",
".#.e.f.g.g.g.g.g.g.g.g.g.g.g.g.g.g.g.g.g.h.i.j",
".a.k.l.m.m.m.m.m.m.m.m.m.m.m.m.m.m.m.m.m.n.o.p",
".a.g.m.q.q.q.q.q.q.q.q.q.q.q.q.q.q.q.q.q.r.s.t",
".a.g.m.q.q.q.q.q.q.q.q.q.q.q.q.q.q.q.q.q.r.s.t",
".a.g.m.q.q.q.q.q.q.u.v.v.v.u.q.q.q.q.q.q.r.s.t",
".a.g.m.q.q.q.q.w.x.y.v.v.v.y.z.w.q.q.q.q.r.s.t",
".a.g.m.q.q.q.q.A.v.v.B.C.B.v.v.A.q.q.q.q.r.s.t",
".a.D.m.q.q.q.q.E.v.F.G.q.G.v.H.I.q.q.q.q.r.s.t",
".a.D.m.q.q.q.q.E.v.J.q.q.q.K.L.M.q.q.q.q.r.s.t",
".a.g.m.q.q.q.q.N.v.J.q.q.q.q.q.q.q.q.q.q.r.s.t",
".a.g.m.q.q.q.O.P.v.y.Q.R.R.R.R.R.O.q.q.q.r.s.t",
".a.g.m.q.q.H.v.v.v.S.v.v.v.v.v.v.v.H.q.q.r.s.t",
".a.g.m.q.q.v.v.T.U.V.W.X.W.V.U.J.v.v.q.q.r.s.t",
".a.g.m.q.q.v.v.Y.q.q.Z.v.Z.q.q.P.v.v.q.q.r.s.t",
".b.g.m.q.q.v.v.0.N.q.1.G.1.q.N.0.v.v.q.q.r.s.t",
".a.g.m.q.q.2.y.v.B.0.0.3.0.0.B.v.y.2.q.q.r.s.t",
".a.g.m.q.q.q.4.v.v.v.v.v.v.v.v.v.4.q.q.q.r.s.t",
".a.g.m.q.q.q.q.q.q.q.q.q.q.q.q.q.q.q.q.q.r.s.t",
".a.g.m.q.q.q.q.q.q.q.q.q.q.q.q.q.q.q.q.q.r.s.t",
".a.g.q.r.r.r.r.r.r.r.r.r.r.r.r.r.r.r.r.r.5.s.t",
"Qt.6.7.s.s.s.s.s.s.s.s.s.s.s.s.s.s.s.s.s.s.8.9",
".d#.###a#a#a#a#a#a#a#a#a#a#a#a#a#a#a#a#a#a.9#b"};
