/* XPM */
static char *dummy[]={
"23 23 82 2",
"Qt c #ff9a57",
"#p c #d25601",
"#n c #d65907",
"#o c #d65a06",
"#k c #e46d1c",
"#e c #f78d45",
".c c #fa934d",
".# c #fd9855",
".a c #fd9958",
".b c #fd9a59",
"#b c #fe9a5a",
".d c #ed7829",
".e c #fd9856",
"#m c #d65906",
".v c #000000",
".U c #030100",
".9 c #040200",
".y c #060300",
".Q c #070300",
".F c #080400",
".B c #090500",
".J c #0e0700",
".V c #0f0800",
".K c #180c00",
".4 c #190d00",
"#. c #1c0e00",
".8 c #1f1000",
"#a c #201100",
"## c #231200",
".L c #261400",
".u c #2f1800",
".H c #3e2000",
".C c #4f2900",
".P c #522a00",
".3 c #542b00",
".1 c #552c00",
".x c #6e3900",
".z c #703a00",
".R c #783e00",
".S c #793f00",
".T c #7a3f00",
".O c #8b4800",
".0 c #964d00",
".W c #974e00",
".D c #9f5200",
".A c #a25400",
".E c #a35400",
".G c #a75600",
".7 c #a85700",
".N c #ad5900",
".5 c #ae5a00",
".2 c #b15b00",
".Z c #b75f00",
".M c #bc6100",
".p c #d45805",
".I c #d46d00",
".t c #d55906",
"#j c #d65a06",
".Y c #d97000",
"#l c #db600d",
".j c #dc6210",
".6 c #e17400",
".X c #e57600",
".w c #ea7900",
"#i c #eb7114",
".o c #ed740b",
"#g c #ed740d",
"#d c #ed750d",
".s c #ed750e",
"#h c #ee760e",
"#f c #f07d25",
".i c #f17f28",
".l c #f27b00",
".m c #f27c00",
".q c #f27d00",
".n c #f37d00",
".r c #f37e00",
"#c c #f47f00",
".k c #f48523",
".g c #f48525",
".h c #f58625",
".f c #f58935",
"Qt.#.a.a.a.a.a.a.a.a.a.a.a.a.a.a.a.a.a.a.b.c.d",
".e.f.g.g.g.g.g.g.g.g.g.g.g.g.g.g.g.g.g.g.h.i.j",
".a.k.l.m.m.m.m.m.m.m.m.m.m.m.m.m.m.m.m.m.n.o.p",
".a.g.m.q.q.q.q.q.q.q.q.q.q.q.q.q.q.q.q.q.r.s.t",
".a.g.m.q.q.q.q.q.q.q.q.q.q.q.q.q.q.q.q.q.r.s.t",
".a.g.m.q.q.q.q.q.q.u.v.v.v.u.q.q.q.q.q.q.r.s.t",
".a.g.m.q.q.q.q.w.x.y.v.v.v.y.z.w.q.q.q.q.r.s.t",
".a.g.m.q.q.q.q.A.v.v.B.C.B.v.v.D.q.q.q.q.r.s.t",
".a.g.m.q.q.q.q.E.v.F.G.q.G.v.H.I.q.q.q.q.r.s.t",
".a.g.m.q.q.q.q.E.v.J.q.q.q.K.L.M.q.q.q.q.r.s.t",
".a.g.m.q.q.q.q.N.v.J.q.q.q.q.q.q.q.q.q.q.r.s.t",
".a.g.m.q.q.q.O.P.v.Q.R.S.S.T.T.S.O.q.q.q.r.s.t",
".a.g.m.q.q.H.v.v.v.U.v.v.v.v.v.v.v.H.q.q.r.s.t",
".a.g.m.q.q.v.v.V.W.X.Y.Z.Y.X.0.J.v.v.q.q.r.s.t",
".a.g.m.q.q.v.v.1.q.q.2.v.2.q.q.3.v.v.q.q.r.s.t",
".a.g.m.q.q.v.v.4.5.q.6.7.6.q.N.4.v.v.q.q.r.s.t",
".a.g.m.q.q.8.9.v.B.4#.###..4.B.v.9.8.q.q.r.s.t",
".a.g.m.q.q.q#a.v.v.v.v.v.v.v.v.v#a.q.q.q.r.s.t",
".a.g.m.q.q.q.q.q.q.q.q.q.q.q.q.q.q.q.q.q.r.s.t",
".a.g.m.q.q.q.q.q.q.q.q.q.q.q.q.q.q.q.q.q.r.s.t",
"#b.h.n.r.r.r.r.r.r.r.r.r.r.r.r.r.r.r.r.r#c#d.t",
"#e#f#g.s.s.s.s.s.s.s.s.s.s.s.s.s.s.s.s.s#h#i#j",
"#k#l#m#n#n#n#n#n#n#n#n#n#n#n#n#n#n#n#n#n#n#o#p"};
