/* XPM */
static char *dummy[]={
"60 60 70 2",
".p c #000000",
".A c #010000",
".Y c #030100",
".L c #050200",
".5 c #060300",
".R c #090400",
".k c #0c0600",
".O c #0e0700",
".4 c #0f0800",
".l c #100800",
".u c #140a00",
".v c #1b0e00",
".D c #1c0f00",
".1 c #241300",
".N c #271400",
".E c #281500",
".K c #331a00",
".J c #351b00",
".S c #371c00",
".9 c #3f2000",
".0 c #412200",
".o c #492600",
".q c #522a00",
".x c #582e00",
".Z c #5c3000",
".y c #663400",
".G c #673500",
".U c #783e00",
".H c #7a3f00",
".7 c #884600",
".W c #8c4800",
".X c #8e4a00",
".h c #904b00",
".i c #954d00",
".V c #9e5200",
".r c #9f5200",
".s c #a95700",
".z c #ae5a00",
".B c #bb6100",
".I c #bc6100",
".6 c #c36500",
".M c #ca6800",
".Q c #cd6a00",
".g c #d15500",
"#d c #d35702",
".P c #d36d00",
".j c #d76f00",
".3 c #d87000",
"#c c #da600c",
".m c #db7100",
".d c #df6512",
".t c #e07400",
".8 c #e27500",
"#b c #e46d1b",
".w c #e57600",
".C c #e67700",
"#a c #e76c17",
".f c #e86d18",
".2 c #e87800",
".F c #eb7a00",
".a c #ed7827",
"## c #ee7b2c",
".T c #f07c00",
".n c #f17d00",
".e c #f27d00",
"#. c #f28235",
".c c #f28337",
".# c #f78c43",
".b c #f78d45",
"Qt c #ff9b58",
"QtQtQtQtQtQtQtQtQtQtQtQtQtQtQtQtQtQtQtQtQtQtQtQtQtQtQtQtQtQtQtQtQtQtQtQtQtQtQtQtQtQtQtQtQtQtQtQtQtQtQtQtQtQtQtQt.#.#.a.a",
"QtQtQtQtQtQtQtQtQtQtQtQtQtQtQtQtQtQtQtQtQtQtQtQtQtQtQtQtQtQtQtQtQtQtQtQtQtQtQtQtQtQtQtQtQtQtQtQtQtQtQtQtQtQtQtQt.#.#.a.a",
"QtQt.b.b.b.b.b.b.b.b.b.b.b.b.b.b.b.b.b.b.b.b.b.b.b.b.b.b.b.b.b.b.b.b.b.b.b.b.b.b.b.b.b.b.b.b.b.b.b.b.b.b.b.b.b.b.c.c.d.d",
"QtQt.b.b.b.b.b.b.b.b.b.b.b.b.b.b.b.b.b.b.b.b.b.b.b.b.b.b.b.b.b.b.b.b.b.b.b.b.b.b.b.b.b.b.b.b.b.b.b.b.b.b.b.b.b.b.c.c.d.d",
"QtQt.b.b.e.e.e.e.e.e.e.e.e.e.e.e.e.e.e.e.e.e.e.e.e.e.e.e.e.e.e.e.e.e.e.e.e.e.e.e.e.e.e.e.e.e.e.e.e.e.e.e.e.e.e.e.f.f.g.g",
"QtQt.b.b.e.e.e.e.e.e.e.e.e.e.e.e.e.e.e.e.e.e.e.e.e.e.e.e.e.e.e.e.e.e.e.e.e.e.e.e.e.e.e.e.e.e.e.e.e.e.e.e.e.e.e.e.f.f.g.g",
"QtQt.b.b.e.e.e.e.e.e.e.e.e.e.e.e.e.e.e.e.e.e.e.e.e.e.e.e.e.e.e.e.e.e.e.e.e.e.e.e.e.e.e.e.e.e.e.e.e.e.e.e.e.e.e.e.f.f.g.g",
"QtQt.b.b.e.e.e.e.e.e.e.e.e.e.e.e.e.e.e.e.e.e.e.e.e.e.e.e.e.e.e.e.e.e.e.e.e.e.e.e.e.e.e.e.e.e.e.e.e.e.e.e.e.e.e.e.f.f.g.g",
"QtQt.b.b.e.e.e.e.e.e.e.e.e.e.e.e.e.e.e.e.e.e.e.e.e.e.e.e.e.e.e.e.e.e.e.e.e.e.e.e.e.e.e.e.e.e.e.e.e.e.e.e.e.e.e.e.f.f.g.g",
"QtQt.b.b.e.e.e.e.e.e.e.e.e.e.e.e.e.e.e.e.e.e.e.e.e.e.e.e.e.e.e.e.e.e.e.e.e.e.e.e.e.e.e.e.e.e.e.e.e.e.e.e.e.e.e.e.f.f.g.g",
"QtQt.b.b.e.e.e.e.e.e.e.e.e.e.e.e.e.e.e.e.e.e.e.e.e.e.e.e.e.e.e.e.e.e.e.e.e.e.e.e.e.e.e.e.e.e.e.e.e.e.e.e.e.e.e.e.f.f.g.g",
"QtQt.b.b.e.e.e.e.e.e.e.e.e.e.e.e.e.e.e.e.e.e.e.e.e.e.e.e.e.e.e.e.e.e.e.e.e.e.e.e.e.e.e.e.e.e.e.e.e.e.e.e.e.e.e.e.f.f.g.g",
"QtQt.b.b.e.e.e.e.e.e.e.e.e.e.e.e.e.e.e.e.e.e.e.e.e.e.e.e.e.e.e.e.e.e.e.e.e.e.e.e.e.e.e.e.e.e.e.e.e.e.e.e.e.e.e.e.f.f.g.g",
"QtQt.b.b.e.e.e.e.e.e.e.e.e.e.e.e.e.e.e.e.e.e.e.e.e.e.e.e.e.e.e.e.e.e.e.e.e.e.e.e.e.e.e.e.e.e.e.e.e.e.e.e.e.e.e.e.f.f.g.g",
"QtQt.b.b.e.e.e.e.e.e.e.e.e.e.e.e.e.e.e.e.e.e.e.e.e.e.e.e.h.h.i.i.e.e.e.e.e.e.e.e.e.e.e.e.e.e.e.e.e.e.e.e.e.e.e.e.f.f.g.g",
"QtQt.b.b.e.e.e.e.e.e.e.e.e.e.e.e.e.e.e.e.e.e.e.e.e.e.e.e.h.h.i.i.e.e.e.e.e.e.e.e.e.e.e.e.e.e.e.e.e.e.e.e.e.e.e.e.f.f.g.g",
"QtQt.b.b.e.e.e.e.e.e.e.e.e.e.e.e.e.e.e.e.e.e.e.e.e.e.j.j.k.k.l.l.m.m.e.e.e.e.e.e.e.e.e.e.e.e.e.e.e.e.e.e.e.e.e.e.f.f.g.g",
"QtQt.b.b.e.e.e.e.e.e.e.e.e.e.e.e.e.e.e.e.e.e.e.e.e.e.j.j.k.k.l.l.m.m.e.e.e.e.e.e.e.e.e.e.e.e.e.e.e.e.e.e.e.e.e.e.f.f.g.g",
"QtQt.b.b.e.e.e.e.e.e.e.e.e.e.e.e.e.e.e.e.e.e.e.e.n.n.o.o.p.p.p.p.q.q.e.e.e.e.e.e.e.e.e.e.e.e.e.e.e.e.e.e.e.e.e.e.f.f.g.g",
"QtQt.b.b.e.e.e.e.e.e.e.e.e.e.e.e.e.e.e.e.e.e.e.e.n.n.o.o.p.p.p.p.q.q.e.e.e.e.e.e.e.e.e.e.e.e.e.e.e.e.e.e.e.e.e.e.f.f.g.g",
"QtQt.b.b.e.e.e.e.e.e.e.e.e.e.e.e.e.e.e.e.e.e.e.e.r.r.p.p.p.p.p.p.p.p.s.s.e.e.e.e.e.e.e.e.e.e.e.e.e.e.e.e.e.e.e.e.f.f.g.g",
"QtQt.b.b.e.e.e.e.e.e.e.e.e.e.e.e.e.e.e.e.e.e.e.e.r.r.p.p.p.p.p.p.p.p.s.s.e.e.e.e.e.e.e.e.e.e.e.e.e.e.e.e.e.e.e.e.f.f.g.g",
"QtQt.b.b.e.e.e.e.e.e.e.e.e.e.e.e.e.e.e.e.e.e.t.t.u.u.p.p.p.p.p.p.p.p.v.v.w.w.e.e.e.e.e.e.e.e.e.e.e.e.e.e.e.e.e.e.f.f.g.g",
"QtQt.b.b.e.e.e.e.e.e.e.e.e.e.e.e.e.e.e.e.e.e.t.t.u.u.p.p.p.p.p.p.p.p.v.v.w.w.e.e.e.e.e.e.e.e.e.e.e.e.e.e.e.e.e.e.f.f.g.g",
"QtQt.b.b.e.e.e.e.e.e.e.e.e.e.e.e.e.e.e.e.e.e.x.x.p.p.p.p.p.p.p.p.p.p.p.p.y.y.e.e.e.e.e.e.e.e.e.e.e.e.e.e.e.e.e.e.f.f.g.g",
"QtQt.b.b.e.e.e.e.e.e.e.e.e.e.e.e.e.e.e.e.e.e.x.x.p.p.p.p.p.p.p.p.p.p.p.p.y.y.e.e.e.e.e.e.e.e.e.e.e.e.e.e.e.e.e.e.f.f.g.g",
"QtQt.b.b.e.e.e.e.e.e.e.e.e.e.e.e.e.e.e.e.z.z.p.p.p.p.p.p.p.p.p.p.p.p.p.p.A.A.B.B.e.e.e.e.e.e.e.e.e.e.e.e.e.e.e.e.f.f.g.g",
"QtQt.b.b.e.e.e.e.e.e.e.e.e.e.e.e.e.e.e.e.z.z.p.p.p.p.p.p.p.p.p.p.p.p.p.p.A.A.B.B.e.e.e.e.e.e.e.e.e.e.e.e.e.e.e.e.f.f.g.g",
"QtQt.b.b.e.e.e.e.e.e.e.e.e.e.e.e.e.e.C.C.D.D.p.p.p.p.p.p.p.p.p.p.p.p.p.p.p.p.E.E.F.F.e.e.e.e.e.e.e.e.e.e.e.e.e.e.f.f.g.g",
"QtQt.b.b.e.e.e.e.e.e.e.e.e.e.e.e.e.e.C.C.D.D.p.p.p.p.p.p.p.p.p.p.p.p.p.p.p.p.E.E.F.F.e.e.e.e.e.e.e.e.e.e.e.e.e.e.f.f.g.g",
"QtQt.b.b.e.e.e.e.e.e.e.e.e.e.e.e.e.e.G.G.p.p.p.p.p.p.p.p.p.p.p.p.p.p.p.p.p.p.p.p.H.H.e.e.e.e.e.e.e.e.e.e.e.e.e.e.f.f.g.g",
"QtQt.b.b.e.e.e.e.e.e.e.e.e.e.e.e.e.e.G.G.p.p.p.p.p.p.p.p.p.p.p.p.p.p.p.p.p.p.p.p.H.H.e.e.e.e.e.e.e.e.e.e.e.e.e.e.f.f.g.g",
"QtQt.b.b.e.e.e.e.e.e.e.e.e.e.e.e.I.I.A.A.p.p.p.p.p.p.p.p.J.J.K.K.p.p.p.p.p.p.p.p.L.L.M.M.e.e.e.e.e.e.e.e.e.e.e.e.f.f.g.g",
"QtQt.b.b.e.e.e.e.e.e.e.e.e.e.e.e.I.I.A.A.p.p.p.p.p.p.p.p.J.J.K.K.p.p.p.p.p.p.p.p.L.L.M.M.e.e.e.e.e.e.e.e.e.e.e.e.f.f.g.g",
"QtQt.b.b.e.e.e.e.e.e.e.e.e.e.F.F.N.N.p.p.p.p.p.p.p.p.O.O.P.P.Q.Q.R.R.p.p.p.p.p.p.p.p.S.S.T.T.e.e.e.e.e.e.e.e.e.e.f.f.g.g",
"QtQt.b.b.e.e.e.e.e.e.e.e.e.e.F.F.N.N.p.p.p.p.p.p.p.p.O.O.P.P.Q.Q.R.R.p.p.p.p.p.p.p.p.S.S.T.T.e.e.e.e.e.e.e.e.e.e.f.f.g.g",
"QtQt.b.b.e.e.e.e.e.e.e.e.e.e.U.U.p.p.p.p.p.p.p.p.p.p.V.V.e.e.e.e.W.W.p.p.p.p.p.p.p.p.p.p.X.X.e.e.e.e.e.e.e.e.e.e.f.f.g.g",
"QtQt.b.b.e.e.e.e.e.e.e.e.e.e.U.U.p.p.p.p.p.p.p.p.p.p.V.V.e.e.e.e.W.W.p.p.p.p.p.p.p.p.p.p.X.X.e.e.e.e.e.e.e.e.e.e.f.f.g.g",
"QtQt.b.b.e.e.e.e.e.e.e.e.e.e.Y.Y.p.p.p.p.p.p.p.p.Z.Z.e.e.e.e.e.e.n.n.0.0.p.p.p.p.p.p.p.p.Y.Y.e.e.e.e.e.e.e.e.e.e.f.f.g.g",
"QtQt.b.b.e.e.e.e.e.e.e.e.e.e.Y.Y.p.p.p.p.p.p.p.p.Z.Z.e.e.e.e.e.e.n.n.0.0.p.p.p.p.p.p.p.p.Y.Y.e.e.e.e.e.e.e.e.e.e.f.f.g.g",
"QtQt.b.b.e.e.e.e.e.e.e.e.e.e.p.p.p.p.p.p.p.p.1.1.2.2.e.e.e.e.e.e.e.e.3.3.4.4.p.p.p.p.p.p.p.p.e.e.e.e.e.e.e.e.e.e.f.f.g.g",
"QtQt.b.b.e.e.e.e.e.e.e.e.e.e.p.p.p.p.p.p.p.p.1.1.2.2.e.e.e.e.e.e.e.e.3.3.4.4.p.p.p.p.p.p.p.p.e.e.e.e.e.e.e.e.e.e.f.f.g.g",
"QtQt.b.b.e.e.e.e.e.e.e.e.e.e.p.p.p.p.p.p.5.5.6.6.e.e.e.e.e.e.e.e.e.e.e.e.r.r.p.p.p.p.p.p.p.p.e.e.e.e.e.e.e.e.e.e.f.f.g.g",
"QtQt.b.b.e.e.e.e.e.e.e.e.e.e.p.p.p.p.p.p.5.5.6.6.e.e.e.e.e.e.e.e.e.e.e.e.r.r.p.p.p.p.p.p.p.p.e.e.e.e.e.e.e.e.e.e.f.f.g.g",
"QtQt.b.b.e.e.e.e.e.e.e.e.e.e.p.p.p.p.p.p.7.7.e.e.e.e.n.n.e.e.e.e.e.e.T.T.8.8.9.9.p.p.p.p.p.p.e.e.e.e.e.e.e.e.e.e.f.f.g.g",
"QtQt.b.b.e.e.e.e.e.e.e.e.e.e.p.p.p.p.p.p.7.7.e.e.e.e.n.n.e.e.e.e.e.e.T.T.8.8.9.9.p.p.p.p.p.p.e.e.e.e.e.e.e.e.e.e.f.f.g.g",
"QtQt.b.b.e.e.e.e.e.e.e.e.e.e.e.e.e.e.e.e.e.e.e.e.e.e.e.e.e.e.e.e.e.e.e.e.e.e.e.e.e.e.e.e.e.e.e.e.e.e.e.e.e.e.e.e.f.f.g.g",
"QtQt.b.b.e.e.e.e.e.e.e.e.e.e.e.e.e.e.e.e.e.e.e.e.e.e.e.e.e.e.e.e.e.e.e.e.e.e.e.e.e.e.e.e.e.e.e.e.e.e.e.e.e.e.e.e.f.f.g.g",
"QtQt.b.b.e.e.e.e.e.e.e.e.e.e.e.e.e.e.e.e.e.e.e.e.e.e.e.e.e.e.e.e.e.e.e.e.e.e.e.e.e.e.e.e.e.e.e.e.e.e.e.e.e.e.e.e.f.f.g.g",
"QtQt.b.b.e.e.e.e.e.e.e.e.e.e.e.e.e.e.e.e.e.e.e.e.e.e.e.e.e.e.e.e.e.e.e.e.e.e.e.e.e.e.e.e.e.e.e.e.e.e.e.e.e.e.e.e.f.f.g.g",
"QtQt.b.b.e.e.e.e.e.e.e.e.e.e.e.e.e.e.e.e.e.e.e.e.e.e.e.e.e.e.e.e.e.e.e.e.e.e.e.e.e.e.e.e.e.e.e.e.e.e.e.e.e.e.e.e.f.f.g.g",
"QtQt.b.b.e.e.e.e.e.e.e.e.e.e.e.e.e.e.e.e.e.e.e.e.e.e.e.e.e.e.e.e.e.e.e.e.e.e.e.e.e.e.e.e.e.e.e.e.e.e.e.e.e.e.e.e.f.f.g.g",
"QtQt.b.b.e.e.e.e.e.e.e.e.e.e.e.e.e.e.e.e.e.e.e.e.e.e.e.e.e.e.e.e.e.e.e.e.e.e.e.e.e.e.e.e.e.e.e.e.e.e.e.e.e.e.e.e.f.f.g.g",
"QtQt.b.b.e.e.e.e.e.e.e.e.e.e.e.e.e.e.e.e.e.e.e.e.e.e.e.e.e.e.e.e.e.e.e.e.e.e.e.e.e.e.e.e.e.e.e.e.e.e.e.e.e.e.e.e.f.f.g.g",
"QtQt.b.b.e.e.e.e.e.e.e.e.e.e.e.e.e.e.e.e.e.e.e.e.e.e.e.e.e.e.e.e.e.e.e.e.e.e.e.e.e.e.e.e.e.e.e.e.e.e.e.e.e.e.e.e.f.f.g.g",
"QtQt.b.b.e.e.e.e.e.e.e.e.e.e.e.e.e.e.e.e.e.e.e.e.e.e.e.e.e.e.e.e.e.e.e.e.e.e.e.e.e.e.e.e.e.e.e.e.e.e.e.e.e.e.e.e.f.f.g.g",
"#.#.####.f.f.f.f.f.f.f.f.f.f.f.f.f.f.f.f.f.f.f.f.f.f.f.f.f.f.f.f.f.f.f.f.f.f.f.f.f.f.f.f.f.f.f.f.f.f.f.f.f.f.f.f#a#a.g.g",
"#.#.####.f.f.f.f.f.f.f.f.f.f.f.f.f.f.f.f.f.f.f.f.f.f.f.f.f.f.f.f.f.f.f.f.f.f.f.f.f.f.f.f.f.f.f.f.f.f.f.f.f.f.f.f#a#a.g.g",
"#b#b#c#c#d#d.g.g.g.g.g.g.g.g.g.g.g.g.g.g.g.g.g.g.g.g.g.g.g.g.g.g.g.g.g.g.g.g.g.g.g.g.g.g.g.g.g.g.g.g.g.g.g.g.g.g.g.g.g.g",
"#b#b#c#c#d#d.g.g.g.g.g.g.g.g.g.g.g.g.g.g.g.g.g.g.g.g.g.g.g.g.g.g.g.g.g.g.g.g.g.g.g.g.g.g.g.g.g.g.g.g.g.g.g.g.g.g.g.g.g.g"};
