/* XPM */
static char *dummy[]={
"60 60 70 2",
".h c #000000",
".M c #010000",
".u c #030100",
".J c #050200",
".p c #060300",
".C c #090400",
".6 c #0c0600",
".F c #0e0700",
".q c #0f0800",
".5 c #100800",
".Z c #140a00",
".Y c #1b0e00",
".R c #1c0f00",
".t c #241300",
".G c #271400",
".Q c #281500",
".K c #331a00",
".L c #351b00",
".B c #371c00",
".i c #3f2000",
".v c #412200",
".3 c #492600",
".2 c #522a00",
".W c #582e00",
".w c #5c3000",
".V c #663400",
".P c #673500",
".A c #783e00",
".O c #7a3f00",
".m c #884600",
".y c #8c4800",
".x c #8e4a00",
".9 c #904b00",
".8 c #954d00",
".z c #9e5200",
".n c #9f5200",
".1 c #a95700",
".U c #ae5a00",
".T c #bb6100",
".N c #bc6100",
".o c #c36500",
".I c #ca6800",
".D c #cd6a00",
".g c #d15500",
"#d c #d35702",
".E c #d36d00",
".7 c #d76f00",
".r c #d87000",
"#c c #da600c",
".4 c #db7100",
".d c #df6512",
".0 c #e07400",
".j c #e27500",
"#b c #e46d1b",
".X c #e57600",
".S c #e67700",
"#a c #e76c17",
".f c #e86d18",
".s c #e87800",
".H c #eb7a00",
".a c #ed7827",
"## c #ee7b2c",
".k c #f07c00",
".l c #f17d00",
".e c #f27d00",
"#. c #f28235",
".c c #f28337",
".# c #f78c43",
".b c #f78d45",
"Qt c #ff9b58",
"QtQtQtQtQtQtQtQtQtQtQtQtQtQtQtQtQtQtQtQtQtQtQtQtQtQtQtQtQtQtQtQtQtQtQtQtQtQtQtQtQtQtQtQtQtQtQtQtQtQtQtQtQtQtQtQt.#.#.a.a",
"QtQtQtQtQtQtQtQtQtQtQtQtQtQtQtQtQtQtQtQtQtQtQtQtQtQtQtQtQtQtQtQtQtQtQtQtQtQtQtQtQtQtQtQtQtQtQtQtQtQtQtQtQtQtQtQt.#.#.a.a",
"QtQt.b.b.b.b.b.b.b.b.b.b.b.b.b.b.b.b.b.b.b.b.b.b.b.b.b.b.b.b.b.b.b.b.b.b.b.b.b.b.b.b.b.b.b.b.b.b.b.b.b.b.b.b.b.b.c.c.d.d",
"QtQt.b.b.b.b.b.b.b.b.b.b.b.b.b.b.b.b.b.b.b.b.b.b.b.b.b.b.b.b.b.b.b.b.b.b.b.b.b.b.b.b.b.b.b.b.b.b.b.b.b.b.b.b.b.b.c.c.d.d",
"QtQt.b.b.e.e.e.e.e.e.e.e.e.e.e.e.e.e.e.e.e.e.e.e.e.e.e.e.e.e.e.e.e.e.e.e.e.e.e.e.e.e.e.e.e.e.e.e.e.e.e.e.e.e.e.e.f.f.g.g",
"QtQt.b.b.e.e.e.e.e.e.e.e.e.e.e.e.e.e.e.e.e.e.e.e.e.e.e.e.e.e.e.e.e.e.e.e.e.e.e.e.e.e.e.e.e.e.e.e.e.e.e.e.e.e.e.e.f.f.g.g",
"QtQt.b.b.e.e.e.e.e.e.e.e.e.e.e.e.e.e.e.e.e.e.e.e.e.e.e.e.e.e.e.e.e.e.e.e.e.e.e.e.e.e.e.e.e.e.e.e.e.e.e.e.e.e.e.e.f.f.g.g",
"QtQt.b.b.e.e.e.e.e.e.e.e.e.e.e.e.e.e.e.e.e.e.e.e.e.e.e.e.e.e.e.e.e.e.e.e.e.e.e.e.e.e.e.e.e.e.e.e.e.e.e.e.e.e.e.e.f.f.g.g",
"QtQt.b.b.e.e.e.e.e.e.e.e.e.e.e.e.e.e.e.e.e.e.e.e.e.e.e.e.e.e.e.e.e.e.e.e.e.e.e.e.e.e.e.e.e.e.e.e.e.e.e.e.e.e.e.e.f.f.g.g",
"QtQt.b.b.e.e.e.e.e.e.e.e.e.e.e.e.e.e.e.e.e.e.e.e.e.e.e.e.e.e.e.e.e.e.e.e.e.e.e.e.e.e.e.e.e.e.e.e.e.e.e.e.e.e.e.e.f.f.g.g",
"QtQt.b.b.e.e.e.e.e.e.e.e.e.e.e.e.e.e.e.e.e.e.e.e.e.e.e.e.e.e.e.e.e.e.e.e.e.e.e.e.e.e.e.e.e.e.e.e.e.e.e.e.e.e.e.e.f.f.g.g",
"QtQt.b.b.e.e.e.e.e.e.e.e.e.e.e.e.e.e.e.e.e.e.e.e.e.e.e.e.e.e.e.e.e.e.e.e.e.e.e.e.e.e.e.e.e.e.e.e.e.e.e.e.e.e.e.e.f.f.g.g",
"QtQt.b.b.e.e.e.e.e.e.e.e.e.e.e.e.e.e.e.e.e.e.e.e.e.e.e.e.e.e.e.e.e.e.e.e.e.e.e.e.e.e.e.e.e.e.e.e.e.e.e.e.e.e.e.e.f.f.g.g",
"QtQt.b.b.e.e.e.e.e.e.e.e.e.e.e.e.e.e.e.e.e.e.e.e.e.e.e.e.e.e.e.e.e.e.e.e.e.e.e.e.e.e.e.e.e.e.e.e.e.e.e.e.e.e.e.e.f.f.g.g",
"QtQt.b.b.e.e.e.e.e.e.e.e.e.e.h.h.h.h.h.h.i.i.j.j.k.k.e.e.e.e.e.e.l.l.e.e.e.e.m.m.h.h.h.h.h.h.e.e.e.e.e.e.e.e.e.e.f.f.g.g",
"QtQt.b.b.e.e.e.e.e.e.e.e.e.e.h.h.h.h.h.h.i.i.j.j.k.k.e.e.e.e.e.e.l.l.e.e.e.e.m.m.h.h.h.h.h.h.e.e.e.e.e.e.e.e.e.e.f.f.g.g",
"QtQt.b.b.e.e.e.e.e.e.e.e.e.e.h.h.h.h.h.h.h.h.n.n.e.e.e.e.e.e.e.e.e.e.e.e.o.o.p.p.h.h.h.h.h.h.e.e.e.e.e.e.e.e.e.e.f.f.g.g",
"QtQt.b.b.e.e.e.e.e.e.e.e.e.e.h.h.h.h.h.h.h.h.n.n.e.e.e.e.e.e.e.e.e.e.e.e.o.o.p.p.h.h.h.h.h.h.e.e.e.e.e.e.e.e.e.e.f.f.g.g",
"QtQt.b.b.e.e.e.e.e.e.e.e.e.e.h.h.h.h.h.h.h.h.q.q.r.r.e.e.e.e.e.e.e.e.s.s.t.t.h.h.h.h.h.h.h.h.e.e.e.e.e.e.e.e.e.e.f.f.g.g",
"QtQt.b.b.e.e.e.e.e.e.e.e.e.e.h.h.h.h.h.h.h.h.q.q.r.r.e.e.e.e.e.e.e.e.s.s.t.t.h.h.h.h.h.h.h.h.e.e.e.e.e.e.e.e.e.e.f.f.g.g",
"QtQt.b.b.e.e.e.e.e.e.e.e.e.e.u.u.h.h.h.h.h.h.h.h.v.v.l.l.e.e.e.e.e.e.w.w.h.h.h.h.h.h.h.h.u.u.e.e.e.e.e.e.e.e.e.e.f.f.g.g",
"QtQt.b.b.e.e.e.e.e.e.e.e.e.e.u.u.h.h.h.h.h.h.h.h.v.v.l.l.e.e.e.e.e.e.w.w.h.h.h.h.h.h.h.h.u.u.e.e.e.e.e.e.e.e.e.e.f.f.g.g",
"QtQt.b.b.e.e.e.e.e.e.e.e.e.e.x.x.h.h.h.h.h.h.h.h.h.h.y.y.e.e.e.e.z.z.h.h.h.h.h.h.h.h.h.h.A.A.e.e.e.e.e.e.e.e.e.e.f.f.g.g",
"QtQt.b.b.e.e.e.e.e.e.e.e.e.e.x.x.h.h.h.h.h.h.h.h.h.h.y.y.e.e.e.e.z.z.h.h.h.h.h.h.h.h.h.h.A.A.e.e.e.e.e.e.e.e.e.e.f.f.g.g",
"QtQt.b.b.e.e.e.e.e.e.e.e.e.e.k.k.B.B.h.h.h.h.h.h.h.h.C.C.D.D.E.E.F.F.h.h.h.h.h.h.h.h.G.G.H.H.e.e.e.e.e.e.e.e.e.e.f.f.g.g",
"QtQt.b.b.e.e.e.e.e.e.e.e.e.e.k.k.B.B.h.h.h.h.h.h.h.h.C.C.D.D.E.E.F.F.h.h.h.h.h.h.h.h.G.G.H.H.e.e.e.e.e.e.e.e.e.e.f.f.g.g",
"QtQt.b.b.e.e.e.e.e.e.e.e.e.e.e.e.I.I.J.J.h.h.h.h.h.h.h.h.K.K.L.L.h.h.h.h.h.h.h.h.M.M.N.N.e.e.e.e.e.e.e.e.e.e.e.e.f.f.g.g",
"QtQt.b.b.e.e.e.e.e.e.e.e.e.e.e.e.I.I.J.J.h.h.h.h.h.h.h.h.K.K.L.L.h.h.h.h.h.h.h.h.M.M.N.N.e.e.e.e.e.e.e.e.e.e.e.e.f.f.g.g",
"QtQt.b.b.e.e.e.e.e.e.e.e.e.e.e.e.e.e.O.O.h.h.h.h.h.h.h.h.h.h.h.h.h.h.h.h.h.h.h.h.P.P.e.e.e.e.e.e.e.e.e.e.e.e.e.e.f.f.g.g",
"QtQt.b.b.e.e.e.e.e.e.e.e.e.e.e.e.e.e.O.O.h.h.h.h.h.h.h.h.h.h.h.h.h.h.h.h.h.h.h.h.P.P.e.e.e.e.e.e.e.e.e.e.e.e.e.e.f.f.g.g",
"QtQt.b.b.e.e.e.e.e.e.e.e.e.e.e.e.e.e.H.H.Q.Q.h.h.h.h.h.h.h.h.h.h.h.h.h.h.h.h.R.R.S.S.e.e.e.e.e.e.e.e.e.e.e.e.e.e.f.f.g.g",
"QtQt.b.b.e.e.e.e.e.e.e.e.e.e.e.e.e.e.H.H.Q.Q.h.h.h.h.h.h.h.h.h.h.h.h.h.h.h.h.R.R.S.S.e.e.e.e.e.e.e.e.e.e.e.e.e.e.f.f.g.g",
"QtQt.b.b.e.e.e.e.e.e.e.e.e.e.e.e.e.e.e.e.T.T.M.M.h.h.h.h.h.h.h.h.h.h.h.h.h.h.U.U.e.e.e.e.e.e.e.e.e.e.e.e.e.e.e.e.f.f.g.g",
"QtQt.b.b.e.e.e.e.e.e.e.e.e.e.e.e.e.e.e.e.T.T.M.M.h.h.h.h.h.h.h.h.h.h.h.h.h.h.U.U.e.e.e.e.e.e.e.e.e.e.e.e.e.e.e.e.f.f.g.g",
"QtQt.b.b.e.e.e.e.e.e.e.e.e.e.e.e.e.e.e.e.e.e.V.V.h.h.h.h.h.h.h.h.h.h.h.h.W.W.e.e.e.e.e.e.e.e.e.e.e.e.e.e.e.e.e.e.f.f.g.g",
"QtQt.b.b.e.e.e.e.e.e.e.e.e.e.e.e.e.e.e.e.e.e.V.V.h.h.h.h.h.h.h.h.h.h.h.h.W.W.e.e.e.e.e.e.e.e.e.e.e.e.e.e.e.e.e.e.f.f.g.g",
"QtQt.b.b.e.e.e.e.e.e.e.e.e.e.e.e.e.e.e.e.e.e.X.X.Y.Y.h.h.h.h.h.h.h.h.Z.Z.0.0.e.e.e.e.e.e.e.e.e.e.e.e.e.e.e.e.e.e.f.f.g.g",
"QtQt.b.b.e.e.e.e.e.e.e.e.e.e.e.e.e.e.e.e.e.e.X.X.Y.Y.h.h.h.h.h.h.h.h.Z.Z.0.0.e.e.e.e.e.e.e.e.e.e.e.e.e.e.e.e.e.e.f.f.g.g",
"QtQt.b.b.e.e.e.e.e.e.e.e.e.e.e.e.e.e.e.e.e.e.e.e.1.1.h.h.h.h.h.h.h.h.n.n.e.e.e.e.e.e.e.e.e.e.e.e.e.e.e.e.e.e.e.e.f.f.g.g",
"QtQt.b.b.e.e.e.e.e.e.e.e.e.e.e.e.e.e.e.e.e.e.e.e.1.1.h.h.h.h.h.h.h.h.n.n.e.e.e.e.e.e.e.e.e.e.e.e.e.e.e.e.e.e.e.e.f.f.g.g",
"QtQt.b.b.e.e.e.e.e.e.e.e.e.e.e.e.e.e.e.e.e.e.e.e.e.e.2.2.h.h.h.h.3.3.l.l.e.e.e.e.e.e.e.e.e.e.e.e.e.e.e.e.e.e.e.e.f.f.g.g",
"QtQt.b.b.e.e.e.e.e.e.e.e.e.e.e.e.e.e.e.e.e.e.e.e.e.e.2.2.h.h.h.h.3.3.l.l.e.e.e.e.e.e.e.e.e.e.e.e.e.e.e.e.e.e.e.e.f.f.g.g",
"QtQt.b.b.e.e.e.e.e.e.e.e.e.e.e.e.e.e.e.e.e.e.e.e.e.e.4.4.5.5.6.6.7.7.e.e.e.e.e.e.e.e.e.e.e.e.e.e.e.e.e.e.e.e.e.e.f.f.g.g",
"QtQt.b.b.e.e.e.e.e.e.e.e.e.e.e.e.e.e.e.e.e.e.e.e.e.e.4.4.5.5.6.6.7.7.e.e.e.e.e.e.e.e.e.e.e.e.e.e.e.e.e.e.e.e.e.e.f.f.g.g",
"QtQt.b.b.e.e.e.e.e.e.e.e.e.e.e.e.e.e.e.e.e.e.e.e.e.e.e.e.8.8.9.9.e.e.e.e.e.e.e.e.e.e.e.e.e.e.e.e.e.e.e.e.e.e.e.e.f.f.g.g",
"QtQt.b.b.e.e.e.e.e.e.e.e.e.e.e.e.e.e.e.e.e.e.e.e.e.e.e.e.8.8.9.9.e.e.e.e.e.e.e.e.e.e.e.e.e.e.e.e.e.e.e.e.e.e.e.e.f.f.g.g",
"QtQt.b.b.e.e.e.e.e.e.e.e.e.e.e.e.e.e.e.e.e.e.e.e.e.e.e.e.e.e.e.e.e.e.e.e.e.e.e.e.e.e.e.e.e.e.e.e.e.e.e.e.e.e.e.e.f.f.g.g",
"QtQt.b.b.e.e.e.e.e.e.e.e.e.e.e.e.e.e.e.e.e.e.e.e.e.e.e.e.e.e.e.e.e.e.e.e.e.e.e.e.e.e.e.e.e.e.e.e.e.e.e.e.e.e.e.e.f.f.g.g",
"QtQt.b.b.e.e.e.e.e.e.e.e.e.e.e.e.e.e.e.e.e.e.e.e.e.e.e.e.e.e.e.e.e.e.e.e.e.e.e.e.e.e.e.e.e.e.e.e.e.e.e.e.e.e.e.e.f.f.g.g",
"QtQt.b.b.e.e.e.e.e.e.e.e.e.e.e.e.e.e.e.e.e.e.e.e.e.e.e.e.e.e.e.e.e.e.e.e.e.e.e.e.e.e.e.e.e.e.e.e.e.e.e.e.e.e.e.e.f.f.g.g",
"QtQt.b.b.e.e.e.e.e.e.e.e.e.e.e.e.e.e.e.e.e.e.e.e.e.e.e.e.e.e.e.e.e.e.e.e.e.e.e.e.e.e.e.e.e.e.e.e.e.e.e.e.e.e.e.e.f.f.g.g",
"QtQt.b.b.e.e.e.e.e.e.e.e.e.e.e.e.e.e.e.e.e.e.e.e.e.e.e.e.e.e.e.e.e.e.e.e.e.e.e.e.e.e.e.e.e.e.e.e.e.e.e.e.e.e.e.e.f.f.g.g",
"QtQt.b.b.e.e.e.e.e.e.e.e.e.e.e.e.e.e.e.e.e.e.e.e.e.e.e.e.e.e.e.e.e.e.e.e.e.e.e.e.e.e.e.e.e.e.e.e.e.e.e.e.e.e.e.e.f.f.g.g",
"QtQt.b.b.e.e.e.e.e.e.e.e.e.e.e.e.e.e.e.e.e.e.e.e.e.e.e.e.e.e.e.e.e.e.e.e.e.e.e.e.e.e.e.e.e.e.e.e.e.e.e.e.e.e.e.e.f.f.g.g",
"QtQt.b.b.e.e.e.e.e.e.e.e.e.e.e.e.e.e.e.e.e.e.e.e.e.e.e.e.e.e.e.e.e.e.e.e.e.e.e.e.e.e.e.e.e.e.e.e.e.e.e.e.e.e.e.e.f.f.g.g",
"QtQt.b.b.e.e.e.e.e.e.e.e.e.e.e.e.e.e.e.e.e.e.e.e.e.e.e.e.e.e.e.e.e.e.e.e.e.e.e.e.e.e.e.e.e.e.e.e.e.e.e.e.e.e.e.e.f.f.g.g",
"#.#.####.f.f.f.f.f.f.f.f.f.f.f.f.f.f.f.f.f.f.f.f.f.f.f.f.f.f.f.f.f.f.f.f.f.f.f.f.f.f.f.f.f.f.f.f.f.f.f.f.f.f.f.f#a#a.g.g",
"#.#.####.f.f.f.f.f.f.f.f.f.f.f.f.f.f.f.f.f.f.f.f.f.f.f.f.f.f.f.f.f.f.f.f.f.f.f.f.f.f.f.f.f.f.f.f.f.f.f.f.f.f.f.f#a#a.g.g",
"#b#b#c#c#d#d.g.g.g.g.g.g.g.g.g.g.g.g.g.g.g.g.g.g.g.g.g.g.g.g.g.g.g.g.g.g.g.g.g.g.g.g.g.g.g.g.g.g.g.g.g.g.g.g.g.g.g.g.g.g",
"#b#b#c#c#d#d.g.g.g.g.g.g.g.g.g.g.g.g.g.g.g.g.g.g.g.g.g.g.g.g.g.g.g.g.g.g.g.g.g.g.g.g.g.g.g.g.g.g.g.g.g.g.g.g.g.g.g.g.g.g"};
