/* XPM */
static char *dummy[]={
"60 60 15 1",
"i c #000000",
"g c #d69e20",
"m c #dfac3b",
"d c #e2b142",
"k c #e8b84a",
"l c #eab849",
"f c #eabb50",
"h c #ebbc51",
"j c #edc263",
"a c #efbf55",
"c c #f3ca71",
"# c #f8cb68",
". c #facd6b",
"b c #fbd88d",
"e c #fbe9c0",
"........................................................##aa",
"........................................................##aa",
"..bbbbbbbbbbbbbbbbbbbbbbbbbbbbbbbbbbbbbbbbbbbbbbbbbbbbbbccdd",
"..bbbbbbbbbbbbbbbbbbbbbbbbbbbbbbbbbbbbbbbbbbbbbbbbbbbbbbccdd",
"..bbeeeeeeeeeeeeeeeeeeeeeeeeeeeeeeeeeeeeeeeeeeeeeeeeeeeeffgg",
"..bbeeeeeeeeeeeeeeeeeeeeeeeeeeeeeeeeeeeeeeeeeeeeeeeeeeeeffgg",
"..bbeeeeeeeeeeeeeeeeeeeeeeeeeeeeeeeeeeeeeeeeeeeeeeeeeeeehhgg",
"..bbeeeeeeeeeeeeeeeeeeeeeeeeeeeeeeeeeeeeeeeeeeeeeeeeeeeehhgg",
"..bbeeeeeeeeeeeeeeeeeeeeeeeeeeeeeeeeeeeeeeeeeeeeeeeeeeeehhgg",
"..bbeeeeeeeeeeeeeeeeeeeeeeeeeeeeeeeeeeeeeeeeeeeeeeeeeeeehhgg",
"..bbeeeeeeeeeeeeeeeeeeeeeeeeeeeeeeeeeeeeeeeeeeeeeeeeeeeehhgg",
"..bbeeeeeeeeeeeeeeeeeeeeeeeeeeeeeeeeeeeeeeeeeeeeeeeeeeeehhgg",
"..bbeeeeeeeeeeeeeeeeeeeeeeeeeeeeeeeeeeeeeeeeeeeeeeeeeeeehhgg",
"..bbeeeeeeeeeeeeeeeeeeeeeeeeeeeeeeeeeeeeeeeeeeeeeeeeeeeehhgg",
"..bbeeeeeeeeeeeeeeeeeeeeiiiiiiiiiiiieeeeeeeeeeeeeeeeeeeehhgg",
"..bbeeeeeeeeeeeeeeeeeeeeiiiiiiiiiiiieeeeeeeeeeeeeeeeeeeehhgg",
"..bbeeeeeeeeeeeeeeeeeeiiiiiiiiiiiiiiiieeeeeeeeeeeeeeeeeehhgg",
"..bbeeeeeeeeeeeeeeeeeeiiiiiiiiiiiiiiiieeeeeeeeeeeeeeeeeehhgg",
"..bbeeeeeeeeeeeeeeeeiiiiiiiiiiiiiiiiiiiieeeeeeeeeeeeeeeehhgg",
"..bbeeeeeeeeeeeeeeeeiiiiiiiiiiiiiiiiiiiieeeeeeeeeeeeeeeehhgg",
"..bbeeeeeeeeeeeeeeeeiiiiiiiieeeeiiiiiiiieeeeeeeeeeeeeeeehhgg",
"..bbeeeeeeeeeeeeeeeeiiiiiiiieeeeiiiiiiiieeeeeeeeeeeeeeeehhgg",
"..bbeeeeeeeeeeeeeeeeiiiiiieeeeeeeeiiiieeeeeeeeeeeeeeeeeehhgg",
"..bbeeeeeeeeeeeeeeeeiiiiiieeeeeeeeiiiieeeeeeeeeeeeeeeeeehhgg",
"..bbeeeeeeeeeeeeeeeeiiiiiieeeeeeeeiiiiiieeeeeeeeeeeeeeeehhgg",
"..bbeeeeeeeeeeeeeeeeiiiiiieeeeeeeeiiiiiieeeeeeeeeeeeeeeehhgg",
"..bbeeeeeeeeeeeeeeeeiiiiiieeeeeeeeeeeeeeeeeeeeeeeeeeeeeehhgg",
"..bbeeeeeeeeeeeeeeeeiiiiiieeeeeeeeeeeeeeeeeeeeeeeeeeeeeehhgg",
"..bbeeeeeeeeeeeeeeeeiiiiiieeeeeeeeeeeeeeeeeeeeeeeeeeeeeehhgg",
"..bbeeeeeeeeeeeeeeeeiiiiiieeeeeeeeeeeeeeeeeeeeeeeeeeeeeehhgg",
"..bbeeeeeeeeeeeeiiiiiiiiiiiiiiiiiiiiiiiiiiiieeeeeeeeeeeehhgg",
"..bbeeeeeeeeeeeeiiiiiiiiiiiiiiiiiiiiiiiiiiiieeeeeeeeeeeehhgg",
"..bbeeeeeeeeeeiiiiiiiiiiiiiiiiiiiiiiiiiiiiiiiieeeeeeeeeehhgg",
"..bbeeeeeeeeeeiiiiiiiiiiiiiiiiiiiiiiiiiiiiiiiieeeeeeeeeehhgg",
"..bbeeeeeeeeeeiiiiiiiieeeeeeeeeeeeeeeeiiiiiiiieeeeeeeeeehhgg",
"..bbeeeeeeeeeeiiiiiiiieeeeeeeeeeeeeeeeiiiiiiiieeeeeeeeeehhgg",
"..bbeeeeeeeeeeiiiiiieeeeeeeeiiiieeeeeeeeiiiiiieeeeeeeeeehhgg",
"..bbeeeeeeeeeeiiiiiieeeeeeeeiiiieeeeeeeeiiiiiieeeeeeeeeehhgg",
"..bbeeeeeeeeeeiiiiiieeeeeeeeiiiieeeeeeeeiiiiiieeeeeeeeeehhgg",
"..bbeeeeeeeeeeiiiiiieeeeeeeeiiiieeeeeeeeiiiiiieeeeeeeeeehhgg",
"..bbeeeeeeeeeeiiiiiiiieeeeeeeeeeeeeeeeiiiiiiiieeeeeeeeeehhgg",
"..bbeeeeeeeeeeiiiiiiiieeeeeeeeeeeeeeeeiiiiiiiieeeeeeeeeehhgg",
"..bbeeeeeeeeeeiiiiiiiiiiiiiiiiiiiiiiiiiiiiiiiieeeeeeeeeehhgg",
"..bbeeeeeeeeeeiiiiiiiiiiiiiiiiiiiiiiiiiiiiiiiieeeeeeeeeehhgg",
"..bbeeeeeeeeeeeeiiiiiiiiiiiiiiiiiiiiiiiiiiiieeeeeeeeeeeehhgg",
"..bbeeeeeeeeeeeeiiiiiiiiiiiiiiiiiiiiiiiiiiiieeeeeeeeeeeehhgg",
"..bbeeeeeeeeeeeeeeeeeeeeeeeeeeeeeeeeeeeeeeeeeeeeeeeeeeeehhgg",
"..bbeeeeeeeeeeeeeeeeeeeeeeeeeeeeeeeeeeeeeeeeeeeeeeeeeeeehhgg",
"..bbeeeeeeeeeeeeeeeeeeeeeeeeeeeeeeeeeeeeeeeeeeeeeeeeeeeehhgg",
"..bbeeeeeeeeeeeeeeeeeeeeeeeeeeeeeeeeeeeeeeeeeeeeeeeeeeeehhgg",
"..bbeeeeeeeeeeeeeeeeeeeeeeeeeeeeeeeeeeeeeeeeeeeeeeeeeeeehhgg",
"..bbeeeeeeeeeeeeeeeeeeeeeeeeeeeeeeeeeeeeeeeeeeeeeeeeeeeehhgg",
"..bbeeeeeeeeeeeeeeeeeeeeeeeeeeeeeeeeeeeeeeeeeeeeeeeeeeeehhgg",
"..bbeeeeeeeeeeeeeeeeeeeeeeeeeeeeeeeeeeeeeeeeeeeeeeeeeeeehhgg",
"..bbeeeeeeeeeeeeeeeeeeeeeeeeeeeeeeeeeeeeeeeeeeeeeeeeeeeehhgg",
"..bbeeeeeeeeeeeeeeeeeeeeeeeeeeeeeeeeeeeeeeeeeeeeeeeeeeeehhgg",
"..jjkkhhhhhhhhhhhhhhhhhhhhhhhhhhhhhhhhhhhhhhhhhhhhhhhhhhhhgg",
"..jjkkhhhhhhhhhhhhhhhhhhhhhhhhhhhhhhhhhhhhhhhhhhhhhhhhhhhhgg",
"llmmgggggggggggggggggggggggggggggggggggggggggggggggggggggggg",
"llmmgggggggggggggggggggggggggggggggggggggggggggggggggggggggg"};
