/* XPM */
static char *dummy[]={
"6 20 2 1",
". c #b48943",
"# c #f3bd66",
"......",
".####.",
".####.",
"......",
".####.",
".####.",
"......",
".####.",
".####.",
"......",
".####.",
".####.",
"......",
".####.",
".####.",
"......",
".####.",
".####.",
".####.",
".####."};
