/* XPM */
static char *dummy[]={
"16 16 5 1",
"c c #5a4522",
"b c #9a722e",
"a c #b48943",
"# c #c39d5b",
". c #d1ab6a",
"...............#",
".aaaaaaaaaaaaaab",
".aaaaaaaaaaaaaab",
".aaaaaaaaaaaaaab",
".aaaccccccccaaab",
".aaaccccccccaaab",
".aaaaaaaaaaaaaab",
".aaaccccccccaaab",
".aaaccccccccaaab",
".aaaaaaaaaaaaaab",
".aaaccccccccaaab",
".aaaccccccccaaab",
".aaaaaaaaaaaaaab",
".aaaaaaaaaaaaaab",
".aaaaaaaaaaaaaab",
"#bbbbbbbbbbbbbbb"};
