/* XPM */
static char *dummy[]={
"16 16 58 1",
"r c #000000",
"P c #010100",
"q c #020100",
"w c #040200",
"L c #070400",
"Q c #090400",
"A c #0a0500",
"v c #0c0600",
"B c #0d0600",
"n c #120a00",
"T c #170c00",
"C c #201000",
"m c #251300",
"W c #251400",
"z c #2b1600",
"M c #432300",
"s c #482400",
"F c #4e2900",
"O c #562c00",
"I c #572d00",
"p c #5b2f00",
"j c #6d3800",
"G c #783e00",
"i c #7f4200",
"H c #884600",
"x c #8b4800",
"u c #a75700",
"S c #ad5900",
"X c #ae5a00",
"K c #b45d00",
"R c #b75e00",
"o c #be6200",
"y c #bf6200",
"Z c #c36500",
"D c #c56500",
"U c #c56600",
"V c #ca6800",
"3 c #d85c06",
"l c #d97100",
"f c #de630a",
"N c #de7300",
"Y c #df7300",
"2 c #e0660e",
"d c #e0660f",
"h c #e27500",
"E c #e47600",
"g c #e57600",
"J c #e77800",
"k c #e97900",
"1 c #ea7727",
"a c #ef7e31",
"0 c #f07c00",
"t c #f17d00",
"e c #f27d00",
"c c #f3800c",
"b c #f48216",
"# c #fc9550",
". c #fe9855",
".##############a",
"#bcccccccccccccd",
"#ceeeeeeeeeeeeef",
"#ceeeeegheeeeeef",
"#ceeeeeijkeeeeef",
"#ceeeelmnoeeeeef",
"#ceeeepqrsheeeef",
"#ceetuvrrwxteeef",
"#ceeyzrABrCDeeef",
"#ceEFqrGHArIJeef",
"#ceKLrMNkOPQReef",
"#ceSrTUeeVWrXeef",
"#ceYXZ0ee0ZXYeef",
"#ceeeeeeeeeeeeef",
"#ceeeeeeeeeeeeef",
"12fffffffffffff3"};
