/* XPM */
static char *dummy[]={
"16 16 53 1",
"l c #5a4522",
"x c #5b4622",
"u c #5c4623",
"K c #5d4723",
"m c #5e4823",
"H c #604a24",
"A c #614a24",
"F c #624b25",
"G c #644d25",
"Q c #654d26",
"E c #664e26",
"N c #6d5328",
"p c #6e5429",
"B c #70562a",
"w c #72572b",
"r c #755a2c",
"M c #765a2c",
"T c #826330",
"L c #846431",
"t c #876732",
"S c #8b6a34",
"y c #8d6c35",
"J c #937037",
"R c #987438",
"z c #997439",
"h c #9a763a",
"q c #9b763a",
"D c #9d773a",
"n c #9d783b",
"Y c #9e7632",
"i c #9e783b",
"f c #a37b36",
"d c #a57e38",
"P c #a57e3d",
"k c #a67f3e",
"X c #a77e3a",
"O c #a9813f",
"o c #aa813f",
"C c #ac8340",
"g c #ad8440",
"v c #ae8441",
"V c #af8641",
"s c #b08642",
"U c #b08742",
"j c #b28742",
"I c #b38842",
"e c #b48943",
"c c #b78c47",
"b c #b98f4a",
"a c #c09a58",
"W c #c39d5b",
"# c #cba564",
". c #cea867",
".##############a",
"#bcccccccccccccd",
"#ceeeeeeeeeeeeef",
"#ceghijeeekhgeef",
"#cehlmneeoplqeef",
"#ceqllrsetulqeef",
"#cevwxxyzAlBCeef",
"#ceeDElFGlHqeeef",
"#ceeIJKlllLjeeef",
"#ceeejMllNOeeeef",
"#ceeeePQmReeeeef",
"#ceeeeeSTUeeeeef",
"#ceeeeeVveeeeeef",
"#ceeeeeeeeeeeeef",
"#ceeeeeeeeeeeeef",
"WXfffffffffffffY"};
