/* XPM */
static char *dummy[]={
"16 16 55 1",
"l c #000000",
"p c #010000",
"W c #0c0600",
"D c #0e0700",
"T c #130a00",
"X c #140a00",
"m c #190d00",
"E c #1d0f00",
"F c #201100",
"w c #261400",
"k c #291500",
"G c #331a00",
"U c #371c00",
"V c #3b1e00",
"C c #3f2000",
"q c #3f2100",
"r c #4f2900",
"L c #532b00",
"s c #552c00",
"N c #5b2f00",
"t c #6a3700",
"o c #703a00",
"R c #7d4100",
"x c #7f4100",
"Q c #944c00",
"J c #954d00",
"I c #9f5200",
"P c #a65600",
"h c #ad5900",
"M c #ae5a00",
"n c #b35c00",
"S c #c16300",
"H c #c16400",
"i c #c66700",
"K c #c96800",
"g c #ce6a00",
"j c #d06c00",
"u c #d26c00",
"B c #d56e00",
"0 c #d85c06",
"y c #d97000",
"f c #de630a",
"z c #de7200",
"Z c #e0660e",
"d c #e0660f",
"A c #e17400",
"Y c #ea7727",
"v c #eb7900",
"O c #ec7a00",
"a c #ef7e31",
"e c #f27d00",
"c c #f3800c",
"b c #f48216",
"# c #fc9550",
". c #fe9855",
".##############a",
"#bcccccccccccccd",
"#ceeeeeeeeeeeeef",
"#ceeeeghhieeeeef",
"#ceeejkllmneeeef",
"#ceeeopqrlseeeef",
"#ceeetluvwxeeeef",
"#ceeetlyezAeeeef",
"#ceBCDlEFFFqBeef",
"#cehlGHIJKLlMeef",
"#cehlNOPQeRlMeef",
"#ceSTlUVVVWXHeef",
"#ceeHMMMMMMHeeef",
"#ceeeeeeeeeeeeef",
"#ceeeeeeeeeeeeef",
"YZfffffffffffff0"};
