/* XPM */
static char *dummy[]={
"16 16 53 1",
"m c #000000",
"n c #040403",
"B c #060504",
"C c #0b0a08",
"U c #0c0c09",
"l c #0d0c0a",
"y c #0f0e0b",
"R c #14130f",
"V c #151310",
"s c #161411",
"z c #1e1c17",
"A c #211f1a",
"v c #2a2720",
"F c #353128",
"S c #39352b",
"T c #3d392f",
"x c #413d32",
"D c #423d32",
"h c #474236",
"t c #534d3f",
"J c #565042",
"L c #5f5848",
"p c #6e6654",
"i c #736b58",
"P c #817863",
"g c #847a65",
"o c #897f68",
"O c #998e76",
"H c #9a8f76",
"q c #a5997e",
"k c #aca083",
"N c #ada084",
"E c #b3a689",
"K c #b4a78a",
"r c #beb091",
"Q c #c8b999",
"G c #c8ba99",
"I c #d1c2a0",
"Y c #dca72f",
"w c #ddcda9",
"u c #e1d1ac",
"f c #e3b345",
"X c #e3b347",
"d c #e4b549",
"W c #eebf58",
"j c #eeddb6",
"a c #f1c35f",
"M c #f5e4bb",
". c #facf71",
"# c #fad279",
"b c #fbe4b0",
"c c #fbe6b7",
"e c #fbe9c0",
".##############a",
"#bcccccccccccccd",
"#ceeeeeeeeeeeeef",
"#ceeeeeeeeeeeeef",
"#ceeeeghhijeeeef",
"#ceeeklmmnoeeeef",
"#ceeepmqrsteeeef",
"#ceeepmuevteeeef",
"#cewxymzABCDweef",
"#ceEmFGqHIJmKeef",
"#ceEmLMNOePmKeef",
"#ceQRmSTTTUVGeef",
"#ceeGKKKKKKGeeef",
"#ceeeeeeeeeeeeef",
"#ceeeeeeeeeeeeef",
"WXfffffffffffffY"};
