/* XPM */
static char *dummy[]={
"31 23 27 1",
"g c #5a4522",
"t c #5c4622",
"m c #5d4723",
"k c #5e4723",
"h c #5f4823",
"l c #7d5f2f",
"o c #7e602f",
"s c #7f612f",
"x c #866632",
"v c #876732",
"j c #886732",
"q c #8a6933",
"r c #8b6a34",
"n c #8c6b34",
"u c #8f6d35",
"i c #977338",
"w c #987438",
"p c #987439",
"f c #9a722e",
"e c #a9813b",
"y c #ad8642",
"c c #ad8643",
"d c #b48943",
"b c #b8914e",
"a c #c39d5b",
"# c #cea867",
". c #d1ab6a",
".............................#a",
".aaaaaaaaaaaaaaaaaaaaaaaaaaaabc",
".adddddddddddddddddddddddddddef",
".adddddddddddddddddddddddddddef",
".adddddddddddddddddddddddddddef",
".adddddddddddddddddddddddddddef",
".addddddddghidddddjggddddddddef",
".addddddddggkidddjgggddddddddef",
".addddddddlggmdddgggnddddddddef",
".adddddddddoggpdqggrdddddddddef",
".adddddddddddsgtgqdddddddddddef",
".addddddddddddgggddddddddddddef",
".adddddddddddngggpdddddddddddef",
".addddddddduggvdogmwdddddddddef",
".addddddddugggdddggkiddddddddef",
".addddddddgggjdddogghddddddddef",
".addddddddggxdddddlggddddddddef",
".adddddddddddddddddddddddddddef",
".adddddddddddddddddddddddddddef",
".adddddddddddddddddddddddddddef",
".adddddddddddddddddddddddddddef",
".aeeeeeeeeeeeeeeeeeeeeeeeeeeeef",
"ayfffffffffffffffffffffffffffff"};
