/* XPM */
static char *dummy[]={
"23 23 79 2",
".w c #000000",
".q c #010100",
".V c #010101",
".E c #030201",
".S c #050302",
"#. c #050402",
".B c #060502",
".v c #090704",
".T c #0a0804",
".N c #0b0905",
".6 c #0d0905",
".Z c #0f0c06",
".O c #1b160b",
".0 c #1e180d",
".M c #231c0f",
".A c #261e10",
".l c #2c2313",
".L c #2f2414",
".3 c #362a17",
".r c #3e301a",
".W c #3f311a",
".U c #40321b",
"#c c #48391e",
".x c #4d3c20",
".D c #574425",
"#a c #5d4826",
".F c #5e4927",
"## c #604b28",
".5 c #614b28",
".p c #654e2b",
".R c #664e2b",
"#g c #6e562e",
".I c #795e33",
".u c #7b6033",
".Y c #896a3a",
".7 c #8a6c3a",
".4 c #91703d",
"#d c #9a7841",
".m c #a78246",
".H c #ad8648",
".9 c #ae8749",
".z c #b28b4b",
".1 c #b48c4c",
".P c #b58d4c",
".C c #b88f4d",
".i c #ba904e",
"#f c #bd934f",
".2 c #cc9f56",
"#e c #d6a75a",
".K c #d7a75a",
"#m c #daa145",
".s c #dbaa5c",
"#b c #dcab5d",
".h c #dda449",
".k c #e0ae5e",
".j c #e1af5e",
".G c #e1af5f",
".e c #e6af57",
".J c #e6b360",
"#l c #e7b058",
"#j c #eab25a",
".8 c #ecb863",
".g c #edb65e",
".t c #edb964",
".y c #efba64",
".Q c #f0ba64",
".n c #f0bb64",
".X c #f2bc65",
".o c #f2bc66",
".f c #f3bd66",
".d c #f3bd69",
"#i c #f3be6a",
".a c #f6c77c",
"#k c #f8ca80",
".c c #f9c572",
".b c #fcc978",
".# c #fdd18a",
"#h c #ffd48d",
"Qt c #ffd48e",
"QtQtQtQtQtQtQtQtQtQtQtQtQtQtQtQtQtQtQtQtQt.#.a",
"Qt.b.c.c.c.c.c.c.c.c.c.c.c.c.c.c.c.c.c.c.c.d.e",
"Qt.c.f.f.f.f.f.f.f.f.f.f.f.f.f.f.f.f.f.f.f.g.h",
"Qt.c.f.f.f.f.f.f.f.f.f.f.f.f.f.f.f.f.f.f.f.g.h",
"Qt.c.f.f.f.f.f.f.f.f.f.f.f.f.f.f.f.f.f.f.f.g.h",
"Qt.c.f.f.f.f.f.f.f.f.f.i.j.f.f.f.f.f.f.f.f.g.h",
"Qt.c.f.f.f.f.f.f.f.f.k.l.m.n.f.f.f.f.f.f.f.g.h",
"Qt.c.f.f.f.f.f.f.f.o.p.q.r.s.f.f.f.f.f.f.f.g.h",
"Qt.c.f.f.f.f.f.f.t.u.v.w.w.x.y.f.f.f.f.f.f.g.h",
"Qt.c.f.f.f.f.f.f.z.A.q.w.w.B.C.f.f.f.f.f.f.g.h",
"Qt.c.f.f.f.f.f.f.D.E.w.w.w.w.F.G.f.f.f.f.f.g.h",
"Qt.c.f.f.f.f.f.H.B.w.w.w.w.w.v.I.J.f.f.f.f.g.h",
"Qt.c.f.f.f.f.K.L.w.w.w.M.N.w.w.O.P.f.f.f.f.g.h",
"Qt.c.f.f.f.Q.R.S.w.w.T.C.U.V.w.w.W.X.f.f.f.g.h",
"Qt.c.f.f.f.Y.Z.w.w.0.1.f.2.3.w.w.w.4.f.f.f.g.h",
"Qt.c.f.f.f.5.w.w.6.7.8.f.f.9#..w.w.5.f.f.f.g.h",
"Qt.c.f.f.f##.w.w#a#b.f.f.f.y#c.w.w##.f.f.f.g.h",
"Qt.c.f.f.f#d#####e.f.o.f.f.X#f#g###d.f.f.f.g.h",
"Qt.c.f.f.f.f.f.f.f.f.f.f.f.f.f.f.f.f.f.f.f.g.h",
"Qt.c.f.f.f.f.f.f.f.f.f.f.f.f.f.f.f.f.f.f.f.g.h",
"Qt.c.f.f.f.f.f.f.f.f.f.f.f.f.f.f.f.f.f.f.f.g.h",
"#h#i.g.g.g.g.g.g.g.g.g.g.g.g.g.g.g.g.g.g.g#j.h",
"#k#l.h.h.h.h.h.h.h.h.h.h.h.h.h.h.h.h.h.h.h.h#m"};
