/* XPM */
static char *dummy[]={
"23 23 80 2",
".w c #000000",
".q c #010000",
".W c #010100",
".E c #030100",
".S c #050200",
"## c #050300",
".B c #060300",
".I c #090400",
".v c #090500",
".T c #0a0500",
".O c #0b0500",
".7 c #0d0700",
".0 c #0f0800",
".P c #1b0e00",
".1 c #1e1000",
".N c #231200",
".A c #261300",
".l c #2c1600",
".M c #2e1800",
".4 c #361c00",
".r c #3e2000",
".X c #3f2000",
".V c #402000",
"#c c #482500",
".x c #4c2700",
".D c #572d00",
".F c #5d3000",
"#a c #603200",
".6 c #613200",
".p c #643500",
".R c #653400",
"#f c #6e3900",
".J c #783e00",
".u c #7a4000",
".Z c #894600",
".8 c #8a4800",
".5 c #904a00",
"#d c #9a5000",
".m c #a65600",
".H c #ac5800",
"#. c #ad5a00",
".z c #b15c00",
".2 c #b35d00",
".Q c #b55d00",
".U c #b85e00",
".C c #b85f00",
".i c #b95f00",
"#e c #bc6100",
".3 c #cb6900",
"#n c #d35702",
".L c #d66e00",
"#j c #d75c07",
".h c #d85c07",
"#m c #d85d08",
".s c #da7100",
"#b c #db7200",
"#l c #dd630f",
".e c #df6513",
".k c #df7400",
".j c #e07300",
".G c #e07400",
".K c #e57600",
"#k c #e87323",
"#i c #ea7012",
".9 c #eb7900",
".t c #ec7a00",
".g c #ed750d",
".y c #ee7b00",
".n c #ef7b00",
"#h c #f07c23",
".a c #f07e2f",
".Y c #f17c00",
".o c #f17d00",
".d c #f17f27",
".f c #f27d00",
".c c #f58524",
".b c #f68935",
"#g c #f88e46",
".# c #fb934d",
"Qt c #ff9b58",
"QtQtQtQtQtQtQtQtQtQtQtQtQtQtQtQtQtQtQtQtQt.#.a",
"Qt.b.c.c.c.c.c.c.c.c.c.c.c.c.c.c.c.c.c.c.c.d.e",
"Qt.c.f.f.f.f.f.f.f.f.f.f.f.f.f.f.f.f.f.f.f.g.h",
"Qt.c.f.f.f.f.f.f.f.f.f.f.f.f.f.f.f.f.f.f.f.g.h",
"Qt.c.f.f.f.f.f.f.f.f.f.f.f.f.f.f.f.f.f.f.f.g.h",
"Qt.c.f.f.f.f.f.f.f.f.f.i.j.f.f.f.f.f.f.f.f.g.h",
"Qt.c.f.f.f.f.f.f.f.f.k.l.m.n.f.f.f.f.f.f.f.g.h",
"Qt.c.f.f.f.f.f.f.f.o.p.q.r.s.f.f.f.f.f.f.f.g.h",
"Qt.c.f.f.f.f.f.f.t.u.v.w.w.x.y.f.f.f.f.f.f.g.h",
"Qt.c.f.f.f.f.f.f.z.A.q.w.w.B.C.f.f.f.f.f.f.g.h",
"Qt.c.f.f.f.f.f.f.D.E.w.w.w.w.F.G.f.f.f.f.f.g.h",
"Qt.c.f.f.f.f.f.H.B.w.w.w.w.w.I.J.K.f.f.f.f.g.h",
"Qt.c.f.f.f.f.L.M.w.w.w.N.O.w.w.P.Q.f.f.f.f.g.h",
"Qt.c.f.f.f.n.R.S.w.w.T.U.V.W.w.w.X.Y.f.f.f.g.h",
"Qt.c.f.f.f.Z.0.w.w.1.2.f.3.4.w.w.w.5.f.f.f.g.h",
"Qt.c.f.f.f.6.w.w.7.8.9.f.f#.##.w.w.6.f.f.f.g.h",
"Qt.c.f.f.f#a.w.w.F#b.f.f.f.y#c.w.w#a.f.f.f.g.h",
"Qt.c.f.f.f#d#a#a.L.f.o.f.f.Y#e#f#a#d.f.f.f.g.h",
"Qt.c.f.f.f.f.f.f.f.f.f.f.f.f.f.f.f.f.f.f.f.g.h",
"Qt.c.f.f.f.f.f.f.f.f.f.f.f.f.f.f.f.f.f.f.f.g.h",
"Qt.c.f.f.f.f.f.f.f.f.f.f.f.f.f.f.f.f.f.f.f.g.h",
"#g#h.g.g.g.g.g.g.g.g.g.g.g.g.g.g.g.g.g.g.g#i#j",
"#k#l#m.h.h.h.h.h.h.h.h.h.h.h.h.h.h.h.h.h.h#j#n"};
