/* XPM */
static char *dummy[]={
"16 64 2 1",
". c #88662d",
"# c #b48943",
"................",
"................",
"..############..",
"..############..",
"..############..",
"..############..",
"................",
"................",
"..############..",
"..############..",
"..############..",
"..############..",
"................",
"................",
"..############..",
"..############..",
"..############..",
"..############..",
"................",
"................",
"..############..",
"..############..",
"..############..",
"..############..",
"................",
"................",
"..############..",
"..############..",
"..############..",
"..############..",
"................",
"................",
"..############..",
"..############..",
"..############..",
"..############..",
"..############..",
"..############..",
"..############..",
"..############..",
"..############..",
"..############..",
"..############..",
"..############..",
"..############..",
"..############..",
"..############..",
"..############..",
"..############..",
"..############..",
"..############..",
"..############..",
"..############..",
"..############..",
"..############..",
"..############..",
"..############..",
"..############..",
"..############..",
"..############..",
"..############..",
"..############..",
"..############..",
"..############.."};
