/* XPM */
static char *dummy[]={
"80 60 12 1",
"h c #5a4522",
"f c #9a722e",
"e c #a67e38",
"i c #a8803a",
"g c #a9813b",
"j c #ad8642",
"c c #ad8643",
"d c #b48943",
"b c #b8914e",
"a c #c39d5b",
"# c #cea867",
". c #d1ab6a",
"............................................................................##aa",
"............................................................................##aa",
"..aaaaaaaaaaaaaaaaaaaaaaaaaaaaaaaaaaaaaaaaaaaaaaaaaaaaaaaaaaaaaaaaaaaaaaaaaabbcc",
"..aaaaaaaaaaaaaaaaaaaaaaaaaaaaaaaaaaaaaaaaaaaaaaaaaaaaaaaaaaaaaaaaaaaaaaaaaabbcc",
"..aaddddddddddddddddddddddddddddddddddddddddddddddddddddddddddddddddddddddddeeff",
"..aaddddddddddddddddddddddddddddddddddddddddddddddddddddddddddddddddddddddddeeff",
"..aaddddddddddddddddddddddddddddddddddddddddddddddddddddddddddddddddddddddddggff",
"..aaddddddddddddddddddddddddddddddddddddddddddddddddddddddddddddddddddddddddggff",
"..aaddddddddddddddddddddddddddddddddddddddddddddddddddddddddddddddddddddddddggff",
"..aaddddddddddddddddddddddddddddddddddddddddddddddddddddddddddddddddddddddddggff",
"..aaddddddddddddddddddddddddddddddddddddddddddddddddddddddddddddddddddddddddggff",
"..aaddddddddddddddddddddddddddddddddddddddddddddddddddddddddddddddddddddddddggff",
"..aaddddddddddddddddddddddddddddddddddddddddddddddddddddddddddddddddddddddddggff",
"..aaddddddddddddddddddddddddddddddddddddddddddddddddddddddddddddddddddddddddggff",
"..aaddddddddddddddddddddddhhhhhhhhhhhhhhhhhhhhhhhhhhhhddddddddddddddddddddddggff",
"..aaddddddddddddddddddddddhhhhhhhhhhhhhhhhhhhhhhhhhhhhddddddddddddddddddddddggff",
"..aaddddddddddddddddddddhhhhhhhhhhhhhhhhhhhhhhhhhhhhhhhhddddddddddddddddddddggff",
"..aaddddddddddddddddddddhhhhhhhhhhhhhhhhhhhhhhhhhhhhhhhhddddddddddddddddddddggff",
"..aaddddddddddddddddddddhhhhddddddddddddddddddddddddhhhhddddddddddddddddddddggff",
"..aaddddddddddddddddddddhhhhddddddddddddddddddddddddhhhhddddddddddddddddddddggff",
"..aaddddddddddddddddddddhhhhddddddddddddddddddddddddhhhhddddddddddddddddddddggff",
"..aaddddddddddddddddddddhhhhddddddddddddddddddddddddhhhhddddddddddddddddddddggff",
"..aaddddddddddddddddddddhhhhddddddddddddddddddddddddhhhhddddddddddddddddddddggff",
"..aaddddddddddddddddddddhhhhddddddddddddddddddddddddhhhhddddddddddddddddddddggff",
"..aaddddddddddddddddddddhhhhddddddddddddddddddddddddhhhhddddddddddddddddddddggff",
"..aaddddddddddddddddddddhhhhddddddddddddddddddddddddhhhhddddddddddddddddddddggff",
"..aaddddddddddddddddddddhhhhddddddddddddddddddddddddhhhhddddddddddddddddddddggff",
"..aaddddddddddddddddddddhhhhddddddddddddddddddddddddhhhhddddddddddddddddddddggff",
"..aaddddddddddddddddddddhhhhddddddddddddddddddddddddhhhhddddddddddddddddddddggff",
"..aaddddddddddddddddddddhhhhddddddddddddddddddddddddhhhhddddddddddddddddddddggff",
"..aaddddddddddddddddddddhhhhddddddddddddddddddddddddhhhhddddddddddddddddddddggff",
"..aaddddddddddddddddddddhhhhddddddddddddddddddddddddhhhhddddddddddddddddddddggff",
"..aaddddddddddddddddddddhhhhddddddddddddddddddddddddhhhhddddddddddddddddddddggff",
"..aaddddddddddddddddddddhhhhddddddddddddddddddddddddhhhhddddddddddddddddddddggff",
"..aaddddddddddddddddddddhhhhddddddddddddddddddddddddhhhhddddddddddddddddddddggff",
"..aaddddddddddddddddddddhhhhddddddddddddddddddddddddhhhhddddddddddddddddddddggff",
"..aaddddddddddddddddddddhhhhddddddddddddddddddddddddhhhhddddddddddddddddddddggff",
"..aaddddddddddddddddddddhhhhddddddddddddddddddddddddhhhhddddddddddddddddddddggff",
"..aaddddddddddddddddddddhhhhddddddddddddddddddddddddhhhhddddddddddddddddddddggff",
"..aaddddddddddddddddddddhhhhddddddddddddddddddddddddhhhhddddddddddddddddddddggff",
"..aaddddddddddddddddddddhhhhddddddddddddddddddddddddhhhhddddddddddddddddddddggff",
"..aaddddddddddddddddddddhhhhddddddddddddddddddddddddhhhhddddddddddddddddddddggff",
"..aaddddddddddddddddddddhhhhhhhhhhhhhhhhhhhhhhhhhhhhhhhhddddddddddddddddddddggff",
"..aaddddddddddddddddddddhhhhhhhhhhhhhhhhhhhhhhhhhhhhhhhhddddddddddddddddddddggff",
"..aaddddddddddddddddddddddhhhhhhhhhhhhhhhhhhhhhhhhhhhhddddddddddddddddddddddggff",
"..aaddddddddddddddddddddddhhhhhhhhhhhhhhhhhhhhhhhhhhhhddddddddddddddddddddddggff",
"..aaddddddddddddddddddddddddddddddddddddddddddddddddddddddddddddddddddddddddggff",
"..aaddddddddddddddddddddddddddddddddddddddddddddddddddddddddddddddddddddddddggff",
"..aaddddddddddddddddddddddddddddddddddddddddddddddddddddddddddddddddddddddddggff",
"..aaddddddddddddddddddddddddddddddddddddddddddddddddddddddddddddddddddddddddggff",
"..aaddddddddddddddddddddddddddddddddddddddddddddddddddddddddddddddddddddddddggff",
"..aaddddddddddddddddddddddddddddddddddddddddddddddddddddddddddddddddddddddddggff",
"..aaddddddddddddddddddddddddddddddddddddddddddddddddddddddddddddddddddddddddggff",
"..aaddddddddddddddddddddddddddddddddddddddddddddddddddddddddddddddddddddddddggff",
"..aaddddddddddddddddddddddddddddddddddddddddddddddddddddddddddddddddddddddddggff",
"..aaddddddddddddddddddddddddddddddddddddddddddddddddddddddddddddddddddddddddggff",
"..aaiiggggggggggggggggggggggggggggggggggggggggggggggggggggggggggggggggggggggggff",
"..aaiiggggggggggggggggggggggggggggggggggggggggggggggggggggggggggggggggggggggggff",
"aajjffffffffffffffffffffffffffffffffffffffffffffffffffffffffffffffffffffffffffff",
"aajjffffffffffffffffffffffffffffffffffffffffffffffffffffffffffffffffffffffffffff"};
