/* XPM */
static char *dummy[]={
"60 60 67 2",
".p c #000000",
".A c #010100",
".Y c #030201",
".L c #050402",
".5 c #060402",
".R c #090704",
".k c #0c0a05",
".O c #0e0b06",
".4 c #0f0c06",
".l c #100d07",
".u c #141008",
".v c #1b150b",
".D c #1d160c",
".1 c #241c0f",
".N c #271e10",
".E c #281f11",
".K c #332816",
".J c #352a16",
".S c #372b17",
".9 c #3f311a",
".0 c #42331c",
".o c #49391f",
".q c #524022",
".x c #594525",
".Z c #5c4827",
".y c #664f2b",
".G c #68512c",
".U c #785d32",
".H c #7b6034",
".7 c #886a39",
".W c #8c6d3b",
".X c #8f6f3c",
".h c #91713d",
".i c #96743f",
".V c #9f7c43",
".r c #a07d43",
".s c #aa8447",
".z c #ae8849",
".B c #bc924f",
".I c #bd934f",
".6 c #c49952",
".M c #cb9e55",
".Q c #cea056",
".P c #d4a559",
".j c #d8a85b",
".g c #d9a044",
".3 c #d9a95b",
".m c #dcab5c",
".t c #e1af5e",
".8 c #e3b05f",
".w c #e6b360",
".f c #e7af56",
".C c #e7b361",
".2 c #e9b562",
".F c #ecb863",
".d c #edb762",
".T c #f1bc65",
".c c #f1bc68",
".n c #f2bc66",
".e c #f3bd66",
"## c #f4c16d",
".a c #f4c478",
"#a c #f5c67a",
".# c #fbcf87",
".b c #ffcd7d",
"#. c #ffd48d",
"Qt c #ffd48e",
"QtQtQtQtQtQtQtQtQtQtQtQtQtQtQtQtQtQtQtQtQtQtQtQtQtQtQtQtQtQtQtQtQtQtQtQtQtQtQtQtQtQtQtQtQtQtQtQtQtQtQtQtQtQtQtQt.#.#.a.a",
"QtQtQtQtQtQtQtQtQtQtQtQtQtQtQtQtQtQtQtQtQtQtQtQtQtQtQtQtQtQtQtQtQtQtQtQtQtQtQtQtQtQtQtQtQtQtQtQtQtQtQtQtQtQtQtQt.#.#.a.a",
"QtQt.b.b.b.b.b.b.b.b.b.b.b.b.b.b.b.b.b.b.b.b.b.b.b.b.b.b.b.b.b.b.b.b.b.b.b.b.b.b.b.b.b.b.b.b.b.b.b.b.b.b.b.b.b.b.c.c.d.d",
"QtQt.b.b.b.b.b.b.b.b.b.b.b.b.b.b.b.b.b.b.b.b.b.b.b.b.b.b.b.b.b.b.b.b.b.b.b.b.b.b.b.b.b.b.b.b.b.b.b.b.b.b.b.b.b.b.c.c.d.d",
"QtQt.b.b.e.e.e.e.e.e.e.e.e.e.e.e.e.e.e.e.e.e.e.e.e.e.e.e.e.e.e.e.e.e.e.e.e.e.e.e.e.e.e.e.e.e.e.e.e.e.e.e.e.e.e.e.f.f.g.g",
"QtQt.b.b.e.e.e.e.e.e.e.e.e.e.e.e.e.e.e.e.e.e.e.e.e.e.e.e.e.e.e.e.e.e.e.e.e.e.e.e.e.e.e.e.e.e.e.e.e.e.e.e.e.e.e.e.f.f.g.g",
"QtQt.b.b.e.e.e.e.e.e.e.e.e.e.e.e.e.e.e.e.e.e.e.e.e.e.e.e.e.e.e.e.e.e.e.e.e.e.e.e.e.e.e.e.e.e.e.e.e.e.e.e.e.e.e.e.f.f.g.g",
"QtQt.b.b.e.e.e.e.e.e.e.e.e.e.e.e.e.e.e.e.e.e.e.e.e.e.e.e.e.e.e.e.e.e.e.e.e.e.e.e.e.e.e.e.e.e.e.e.e.e.e.e.e.e.e.e.f.f.g.g",
"QtQt.b.b.e.e.e.e.e.e.e.e.e.e.e.e.e.e.e.e.e.e.e.e.e.e.e.e.e.e.e.e.e.e.e.e.e.e.e.e.e.e.e.e.e.e.e.e.e.e.e.e.e.e.e.e.f.f.g.g",
"QtQt.b.b.e.e.e.e.e.e.e.e.e.e.e.e.e.e.e.e.e.e.e.e.e.e.e.e.e.e.e.e.e.e.e.e.e.e.e.e.e.e.e.e.e.e.e.e.e.e.e.e.e.e.e.e.f.f.g.g",
"QtQt.b.b.e.e.e.e.e.e.e.e.e.e.e.e.e.e.e.e.e.e.e.e.e.e.e.e.e.e.e.e.e.e.e.e.e.e.e.e.e.e.e.e.e.e.e.e.e.e.e.e.e.e.e.e.f.f.g.g",
"QtQt.b.b.e.e.e.e.e.e.e.e.e.e.e.e.e.e.e.e.e.e.e.e.e.e.e.e.e.e.e.e.e.e.e.e.e.e.e.e.e.e.e.e.e.e.e.e.e.e.e.e.e.e.e.e.f.f.g.g",
"QtQt.b.b.e.e.e.e.e.e.e.e.e.e.e.e.e.e.e.e.e.e.e.e.e.e.e.e.e.e.e.e.e.e.e.e.e.e.e.e.e.e.e.e.e.e.e.e.e.e.e.e.e.e.e.e.f.f.g.g",
"QtQt.b.b.e.e.e.e.e.e.e.e.e.e.e.e.e.e.e.e.e.e.e.e.e.e.e.e.e.e.e.e.e.e.e.e.e.e.e.e.e.e.e.e.e.e.e.e.e.e.e.e.e.e.e.e.f.f.g.g",
"QtQt.b.b.e.e.e.e.e.e.e.e.e.e.e.e.e.e.e.e.e.e.e.e.e.e.e.e.h.h.i.i.e.e.e.e.e.e.e.e.e.e.e.e.e.e.e.e.e.e.e.e.e.e.e.e.f.f.g.g",
"QtQt.b.b.e.e.e.e.e.e.e.e.e.e.e.e.e.e.e.e.e.e.e.e.e.e.e.e.h.h.i.i.e.e.e.e.e.e.e.e.e.e.e.e.e.e.e.e.e.e.e.e.e.e.e.e.f.f.g.g",
"QtQt.b.b.e.e.e.e.e.e.e.e.e.e.e.e.e.e.e.e.e.e.e.e.e.e.j.j.k.k.l.l.m.m.e.e.e.e.e.e.e.e.e.e.e.e.e.e.e.e.e.e.e.e.e.e.f.f.g.g",
"QtQt.b.b.e.e.e.e.e.e.e.e.e.e.e.e.e.e.e.e.e.e.e.e.e.e.j.j.k.k.l.l.m.m.e.e.e.e.e.e.e.e.e.e.e.e.e.e.e.e.e.e.e.e.e.e.f.f.g.g",
"QtQt.b.b.e.e.e.e.e.e.e.e.e.e.e.e.e.e.e.e.e.e.e.e.n.n.o.o.p.p.p.p.q.q.e.e.e.e.e.e.e.e.e.e.e.e.e.e.e.e.e.e.e.e.e.e.f.f.g.g",
"QtQt.b.b.e.e.e.e.e.e.e.e.e.e.e.e.e.e.e.e.e.e.e.e.n.n.o.o.p.p.p.p.q.q.e.e.e.e.e.e.e.e.e.e.e.e.e.e.e.e.e.e.e.e.e.e.f.f.g.g",
"QtQt.b.b.e.e.e.e.e.e.e.e.e.e.e.e.e.e.e.e.e.e.e.e.r.r.p.p.p.p.p.p.p.p.s.s.e.e.e.e.e.e.e.e.e.e.e.e.e.e.e.e.e.e.e.e.f.f.g.g",
"QtQt.b.b.e.e.e.e.e.e.e.e.e.e.e.e.e.e.e.e.e.e.e.e.r.r.p.p.p.p.p.p.p.p.s.s.e.e.e.e.e.e.e.e.e.e.e.e.e.e.e.e.e.e.e.e.f.f.g.g",
"QtQt.b.b.e.e.e.e.e.e.e.e.e.e.e.e.e.e.e.e.e.e.t.t.u.u.p.p.p.p.p.p.p.p.v.v.w.w.e.e.e.e.e.e.e.e.e.e.e.e.e.e.e.e.e.e.f.f.g.g",
"QtQt.b.b.e.e.e.e.e.e.e.e.e.e.e.e.e.e.e.e.e.e.t.t.u.u.p.p.p.p.p.p.p.p.v.v.w.w.e.e.e.e.e.e.e.e.e.e.e.e.e.e.e.e.e.e.f.f.g.g",
"QtQt.b.b.e.e.e.e.e.e.e.e.e.e.e.e.e.e.e.e.e.e.x.x.p.p.p.p.p.p.p.p.p.p.p.p.y.y.e.e.e.e.e.e.e.e.e.e.e.e.e.e.e.e.e.e.f.f.g.g",
"QtQt.b.b.e.e.e.e.e.e.e.e.e.e.e.e.e.e.e.e.e.e.x.x.p.p.p.p.p.p.p.p.p.p.p.p.y.y.e.e.e.e.e.e.e.e.e.e.e.e.e.e.e.e.e.e.f.f.g.g",
"QtQt.b.b.e.e.e.e.e.e.e.e.e.e.e.e.e.e.e.e.z.z.p.p.p.p.p.p.p.p.p.p.p.p.p.p.A.A.B.B.e.e.e.e.e.e.e.e.e.e.e.e.e.e.e.e.f.f.g.g",
"QtQt.b.b.e.e.e.e.e.e.e.e.e.e.e.e.e.e.e.e.z.z.p.p.p.p.p.p.p.p.p.p.p.p.p.p.A.A.B.B.e.e.e.e.e.e.e.e.e.e.e.e.e.e.e.e.f.f.g.g",
"QtQt.b.b.e.e.e.e.e.e.e.e.e.e.e.e.e.e.C.C.D.D.p.p.p.p.p.p.p.p.p.p.p.p.p.p.p.p.E.E.F.F.e.e.e.e.e.e.e.e.e.e.e.e.e.e.f.f.g.g",
"QtQt.b.b.e.e.e.e.e.e.e.e.e.e.e.e.e.e.C.C.D.D.p.p.p.p.p.p.p.p.p.p.p.p.p.p.p.p.E.E.F.F.e.e.e.e.e.e.e.e.e.e.e.e.e.e.f.f.g.g",
"QtQt.b.b.e.e.e.e.e.e.e.e.e.e.e.e.e.e.G.G.p.p.p.p.p.p.p.p.p.p.p.p.p.p.p.p.p.p.p.p.H.H.e.e.e.e.e.e.e.e.e.e.e.e.e.e.f.f.g.g",
"QtQt.b.b.e.e.e.e.e.e.e.e.e.e.e.e.e.e.G.G.p.p.p.p.p.p.p.p.p.p.p.p.p.p.p.p.p.p.p.p.H.H.e.e.e.e.e.e.e.e.e.e.e.e.e.e.f.f.g.g",
"QtQt.b.b.e.e.e.e.e.e.e.e.e.e.e.e.I.I.A.A.p.p.p.p.p.p.p.p.J.J.K.K.p.p.p.p.p.p.p.p.L.L.M.M.e.e.e.e.e.e.e.e.e.e.e.e.f.f.g.g",
"QtQt.b.b.e.e.e.e.e.e.e.e.e.e.e.e.I.I.A.A.p.p.p.p.p.p.p.p.J.J.K.K.p.p.p.p.p.p.p.p.L.L.M.M.e.e.e.e.e.e.e.e.e.e.e.e.f.f.g.g",
"QtQt.b.b.e.e.e.e.e.e.e.e.e.e.F.F.N.N.p.p.p.p.p.p.p.p.O.O.P.P.Q.Q.R.R.p.p.p.p.p.p.p.p.S.S.T.T.e.e.e.e.e.e.e.e.e.e.f.f.g.g",
"QtQt.b.b.e.e.e.e.e.e.e.e.e.e.F.F.N.N.p.p.p.p.p.p.p.p.O.O.P.P.Q.Q.R.R.p.p.p.p.p.p.p.p.S.S.T.T.e.e.e.e.e.e.e.e.e.e.f.f.g.g",
"QtQt.b.b.e.e.e.e.e.e.e.e.e.e.U.U.p.p.p.p.p.p.p.p.p.p.V.V.e.e.e.e.W.W.p.p.p.p.p.p.p.p.p.p.X.X.e.e.e.e.e.e.e.e.e.e.f.f.g.g",
"QtQt.b.b.e.e.e.e.e.e.e.e.e.e.U.U.p.p.p.p.p.p.p.p.p.p.V.V.e.e.e.e.W.W.p.p.p.p.p.p.p.p.p.p.X.X.e.e.e.e.e.e.e.e.e.e.f.f.g.g",
"QtQt.b.b.e.e.e.e.e.e.e.e.e.e.Y.Y.p.p.p.p.p.p.p.p.Z.Z.e.e.e.e.e.e.n.n.0.0.p.p.p.p.p.p.p.p.Y.Y.e.e.e.e.e.e.e.e.e.e.f.f.g.g",
"QtQt.b.b.e.e.e.e.e.e.e.e.e.e.Y.Y.p.p.p.p.p.p.p.p.Z.Z.e.e.e.e.e.e.n.n.0.0.p.p.p.p.p.p.p.p.Y.Y.e.e.e.e.e.e.e.e.e.e.f.f.g.g",
"QtQt.b.b.e.e.e.e.e.e.e.e.e.e.p.p.p.p.p.p.p.p.1.1.2.2.e.e.e.e.e.e.e.e.3.3.4.4.p.p.p.p.p.p.p.p.e.e.e.e.e.e.e.e.e.e.f.f.g.g",
"QtQt.b.b.e.e.e.e.e.e.e.e.e.e.p.p.p.p.p.p.p.p.1.1.2.2.e.e.e.e.e.e.e.e.3.3.4.4.p.p.p.p.p.p.p.p.e.e.e.e.e.e.e.e.e.e.f.f.g.g",
"QtQt.b.b.e.e.e.e.e.e.e.e.e.e.p.p.p.p.p.p.5.5.6.6.e.e.e.e.e.e.e.e.e.e.e.e.r.r.p.p.p.p.p.p.p.p.e.e.e.e.e.e.e.e.e.e.f.f.g.g",
"QtQt.b.b.e.e.e.e.e.e.e.e.e.e.p.p.p.p.p.p.5.5.6.6.e.e.e.e.e.e.e.e.e.e.e.e.r.r.p.p.p.p.p.p.p.p.e.e.e.e.e.e.e.e.e.e.f.f.g.g",
"QtQt.b.b.e.e.e.e.e.e.e.e.e.e.p.p.p.p.p.p.7.7.e.e.e.e.n.n.e.e.e.e.e.e.T.T.8.8.9.9.p.p.p.p.p.p.e.e.e.e.e.e.e.e.e.e.f.f.g.g",
"QtQt.b.b.e.e.e.e.e.e.e.e.e.e.p.p.p.p.p.p.7.7.e.e.e.e.n.n.e.e.e.e.e.e.T.T.8.8.9.9.p.p.p.p.p.p.e.e.e.e.e.e.e.e.e.e.f.f.g.g",
"QtQt.b.b.e.e.e.e.e.e.e.e.e.e.e.e.e.e.e.e.e.e.e.e.e.e.e.e.e.e.e.e.e.e.e.e.e.e.e.e.e.e.e.e.e.e.e.e.e.e.e.e.e.e.e.e.f.f.g.g",
"QtQt.b.b.e.e.e.e.e.e.e.e.e.e.e.e.e.e.e.e.e.e.e.e.e.e.e.e.e.e.e.e.e.e.e.e.e.e.e.e.e.e.e.e.e.e.e.e.e.e.e.e.e.e.e.e.f.f.g.g",
"QtQt.b.b.e.e.e.e.e.e.e.e.e.e.e.e.e.e.e.e.e.e.e.e.e.e.e.e.e.e.e.e.e.e.e.e.e.e.e.e.e.e.e.e.e.e.e.e.e.e.e.e.e.e.e.e.f.f.g.g",
"QtQt.b.b.e.e.e.e.e.e.e.e.e.e.e.e.e.e.e.e.e.e.e.e.e.e.e.e.e.e.e.e.e.e.e.e.e.e.e.e.e.e.e.e.e.e.e.e.e.e.e.e.e.e.e.e.f.f.g.g",
"QtQt.b.b.e.e.e.e.e.e.e.e.e.e.e.e.e.e.e.e.e.e.e.e.e.e.e.e.e.e.e.e.e.e.e.e.e.e.e.e.e.e.e.e.e.e.e.e.e.e.e.e.e.e.e.e.f.f.g.g",
"QtQt.b.b.e.e.e.e.e.e.e.e.e.e.e.e.e.e.e.e.e.e.e.e.e.e.e.e.e.e.e.e.e.e.e.e.e.e.e.e.e.e.e.e.e.e.e.e.e.e.e.e.e.e.e.e.f.f.g.g",
"QtQt.b.b.e.e.e.e.e.e.e.e.e.e.e.e.e.e.e.e.e.e.e.e.e.e.e.e.e.e.e.e.e.e.e.e.e.e.e.e.e.e.e.e.e.e.e.e.e.e.e.e.e.e.e.e.f.f.g.g",
"QtQt.b.b.e.e.e.e.e.e.e.e.e.e.e.e.e.e.e.e.e.e.e.e.e.e.e.e.e.e.e.e.e.e.e.e.e.e.e.e.e.e.e.e.e.e.e.e.e.e.e.e.e.e.e.e.f.f.g.g",
"QtQt.b.b.e.e.e.e.e.e.e.e.e.e.e.e.e.e.e.e.e.e.e.e.e.e.e.e.e.e.e.e.e.e.e.e.e.e.e.e.e.e.e.e.e.e.e.e.e.e.e.e.e.e.e.e.f.f.g.g",
"QtQt.b.b.e.e.e.e.e.e.e.e.e.e.e.e.e.e.e.e.e.e.e.e.e.e.e.e.e.e.e.e.e.e.e.e.e.e.e.e.e.e.e.e.e.e.e.e.e.e.e.e.e.e.e.e.f.f.g.g",
"#.#.####.f.f.f.f.f.f.f.f.f.f.f.f.f.f.f.f.f.f.f.f.f.f.f.f.f.f.f.f.f.f.f.f.f.f.f.f.f.f.f.f.f.f.f.f.f.f.f.f.f.f.f.f.f.f.g.g",
"#.#.####.f.f.f.f.f.f.f.f.f.f.f.f.f.f.f.f.f.f.f.f.f.f.f.f.f.f.f.f.f.f.f.f.f.f.f.f.f.f.f.f.f.f.f.f.f.f.f.f.f.f.f.f.f.f.g.g",
"#a#a.d.d.g.g.g.g.g.g.g.g.g.g.g.g.g.g.g.g.g.g.g.g.g.g.g.g.g.g.g.g.g.g.g.g.g.g.g.g.g.g.g.g.g.g.g.g.g.g.g.g.g.g.g.g.g.g.g.g",
"#a#a.d.d.g.g.g.g.g.g.g.g.g.g.g.g.g.g.g.g.g.g.g.g.g.g.g.g.g.g.g.g.g.g.g.g.g.g.g.g.g.g.g.g.g.g.g.g.g.g.g.g.g.g.g.g.g.g.g.g"};
