/* XPM */
static char *dummy[]={
"60 60 13 1",
"h c #000000",
"g c #d9a044",
"f c #e7af56",
"d c #edb762",
"c c #f1bc68",
"e c #f3bd66",
"j c #f4c16d",
"a c #f4c478",
"k c #f5c67a",
"# c #fbcf87",
"b c #ffcd7d",
"i c #ffd48d",
". c #ffd48e",
"........................................................##aa",
"........................................................##aa",
"..bbbbbbbbbbbbbbbbbbbbbbbbbbbbbbbbbbbbbbbbbbbbbbbbbbbbbbccdd",
"..bbbbbbbbbbbbbbbbbbbbbbbbbbbbbbbbbbbbbbbbbbbbbbbbbbbbbbccdd",
"..bbeeeeeeeeeeeeeeeeeeeeeeeeeeeeeeeeeeeeeeeeeeeeeeeeeeeeffgg",
"..bbeeeeeeeeeeeeeeeeeeeeeeeeeeeeeeeeeeeeeeeeeeeeeeeeeeeeffgg",
"..bbeeeeeeeeeeeeeeeeeeeeeeeeeeeeeeeeeeeeeeeeeeeeeeeeeeeeffgg",
"..bbeeeeeeeeeeeeeeeeeeeeeeeeeeeeeeeeeeeeeeeeeeeeeeeeeeeeffgg",
"..bbeeeeeeeeeeeeeeeeeeeeeeeeeeeeeeeeeeeeeeeeeeeeeeeeeeeeffgg",
"..bbeeeeeeeeeeeeeeeeeeeeeeeeeeeeeeeeeeeeeeeeeeeeeeeeeeeeffgg",
"..bbeeeeeeeeeeeeeeeeeeeeeeeeeeeeeeeeeeeeeeeeeeeeeeeeeeeeffgg",
"..bbeeeeeeeeeeeeeeeeeeeeeeeeeeeeeeeeeeeeeeeeeeeeeeeeeeeeffgg",
"..bbeeeeeeeeeeeeeeeeeeeeeeeeeeeeeeeeeeeeeeeeeeeeeeeeeeeeffgg",
"..bbeeeeeeeeeeeeeeeeeeeeeeeeeeeeeeeeeeeeeeeeeeeeeeeeeeeeffgg",
"..bbeeeeeeeeeeeeeeeeeeeehhhhhhhhhhhheeeeeeeeeeeeeeeeeeeeffgg",
"..bbeeeeeeeeeeeeeeeeeeeehhhhhhhhhhhheeeeeeeeeeeeeeeeeeeeffgg",
"..bbeeeeeeeeeeeeeeeeeehhhhhhhhhhhhhhhheeeeeeeeeeeeeeeeeeffgg",
"..bbeeeeeeeeeeeeeeeeeehhhhhhhhhhhhhhhheeeeeeeeeeeeeeeeeeffgg",
"..bbeeeeeeeeeeeeeeeehhhhhhhhhhhhhhhhhhhheeeeeeeeeeeeeeeeffgg",
"..bbeeeeeeeeeeeeeeeehhhhhhhhhhhhhhhhhhhheeeeeeeeeeeeeeeeffgg",
"..bbeeeeeeeeeeeeeeeehhhhhhhheeeehhhhhhhheeeeeeeeeeeeeeeeffgg",
"..bbeeeeeeeeeeeeeeeehhhhhhhheeeehhhhhhhheeeeeeeeeeeeeeeeffgg",
"..bbeeeeeeeeeeeeeeeehhhhhheeeeeeeehhhheeeeeeeeeeeeeeeeeeffgg",
"..bbeeeeeeeeeeeeeeeehhhhhheeeeeeeehhhheeeeeeeeeeeeeeeeeeffgg",
"..bbeeeeeeeeeeeeeeeehhhhhheeeeeeeehhhhhheeeeeeeeeeeeeeeeffgg",
"..bbeeeeeeeeeeeeeeeehhhhhheeeeeeeehhhhhheeeeeeeeeeeeeeeeffgg",
"..bbeeeeeeeeeeeeeeeehhhhhheeeeeeeeeeeeeeeeeeeeeeeeeeeeeeffgg",
"..bbeeeeeeeeeeeeeeeehhhhhheeeeeeeeeeeeeeeeeeeeeeeeeeeeeeffgg",
"..bbeeeeeeeeeeeeeeeehhhhhheeeeeeeeeeeeeeeeeeeeeeeeeeeeeeffgg",
"..bbeeeeeeeeeeeeeeeehhhhhheeeeeeeeeeeeeeeeeeeeeeeeeeeeeeffgg",
"..bbeeeeeeeeeeeehhhhhhhhhhhhhhhhhhhhhhhhhhhheeeeeeeeeeeeffgg",
"..bbeeeeeeeeeeeehhhhhhhhhhhhhhhhhhhhhhhhhhhheeeeeeeeeeeeffgg",
"..bbeeeeeeeeeehhhhhhhhhhhhhhhhhhhhhhhhhhhhhhhheeeeeeeeeeffgg",
"..bbeeeeeeeeeehhhhhhhhhhhhhhhhhhhhhhhhhhhhhhhheeeeeeeeeeffgg",
"..bbeeeeeeeeeehhhhhhhheeeeeeeeeeeeeeeehhhhhhhheeeeeeeeeeffgg",
"..bbeeeeeeeeeehhhhhhhheeeeeeeeeeeeeeeehhhhhhhheeeeeeeeeeffgg",
"..bbeeeeeeeeeehhhhhheeeeeeeehhhheeeeeeeehhhhhheeeeeeeeeeffgg",
"..bbeeeeeeeeeehhhhhheeeeeeeehhhheeeeeeeehhhhhheeeeeeeeeeffgg",
"..bbeeeeeeeeeehhhhhheeeeeeeehhhheeeeeeeehhhhhheeeeeeeeeeffgg",
"..bbeeeeeeeeeehhhhhheeeeeeeehhhheeeeeeeehhhhhheeeeeeeeeeffgg",
"..bbeeeeeeeeeehhhhhhhheeeeeeeeeeeeeeeehhhhhhhheeeeeeeeeeffgg",
"..bbeeeeeeeeeehhhhhhhheeeeeeeeeeeeeeeehhhhhhhheeeeeeeeeeffgg",
"..bbeeeeeeeeeehhhhhhhhhhhhhhhhhhhhhhhhhhhhhhhheeeeeeeeeeffgg",
"..bbeeeeeeeeeehhhhhhhhhhhhhhhhhhhhhhhhhhhhhhhheeeeeeeeeeffgg",
"..bbeeeeeeeeeeeehhhhhhhhhhhhhhhhhhhhhhhhhhhheeeeeeeeeeeeffgg",
"..bbeeeeeeeeeeeehhhhhhhhhhhhhhhhhhhhhhhhhhhheeeeeeeeeeeeffgg",
"..bbeeeeeeeeeeeeeeeeeeeeeeeeeeeeeeeeeeeeeeeeeeeeeeeeeeeeffgg",
"..bbeeeeeeeeeeeeeeeeeeeeeeeeeeeeeeeeeeeeeeeeeeeeeeeeeeeeffgg",
"..bbeeeeeeeeeeeeeeeeeeeeeeeeeeeeeeeeeeeeeeeeeeeeeeeeeeeeffgg",
"..bbeeeeeeeeeeeeeeeeeeeeeeeeeeeeeeeeeeeeeeeeeeeeeeeeeeeeffgg",
"..bbeeeeeeeeeeeeeeeeeeeeeeeeeeeeeeeeeeeeeeeeeeeeeeeeeeeeffgg",
"..bbeeeeeeeeeeeeeeeeeeeeeeeeeeeeeeeeeeeeeeeeeeeeeeeeeeeeffgg",
"..bbeeeeeeeeeeeeeeeeeeeeeeeeeeeeeeeeeeeeeeeeeeeeeeeeeeeeffgg",
"..bbeeeeeeeeeeeeeeeeeeeeeeeeeeeeeeeeeeeeeeeeeeeeeeeeeeeeffgg",
"..bbeeeeeeeeeeeeeeeeeeeeeeeeeeeeeeeeeeeeeeeeeeeeeeeeeeeeffgg",
"..bbeeeeeeeeeeeeeeeeeeeeeeeeeeeeeeeeeeeeeeeeeeeeeeeeeeeeffgg",
"iijjffffffffffffffffffffffffffffffffffffffffffffffffffffffgg",
"iijjffffffffffffffffffffffffffffffffffffffffffffffffffffffgg",
"kkddgggggggggggggggggggggggggggggggggggggggggggggggggggggggg",
"kkddgggggggggggggggggggggggggggggggggggggggggggggggggggggggg"};
