/* XPM */
static char *dummy[]={
"4 32 2 1",
". c #88662d",
"# c #b48943",
"....",
"####",
"####",
"####",
"####",
"####",
"####",
"####",
"####",
"####",
"####",
"####",
"####",
"####",
"####",
"####",
"####",
"####",
"####",
"####",
"####",
"####",
"####",
"####",
"####",
"####",
"####",
"####",
"####",
"####",
"####",
"...."};
