/* XPM */
static char *dummy[]={
"4 32 2 1",
". c #b48943",
"# c #f3bd66",
"....",
"####",
"####",
"####",
"####",
"####",
"####",
"####",
"####",
"####",
"####",
"####",
"####",
"####",
"####",
"####",
"####",
"####",
"####",
"####",
"####",
"####",
"####",
"####",
"####",
"####",
"####",
"####",
"####",
"####",
"####",
"...."};
