/* XPM */
static char *dummy[]={
"8 20 3 1",
". c #b48943",
"a c #e8b460",
"# c #f3bd66",
"........",
".######.",
".######.",
"........",
".#####a.",
".######.",
"........",
".######.",
".######.",
"........",
".######.",
".######.",
"........",
".######.",
".######.",
"........",
".######.",
".######.",
".######.",
".######."};
