/* XPM */
static char *dummy[]={
"16 16 52 1",
"r c #5a4522",
"q c #5b4622",
"w c #5b4623",
"J c #5d4723",
"A c #5e4823",
"v c #5f4824",
"n c #614a25",
"O c #624b25",
"B c #664e26",
"R c #684f27",
"m c #685027",
"z c #6a5128",
"K c #73582b",
"s c #74592c",
"D c #775b2d",
"G c #7a5d2e",
"p c #7c5e2e",
"j c #836431",
"E c #866632",
"i c #896833",
"F c #8d6b35",
"x c #8e6c35",
"u c #987439",
"N c #9a763a",
"S c #9b763a",
"I c #9d783b",
"X c #9e7632",
"M c #9e783b",
"o c #a07a3c",
"y c #a17a3c",
"T c #a27c3d",
"f c #a37b36",
"P c #a37c3d",
"C c #a37d3d",
"d c #a57e38",
"Q c #a57e3e",
"W c #a77e3a",
"l c #ab8240",
"L c #ad8440",
"t c #ae8441",
"h c #ae8541",
"g c #af8541",
"H c #b08642",
"k c #b18742",
"U c #b38843",
"e c #b48943",
"c c #b78c47",
"b c #b98f4a",
"a c #c09a58",
"V c #c39d5b",
"# c #cba564",
". c #cea867",
".##############a",
"#bcccccccccccccd",
"#ceeeeeeeeeeeeef",
"#ceeeeegheeeeeef",
"#ceeeeeijkeeeeef",
"#ceeeelmnoeeeeef",
"#ceeeepqrsteeeef",
"#ceeeuvrrwxeeeef",
"#ceeyzrAvrBCeeef",
"#cegDqrEFArGHeef",
"#ceIJrKLkGrJMeef",
"#ceNrOPeeQRrSeef",
"#ceLSTUeeUTSLeef",
"#ceeeeeeeeeeeeef",
"#ceeeeeeeeeeeeef",
"VWfffffffffffffX"};
