/* XPM */
static char *dummy[]={
"16 16 61 1",
"l c #000000",
"t c #010100",
"B c #020101",
"C c #020201",
"x c #050402",
"P c #070603",
"m c #0a0804",
"M c #100d07",
"F c #120e08",
"K c #151009",
"L c #1a150b",
"W c #1c160c",
"J c #211a0e",
"T c #322715",
"q c #362a16",
"G c #3b2e18",
"A c #41331b",
"u c #4b3a1f",
"S c #4c3b20",
"0 c #6b542d",
"Q c #70572f",
"w c #785e33",
"Z c #846637",
"D c #8b6c3a",
"O c #997740",
"X c #a68146",
"E c #a98447",
"h c #ad8749",
"s c #ae8749",
"r c #ae8849",
"y c #af8849",
"I c #b48d4c",
"n c #b78e4c",
"i c #b78f4d",
"V c #c99c54",
"k c #cea056",
"U c #d5a65a",
"p c #d6a75a",
"6 c #dda449",
"H c #dfae5d",
"g c #dfae5e",
"f c #e2a94f",
"z c #e2b05f",
"3 c #e3b15f",
"5 c #e4ad54",
"d c #e5ac53",
"2 c #e7b361",
"v c #e8b461",
"1 c #eab662",
"j c #edb863",
"R c #edb964",
"N c #eeb964",
"Y c #f2bc66",
"o c #f2bd66",
"e c #f3bd66",
"c c #f5c06a",
"a c #f5c476",
"b c #f7c26d",
"4 c #f7c779",
"# c #ffd187",
". c #ffd38b",
".##############a",
"#bcccccccccccccd",
"#ceeeeeeeeeeeeef",
"#ceghijeeekhgeef",
"#cehlmnoepqlreef",
"#cestluvewxtyeef",
"#cezABCDEFlGHeef",
"#ceeIJlKLlMyeeef",
"#ceeNOPlllQReeef",
"#ceeeNStlTUeeeef",
"#ceeeeVWmXYeeeef",
"#ceeeeeZ01eeeeef",
"#ceeeee23eeeeeef",
"#ceeeeeeeeeeeeef",
"#ceeeeeeeeeeeeef",
"45fffffffffffff6"};
