/* XPM */
static char *dummy[]={
"16 16 62 1",
"r c #000000",
"R c #010100",
"q c #020201",
"w c #040302",
"N c #070603",
"S c #090703",
"J c #0a0704",
"B c #0a0804",
"v c #0c0a05",
"C c #0d0a05",
"n c #120e07",
"V c #17120a",
"D c #20190d",
"m c #251d10",
"Y c #261d10",
"A c #2b2112",
"O c #43341c",
"s c #48381e",
"G c #4e3d20",
"Q c #564324",
"K c #574424",
"p c #5b4726",
"j c #6d552e",
"H c #785e33",
"i c #806436",
"I c #886a39",
"x c #8b6d3b",
"u c #a88247",
"U c #ad8749",
"Z c #ae8849",
"M c #b58d4c",
"T c #b78e4c",
"o c #bf9450",
"z c #c09551",
"1 c #c49852",
"E c #c59953",
"W c #c69a53",
"X c #cb9e55",
"l c #daaa5c",
"7 c #dda449",
"P c #dfad5e",
"0 c #dfae5e",
"4 c #e0ae5e",
"f c #e2a94f",
"h c #e3b15f",
"6 c #e4ad54",
"d c #e5ac53",
"F c #e5b260",
"g c #e6b361",
"L c #e8b562",
"k c #eab662",
"2 c #f1bb65",
"3 c #f1bc65",
"t c #f2bc66",
"y c #f2bd66",
"e c #f3bd66",
"c c #f5c06a",
"a c #f5c476",
"b c #f7c26d",
"5 c #f7c779",
"# c #ffd187",
". c #ffd38b",
".##############a",
"#bcccccccccccccd",
"#ceeeeeeeeeeeeef",
"#ceeeeegheeeeeef",
"#ceeeeeijkeeeeef",
"#ceeeelmnoeeeeef",
"#ceeeepqrsheeeef",
"#ceetuvrrwxyeeef",
"#ceezArBCrDEeeef",
"#ceFGqrHIJrKLeef",
"#ceMNrOPkQRSTeef",
"#ceUrVWeeXYrZeef",
"#ce0Z12ee31Z4eef",
"#ceeeeeeeeeeeeef",
"#ceeeeeeeeeeeeef",
"56fffffffffffff7"};
