/* XPM */
static char *dummy[]={
"12 12 2 1",
". c #b48943",
"# c #f3bd66",
"..########..",
"..########..",
"..########..",
"..########..",
"..########..",
"..########..",
"..########..",
"..########..",
"..########..",
"..########..",
"..########..",
"..########.."};
