/* XPM */
static char *dummy[]={
"80 60 33 1",
"h c #5a4522",
"t c #5c4622",
"i c #5d4723",
"n c #5e4723",
"l c #5f4823",
"m c #7d5f2f",
"s c #7e602f",
"x c #7f612f",
"C c #856531",
"B c #866632",
"A c #876732",
"k c #886732",
"q c #886833",
"u c #8a6933",
"v c #8b6a34",
"y c #8c6a34",
"r c #8c6b34",
"o c #8e6c35",
"z c #8f6d35",
"j c #977338",
"w c #987438",
"p c #987439",
"f c #9a722e",
"e c #a67e38",
"D c #a8803a",
"g c #a9813b",
"E c #ad8642",
"c c #ad8643",
"d c #b48943",
"b c #b8914e",
"a c #c39d5b",
"# c #cea867",
". c #d1ab6a",
"............................................................................##aa",
"............................................................................##aa",
"..aaaaaaaaaaaaaaaaaaaaaaaaaaaaaaaaaaaaaaaaaaaaaaaaaaaaaaaaaaaaaaaaaaaaaaaaaabbcc",
"..aaaaaaaaaaaaaaaaaaaaaaaaaaaaaaaaaaaaaaaaaaaaaaaaaaaaaaaaaaaaaaaaaaaaaaaaaabbcc",
"..aaddddddddddddddddddddddddddddddddddddddddddddddddddddddddddddddddddddddddeeff",
"..aaddddddddddddddddddddddddddddddddddddddddddddddddddddddddddddddddddddddddeeff",
"..aaddddddddddddddddddddddddddddddddddddddddddddddddddddddddddddddddddddddddggff",
"..aaddddddddddddddddddddddddddddddddddddddddddddddddddddddddddddddddddddddddggff",
"..aaddddddddddddddddddddddddddddddddddddddddddddddddddddddddddddddddddddddddggff",
"..aaddddddddddddddddddddddddddddddddddddddddddddddddddddddddddddddddddddddddggff",
"..aaddddddddddddddddddddddddddddddddddddddddddddddddddddddddddddddddddddddddggff",
"..aaddddddddddddddddddddddddddddddddddddddddddddddddddddddddddddddddddddddddggff",
"..aaddddddddddddddddddddddddddddddddddddddddddddddddddddddddddddddddddddddddggff",
"..aaddddddddddddddddddddddddddddddddddddddddddddddddddddddddddddddddddddddddggff",
"..aaddddddddddddddddddddhhiijjddddddddddddddddddddkkhhhhddddddddddddddddddddggff",
"..aaddddddddddddddddddddhhiijjddddddddddddddddddddkkhhhhddddddddddddddddddddggff",
"..aaddddddddddddddddddddhhhhlljjddddddddddddddddkkhhhhhhddddddddddddddddddddggff",
"..aaddddddddddddddddddddhhhhlljjddddddddddddddddkkhhhhhhddddddddddddddddddddggff",
"..aaddddddddddddddddddddmmhhhhnnjjddddddddddddkkhhhhhhooddddddddddddddddddddggff",
"..aaddddddddddddddddddddmmhhhhnnjjddddddddddddkkhhhhhhooddddddddddddddddddddggff",
"..aaddddddddddddddddddddddmmhhhhiippddddddddqqhhhhhhrrddddddddddddddddddddddggff",
"..aaddddddddddddddddddddddmmhhhhiippddddddddqqhhhhhhrrddddddddddddddddddddddggff",
"..aaddddddddddddddddddddddddsshhhhttppdddduuhhhhhhvvddddddddddddddddddddddddggff",
"..aaddddddddddddddddddddddddsshhhhttppdddduuhhhhhhvvddddddddddddddddddddddddggff",
"..aaddddddddddddddddddddddddddsshhhhttwwvvhhhhhhuuddddddddddddddddddddddddddggff",
"..aaddddddddddddddddddddddddddsshhhhttwwvvhhhhhhuuddddddddddddddddddddddddddggff",
"..aaddddddddddddddddddddddddddddxxhhhhtthhhhhhuuddddddddddddddddddddddddddddggff",
"..aaddddddddddddddddddddddddddddxxhhhhtthhhhhhuuddddddddddddddddddddddddddddggff",
"..aaddddddddddddddddddddddddddddddsshhhhhhhhvvddddddddddddddddddddddddddddddggff",
"..aaddddddddddddddddddddddddddddddsshhhhhhhhvvddddddddddddddddddddddddddddddggff",
"..aaddddddddddddddddddddddddddddddyyhhhhhhttwwddddddddddddddddddddddddddddddggff",
"..aaddddddddddddddddddddddddddddddyyhhhhhhttwwddddddddddddddddddddddddddddddggff",
"..aaddddddddddddddddddddddddddddrrhhhhhhhhhhiippddddddddddddddddddddddddddddggff",
"..aaddddddddddddddddddddddddddddrrhhhhhhhhhhiippddddddddddddddddddddddddddddggff",
"..aaddddddddddddddddddddddddddoohhhhhhkksshhhhttppddddddddddddddddddddddddddggff",
"..aaddddddddddddddddddddddddddoohhhhhhkksshhhhttppddddddddddddddddddddddddddggff",
"..aaddddddddddddddddddddddddzzhhhhhhAAddddsshhhhiiwwddddddddddddddddddddddddggff",
"..aaddddddddddddddddddddddddzzhhhhhhAAddddsshhhhiiwwddddddddddddddddddddddddggff",
"..aaddddddddddddddddddddddzzhhhhhhAAddddddddsshhhhnnjjddddddddddddddddddddddggff",
"..aaddddddddddddddddddddddzzhhhhhhAAddddddddsshhhhnnjjddddddddddddddddddddddggff",
"..aaddddddddddddddddddddzzhhhhhhkkddddddddddddsshhhhlljjddddddddddddddddddddggff",
"..aaddddddddddddddddddddzzhhhhhhkkddddddddddddsshhhhlljjddddddddddddddddddddggff",
"..aaddddddddddddddddddddhhhhhhBBddddddddddddddddmmhhhhiiddddddddddddddddddddggff",
"..aaddddddddddddddddddddhhhhhhBBddddddddddddddddmmhhhhiiddddddddddddddddddddggff",
"..aaddddddddddddddddddddhhhhCCddddddddddddddddddddmmhhhhddddddddddddddddddddggff",
"..aaddddddddddddddddddddhhhhCCddddddddddddddddddddmmhhhhddddddddddddddddddddggff",
"..aaddddddddddddddddddddddddddddddddddddddddddddddddddddddddddddddddddddddddggff",
"..aaddddddddddddddddddddddddddddddddddddddddddddddddddddddddddddddddddddddddggff",
"..aaddddddddddddddddddddddddddddddddddddddddddddddddddddddddddddddddddddddddggff",
"..aaddddddddddddddddddddddddddddddddddddddddddddddddddddddddddddddddddddddddggff",
"..aaddddddddddddddddddddddddddddddddddddddddddddddddddddddddddddddddddddddddggff",
"..aaddddddddddddddddddddddddddddddddddddddddddddddddddddddddddddddddddddddddggff",
"..aaddddddddddddddddddddddddddddddddddddddddddddddddddddddddddddddddddddddddggff",
"..aaddddddddddddddddddddddddddddddddddddddddddddddddddddddddddddddddddddddddggff",
"..aaddddddddddddddddddddddddddddddddddddddddddddddddddddddddddddddddddddddddggff",
"..aaddddddddddddddddddddddddddddddddddddddddddddddddddddddddddddddddddddddddggff",
"..aaDDggggggggggggggggggggggggggggggggggggggggggggggggggggggggggggggggggggggggff",
"..aaDDggggggggggggggggggggggggggggggggggggggggggggggggggggggggggggggggggggggggff",
"aaEEffffffffffffffffffffffffffffffffffffffffffffffffffffffffffffffffffffffffffff",
"aaEEffffffffffffffffffffffffffffffffffffffffffffffffffffffffffffffffffffffffffff"};
