/* XPM */
static char *dummy[]={
"80 60 13 1",
"h c #000000",
"g c #d9a044",
"f c #e7af56",
"d c #edb762",
"c c #f1bc68",
"e c #f3bd66",
"j c #f4c16d",
"a c #f4c478",
"k c #f5c67a",
"# c #fbcf87",
"b c #ffcd7d",
"i c #ffd48d",
". c #ffd48e",
"............................................................................##aa",
"............................................................................##aa",
"..bbbbbbbbbbbbbbbbbbbbbbbbbbbbbbbbbbbbbbbbbbbbbbbbbbbbbbbbbbbbbbbbbbbbbbbbbbccdd",
"..bbbbbbbbbbbbbbbbbbbbbbbbbbbbbbbbbbbbbbbbbbbbbbbbbbbbbbbbbbbbbbbbbbbbbbbbbbccdd",
"..bbeeeeeeeeeeeeeeeeeeeeeeeeeeeeeeeeeeeeeeeeeeeeeeeeeeeeeeeeeeeeeeeeeeeeeeeeffgg",
"..bbeeeeeeeeeeeeeeeeeeeeeeeeeeeeeeeeeeeeeeeeeeeeeeeeeeeeeeeeeeeeeeeeeeeeeeeeffgg",
"..bbeeeeeeeeeeeeeeeeeeeeeeeeeeeeeeeeeeeeeeeeeeeeeeeeeeeeeeeeeeeeeeeeeeeeeeeeffgg",
"..bbeeeeeeeeeeeeeeeeeeeeeeeeeeeeeeeeeeeeeeeeeeeeeeeeeeeeeeeeeeeeeeeeeeeeeeeeffgg",
"..bbeeeeeeeeeeeeeeeeeeeeeeeeeeeeeeeeeeeeeeeeeeeeeeeeeeeeeeeeeeeeeeeeeeeeeeeeffgg",
"..bbeeeeeeeeeeeeeeeeeeeeeeeeeeeeeeeeeeeeeeeeeeeeeeeeeeeeeeeeeeeeeeeeeeeeeeeeffgg",
"..bbeeeeeeeeeeeeeeeeeeeeeeeeeeeeeeeeeeeeeeeeeeeeeeeeeeeeeeeeeeeeeeeeeeeeeeeeffgg",
"..bbeeeeeeeeeeeeeeeeeeeeeeeeeeeeeeeeeeeeeeeeeeeeeeeeeeeeeeeeeeeeeeeeeeeeeeeeffgg",
"..bbeeeeeeeeeeeeeeeeeeeeeeeeeeeeeeeeeeeeeeeeeeeeeeeeeeeeeeeeeeeeeeeeeeeeeeeeffgg",
"..bbeeeeeeeeeeeeeeeeeeeeeeeeeeeeeeeeeeeeeeeeeeeeeeeeeeeeeeeeeeeeeeeeeeeeeeeeffgg",
"..bbeeeeeeeeeeeeeeeeeeeeeeeeeeeeeehhhhhhhhhhhhhhhhhhhheeeeeeeeeeeeeeeeeeeeeeffgg",
"..bbeeeeeeeeeeeeeeeeeeeeeeeeeeeeeehhhhhhhhhhhhhhhhhhhheeeeeeeeeeeeeeeeeeeeeeffgg",
"..bbeeeeeeeeeeeeeeeeeeeeeeeeeeeehhhhhhhhhhhhhhhhhhhhhhhheeeeeeeeeeeeeeeeeeeeffgg",
"..bbeeeeeeeeeeeeeeeeeeeeeeeeeeeehhhhhhhhhhhhhhhhhhhhhhhheeeeeeeeeeeeeeeeeeeeffgg",
"..bbeeeeeeeeeeeeeeeeeeeeeeeeeeeehhhheeeeeeeeeeeeeeeehhhheeeeeeeeeeeeeeeeeeeeffgg",
"..bbeeeeeeeeeeeeeeeeeeeeeeeeeeeehhhheeeeeeeeeeeeeeeehhhheeeeeeeeeeeeeeeeeeeeffgg",
"..bbeeeeeeeeeeeeeeeeeeeeeeeeeeeehhhheeeeeeeeeeeeeeeehhhheeeeeeeeeeeeeeeeeeeeffgg",
"..bbeeeeeeeeeeeeeeeeeeeeeeeeeeeehhhheeeeeeeeeeeeeeeehhhheeeeeeeeeeeeeeeeeeeeffgg",
"..bbeeeeeeeeeeeeeeeeeeeeeehhhhhhhhhhhhhhhhhhhheeeeeehhhheeeeeeeeeeeeeeeeeeeeffgg",
"..bbeeeeeeeeeeeeeeeeeeeeeehhhhhhhhhhhhhhhhhhhheeeeeehhhheeeeeeeeeeeeeeeeeeeeffgg",
"..bbeeeeeeeeeeeeeeeeeeeehhhhhhhhhhhhhhhhhhhhhhhheeeehhhheeeeeeeeeeeeeeeeeeeeffgg",
"..bbeeeeeeeeeeeeeeeeeeeehhhhhhhhhhhhhhhhhhhhhhhheeeehhhheeeeeeeeeeeeeeeeeeeeffgg",
"..bbeeeeeeeeeeeeeeeeeeeehhhheeeehhhheeeeeeeehhhheeeehhhheeeeeeeeeeeeeeeeeeeeffgg",
"..bbeeeeeeeeeeeeeeeeeeeehhhheeeehhhheeeeeeeehhhheeeehhhheeeeeeeeeeeeeeeeeeeeffgg",
"..bbeeeeeeeeeeeeeeeeeeeehhhheeeehhhheeeeeeeehhhheeeehhhheeeeeeeeeeeeeeeeeeeeffgg",
"..bbeeeeeeeeeeeeeeeeeeeehhhheeeehhhheeeeeeeehhhheeeehhhheeeeeeeeeeeeeeeeeeeeffgg",
"..bbeeeeeeeeeeeeeeeeeeeehhhheeeehhhheeeeeeeehhhheeeehhhheeeeeeeeeeeeeeeeeeeeffgg",
"..bbeeeeeeeeeeeeeeeeeeeehhhheeeehhhheeeeeeeehhhheeeehhhheeeeeeeeeeeeeeeeeeeeffgg",
"..bbeeeeeeeeeeeeeeeeeeeehhhheeeehhhheeeeeeeehhhheeeehhhheeeeeeeeeeeeeeeeeeeeffgg",
"..bbeeeeeeeeeeeeeeeeeeeehhhheeeehhhheeeeeeeehhhheeeehhhheeeeeeeeeeeeeeeeeeeeffgg",
"..bbeeeeeeeeeeeeeeeeeeeehhhheeeehhhhhhhhhhhhhhhhhhhhhhhheeeeeeeeeeeeeeeeeeeeffgg",
"..bbeeeeeeeeeeeeeeeeeeeehhhheeeehhhhhhhhhhhhhhhhhhhhhhhheeeeeeeeeeeeeeeeeeeeffgg",
"..bbeeeeeeeeeeeeeeeeeeeehhhheeeeeehhhhhhhhhhhhhhhhhhhheeeeeeeeeeeeeeeeeeeeeeffgg",
"..bbeeeeeeeeeeeeeeeeeeeehhhheeeeeehhhhhhhhhhhhhhhhhhhheeeeeeeeeeeeeeeeeeeeeeffgg",
"..bbeeeeeeeeeeeeeeeeeeeehhhheeeeeeeeeeeeeeeehhhheeeeeeeeeeeeeeeeeeeeeeeeeeeeffgg",
"..bbeeeeeeeeeeeeeeeeeeeehhhheeeeeeeeeeeeeeeehhhheeeeeeeeeeeeeeeeeeeeeeeeeeeeffgg",
"..bbeeeeeeeeeeeeeeeeeeeehhhheeeeeeeeeeeeeeeehhhheeeeeeeeeeeeeeeeeeeeeeeeeeeeffgg",
"..bbeeeeeeeeeeeeeeeeeeeehhhheeeeeeeeeeeeeeeehhhheeeeeeeeeeeeeeeeeeeeeeeeeeeeffgg",
"..bbeeeeeeeeeeeeeeeeeeeehhhhhhhhhhhhhhhhhhhhhhhheeeeeeeeeeeeeeeeeeeeeeeeeeeeffgg",
"..bbeeeeeeeeeeeeeeeeeeeehhhhhhhhhhhhhhhhhhhhhhhheeeeeeeeeeeeeeeeeeeeeeeeeeeeffgg",
"..bbeeeeeeeeeeeeeeeeeeeeeehhhhhhhhhhhhhhhhhhhheeeeeeeeeeeeeeeeeeeeeeeeeeeeeeffgg",
"..bbeeeeeeeeeeeeeeeeeeeeeehhhhhhhhhhhhhhhhhhhheeeeeeeeeeeeeeeeeeeeeeeeeeeeeeffgg",
"..bbeeeeeeeeeeeeeeeeeeeeeeeeeeeeeeeeeeeeeeeeeeeeeeeeeeeeeeeeeeeeeeeeeeeeeeeeffgg",
"..bbeeeeeeeeeeeeeeeeeeeeeeeeeeeeeeeeeeeeeeeeeeeeeeeeeeeeeeeeeeeeeeeeeeeeeeeeffgg",
"..bbeeeeeeeeeeeeeeeeeeeeeeeeeeeeeeeeeeeeeeeeeeeeeeeeeeeeeeeeeeeeeeeeeeeeeeeeffgg",
"..bbeeeeeeeeeeeeeeeeeeeeeeeeeeeeeeeeeeeeeeeeeeeeeeeeeeeeeeeeeeeeeeeeeeeeeeeeffgg",
"..bbeeeeeeeeeeeeeeeeeeeeeeeeeeeeeeeeeeeeeeeeeeeeeeeeeeeeeeeeeeeeeeeeeeeeeeeeffgg",
"..bbeeeeeeeeeeeeeeeeeeeeeeeeeeeeeeeeeeeeeeeeeeeeeeeeeeeeeeeeeeeeeeeeeeeeeeeeffgg",
"..bbeeeeeeeeeeeeeeeeeeeeeeeeeeeeeeeeeeeeeeeeeeeeeeeeeeeeeeeeeeeeeeeeeeeeeeeeffgg",
"..bbeeeeeeeeeeeeeeeeeeeeeeeeeeeeeeeeeeeeeeeeeeeeeeeeeeeeeeeeeeeeeeeeeeeeeeeeffgg",
"..bbeeeeeeeeeeeeeeeeeeeeeeeeeeeeeeeeeeeeeeeeeeeeeeeeeeeeeeeeeeeeeeeeeeeeeeeeffgg",
"..bbeeeeeeeeeeeeeeeeeeeeeeeeeeeeeeeeeeeeeeeeeeeeeeeeeeeeeeeeeeeeeeeeeeeeeeeeffgg",
"iijjffffffffffffffffffffffffffffffffffffffffffffffffffffffffffffffffffffffffffgg",
"iijjffffffffffffffffffffffffffffffffffffffffffffffffffffffffffffffffffffffffffgg",
"kkddgggggggggggggggggggggggggggggggggggggggggggggggggggggggggggggggggggggggggggg",
"kkddgggggggggggggggggggggggggggggggggggggggggggggggggggggggggggggggggggggggggggg"};
