/* XPM */
static char *dummy[]={
"60 60 12 1",
"h c #5a4522",
"f c #9a722e",
"e c #a67e38",
"i c #a8803a",
"g c #a9813b",
"j c #ad8642",
"c c #ad8643",
"d c #b48943",
"b c #b8914e",
"a c #c39d5b",
"# c #cea867",
". c #d1ab6a",
"........................................................##aa",
"........................................................##aa",
"..aaaaaaaaaaaaaaaaaaaaaaaaaaaaaaaaaaaaaaaaaaaaaaaaaaaaaabbcc",
"..aaaaaaaaaaaaaaaaaaaaaaaaaaaaaaaaaaaaaaaaaaaaaaaaaaaaaabbcc",
"..aaddddddddddddddddddddddddddddddddddddddddddddddddddddeeff",
"..aaddddddddddddddddddddddddddddddddddddddddddddddddddddeeff",
"..aaddddddddddddddddddddddddddddddddddddddddddddddddddddggff",
"..aaddddddddddddddddddddddddddddddddddddddddddddddddddddggff",
"..aaddddddddddddddddddddddddddddddddddddddddddddddddddddggff",
"..aaddddddddddddddddddddddddddddddddddddddddddddddddddddggff",
"..aaddddddddddddddddddddddddddddddddddddddddddddddddddddggff",
"..aaddddddddddddddddddddddddddddddddddddddddddddddddddddggff",
"..aaddddddddddddddddddddddddddddddddddddddddddddddddddddggff",
"..aaddddddddddddddddddddddddddddddddddddddddddddddddddddggff",
"..aaddddddddddddddddddddddddddddddddddddddddddddddddddddggff",
"..aaddddddddddddddddddddddddddddddddddddddddddddddddddddggff",
"..aaddddddddddddddddddddhhhhhhhhhhhhddddddddddddddddddddggff",
"..aaddddddddddddddddddddhhhhhhhhhhhhddddddddddddddddddddggff",
"..aaddddddddddddddddddhhhhhhhhhhhhhhhhddddddddddddddddddggff",
"..aaddddddddddddddddddhhhhhhhhhhhhhhhhddddddddddddddddddggff",
"..aaddddddddddddddddhhhhhhhhhhhhhhhhhhhhddddddddddddddddggff",
"..aaddddddddddddddddhhhhhhhhhhhhhhhhhhhhddddddddddddddddggff",
"..aaddddddddddddddddhhhhhhhhddddhhhhhhhhddddddddddddddddggff",
"..aaddddddddddddddddhhhhhhhhddddhhhhhhhhddddddddddddddddggff",
"..aaddddddddddddddddhhhhhhddddddddhhhhhhddddddddddddddddggff",
"..aaddddddddddddddddhhhhhhddddddddhhhhhhddddddddddddddddggff",
"..aaddddddddddddddddhhhhhhddddddddhhhhhhddddddddddddddddggff",
"..aaddddddddddddddddhhhhhhddddddddhhhhhhddddddddddddddddggff",
"..aaddddddddddddddddhhhhhhddddddddhhhhhhddddddddddddddddggff",
"..aaddddddddddddddddhhhhhhddddddddhhhhhhddddddddddddddddggff",
"..aaddddddddddddhhhhhhhhhhhhhhhhhhhhhhhhhhhhddddddddddddggff",
"..aaddddddddddddhhhhhhhhhhhhhhhhhhhhhhhhhhhhddddddddddddggff",
"..aaddddddddddhhhhhhhhhhhhhhhhhhhhhhhhhhhhhhhhddddddddddggff",
"..aaddddddddddhhhhhhhhhhhhhhhhhhhhhhhhhhhhhhhhddddddddddggff",
"..aaddddddddddhhhhhhhhddddddddddddddddhhhhhhhhddddddddddggff",
"..aaddddddddddhhhhhhhhddddddddddddddddhhhhhhhhddddddddddggff",
"..aaddddddddddhhhhhhddddddddhhhhddddddddhhhhhhddddddddddggff",
"..aaddddddddddhhhhhhddddddddhhhhddddddddhhhhhhddddddddddggff",
"..aaddddddddddhhhhhhddddddddhhhhddddddddhhhhhhddddddddddggff",
"..aaddddddddddhhhhhhddddddddhhhhddddddddhhhhhhddddddddddggff",
"..aaddddddddddhhhhhhhhddddddddddddddddhhhhhhhhddddddddddggff",
"..aaddddddddddhhhhhhhhddddddddddddddddhhhhhhhhddddddddddggff",
"..aaddddddddddhhhhhhhhhhhhhhhhhhhhhhhhhhhhhhhhddddddddddggff",
"..aaddddddddddhhhhhhhhhhhhhhhhhhhhhhhhhhhhhhhhddddddddddggff",
"..aaddddddddddddhhhhhhhhhhhhhhhhhhhhhhhhhhhhddddddddddddggff",
"..aaddddddddddddhhhhhhhhhhhhhhhhhhhhhhhhhhhhddddddddddddggff",
"..aaddddddddddddddddddddddddddddddddddddddddddddddddddddggff",
"..aaddddddddddddddddddddddddddddddddddddddddddddddddddddggff",
"..aaddddddddddddddddddddddddddddddddddddddddddddddddddddggff",
"..aaddddddddddddddddddddddddddddddddddddddddddddddddddddggff",
"..aaddddddddddddddddddddddddddddddddddddddddddddddddddddggff",
"..aaddddddddddddddddddddddddddddddddddddddddddddddddddddggff",
"..aaddddddddddddddddddddddddddddddddddddddddddddddddddddggff",
"..aaddddddddddddddddddddddddddddddddddddddddddddddddddddggff",
"..aaddddddddddddddddddddddddddddddddddddddddddddddddddddggff",
"..aaddddddddddddddddddddddddddddddddddddddddddddddddddddggff",
"..aaiiggggggggggggggggggggggggggggggggggggggggggggggggggggff",
"..aaiiggggggggggggggggggggggggggggggggggggggggggggggggggggff",
"aajjffffffffffffffffffffffffffffffffffffffffffffffffffffffff",
"aajjffffffffffffffffffffffffffffffffffffffffffffffffffffffff"};
